<?xml version="1.0" encoding="UTF-8" standalone="no"?>
<!-- Created with Inkscape (http://www.inkscape.org/) -->

<svg
   width="34.450253mm"
   height="29.999912mm"
   viewBox="0 0 34.450252 29.999912"
   version="1.1"
   id="svg1"
   xml:space="preserve"
   inkscape:version="1.3 (1:1.3+202307231459+0e150ed6c4)"
   sodipodi:docname="fabi 2.svg"
   xmlns:inkscape="http://www.inkscape.org/namespaces/inkscape"
   xmlns:sodipodi="http://sodipodi.sourceforge.net/DTD/sodipodi-0.dtd"
   xmlns="http://www.w3.org/2000/svg"
   xmlns:svg="http://www.w3.org/2000/svg"><sodipodi:namedview
     id="namedview1"
     pagecolor="#ffffff"
     bordercolor="#666666"
     borderopacity="1.0"
     inkscape:showpageshadow="2"
     inkscape:pageopacity="0.0"
     inkscape:pagecheckerboard="0"
     inkscape:deskcolor="#d1d1d1"
     inkscape:document-units="mm"
     inkscape:zoom="4"
     inkscape:cx="152.125"
     inkscape:cy="54.5"
     inkscape:window-width="1920"
     inkscape:window-height="1136"
     inkscape:window-x="0"
     inkscape:window-y="27"
     inkscape:window-maximized="1"
     inkscape:current-layer="layer1" /><defs
     id="defs1" /><g
     inkscape:label="Layer 1"
     inkscape:groupmode="layer"
     id="layer1"
     transform="translate(-58.192888,-87.183765)"><path
       id="path2"
       style="fill:#000000;fill-opacity:0.87451;fill-rule:evenodd;stroke:none;stroke-width:0.264583;stroke-linecap:round;stroke-linejoin:round;stroke-miterlimit:2;paint-order:stroke fill markers"
       d="m 77.093665,111.62495 c -0.237063,2.07078 -1.503309,3.67169 -3.712998,3.67169 -2.209691,0 -3.383368,-1.46226 -3.563767,-3.53874 -0.217562,-2.50423 1.463631,-3.4325 3.67332,-3.4325 2.20969,0 3.878406,0.89769 3.603445,3.29955 z"
       sodipodi:nodetypes="sssss" /><path
       id="path4"
       style="fill:#000000;fill-opacity:0.87451;fill-rule:evenodd;stroke:none;stroke-width:0.264583;stroke-linecap:round;stroke-linejoin:round;stroke-miterlimit:2;paint-order:stroke fill markers"
       d="m 80.490256,96.280922 a 1.566861,1.5306423 0 0 0 -1.566933,1.530632 1.566861,1.5306423 0 0 0 1.566933,1.530636 1.566861,1.5306423 0 0 0 1.566934,-1.530636 1.566861,1.5306423 0 0 0 -1.566934,-1.530632 z m -13.089462,0.498431 a 1.566861,1.5306423 0 0 0 -1.566769,1.530633 1.566861,1.5306423 0 0 0 1.566769,1.530633 1.566861,1.5306423 0 0 0 1.566934,-1.530633 1.566861,1.5306423 0 0 0 -1.566934,-1.530633 z" /><path
       id="path6"
       style="fill:#4d4d4d;fill-opacity:0.87451;fill-rule:evenodd;stroke:none;stroke-width:0.264583;stroke-linecap:round;stroke-linejoin:round;stroke-miterlimit:2;paint-order:stroke fill markers"
       d="m 80.9036,95.145663 c -0.07175,-0.0019 -0.143314,9.59e-4 -0.214359,0.0088 -1.663768,0.181469 -2.653847,1.553729 -2.805307,2.713785 -0.206852,1.584326 1.105096,2.560022 2.740192,2.560032 1.635093,0 2.472619,-1.069294 2.472619,-2.66705 0,-1.497894 -1.116922,-2.587343 -2.193145,-2.615521 z m -13.65403,0.82758 c -1.527721,0.0097 -1.950527,1.075119 -1.950528,2.324027 10e-7,1.289189 0.759189,2.45433 2.078614,2.45433 1.319425,0 2.027736,-1.12603 1.980607,-2.414366 -0.07668,-2.096149 -1.921044,-2.360236 -1.957469,-2.361514 -0.0516,-0.0019 -0.101942,-0.0029 -0.151224,-0.0026 z m 13.240686,0.307679 a 1.566861,1.5306423 0 0 1 1.566934,1.530632 1.566861,1.5306423 0 0 1 -1.566934,1.530636 1.566861,1.5306423 0 0 1 -1.566933,-1.530636 1.566861,1.5306423 0 0 1 1.566933,-1.530632 z m -13.089462,0.498431 a 1.566861,1.5306423 0 0 1 1.566934,1.530633 1.566861,1.5306423 0 0 1 -1.566934,1.530633 1.566861,1.5306423 0 0 1 -1.566769,-1.530633 1.566861,1.5306423 0 0 1 1.566769,-1.530633 z" /><path
       id="path8"
       style="fill:#9d7f64;fill-opacity:0.87450981;stroke:none;stroke-width:0.264583px;stroke-linecap:butt;stroke-linejoin:miter;stroke-opacity:1"
       d="m 83.069641,87.317767 c -0.04806,-0.0025 -0.09595,-0.0016 -0.143951,0.0025 -0.672042,0.05686 -1.372992,0.717984 -3.065282,0.881088 -0.985896,0.09502 -1.982138,-0.01409 -2.973225,-0.115276 0.647953,5.240129 -2.941368,5.749251 -2.355773,8.632521 0.819446,4.03468 3.963292,2.103257 5.547486,7.74648 1.037416,3.69546 2.150376,5.61583 3.73149,6.72864 0.597364,-1.44075 0.867748,-2.83568 1.257051,-4.36234 0.50337,-1.97399 1.462689,-2.57437 1.67816,-4.2132 0.09026,-0.68647 -0.184759,-1.3471 -0.247904,-1.99025 -0.09142,-0.931139 -0.04984,-1.824954 0.182789,-2.66342 0.05547,-0.199916 0.968591,-0.279609 1.149954,-0.200165 0.01023,0.0045 0.02415,0.02234 0.03603,0.03303 -1.637591,-5.121857 -4.13105,-7.729527 -4.073105,-10.3108 -0.180429,-0.05643 -0.370091,-0.108266 -0.578613,-0.150454 -0.04882,-0.0099 -0.09705,-0.01582 -0.145108,-0.01833 z m -11.892405,1.214201 c -0.802538,0.187561 -1.598023,0.367299 -2.720857,0.461601 -1.038101,0.08719 -1.868096,0.01116 -2.591779,-0.054 -0.810546,3.844307 -3.54002,3.237029 -5.182238,7.787434 0.147935,0.143947 -0.138401,0.874794 0.120814,1.554746 0.160131,0.420043 0.476208,0.251881 0.713309,0.694797 0.204562,0.38213 -0.15789,1.473654 0.141637,1.853174 0.195838,0.24814 0.813015,0.13417 1.048645,0.5929 0.342507,0.66679 0.29671,1.6959 0.610841,2.75523 0.281909,0.95069 0.936983,1.90126 1.031292,3.04493 4.373876,-0.43935 3.155254,-3.57542 5.467494,-5.32899 3.561317,-2.700815 3.93951,-5.852581 1.360842,-13.361817 z m 9.726364,6.613695 c 1.076219,0.02819 2.193145,1.117627 2.193145,2.615521 0,1.597756 -0.837529,2.667046 -2.472619,2.667046 -1.635096,0 -2.947044,-0.975702 -2.740192,-2.560029 0.15146,-1.160052 1.141542,-2.532315 2.805307,-2.713785 0.07104,-0.0077 0.142611,-0.01064 0.214359,-0.0088 z m -13.65403,0.82758 c 0.04928,-3.1e-4 0.09962,6.39e-4 0.151224,0.0026 0.03642,0.0013 1.880789,0.265368 1.957469,2.361514 0.04713,1.288336 -0.661184,2.414363 -1.980607,2.414363 -1.319423,0 -2.078613,-1.165142 -2.078614,-2.454328 10e-7,-1.248908 0.422809,-2.314387 1.950528,-2.324026 z"
       sodipodi:nodetypes="ccscsscsssssccsccsccsssssccccsssscscssss" /><path
       id="path10"
       style="fill:#432b17;fill-opacity:0.87450981;stroke:none;stroke-width:0.264583px;stroke-linecap:butt;stroke-linejoin:miter;stroke-opacity:1"
       d="m 83.793362,87.486553 c -0.05795,2.581303 2.435514,5.188996 4.073105,10.310965 0.394595,0.355498 1.672125,4.009812 2.273467,3.311302 0.580299,-0.67406 -0.651103,-1.609954 1.257547,-3.751268 0.695997,-0.780837 1.24124,-2.100496 1.081532,-2.417171 -0.644803,-1.278544 -2.772177,-2.315708 -4.886897,-3.917253 -1.345967,-1.019344 -1.500513,-2.817863 -3.798754,-3.536575 z m -19.165981,1.385794 c -0.334553,0.008 -0.653114,0.05042 -0.969975,0.154583 -1.114097,0.366228 -2.555198,1.629268 -3.330376,3.079762 -0.885763,1.65742 -1.461448,3.738079 -1.700308,5.635994 -0.18848,1.497609 -0.470904,2.572484 -0.167585,2.544014 1.907703,-0.17917 1.145854,-3.539667 2.14687,-3.586455 0.03396,-0.0016 0.0579,0.0087 0.07635,0.02675 1.642547,-4.551319 4.372788,-3.942734 5.182733,-7.789581 -0.443056,-0.0399 -0.857116,-0.07414 -1.237714,-0.06507 z" /><path
       style="fill:none;stroke:#000000;stroke-width:0.264583px;stroke-linecap:butt;stroke-linejoin:miter;stroke-opacity:1"
       d="m 63.657396,89.026849 c 1.267448,-0.416637 2.562026,0.154572 4.798947,-0.0333 2.315143,-0.194438 3.247366,-0.748065 5.691873,-0.997166 1.868168,-0.190371 3.809446,0.388317 5.712112,0.204936 1.934057,-0.186406 2.573305,-1.02324 3.354357,-0.865221 2.864592,0.579552 2.925754,2.587596 4.377393,3.686968 2.114722,1.601548 4.24211,2.638824 4.886913,3.917367 0.159708,0.316678 -0.385517,1.636254 -1.081513,2.417091 -1.90865,2.141317 -0.677258,3.077196 -1.257556,3.751266 -0.61949,0.71958 -1.959544,-3.191096 -2.309512,-3.344393 -0.181363,-0.07944 -1.094452,2.33e-4 -1.149918,0.200149 -0.23263,0.838478 -0.274191,1.732243 -0.182774,2.663374 0.06315,0.64317 0.338119,1.30376 0.247863,1.99023 -0.215471,1.63883 -1.174749,2.23921 -1.678118,4.21321 -0.561151,2.20057 -0.858759,4.12502 -2.275697,6.31209 -2.813057,4.34199 -6.911856,3.91766 -10.013238,3.87919 -2.798279,-0.0347 -5.948904,-0.59991 -7.48668,-5.0781 -0.412252,-1.20053 -0.801952,-3.01207 -0.942933,-4.72172 -0.09431,-1.14368 -0.749466,-2.09425 -1.031376,-3.04493 -0.314132,-1.05935 -0.26827,-2.08846 -0.610779,-2.75526 -0.235631,-0.45873 -0.852869,-0.34477 -1.048708,-0.59291 -0.299529,-0.37951 0.06293,-1.470971 -0.141636,-1.853101 -0.237102,-0.442916 -0.553026,-0.274757 -0.713159,-0.6948 -0.291521,-0.764695 0.108282,-1.595906 -0.197306,-1.581623 -1.001017,0.04679 -0.239132,3.407394 -2.146838,3.586564 -0.303319,0.0285 -0.02093,-1.046492 0.167552,-2.544102 0.23886,-1.897917 0.814666,-3.978621 1.70043,-5.636041 0.775179,-1.450497 2.216204,-2.713541 3.330301,-3.07977 z"
       id="path1"
       sodipodi:nodetypes="ssssssssssssssssssssssssssss" /></g></svg>
