<?xml version="1.0" encoding="UTF-8" standalone="no"?>
<!-- Created with Inkscape (http://www.inkscape.org/) -->

<svg
   width="255.47113mm"
   height="60.00037mm"
   viewBox="0 0 255.47114 60.00037"
   version="1.1"
   id="svg1"
   inkscape:version="1.3 (1:1.3+202307231459+0e150ed6c4)"
   sodipodi:docname="coffee holder.svg"
   xmlns:inkscape="http://www.inkscape.org/namespaces/inkscape"
   xmlns:sodipodi="http://sodipodi.sourceforge.net/DTD/sodipodi-0.dtd"
   xmlns="http://www.w3.org/2000/svg"
   xmlns:svg="http://www.w3.org/2000/svg">
  <sodipodi:namedview
     id="namedview1"
     pagecolor="#ffffff"
     bordercolor="#666666"
     borderopacity="1.0"
     inkscape:showpageshadow="2"
     inkscape:pageopacity="0.0"
     inkscape:pagecheckerboard="0"
     inkscape:deskcolor="#d1d1d1"
     inkscape:document-units="mm"
     inkscape:zoom="2.3584511"
     inkscape:cx="105.57777"
     inkscape:cy="119.57"
     inkscape:window-width="1920"
     inkscape:window-height="1136"
     inkscape:window-x="0"
     inkscape:window-y="27"
     inkscape:window-maximized="1"
     inkscape:current-layer="layer1"
     showguides="true">
    <sodipodi:guide
       position="255.3388,59.867707"
       orientation="1,0"
       id="guide89"
       inkscape:locked="false" />
    <sodipodi:guide
       position="251.09872,56.867501"
       orientation="0,-1"
       id="guide90"
       inkscape:locked="false" />
    <sodipodi:guide
       position="251.09872,3.132085"
       orientation="0,-1"
       id="guide91"
       inkscape:locked="false" />
    <sodipodi:guide
       position="0.13249995,59.8675"
       orientation="1,0"
       id="guide92"
       inkscape:locked="false" />
    <sodipodi:guide
       position="249.59429,45.683647"
       orientation="0,-1"
       id="guide93"
       inkscape:locked="false" />
    <sodipodi:guide
       position="249.59429,14.315939"
       orientation="0,-1"
       id="guide94"
       inkscape:locked="false" />
  </sodipodi:namedview>
  <defs
     id="defs1" />
  <g
     inkscape:label="Layer 1"
     inkscape:groupmode="layer"
     id="layer1"
     transform="translate(-11.12916,-45.62732)">
    <path
       id="rect1"
       style="fill:none;fill-opacity:0.87451;fill-rule:evenodd;stroke:#000000;stroke-width:0.26458333;stroke-linecap:round;stroke-linejoin:miter;stroke-miterlimit:2;stroke-dasharray:none;paint-order:stroke fill markers"
       d="M 11.26166,45.75982 V 59.94345 L 13.864602,48.759637 V 102.49537 L 11.26166,91.311561 V 105.49519 H 13.864602 263.73255 V 91.311561 l 2.73524,11.183809 V 48.759637 L 263.73255,59.94345 V 45.75982 H 13.864602 Z" />
    <path
       style="fill:none;stroke:#000000;stroke-width:0.26458333;stroke-dasharray:none"
       d="m 13.996894,45.759819 v 14.183854 m 0,3 v 25.367708 m 0,3 v 14.183859 m 3.00886,-59.735421 v 14.183854 m 0,3 v 25.367708 m 0,3 v 14.183859 m 3.008861,-59.735421 v 14.183854 m 0,3 v 25.367708 m 0,3 v 14.183859 m 3.00886,-59.735421 v 14.183854 m 0,3 v 25.367708 m 0,3 v 14.183859 m 3.00886,-59.735421 v 14.183854 m 0,3 v 25.367708 m 0,3 v 14.183859 m 3.008861,-59.735421 v 14.183854 m 0,3 v 25.367708 m 0,3 v 14.183859 m 3.00886,-59.735421 v 14.183854 m 0,3 v 25.367708 m 0,3 v 14.183859 m 3.008861,-59.735421 v 14.183854 m 0,3 v 25.367708 m 0,3 v 14.183859 m 3.00886,-59.735421 v 14.183854 m 0,3 v 25.367708 m 0,3 v 14.183859 m 3.00886,-59.735421 v 14.183854 m 0,3 v 25.367708 m 0,3 v 14.183859 m 3.008861,-59.735421 v 14.183854 m 0,3 v 25.367708 m 0,3 v 14.183859 m 3.00886,-59.735421 v 14.183854 m 0,3 v 25.367708 m 0,3 v 14.183859 m 3.00886,-59.735421 v 14.183854 m 0,3 v 25.367708 m 0,3 v 14.183859 m 3.008861,-59.735421 v 14.183854 m 0,3 v 25.367708 m 0,3 v 14.183859 m 3.00886,-59.735421 v 14.183854 m 0,3 v 25.367708 m 0,3 v 14.183859 m 3.00886,-59.735421 v 14.183854 m 0,3 v 25.367708 m 0,3 V 105.49524 M 62.13866,45.759819 v 14.183854 m 0,3 v 25.367708 m 0,3 v 14.183859 m 3.00886,-59.735421 v 14.183854 m 0,3 v 25.367708 m 0,3 v 14.183859 m 3.008861,-59.735421 v 14.183854 m 0,3 v 25.367708 m 0,3 v 14.183859 m 3.00886,-59.735421 v 14.183854 m 0,3 v 25.367708 m 0,3 v 14.183859 m 3.00886,-59.735421 v 14.183854 m 0,3 v 25.367708 m 0,3 v 14.183859 m 3.008861,-59.735421 v 14.183854 m 0,3 v 25.367708 m 0,3 v 14.183859 m 3.00886,-59.735421 v 14.183854 m 0,3 v 25.367708 m 0,3 v 14.183859 m 3.00886,-59.735421 v 14.183854 m 0,3 v 25.367708 m 0,3 v 14.183859 m 3.008861,-59.735421 v 14.183854 m 0,3 v 25.367708 m 0,3 v 14.183859 m 3.00886,-59.735421 v 14.183854 m 0,3 v 25.367708 m 0,3 v 14.183859 m 3.00886,-59.735421 v 14.183854 m 0,3 v 25.367708 m 0,3 v 14.183859 m 3.008861,-59.735421 v 14.183854 m 0,3 v 25.367708 m 0,3 v 14.183859 m 3.00886,-59.735421 v 14.183854 m 0,3 v 25.367708 m 0,3 v 14.183859 m 3.008856,-59.735421 v 14.183854 m 0,3 v 25.367708 m 0,3 v 14.183859 m 3.00886,-59.735421 v 14.183854 m 0,3 v 25.367708 m 0,3 v 14.183859 m 3.00887,-59.735421 v 14.183854 m 0,3 v 25.367708 m 0,3 v 14.183859 m 3.00886,-59.735421 v 14.183854 m 0,3 v 25.367708 m 0,3 v 14.183859 m 3.00886,-59.735421 v 14.183854 m 0,3 v 25.367708 m 0,3 v 14.183859 m 3.00886,-59.735421 v 14.183854 m 0,3 v 25.367708 m 0,3 v 14.183859 m 3.00886,-59.735421 v 14.183854 m 0,3 v 25.367708 m 0,3 v 14.183859 m 3.00886,-59.735421 v 14.183854 m 0,3 v 25.367708 m 0,3 v 14.183859 m 3.00886,-59.735421 v 14.183854 m 0,3 v 25.367708 m 0,3 v 14.183859 m 3.00886,-59.735421 v 14.183854 m 0,3 v 25.367708 m 0,3 v 14.183859 m 3.00886,-59.735421 v 14.183854 m 0,3 v 25.367708 m 0,3 v 14.183859 m 3.00886,-59.735421 v 14.183854 m 0,3 v 25.367708 m 0,3 v 14.183859 m 3.00886,-59.735421 v 14.183854 m 0,3 v 25.367708 m 0,3 v 14.183859 m 3.00886,-59.735421 v 14.183854 m 0,3 v 25.367708 m 0,3 v 14.183859 m 3.00886,-59.735421 v 14.183854 m 0,3 v 25.367708 m 0,3 v 14.183859 m 3.00886,-59.735421 v 14.183854 m 0,3 v 25.367708 m 0,3 v 14.183859 m 3.00886,-59.735421 v 14.183854 m 0,3 v 25.367708 m 0,3 v 14.183859 m 3.00886,-59.735421 v 14.183854 m 0,3 v 25.367708 m 0,3 v 14.183859 m 3.00886,-59.735421 v 14.183854 m 0,3 v 25.367708 m 0,3 v 14.183859 m 3.00886,-59.735421 v 14.183854 m 0,3 v 25.367708 m 0,3 v 14.183859 m 3.00886,-59.735421 v 14.183854 m 0,3 v 25.367708 m 0,3 v 14.183859 m 3.00886,-59.735421 v 14.183854 m 0,3 v 25.367708 m 0,3 v 14.183859 m 3.00886,-59.735421 v 14.183854 m 0,3 v 25.367708 m 0,3 v 14.183859 m 3.00886,-59.735421 v 14.183854 m 0,3 v 25.367708 m 0,3 v 14.183859 m 3.00886,-59.735421 v 14.183854 m 0,3 v 25.367708 m 0,3 v 14.183859 m 3.00886,-59.735421 v 14.183854 m 0,3 v 25.367708 m 0,3 v 14.183859 m 3.00886,-59.735421 v 14.183854 m 0,3 v 25.367708 m 0,3 v 14.183859 m 3.00886,-59.735421 v 14.183854 m 0,3 v 25.367708 m 0,3 v 14.183859 m 3.00886,-59.735421 v 14.183854 m 0,3 v 25.367708 m 0,3 v 14.183859 m 3.00886,-59.735421 v 14.183854 m 0,3 v 25.367708 m 0,3 v 14.183859 m 3.00887,-59.735421 v 14.183854 m 0,3 v 25.367708 m 0,3 v 14.183859 m 3.00886,-59.735421 v 14.183854 m 0,3 v 25.367708 m 0,3 v 14.183859 m 3.00886,-59.735421 v 14.183854 m 0,3 v 25.367708 m 0,3 v 14.183859 m 3.00886,-59.735421 v 14.183854 m 0,3 v 25.367708 m 0,3 v 14.183859 m 3.00886,-59.735421 v 14.183854 m 0,3 v 25.367708 m 0,3 v 14.183859 m 3.00886,-59.735421 v 14.183854 m 0,3 v 25.367708 m 0,3 v 14.183859 m 3.00886,-59.735421 v 14.183854 m 0,3 v 25.367708 m 0,3 v 14.183859 m 3.00886,-59.735421 v 14.183854 m 0,3 v 25.367708 m 0,3 v 14.183859 m 3.00886,-59.735421 v 14.183854 m 0,3 v 25.367708 m 0,3 v 14.183859 m 3.00886,-59.735421 v 14.183854 m 0,3 v 25.367708 m 0,3 v 14.183859 m 3.00886,-59.735421 v 14.183854 m 0,3 v 25.367708 m 0,3 v 14.183859 m 3.00886,-59.735421 v 14.183854 m 0,3 v 25.367708 m 0,3 v 14.183859 m 3.00886,-59.735421 v 14.183854 m 0,3 v 25.367708 m 0,3 v 14.183859 m 3.00886,-59.735421 v 14.183854 m 0,3 v 25.367708 m 0,3 v 14.183859 m 3.00886,-59.735421 v 14.183854 m 0,3 v 25.367708 m 0,3 v 14.183859 m 3.00886,-59.735421 v 14.183854 m 0,3 v 25.367708 m 0,3 v 14.183859 m 3.00886,-59.735421 v 14.183854 m 0,3 v 25.367708 m 0,3 v 14.183859 m 3.00886,-59.735421 v 14.183854 m 0,3 v 25.367708 m 0,3 v 14.183859 m 3.00886,-59.735421 v 14.183854 m 0,3 v 25.367708 m 0,3 V 105.49524 M 248.688,45.759819 v 14.183854 m 0,3 v 25.367708 m 0,3 v 14.183859 m 3.00886,-59.735421 v 14.183854 m 0,3 v 25.367708 m 0,3 v 14.183859 m 3.00886,-59.735421 v 14.183854 m 0,3 v 25.367708 m 0,3 v 14.183859 m 3.00886,-59.735421 v 14.183854 m 0,3 v 25.367708 m 0,3 v 14.183859 m 3.00886,-59.735421 v 14.183854 m 0,3 v 25.367708 m 0,3 v 14.183859 m 3.00886,-59.735421 v 14.183854 m 0,3 v 25.367708 m 0,3 V 105.49524 M 15.501324,48.759819 v 25.367708 m 0,3 v 25.367713 m 3.008861,-53.735421 v 25.367708 m 0,3 v 25.367713 m 3.00886,-53.735421 v 25.367708 m 0,3 v 25.367713 m 3.00886,-53.735421 v 25.367708 m 0,3 v 25.367713 m 3.008861,-53.735421 v 25.367708 m 0,3 v 25.367713 m 3.00886,-53.735421 v 25.367708 m 0,3 v 25.367713 m 3.00886,-53.735421 v 25.367708 m 0,3 v 25.367713 m 3.008861,-53.735421 v 25.367708 m 0,3 v 25.367713 m 3.00886,-53.735421 v 25.367708 m 0,3 v 25.367713 m 3.00886,-53.735421 v 25.367708 m 0,3 v 25.367713 m 3.008861,-53.735421 v 25.367708 m 0,3 v 25.367713 m 3.00886,-53.735421 v 25.367708 m 0,3 v 25.367713 m 3.008861,-53.735421 v 25.367708 m 0,3 v 25.367713 m 3.00886,-53.735421 v 25.367708 m 0,3 v 25.367713 m 3.00886,-53.735421 v 25.367708 m 0,3 V 102.49524 M 60.63423,48.759819 v 25.367708 m 0,3 v 25.367713 m 3.00886,-53.735421 v 25.367708 m 0,3 v 25.367713 m 3.00886,-53.735421 v 25.367708 m 0,3 v 25.367713 m 3.008861,-53.735421 v 25.367708 m 0,3 v 25.367713 m 3.00886,-53.735421 v 25.367708 m 0,3 v 25.367713 m 3.00886,-53.735421 v 25.367708 m 0,3 v 25.367713 m 3.008861,-53.735421 v 25.367708 m 0,3 v 25.367713 m 3.00886,-53.735421 v 25.367708 m 0,3 v 25.367713 m 3.00886,-53.735421 v 25.367708 m 0,3 v 25.367713 m 3.008861,-53.735421 v 25.367708 m 0,3 v 25.367713 m 3.00886,-53.735421 v 25.367708 m 0,3 v 25.367713 m 3.008861,-53.735421 v 25.367708 m 0,3 v 25.367713 m 3.00886,-53.735421 v 25.367708 m 0,3 v 25.367713 m 3.00886,-53.735421 v 25.367708 m 0,3 v 25.367713 m 3.008856,-53.735421 v 25.367708 m 0,3 v 25.367713 m 3.00887,-53.735421 v 25.367708 m 0,3 V 102.49524 M 108.776,48.759819 v 25.367708 m 0,3 v 25.367713 m 3.00886,-53.735421 v 25.367708 m 0,3 v 25.367713 m 3.00886,-53.735421 v 25.367708 m 0,3 v 25.367713 m 3.00886,-53.735421 v 25.367708 m 0,3 v 25.367713 m 3.00886,-53.735421 v 25.367708 m 0,3 v 25.367713 m 3.00886,-53.735421 v 25.367708 m 0,3 v 25.367713 m 3.00886,-53.735421 v 25.367708 m 0,3 v 25.367713 m 3.00886,-53.735421 v 25.367708 m 0,3 v 25.367713 m 3.00886,-53.735421 v 25.367708 m 0,3 v 25.367713 m 3.00886,-53.735421 v 25.367708 m 0,3 v 25.367713 m 3.00886,-53.735421 v 25.367708 m 0,3 v 25.367713 m 3.00886,-53.735421 v 25.367708 m 0,3 v 25.367713 m 3.00886,-53.735421 v 25.367708 m 0,3 v 25.367713 m 3.00886,-53.735421 v 25.367708 m 0,3 v 25.367713 m 3.00886,-53.735421 v 25.367708 m 0,3 v 25.367713 m 3.00886,-53.735421 v 25.367708 m 0,3 v 25.367713 m 3.00886,-53.735421 v 25.367708 m 0,3 v 25.367713 m 3.00886,-53.735421 v 25.367708 m 0,3 v 25.367713 m 3.00886,-53.735421 v 25.367708 m 0,3 v 25.367713 m 3.00886,-53.735421 v 25.367708 m 0,3 v 25.367713 m 3.00886,-53.735421 v 25.367708 m 0,3 v 25.367713 m 3.00886,-53.735421 v 25.367708 m 0,3 v 25.367713 m 3.00886,-53.735421 v 25.367708 m 0,3 v 25.367713 m 3.00886,-53.735421 v 25.367708 m 0,3 v 25.367713 m 3.00886,-53.735421 v 25.367708 m 0,3 v 25.367713 m 3.00886,-53.735421 v 25.367708 m 0,3 v 25.367713 m 3.00886,-53.735421 v 25.367708 m 0,3 v 25.367713 m 3.00887,-53.735421 v 25.367708 m 0,3 v 25.367713 m 3.00886,-53.735421 v 25.367708 m 0,3 v 25.367713 m 3.00886,-53.735421 v 25.367708 m 0,3 v 25.367713 m 3.00886,-53.735421 v 25.367708 m 0,3 v 25.367713 m 3.00886,-53.735421 v 25.367708 m 0,3 v 25.367713 m 3.00886,-53.735421 v 25.367708 m 0,3 v 25.367713 m 3.00886,-53.735421 v 25.367708 m 0,3 v 25.367713 m 3.00886,-53.735421 v 25.367708 m 0,3 v 25.367713 m 3.00886,-53.735421 v 25.367708 m 0,3 v 25.367713 m 3.00886,-53.735421 v 25.367708 m 0,3 v 25.367713 m 3.00886,-53.735421 v 25.367708 m 0,3 v 25.367713 m 3.00886,-53.735421 v 25.367708 m 0,3 v 25.367713 m 3.00886,-53.735421 v 25.367708 m 0,3 v 25.367713 m 3.00886,-53.735421 v 25.367708 m 0,3 v 25.367713 m 3.00886,-53.735421 v 25.367708 m 0,3 v 25.367713 m 3.00886,-53.735421 v 25.367708 m 0,3 v 25.367713 m 3.00886,-53.735421 v 25.367708 m 0,3 v 25.367713 m 3.00886,-53.735421 v 25.367708 m 0,3 v 25.367713 m 3.00886,-53.735421 v 25.367708 m 0,3 v 25.367713 m 3.00886,-53.735421 v 25.367708 m 0,3 v 25.367713 m 3.00886,-53.735421 v 25.367708 m 0,3 v 25.367713 m 3.00886,-53.735421 v 25.367708 m 0,3 v 25.367713 m 3.00886,-53.735421 v 25.367708 m 0,3 v 25.367713 m 3.00886,-53.735421 v 25.367708 m 0,3 v 25.367713 m 3.00886,-53.735421 v 25.367708 m 0,3 v 25.367713"
       id="path89">
      <desc
         id="desc89">Hinge cut parameters: actual(requested)&#10;cut length: 25.37 mm (20.00 mm)&#10;gap length: 3.00 mm (3.00 mm)&#10;separation distance: 1.50 mm (1.50 mm)</desc>
    </path>
  </g>
</svg>
