<?xml version="1.0" encoding="UTF-8" standalone="no"?>
<!-- Created with Inkscape (http://www.inkscape.org/) -->

<svg
   width="29.999805mm"
   height="26.464691mm"
   viewBox="0 0 29.999806 26.464691"
   version="1.1"
   id="svg1"
   xml:space="preserve"
   inkscape:version="1.3 (1:1.3+202307231459+0e150ed6c4)"
   sodipodi:docname="fabi.svg"
   xmlns:inkscape="http://www.inkscape.org/namespaces/inkscape"
   xmlns:sodipodi="http://sodipodi.sourceforge.net/DTD/sodipodi-0.dtd"
   xmlns="http://www.w3.org/2000/svg"
   xmlns:svg="http://www.w3.org/2000/svg"><sodipodi:namedview
     id="namedview1"
     pagecolor="#ffffff"
     bordercolor="#666666"
     borderopacity="1.0"
     inkscape:showpageshadow="2"
     inkscape:pageopacity="0.0"
     inkscape:pagecheckerboard="0"
     inkscape:deskcolor="#d1d1d1"
     inkscape:document-units="mm"
     showgrid="false"
     inkscape:zoom="5.6568542"
     inkscape:cx="91.216776"
     inkscape:cy="40.481864"
     inkscape:window-width="1920"
     inkscape:window-height="1136"
     inkscape:window-x="0"
     inkscape:window-y="27"
     inkscape:window-maximized="1"
     inkscape:current-layer="layer1" /><defs
     id="defs1" /><g
     inkscape:label="fabi"
     inkscape:groupmode="layer"
     id="layer1"
     transform="translate(-42.21376,-39.589469)"><path
       id="path3"
       style="opacity:1;fill:#432b17;stroke:none;stroke-width:0.264583;stroke-linecap:round;stroke-linejoin:round;stroke-dasharray:none;stroke-opacity:1;fill-opacity:0.87450981"
       d="M 61.689574 39.725895 C 61.669464 41.452292 64.396204 42.546662 64.328689 44.807755 C 64.186501 49.570011 65.331374 50.465162 67.054104 52.794865 C 67.372992 51.873197 67.698011 51.052133 68.245763 50.325765 C 70.080773 47.892382 72.134801 46.1468 72.080154 45.371028 C 72.011604 44.397869 69.619378 42.519018 66.329084 41.855481 C 64.183856 41.422864 62.731532 39.841061 61.689574 39.725895 z M 48.416482 41.14958 C 47.180559 41.17203 46.905741 41.737464 45.565493 42.327803 C 44.203873 42.927557 43.340417 42.401714 42.705203 43.2802 C 41.986781 44.273754 42.518874 45.053243 42.791503 46.309472 C 43.172827 48.06655 42.595431 49.067346 43.079857 49.330476 C 43.941289 49.798391 44.959888 46.388804 45.243549 46.842256 C 45.871984 44.662873 46.363817 46.187428 49.011278 41.174902 C 48.789593 41.154432 48.59304 41.14637 48.416482 41.14958 z "
       inkscape:label="ears" /><path
       id="path5"
       style="opacity:1;fill:#9d7f64;stroke:none;stroke-width:0.264583;stroke-linecap:round;stroke-linejoin:round;stroke-dasharray:none;stroke-opacity:1;fill-opacity:0.87450981"
       d="m 61.689483,39.725483 c -0.618033,-0.06831 -4.102735,1.090468 -6.814571,1.404565 -2.597057,0.300798 -4.401152,0.17947 -5.863725,0.04444 -2.647462,5.012526 -3.139294,3.488488 -3.767729,5.667871 0.844611,1.350171 1.416331,1.024337 1.590601,5.588806 0.08969,2.349275 1.485748,3.664106 1.904793,5.490621 1.75042,-0.691996 3.555698,-1.206612 4.129464,-2.9099 0.6096,-1.809667 0.57875,-3.34346 0.63562,-5.776392 0.07431,-3.178783 -0.44676,-5.929557 -0.320394,-6.154663 0.136124,-0.242496 1.10163,0.08872 2.438611,-0.130224 1.007773,-0.165029 2.651405,-1.028949 2.632914,-0.712618 -0.27534,4.710169 -3.787763,5.832521 -2.933154,9.254732 0.230319,0.922297 1.98597,1.691806 2.685624,3.68453 1.188231,3.384258 2.076189,3.87237 4.373893,4.821927 0.579446,-0.912798 1.63239,-0.67022 2.776575,-2.656685 1.014974,-1.762141 1.449252,-3.256779 1.896008,-4.548043 -1.722619,-2.329495 -2.867599,-3.224531 -2.725415,-7.986592 0.06752,-2.261089 -2.659224,-3.355983 -2.639115,-5.082377 z m -11.761039,9.963216 c 0.0571,6.9e-4 0.116256,0.0059 0.17725,0.0155 0.63429,0.100171 1.20251,0.684321 1.20251,1.356506 0,0.672185 -0.726499,1.027258 -1.37976,0.943095 -0.67328,-0.08674 -1.082675,-0.609519 -0.998389,-1.276408 0.08124,-0.642771 0.446435,-1.045372 0.998389,-1.038696 z m 9.376171,0.241845 c 0.661347,0.0023 1.331743,0.300904 1.343071,0.947746 0.01155,0.660221 -0.51238,1.220597 -1.415418,1.220598 -0.903042,10e-7 -1.519873,-0.465486 -1.342037,-1.18029 0.169988,-0.683267 0.589178,-0.945404 1.282609,-0.984436 0.04381,-0.0025 0.08769,-0.0038 0.131775,-0.0036 z"
       inkscape:label="face" /><path
       id="path7"
       style="opacity:1;fill:#000000;stroke:none;stroke-width:0.264583;stroke-linecap:round;stroke-linejoin:round;stroke-dasharray:none;stroke-opacity:1;paint-order:stroke fill markers"
       d="m 55.271789,62.021349 c 0,1.180194 -0.857781,2.130268 -2.33449,2.130269 -1.476708,10e-7 -2.648275,-0.835311 -2.648275,-2.015508 0,-1.180196 1.508575,-1.826185 2.985288,-1.826183 1.476709,0 1.997477,0.531227 1.997477,1.711422 z"
       sodipodi:nodetypes="sssss"
       inkscape:label="nose" /><path
       id="path8"
       style="opacity:1;fill:#000000;fill-rule:evenodd;stroke:none;stroke-width:0.264583;stroke-linecap:round;stroke-linejoin:round;stroke-miterlimit:2;stroke-dasharray:none;paint-order:stroke fill markers"
       d="m 49.928444,49.688699 c -0.551954,-0.0067 -0.917153,0.395924 -0.998389,1.038696 -0.08429,0.66689 0.325109,1.189668 0.998389,1.276408 0.653262,0.08416 1.37976,-0.270909 1.37976,-0.943095 0,-0.672186 -0.568219,-1.256335 -1.20251,-1.356506 -0.06099,-0.0096 -0.120152,-0.01481 -0.17725,-0.0155 z m 9.376171,0.241845 c -0.04409,-1.5e-4 -0.08796,0.0012 -0.131775,0.0036 -0.693432,0.03903 -1.112621,0.301169 -1.282609,0.984436 -0.177837,0.714805 0.438994,1.180291 1.342037,1.18029 0.903039,-10e-7 1.426968,-0.560377 1.415418,-1.220598 -0.01133,-0.646843 -0.681724,-0.945496 -1.343071,-0.947746 z"
       inkscape:label="eyes" /><path
       style="display:inline;opacity:1;fill:none;stroke:#000000;stroke-width:0.264583;stroke-linecap:round;stroke-linejoin:round;stroke-dasharray:none;stroke-opacity:1"
       d="m 43.079935,49.330419 c -0.484427,-0.263132 0.09276,-1.263624 -0.288568,-3.020706 -0.27263,-1.256232 -0.804726,-2.035888 -0.0863,-3.029444 0.635217,-0.878485 1.498797,-0.352765 2.860419,-0.952519 1.531718,-0.674675 1.672173,-1.316821 3.445662,-1.153092 1.462575,0.135025 3.266692,0.25613 5.86375,-0.04467 2.711853,-0.314097 6.196485,-1.472709 6.814518,-1.4044 1.04196,0.115167 2.494304,1.697281 4.639534,2.129898 3.290302,0.66354 5.682455,2.542515 5.751006,3.515676 0.05465,0.775774 -1.999029,2.521037 -3.834041,4.954425 -1.315152,1.74401 -1.348354,3.997435 -3.08772,7.017229 -1.144186,1.986474 -2.197064,1.743707 -2.77651,2.656509 -0.647809,1.020491 0.06546,2.247075 -0.695819,3.757685 -1.691598,3.356644 -5.368775,1.841073 -8.670283,1.716723 -2.893659,-0.108989 -5.121455,-0.450862 -5.474365,-3.225603 -0.426957,-3.356915 1.615474,-2.504697 1.19758,-4.326175 -0.419045,-1.826523 -1.814881,-3.141473 -1.904574,-5.490758 -0.17427,-4.564487 -0.746126,-4.238808 -1.590739,-5.588985 -0.283662,-0.453453 -1.302112,2.956122 -2.163546,2.488207 z"
       id="path1"
       sodipodi:nodetypes="sssssssssssssssssss"
       inkscape:label="contour" /></g></svg>
