<?xml version="1.0" encoding="UTF-8" standalone="no"?>
<svg
   xmlns:dc="http://purl.org/dc/elements/1.1/"
   xmlns:cc="http://creativecommons.org/ns#"
   xmlns:rdf="http://www.w3.org/1999/02/22-rdf-syntax-ns#"
   xmlns:svg="http://www.w3.org/2000/svg"
   xmlns="http://www.w3.org/2000/svg"
   xmlns:xlink="http://www.w3.org/1999/xlink"
   xmlns:sodipodi="http://sodipodi.sourceforge.net/DTD/sodipodi-0.dtd"
   xmlns:inkscape="http://www.inkscape.org/namespaces/inkscape"
   id="svg8"
   version="1.1"
   viewBox="0 0 100 150"
   height="150mm"
   width="100mm"
   sodipodi:docname="fernsehturm.svg"
   inkscape:version="1.0.1 (3bc2e813f5, 2020-09-07)">
  <defs
     id="defs2">
    <rect
       x="51.253267"
       y="48.010024"
       width="51.030652"
       height="45.229503"
       id="rect998" />
    <linearGradient
       inkscape:collect="always"
       id="skyfade">
      <stop
         style="stop-color:#000000;stop-opacity:1"
         offset="0"
         id="stop942" />
      <stop
         style="stop-color:#000200;stop-opacity:0"
         offset="1"
         id="stop940" />
    </linearGradient>
    <linearGradient
       inkscape:collect="always"
       id="electric_sunset">
      <stop
         style="stop-color:#54fcf4;stop-opacity:1"
         offset="0"
         id="stop924" />
      <stop
         style="stop-color:#2b5aaf;stop-opacity:1"
         offset="1"
         id="stop926" />
    </linearGradient>
    <linearGradient
       inkscape:collect="always"
       id="sunset_drive">
      <stop
         style="stop-color:#fc5457;stop-opacity:1"
         offset="0"
         id="stop1250" />
      <stop
         style="stop-color:#7a2baf;stop-opacity:1"
         offset="1"
         id="stop1248" />
    </linearGradient>
    <linearGradient
       inkscape:collect="always"
       id="electric_sunrise_drive">
      <stop
         style="stop-color:#3110de;stop-opacity:1"
         offset="0"
         id="stop1184" />
      <stop
         style="stop-color:#fc5457;stop-opacity:1"
         offset="1"
         id="stop1186" />
    </linearGradient>
    <linearGradient
       inkscape:collect="always"
       id="bulbfade">
      <stop
         style="stop-color:#7a2baf;stop-opacity:0"
         offset="0"
         id="stop1104" />
      <stop
         style="stop-color:#000000;stop-opacity:1"
         offset="1"
         id="stop1102" />
    </linearGradient>
    <linearGradient
       inkscape:collect="always"
       id="sunrise_drive">
      <stop
         style="stop-color:#7a2baf;stop-opacity:1"
         offset="0"
         id="stop1011" />
      <stop
         style="stop-color:#fc5457;stop-opacity:1"
         offset="1"
         id="stop1013" />
    </linearGradient>
    <linearGradient
       inkscape:collect="always"
       xlink:href="#sunrise_drive"
       id="linearGradient1009"
       x1="88.024498"
       y1="103.892"
       x2="89.629784"
       y2="142.73656"
       gradientUnits="userSpaceOnUse"
       gradientTransform="matrix(1.6645721,0,0,1.6645723,-114.41056,-92.339095)" />
    <linearGradient
       inkscape:collect="always"
       xlink:href="#sunrise_drive"
       id="linearGradient1035"
       x1="84.619492"
       y1="107.23539"
       x2="92.838371"
       y2="107.23539"
       gradientUnits="userSpaceOnUse"
       gradientTransform="matrix(1.6645721,0,0,1.6645723,-114.41056,-92.339095)" />
    <linearGradient
       inkscape:collect="always"
       xlink:href="#sunrise_drive"
       id="linearGradient1043"
       x1="86.656982"
       y1="109.26367"
       x2="92.895927"
       y2="109.26367"
       gradientUnits="userSpaceOnUse"
       gradientTransform="matrix(1.6645721,0,0,1.6645723,-114.41056,-92.339095)" />
    <radialGradient
       inkscape:collect="always"
       xlink:href="#sunrise_drive"
       id="radialGradient1092"
       gradientUnits="userSpaceOnUse"
       cx="86.629173"
       cy="96.807426"
       fx="86.629173"
       fy="96.807426"
       r="6.0036283"
       gradientTransform="matrix(2.4993356,0,0,2.4993356,-129.88621,-145.14683)" />
    <radialGradient
       inkscape:collect="always"
       xlink:href="#sunrise_drive"
       id="radialGradient1096"
       gradientUnits="userSpaceOnUse"
       cx="89.587151"
       cy="93.849472"
       fx="89.587151"
       fy="93.849472"
       r="3.7102423"
       gradientTransform="matrix(2.751691,0,0,2.7516913,-211.80245,-194.36464)" />
    <linearGradient
       inkscape:collect="always"
       xlink:href="#bulbfade"
       id="linearGradient1100"
       x1="92.736137"
       y1="90.333885"
       x2="76.337456"
       y2="106.86401"
       gradientUnits="userSpaceOnUse"
       gradientTransform="matrix(1.6645721,0,0,1.6645723,-114.41056,-92.339095)" />
    <radialGradient
       inkscape:collect="always"
       xlink:href="#sunrise_drive"
       id="radialGradient1118"
       cx="84.268013"
       cy="99.168579"
       fx="84.268013"
       fy="99.168579"
       r="9.7146091"
       gradientUnits="userSpaceOnUse"
       gradientTransform="matrix(3.8715548,0,0,3.8715559,-304.34956,-307.24157)" />
    <linearGradient
       inkscape:collect="always"
       xlink:href="#electric_sunrise_drive"
       id="linearGradient1142"
       gradientUnits="userSpaceOnUse"
       x1="84.619492"
       y1="107.23539"
       x2="92.838371"
       y2="107.23539"
       gradientTransform="matrix(1.6645721,0,0,1.0457004,-114.36266,-62.956498)" />
    <linearGradient
       inkscape:collect="always"
       xlink:href="#electric_sunrise_drive"
       id="linearGradient1166"
       gradientUnits="userSpaceOnUse"
       gradientTransform="matrix(1.6645721,0,0,1.0457004,-114.36266,-83.343588)"
       x1="84.619492"
       y1="107.23539"
       x2="92.838371"
       y2="107.23539" />
    <radialGradient
       inkscape:collect="always"
       xlink:href="#sunrise_drive"
       id="radialGradient1205"
       gradientUnits="userSpaceOnUse"
       gradientTransform="matrix(4.1603243,0,0,4.1603248,-330.61552,-333.94649)"
       cx="86.629173"
       cy="96.807426"
       fx="86.629173"
       fy="96.807426"
       r="6.0036283" />
    <radialGradient
       inkscape:collect="always"
       xlink:href="#sunset_drive"
       id="radialGradient1272"
       cx="252.23811"
       cy="212.26271"
       fx="252.23811"
       fy="212.26271"
       r="188.97656"
       gradientTransform="matrix(-0.18556613,1.2166483,-1.4323881,-0.21847764,566.81818,-217.06219)"
       gradientUnits="userSpaceOnUse" />
    <radialGradient
       inkscape:collect="always"
       xlink:href="#sunrise_drive"
       id="radialGradient1308"
       cx="274.26801"
       cy="345.90891"
       fx="274.26801"
       fy="345.90891"
       r="188.97656"
       gradientTransform="matrix(1,0,0,1.1115809,0,-39.819537)"
       gradientUnits="userSpaceOnUse" />
    <linearGradient
       inkscape:collect="always"
       xlink:href="#electric_sunset"
       id="linearGradient1318"
       gradientUnits="userSpaceOnUse"
       x1="50.796902"
       y1="-125.74873"
       x2="50.796902"
       y2="558.59882" />
    <linearGradient
       inkscape:collect="always"
       xlink:href="#skyfade"
       id="linearGradient938"
       x1="275.42145"
       y1="139.28836"
       x2="275.42145"
       y2="630.29169"
       gradientUnits="userSpaceOnUse"
       gradientTransform="matrix(0.26458333,0,0,0.26458333,0,-1.45e-4)" />
    <filter
       style="color-interpolation-filters:sRGB;"
       inkscape:label="Material shadow: 4dp"
       id="filter1003">
      <feFlood
         flood-opacity="0.2"
         flood-color="rgb(0,0,0)"
         result="flood"
         id="feFlood993" />
      <feComposite
         in="flood"
         in2="SourceGraphic"
         operator="in"
         result="composite1"
         id="feComposite995" />
      <feGaussianBlur
         in="composite1"
         stdDeviation="4"
         result="blur"
         id="feGaussianBlur997" />
      <feOffset
         dx="0"
         dy="-2"
         result="offset"
         id="feOffset999" />
      <feComposite
         in="SourceGraphic"
         in2="offset"
         operator="over"
         result="fbSourceGraphic"
         id="feComposite1001" />
      <feColorMatrix
         result="fbSourceGraphicAlpha"
         in="fbSourceGraphic"
         values="0 0 0 -1 0 0 0 0 -1 0 0 0 0 -1 0 0 0 0 1 0"
         id="feColorMatrix1029" />
      <feFlood
         id="feFlood1031"
         flood-opacity="0.141176"
         flood-color="rgb(0,0,0)"
         result="flood"
         in="fbSourceGraphic" />
      <feComposite
         in2="fbSourceGraphic"
         id="feComposite1033"
         in="flood"
         operator="in"
         result="composite1" />
      <feGaussianBlur
         id="feGaussianBlur1035"
         in="composite1"
         stdDeviation="5"
         result="blur" />
      <feOffset
         id="feOffset1037"
         dx="0"
         dy="-4"
         result="offset" />
      <feComposite
         in2="offset"
         id="feComposite1039"
         in="fbSourceGraphic"
         operator="over"
         result="fbSourceGraphic" />
      <feColorMatrix
         result="fbSourceGraphicAlpha"
         in="fbSourceGraphic"
         values="0 0 0 -1 0 0 0 0 -1 0 0 0 0 -1 0 0 0 0 1 0"
         id="feColorMatrix1065" />
      <feFlood
         id="feFlood1067"
         flood-opacity="0.121569"
         flood-color="rgb(0,0,0)"
         result="flood"
         in="fbSourceGraphic" />
      <feComposite
         in2="fbSourceGraphic"
         id="feComposite1069"
         in="flood"
         operator="in"
         result="composite1" />
      <feGaussianBlur
         id="feGaussianBlur1071"
         in="composite1"
         stdDeviation="10"
         result="blur" />
      <feOffset
         id="feOffset1073"
         dx="0"
         dy="-1"
         result="offset" />
      <feComposite
         in2="offset"
         id="feComposite1075"
         in="fbSourceGraphic"
         operator="over"
         result="composite2" />
    </filter>
  </defs>
  <sodipodi:namedview
     id="base"
     pagecolor="#ffffff"
     bordercolor="#666666"
     borderopacity="1.0"
     inkscape:pageopacity="0.0"
     inkscape:pageshadow="2"
     inkscape:zoom="0.75322952"
     inkscape:cx="187.0041"
     inkscape:cy="221.8465"
     inkscape:document-units="mm"
     inkscape:current-layer="layer1"
     inkscape:document-rotation="0"
     showgrid="false"
     inkscape:window-width="1920"
     inkscape:window-height="999"
     inkscape:window-x="0"
     inkscape:window-y="0"
     inkscape:window-maximized="1"
     inkscape:snap-global="false"
     inkscape:object-paths="false"
     inkscape:snap-smooth-nodes="false"
     inkscape:object-nodes="false"
     inkscape:snap-center="false"
     inkscape:snap-object-midpoints="true"
     inkscape:snap-midpoints="false"
     inkscape:snap-intersection-paths="false"
     inkscape:snap-page="false"
     inkscape:snap-text-baseline="false"
     inkscape:snap-bbox="false"
     inkscape:bbox-paths="false"
     inkscape:bbox-nodes="false"
     inkscape:snap-bbox-edge-midpoints="false"
     inkscape:snap-bbox-midpoints="false"
     showguides="true"
     inkscape:guide-bbox="true"
     inkscape:snap-grids="false"
     inkscape:snap-others="true"
     inkscape:snap-nodes="false" />
  <metadata
     id="metadata5">
    <rdf:RDF>
      <cc:Work
         rdf:about="">
        <dc:format>image/svg+xml</dc:format>
        <dc:type
           rdf:resource="http://purl.org/dc/dcmitype/StillImage" />
        <dc:title />
      </cc:Work>
    </rdf:RDF>
  </metadata>
  <g
     inkscape:label="Layer 1"
     inkscape:groupmode="layer"
     id="layer1">
    <rect
       style="font-variation-settings:'wght' 400;fill:#290056;fill-opacity:1;stroke:none;stroke-width:0.264999;stroke-linecap:round;stroke-linejoin:round;stroke-miterlimit:4;stroke-dasharray:none;paint-order:stroke fill markers"
       id="rect1211"
       width="100"
       height="150"
       x="0"
       y="0" />
    <path
       id="path1256"
       style="fill:url(#radialGradient1272);fill-opacity:1;stroke:none;stroke-width:0.999999px;stroke-linecap:butt;stroke-linejoin:miter;stroke-opacity:1;filter:url(#filter1003)"
       d="M 377.95312,19.292969 C 329.63532,29.016182 274.92427,91.415566 221.29297,95.775391 144.63014,102.00751 96.229964,-14.664013 0,36.878906 V 566.92969 h 377.95312 z"
       transform="scale(0.26458333)" />
    <path
       id="path1274"
       style="fill:url(#radialGradient1308);fill-opacity:1;stroke:none;stroke-width:0.999999px;stroke-linecap:butt;stroke-linejoin:miter;stroke-opacity:1;filter:url(#filter1003)"
       d="M 0,328.5957 V 566.92969 H 377.95312 V 173.74023 c 0,0 -38.68619,-26.93601 -107.50639,-26.93601 C 201.62654,146.80422 0,328.5957 0,328.5957 Z"
       transform="scale(0.26458333)"
       sodipodi:nodetypes="cccczc" />
    <path
       id="path1264"
       style="fill:url(#linearGradient1318);fill-opacity:1;stroke:none;stroke-width:0.999999px;stroke-linecap:butt;stroke-linejoin:miter;stroke-opacity:1;filter:url(#filter1003)"
       d="M 32.804688,65.441406 C 19.240951,65.210862 8.4438238,71.537897 0,84.236328 V 566.92969 H 377.95312 V 148.25977 C 215.61292,277.29947 156.56323,70.309036 32.804688,65.441406 Z"
       transform="scale(0.26458333)"
       sodipodi:nodetypes="cccccc" />
    <path
       id="path930"
       style="mix-blend-mode:soft-light;fill:url(#linearGradient938);fill-opacity:1;stroke:none;stroke-width:0.264583px;stroke-linecap:butt;stroke-linejoin:miter;stroke-opacity:1"
       d="M 8.67958,17.31456 C 5.09084,17.25356 2.2341,18.92759 0,22.287383 V 150 H 100.00011 V 39.226919 C 57.0476,73.368672 41.42404,18.602454 8.67958,17.31456 Z"
       sodipodi:nodetypes="cccccc" />
    <g
       id="g1254">
      <path
         id="path866"
         style="fill:url(#linearGradient1009);fill-opacity:1;stroke:none;stroke-width:0.264998;stroke-linecap:butt;stroke-linejoin:miter;stroke-miterlimit:4;stroke-dasharray:none;stroke-opacity:1"
         d="M 39.878681,150.00003 37.808187,80.596551 28.857914,80.596268 26.787418,149.99974 Z"
         sodipodi:nodetypes="ccccc" />
      <path
         style="mix-blend-mode:normal;fill:#000000;fill-opacity:0.25;stroke:none;stroke-width:0.264584px;stroke-linecap:butt;stroke-linejoin:miter;stroke-opacity:1"
         d="m 26.787416,149.99974 4.760526,-4.1e-4 0.564621,-69.40268 -3.254649,-3.82e-4 z"
         id="path1017" />
      <rect
         style="font-variation-settings:'wght' 400;fill:url(#linearGradient1035);fill-opacity:1;stroke:none;stroke-width:0.264998;stroke-linecap:round;stroke-linejoin:round;stroke-miterlimit:4;stroke-dasharray:none;paint-order:stroke fill markers"
         id="rect1019"
         width="13.680921"
         height="2.1634846"
         x="26.444685"
         y="86.161964" />
      <rect
         style="font-variation-settings:'wght' 400;fill:url(#linearGradient1043);fill-opacity:1;stroke:none;stroke-width:0.264998;stroke-linecap:round;stroke-linejoin:round;stroke-miterlimit:4;stroke-dasharray:none;paint-order:stroke fill markers"
         id="rect1021"
         width="10.385178"
         height="0.896097"
         x="29.836235"
         y="89.538185" />
      <path
         id="path1045"
         style="font-variation-settings:'wght' 400;fill:url(#radialGradient1118);fill-opacity:1;stroke:none;stroke-width:0.264999;stroke-linecap:round;stroke-linejoin:round;stroke-miterlimit:4;stroke-dasharray:none;paint-order:stroke fill markers"
         d="M 26.644496,50.538722 A 16.170667,16.170669 0 0 0 17.162604,65.260903 16.170667,16.170669 0 0 0 33.333345,81.431642 16.170667,16.170669 0 0 0 49.504086,65.260903 16.170667,16.170669 0 0 0 40.021335,50.538722 Z" />
      <ellipse
         style="font-variation-settings:'wght' 400;fill:url(#radialGradient1205);fill-opacity:1;stroke:none;stroke-width:0.264998;stroke-linecap:round;stroke-linejoin:round;stroke-miterlimit:4;stroke-dasharray:none;paint-order:stroke fill markers"
         id="circle1068"
         cx="36.8564"
         cy="61.737408"
         rx="9.9934721"
         ry="9.9934731" />
      <ellipse
         style="font-variation-settings:'wght' 400;fill:url(#radialGradient1096);fill-opacity:1;stroke:none;stroke-width:0.264998;stroke-linecap:round;stroke-linejoin:round;stroke-miterlimit:4;stroke-dasharray:none;paint-order:stroke fill markers"
         id="circle1094"
         cx="38.618076"
         cy="59.094898"
         rx="6.1759658"
         ry="6.1759667" />
      <path
         id="circle1098"
         style="font-variation-settings:'wght' 400;mix-blend-mode:darken;fill:url(#linearGradient1100);fill-opacity:1;stroke:none;stroke-width:0.264999;stroke-linecap:round;stroke-linejoin:round;stroke-miterlimit:4;stroke-dasharray:none;paint-order:stroke fill markers"
         d="M 26.644496,50.538722 A 16.170667,16.170669 0 0 0 17.162604,65.260903 16.170667,16.170669 0 0 0 33.333345,81.431642 16.170667,16.170669 0 0 0 49.504086,65.260903 16.170667,16.170669 0 0 0 40.021335,50.538722 Z" />
      <rect
         style="font-variation-settings:'wght' 400;fill:#3110de;fill-opacity:1;stroke:none;stroke-width:0.264998;stroke-linecap:round;stroke-linejoin:round;stroke-miterlimit:4;stroke-dasharray:none;paint-order:stroke fill markers"
         id="rect1138"
         width="11.31068"
         height="19.02796"
         x="27.67771"
         y="30.15163" />
      <rect
         style="font-variation-settings:'wght' 400;fill:url(#linearGradient1142);fill-opacity:1;stroke:none;stroke-width:0.264998;stroke-linecap:round;stroke-linejoin:round;stroke-miterlimit:4;stroke-dasharray:none;paint-order:stroke fill markers"
         id="rect1140"
         width="13.680921"
         height="1.3591219"
         x="26.492588"
         y="49.1796" />
      <rect
         style="font-variation-settings:'wght' 400;fill:url(#linearGradient1166);fill-opacity:1;stroke:none;stroke-width:0.264998;stroke-linecap:round;stroke-linejoin:round;stroke-miterlimit:4;stroke-dasharray:none;paint-order:stroke fill markers"
         id="rect1164"
         width="13.680921"
         height="1.3591219"
         x="26.492588"
         y="28.792511" />
      <path
         id="rect1189"
         style="font-variation-settings:'wght' 400;fill:#3110de;fill-opacity:1;stroke:none;stroke-width:0.264999;stroke-linecap:round;stroke-linejoin:round;stroke-miterlimit:4;stroke-dasharray:none;paint-order:stroke fill markers"
         d="m 31.974792,0 v 28.792559 h 2.716631 V 0 Z" />
    </g>
    <g
       id="g1314">
      <g
         id="g1262">
        <path
           id="path976"
           style="font-size:15.8274px;line-height:1.25;font-family:Monoton;-inkscape-font-specification:Monoton;letter-spacing:0px;word-spacing:0px;writing-mode:lr-tb;fill:#ffffff;stroke-width:0.999999"
           d="M 150.57617 362.27734 C 150.59769 362.99088 150.6191 363.70443 150.64062 364.41797 C 152.47144 364.69828 154.21762 365.30488 155.875 366.25 C 158.2312 367.57414 160.09986 369.37599 161.48242 371.6543 C 162.88446 373.91313 163.58594 376.35557 163.58594 378.98438 C 163.58594 381.67162 162.7194 384.17493 160.98633 386.49219 C 161.84313 387.50475 162.48566 388.67195 162.91406 389.99609 C 163.36193 391.30076 163.58594 392.42077 163.58594 393.35547 C 163.58594 395.45852 163.1674 397.44507 162.33008 399.31445 C 161.51223 401.18383 160.41186 402.78132 159.0293 404.10547 C 157.64674 405.42959 156.02172 406.48086 154.15234 407.25977 C 153.4334 407.55184 152.69604 407.76948 151.95117 407.94922 C 151.97312 408.67774 151.99564 409.40624 152.01758 410.13477 C 153.02688 409.93679 154.01186 409.66796 154.96875 409.30469 C 157.0718 408.5063 158.91295 407.3863 160.49023 405.94531 C 162.08699 404.50436 163.35242 402.7025 164.28711 400.54102 C 165.2218 398.36008 165.68945 395.9648 165.68945 393.35547 C 165.68945 391.03822 164.88186 388.76083 163.26562 386.52148 C 164.88186 384.36 165.68945 381.84686 165.68945 378.98438 C 165.68945 375.98559 164.89168 373.19143 163.29492 370.60156 C 161.71763 367.99222 159.58372 365.92902 156.89648 364.41016 C 154.90388 363.27568 152.79692 362.56445 150.57617 362.27734 z M 150.70508 366.56055 C 150.72677 367.27994 150.74784 367.99936 150.76953 368.71875 C 152.7145 369.15289 154.47749 370.10521 156.05078 371.5957 C 158.27067 373.67928 159.38086 376.14137 159.38086 378.98438 C 159.38086 381.94422 158.30014 384.43772 156.13867 386.46289 C 157.15125 387.18337 157.9392 388.23461 158.50391 389.61719 C 159.08809 390.98026 159.38086 392.22605 159.38086 393.35547 C 159.38086 396.51004 158.29032 399.10965 156.10938 401.1543 C 154.82953 402.34272 153.39717 403.17305 151.82227 403.66406 C 151.84394 404.38348 151.867 405.10285 151.88867 405.82227 C 152.89267 405.55099 153.86247 405.16712 154.79492 404.66016 C 156.82008 403.55021 158.43527 402.00184 159.64258 400.01562 C 160.86936 398.00996 161.48242 395.78956 161.48242 393.35547 C 161.48242 390.84349 160.51959 388.51701 158.5918 386.375 C 160.51959 384.17461 161.48242 381.71057 161.48242 378.98438 C 161.48242 376.74503 160.87918 374.65235 159.67188 372.70508 C 158.46457 370.73834 156.83955 369.18996 154.79492 368.06055 C 153.49253 367.32169 152.12828 366.82424 150.70508 366.56055 z M 150.83594 370.89844 C 150.85859 371.64974 150.88164 372.40104 150.9043 373.15234 C 151.6765 373.46851 152.39909 373.93042 153.07031 374.54492 C 154.47235 375.81065 155.17383 377.29026 155.17383 378.98438 C 155.17383 381.08743 154.50182 382.7242 153.1582 383.89258 C 152.58407 384.39072 151.94933 384.77254 151.26172 385.05469 C 151.2927 386.08269 151.32449 387.11067 151.35547 388.13867 C 152.28719 388.46348 153.05585 388.94341 153.6543 389.58789 C 154.66688 390.67836 155.17383 391.93396 155.17383 393.35547 C 155.17383 395.45852 154.50182 397.09532 153.1582 398.26367 C 152.70478 398.65709 152.21366 398.97763 151.68945 399.23633 C 151.71211 399.98829 151.73516 400.74023 151.75781 401.49219 C 152.81294 401.09787 153.77648 400.50742 154.64844 399.72266 C 156.40098 398.12591 157.27734 396.00376 157.27734 393.35547 C 157.27734 390.00618 155.74862 387.78581 152.69141 386.69531 C 154.09344 385.97483 155.20363 384.95305 156.02148 383.62891 C 156.85881 382.30476 157.27734 380.75639 157.27734 378.98438 C 157.27734 376.72555 156.37151 374.75864 154.56055 373.08398 C 153.43775 372.02221 152.19585 371.29476 150.83594 370.89844 z M 150.97266 375.4707 C 151.04656 377.92188 151.12143 380.37304 151.19531 382.82422 C 151.39065 382.71302 151.5826 382.59955 151.75586 382.46094 C 152.63213 381.74046 153.07031 380.58115 153.07031 378.98438 C 153.07031 377.77708 152.60266 376.77494 151.66797 375.97656 C 151.44751 375.78366 151.21478 375.6181 150.97266 375.4707 z M 151.42188 390.35352 C 151.48836 392.55989 151.55462 394.76628 151.62109 396.97266 C 151.66395 396.94273 151.71427 396.92205 151.75586 396.89062 C 152.63213 396.22858 153.07031 395.14785 153.07031 393.64844 C 153.07031 392.09128 152.50992 391.00176 151.42188 390.35352 z "
           transform="scale(0.26458333)" />
        <path
           d="M 47.872723,108.61182 H 47.316291 V 95.81388 h 0.556432 z m -1.112864,0 H 46.203427 V 95.81388 h 0.556432 z m -1.112864,0 H 45.090563 V 95.81388 h 0.556432 z m 3.338593,-2.78216 h 5.919818 v 0.55643 h -5.919818 v 0.55643 h 5.919818 v 0.55643 h -5.919818 v 0.55643 h 5.919818 v 0.55644 h -6.47625 V 95.81388 h 6.47625 v 0.556432 h -5.919818 v 0.556432 h 5.919818 v 0.556432 h -5.919818 v 0.556432 h 5.919818 v 0.556432 h -5.919818 v 2.22573 h 3.037191 v 0.55643 h -3.037191 v 0.55643 h 3.037191 v 0.55643 h -3.037191 v 0.55644 h 3.037191 v 0.55643 h -3.037191 z"
           style="font-size:15.8274px;line-height:1.25;font-family:Monoton;-inkscape-font-specification:Monoton;letter-spacing:0px;word-spacing:0px;writing-mode:lr-tb;fill:#ffffff;stroke-width:0.264583"
           id="path978" />
        <path
           d="m 60.477455,102.24376 h 3.354048 q 0.765095,0 1.290614,-0.49461 0.533247,-0.4946 0.533247,-1.40653 0,-0.672357 -0.556432,-1.205605 Q 64.5425,98.59604 63.831503,98.59604 h -4.776041 v 10.01578 H 58.49903 V 98.039608 h 5.332473 q 0.942844,0 1.661568,0.703268 0.718725,0.69554 0.718725,1.599744 0,1.11286 -0.69554,1.78522 -0.69554,0.67235 -1.684753,0.67235 h -3.354048 z m 0,1.11286 h 3.354048 q 1.205603,0 2.071164,-0.84237 0.865561,-0.85011 0.865561,-2.17163 0,-1.136051 -0.888746,-1.993883 -0.881017,-0.865561 -2.047979,-0.865561 H 57.942598 V 108.61182 H 57.386166 V 96.926744 h 6.445337 q 0.919659,0 1.723394,0.471421 0.811464,0.471422 1.290613,1.267429 0.47915,0.788278 0.47915,1.677026 0,1.52246 -1.035582,2.55031 -1.027853,1.02013 -2.457575,1.02013 h -3.354048 z m 0,1.11287 h 3.354048 q 1.081952,0 2.009338,-0.53325 0.927387,-0.53325 1.483819,-1.48382 0.556432,-0.9583 0.556432,-2.1098 0,-1.043312 -0.556432,-1.955242 -0.548704,-0.919659 -1.483819,-1.468363 -0.935115,-0.548703 -2.009338,-0.548703 H 56.829734 V 108.61182 H 56.273302 V 95.81388 h 7.558201 q 1.213331,0 2.279826,0.625986 1.066495,0.618257 1.692481,1.669296 0.633714,1.04331 0.633714,2.233458 0,1.37562 -0.595073,2.41893 -0.587345,1.04331 -1.599742,1.63066 l 1.437449,4.21961 h -0.587345 l -1.375623,-3.95685 q -0.309129,0.12365 -0.471422,0.17002 l 1.290613,3.78683 h -0.587345 l -1.2597,-3.65545 q -0.06955,0.0154 -0.494606,0.0541 l 1.197874,3.60136 H 64.80526 l -1.182419,-3.5859 h -0.502334 l 1.12832,3.5859 h -0.587344 l -1.136049,-3.5859 h -2.047979 z m -0.309129,4.14233 h -0.556432 v -9.459348 h 4.219609 q 0.517791,0 0.888746,0.355498 0.378683,0.34777 0.378683,0.83465 0,1.34471 -1.267429,1.34471 h -3.354048 v -0.55643 h 3.354048 q 0.332314,0 0.517791,-0.17002 0.193206,-0.17775 0.193206,-0.61826 0,-0.27049 -0.208662,-0.448239 -0.200934,-0.185477 -0.502335,-0.185477 h -3.663177 z"
           style="font-size:15.8274px;line-height:1.25;font-family:Monoton;-inkscape-font-specification:Monoton;letter-spacing:0px;word-spacing:0px;writing-mode:lr-tb;fill:#ffffff;stroke-width:0.264583"
           id="path980" />
        <path
           d="m 69.627672,95.81388 h 0.556432 v 12.79794 h -0.556432 z m 3.338592,0 h 0.556432 v 10.01578 h 4.451456 v 0.55643 h -4.451456 v 0.55643 h 4.451456 v 0.55643 h -4.451456 v 0.55643 h 4.451456 v 0.55644 h -5.007888 z m -1.112864,0 h 0.556432 v 12.79794 H 71.8534 Z m -1.112864,0 h 0.556432 v 12.79794 h -0.556432 z"
           style="font-size:15.8274px;line-height:1.25;font-family:Monoton;-inkscape-font-specification:Monoton;letter-spacing:0px;word-spacing:0px;writing-mode:lr-tb;fill:#ffffff;stroke-width:0.264583"
           id="path982" />
        <path
           d="m 82.541532,95.81388 h 0.556432 v 12.79794 h -0.556432 z m -1.112864,0 H 81.9851 v 12.79794 h -0.556432 z m -1.112864,0 h 0.556432 v 12.79794 h -0.556432 z m -1.112865,0 h 0.556433 v 12.79794 h -0.556433 z"
           style="font-size:15.8274px;line-height:1.25;font-family:Monoton;-inkscape-font-specification:Monoton;letter-spacing:0px;word-spacing:0px;writing-mode:lr-tb;fill:#ffffff;stroke-width:0.264583"
           id="path984" />
        <path
           d="m 93.654714,102.45242 -0.556432,-0.91966 v -5.71888 h 0.556432 z m 1.112864,1.82386 -0.556432,-0.93511 v -7.52729 h 0.556432 z m 1.112864,1.84705 -0.556432,-0.94284 v -9.36661 h 0.556432 z m -7.975526,-4.15006 0.556432,0.91966 v 5.71889 h -0.556432 z m -1.112864,-1.82386 0.556432,0.93512 v 7.52729 h -0.556432 z m -1.112864,-1.847043 0.556432,0.942843 v 9.36661 h -0.556432 z m 0.193205,-2.488487 h 0.649171 l 7.867331,12.79794 h -0.649171 z m 1.313798,0 h 0.656899 l 7.859603,12.79794 h -0.664627 z m 1.30607,0 h 0.649171 l 7.295442,11.89373 V 95.81388 h 0.556432 v 12.79794 q 0,0 -0.656899,0 z m -3.369505,0.904202 V 108.61182 H 84.566324 V 95.81388 q 0,0 0.664627,0 l 7.844146,12.79794 h -0.641442 z"
           style="font-size:15.8274px;line-height:1.25;font-family:Monoton;-inkscape-font-specification:Monoton;letter-spacing:0px;word-spacing:0px;writing-mode:lr-tb;fill:#ffffff;stroke-width:0.264583"
           id="path986" />
      </g>
      <g
         id="g1464"
         transform="translate(0.093014)">
        <path
           d="m 84.708784,64.500899 h -0.5302 v 2.232422 h -0.167432 v -2.232422 h -0.536401 l -1.789038,2.232422 H 81.46247 l 1.835547,-2.285132 -1.727026,-2.229321 h 0.220142 l 1.640209,2.1146 h 0.57981 v -2.1146 h 0.167432 v 2.1146 h 0.576709 l 1.64021,-2.1146 h 0.217041 l -1.727027,2.229321 1.838648,2.285132 h -0.223243 z"
           style="font-style:normal;font-variant:normal;font-weight:100;font-stretch:normal;font-size:6.35px;line-height:1;font-family:Roboto;-inkscape-font-specification:'Roboto Thin';font-variant-ligatures:normal;font-variant-caps:normal;font-variant-numeric:normal;font-variant-east-asian:normal;font-variation-settings:'wght' 100;text-align:end;letter-spacing:0px;word-spacing:0px;writing-mode:lr-tb;text-anchor:end;white-space:pre;fill:#ffffff"
           id="path1295" />
        <path
           d="m 89.514692,66.733321 q -0.06201,-0.21394 -0.06201,-0.613916 -0.198437,0.322461 -0.542602,0.499195 -0.344165,0.176733 -0.778247,0.176733 -0.465088,0 -0.750342,-0.251147 -0.282153,-0.254249 -0.282153,-0.660425 0,-0.461988 0.415478,-0.73794 0.418579,-0.279052 1.11001,-0.285254 h 0.827856 v -0.489892 q 0,-0.42168 -0.26665,-0.654224 -0.26355,-0.232544 -0.756543,-0.232544 -0.458887,0 -0.765845,0.235645 -0.306958,0.235644 -0.306958,0.58291 l -0.167431,-0.0062 q 0,-0.409278 0.359668,-0.694531 0.359668,-0.285254 0.880566,-0.285254 0.542603,0 0.861963,0.272851 0.31936,0.269751 0.328662,0.762744 v 1.603003 q 0,0.551904 0.08682,0.750342 v 0.0279 z m -1.382861,-0.102319 q 0.471289,0 0.809253,-0.21084 0.341064,-0.21084 0.511596,-0.592212 V 65.0311 h -0.775146 q -0.719336,0 -1.100708,0.285254 -0.310059,0.232543 -0.310059,0.579809 0,0.306958 0.244947,0.520898 0.244946,0.213941 0.620117,0.213941 z"
           style="font-style:normal;font-variant:normal;font-weight:100;font-stretch:normal;font-size:6.35px;line-height:1;font-family:Roboto;-inkscape-font-specification:'Roboto Thin';font-variant-ligatures:normal;font-variant-caps:normal;font-variant-numeric:normal;font-variant-east-asian:normal;font-variation-settings:'wght' 100;text-align:end;letter-spacing:0px;word-spacing:0px;writing-mode:lr-tb;text-anchor:end;white-space:pre;fill:#ffffff"
           id="path1297" />
        <path
           d="m 93.111372,63.378487 v 3.354834 H 92.940839 V 63.54902 h -1.606103 l -0.06511,1.568896 q -0.04961,0.896069 -0.241846,1.252637 -0.189136,0.356567 -0.607715,0.362768 H 90.302243 V 66.56899 h 0.139526 q 0.31626,-0.0124 0.461987,-0.331762 0.148828,-0.319361 0.195337,-1.066602 l 0.07441,-1.792139 z"
           style="font-style:normal;font-variant:normal;font-weight:100;font-stretch:normal;font-size:6.35px;line-height:1;font-family:Roboto;-inkscape-font-specification:'Roboto Thin';font-variant-ligatures:normal;font-variant-caps:normal;font-variant-numeric:normal;font-variant-east-asian:normal;font-variation-settings:'wght' 100;text-align:end;letter-spacing:0px;word-spacing:0px;writing-mode:lr-tb;text-anchor:end;white-space:pre;fill:#ffffff"
           id="path1299" />
        <path
           d="m 94.373311,64.655929 h 1.100711 q 0.5364,0.0093 0.85266,0.291455 0.31626,0.279053 0.31626,0.747241 0,0.465088 -0.31316,0.747241 -0.31316,0.282154 -0.85576,0.291455 h -1.268143 v -3.354834 h 0.167432 z m 0,0.167431 v 1.74253 h 1.069701 q 0.48369,0 0.75654,-0.235645 0.27596,-0.238745 0.27596,-0.641821 0,-0.384473 -0.26976,-0.620117 -0.26665,-0.238745 -0.73793,-0.244947 z"
           style="font-style:normal;font-variant:normal;font-weight:100;font-stretch:normal;font-size:6.35px;line-height:1;font-family:Roboto;-inkscape-font-specification:'Roboto Thin';font-variant-ligatures:normal;font-variant-caps:normal;font-variant-numeric:normal;font-variant-east-asian:normal;font-variation-settings:'wght' 100;text-align:end;letter-spacing:0px;word-spacing:0px;writing-mode:lr-tb;text-anchor:end;white-space:pre;fill:#ffffff"
           id="path1301" />
        <path
           d="m 67.54084,73.288161 h -0.576709 v -1.215429 q -0.378272,0.09922 -0.775147,0.09922 -0.629419,0 -0.961181,-0.322461 -0.328662,-0.32246 -0.334864,-0.917773 v -1.001491 h 0.573609 v 1.020093 q 0.0155,0.750341 0.722436,0.750341 0.396875,0 0.775147,-0.09922 v -1.668114 h 0.576709 z"
           style="font-style:normal;font-variant:normal;font-weight:normal;font-stretch:normal;font-size:6.35px;line-height:1;font-family:Roboto;-inkscape-font-specification:Roboto;font-variant-ligatures:normal;font-variant-caps:normal;font-variant-numeric:normal;font-variant-east-asian:normal;font-variation-settings:'wght' 100;letter-spacing:0px;word-spacing:0px;writing-mode:lr-tb;white-space:pre;fill:#ffffff"
           id="path1303" />
        <path
           d="m 70.951484,70.398415 h -1.125512 v 2.889746 h -0.573609 v -2.889746 h -1.103808 v -0.465088 h 2.802929 z"
           style="font-style:normal;font-variant:normal;font-weight:normal;font-stretch:normal;font-size:6.35px;line-height:1;font-family:Roboto;-inkscape-font-specification:Roboto;font-variant-ligatures:normal;font-variant-caps:normal;font-variant-numeric:normal;font-variant-east-asian:normal;font-variation-settings:'wght' 100;letter-spacing:0px;word-spacing:0px;writing-mode:lr-tb;white-space:pre;fill:#ffffff"
           id="path1305" />
        <path
           d="m 71.227436,71.579739 q 0,-0.492994 0.192237,-0.886768 0.195337,-0.393774 0.539502,-0.607715 0.347265,-0.21394 0.790649,-0.21394 0.68523,0 1.106909,0.474389 0.424781,0.47439 0.424781,1.261939 v 0.04031 q 0,0.489893 -0.189136,0.880567 -0.186035,0.387573 -0.536402,0.604614 -0.347265,0.217041 -0.799951,0.217041 -0.682129,0 -1.106909,-0.47439 -0.42168,-0.474389 -0.42168,-1.255737 z m 0.576709,0.06821 q 0,0.558106 0.257349,0.89607 0.260449,0.337964 0.694531,0.337964 0.437183,0 0.694532,-0.341065 0.257348,-0.344165 0.257348,-0.961181 0,-0.551905 -0.26355,-0.892969 -0.260449,-0.344165 -0.694531,-0.344165 -0.42478,0 -0.685229,0.337964 -0.26045,0.337963 -0.26045,0.967382 z"
           style="font-style:normal;font-variant:normal;font-weight:normal;font-stretch:normal;font-size:6.35px;line-height:1;font-family:Roboto;-inkscape-font-specification:Roboto;font-variant-ligatures:normal;font-variant-caps:normal;font-variant-numeric:normal;font-variant-east-asian:normal;font-variation-settings:'wght' 100;letter-spacing:0px;word-spacing:0px;writing-mode:lr-tb;white-space:pre;fill:#ffffff"
           id="path1307" />
        <path
           d="m 79.313765,73.288161 h -0.573609 v -1.43247 h -1.540991 v 1.43247 h -0.576709 v -3.354834 h 0.576709 v 1.454175 h 1.540991 v -1.454175 h 0.573609 z"
           style="font-style:normal;font-variant:normal;font-weight:normal;font-stretch:normal;font-size:6.35px;line-height:1;font-family:Roboto;-inkscape-font-specification:Roboto;font-variant-ligatures:normal;font-variant-caps:normal;font-variant-numeric:normal;font-variant-east-asian:normal;font-variation-settings:'wght' 100;letter-spacing:0px;word-spacing:0px;writing-mode:lr-tb;white-space:pre;fill:#ffffff"
           id="path1309" />
        <path
           d="m 81.626801,73.350173 q -0.682128,0 -1.110009,-0.446484 -0.427881,-0.449585 -0.427881,-1.199927 v -0.10542 q 0,-0.499194 0.189136,-0.889868 0.192236,-0.393775 0.5333,-0.613916 0.344165,-0.223242 0.744141,-0.223242 0.654224,0 1.016992,0.430981 0.362769,0.430982 0.362769,1.234033 v 0.238745 h -2.27273 q 0.0124,0.496094 0.288355,0.803052 0.279052,0.303858 0.706933,0.303858 0.303858,0 0.514698,-0.124024 0.210839,-0.124023 0.368969,-0.328662 l 0.350367,0.272852 q -0.42168,0.648022 -1.26504,0.648022 z m -0.07131,-3.007568 q -0.347266,0 -0.58291,0.254248 -0.235645,0.251147 -0.291455,0.706933 h 1.680517 v -0.04341 q -0.0248,-0.437182 -0.235644,-0.675928 -0.21084,-0.241845 -0.570508,-0.241845 z"
           style="font-style:normal;font-variant:normal;font-weight:normal;font-stretch:normal;font-size:6.35px;line-height:1;font-family:Roboto;-inkscape-font-specification:Roboto;font-variant-ligatures:normal;font-variant-caps:normal;font-variant-numeric:normal;font-variant-east-asian:normal;font-variation-settings:'wght' 100;letter-spacing:0px;word-spacing:0px;writing-mode:lr-tb;white-space:pre;fill:#ffffff"
           id="path1311" />
        <path
           d="m 86.348993,69.933327 v 3.354834 h -0.576709 v -2.880444 h -1.141016 l -0.06821,1.255737 q -0.05581,0.865064 -0.291455,1.237134 -0.232544,0.37207 -0.74104,0.387573 H 83.30112 v -0.505395 l 0.164331,-0.0124 q 0.279053,-0.03101 0.399976,-0.322461 0.120922,-0.291456 0.155029,-1.079004 l 0.06201,-1.435572 z"
           style="font-style:normal;font-variant:normal;font-weight:normal;font-stretch:normal;font-size:6.35px;line-height:1;font-family:Roboto;-inkscape-font-specification:Roboto;font-variant-ligatures:normal;font-variant-caps:normal;font-variant-numeric:normal;font-variant-east-asian:normal;font-variation-settings:'wght' 100;letter-spacing:0px;word-spacing:0px;writing-mode:lr-tb;white-space:pre;fill:#ffffff"
           id="path1313" />
        <path
           d="m 87.896186,71.089846 h 0.871265 q 0.570508,0.0062 0.902271,0.297656 0.331762,0.291455 0.331762,0.79065 0,0.502295 -0.341064,0.806152 -0.341065,0.303857 -0.917774,0.303857 h -1.420068 v -3.354834 h 0.573608 z m 0,0.468188 v 1.261939 h 0.852662 q 0.322461,0 0.499194,-0.164331 0.176733,-0.167432 0.176733,-0.455786 0,-0.279053 -0.173633,-0.455786 -0.170532,-0.179834 -0.48059,-0.186036 z"
           style="font-style:normal;font-variant:normal;font-weight:normal;font-stretch:normal;font-size:6.35px;line-height:1;font-family:Roboto;-inkscape-font-specification:Roboto;font-variant-ligatures:normal;font-variant-caps:normal;font-variant-numeric:normal;font-variant-east-asian:normal;font-variation-settings:'wght' 100;letter-spacing:0px;word-spacing:0px;writing-mode:lr-tb;white-space:pre;fill:#ffffff"
           id="path1315" />
        <path
           d="m 92.562568,70.851101 q 0,-0.235645 -0.179834,-0.37207 -0.179834,-0.139527 -0.492993,-0.139527 -0.303858,0 -0.508496,0.15813 -0.201538,0.15813 -0.201538,0.37207 h -0.570508 q 0,-0.437182 0.365869,-0.716235 0.365869,-0.279053 0.914673,-0.279053 0.589111,0 0.917773,0.254248 0.328662,0.251148 0.328662,0.719336 0,0.226343 -0.136425,0.415479 -0.136426,0.189136 -0.387574,0.300757 0.586011,0.198437 0.586011,0.781347 0,0.461988 -0.356567,0.731739 -0.356568,0.26975 -0.95188,0.26975 -0.57981,0 -0.958081,-0.282153 -0.375171,-0.285254 -0.375171,-0.768945 h 0.570508 q 0,0.244946 0.217041,0.42168 0.220141,0.173632 0.545703,0.173632 0.328662,0 0.5302,-0.151928 0.201538,-0.151929 0.201538,-0.393775 0,-0.282153 -0.170532,-0.403076 -0.167432,-0.124023 -0.523999,-0.124023 h -0.573609 v -0.483692 h 0.623218 q 0.586011,-0.0155 0.586011,-0.483691 z"
           style="font-style:normal;font-variant:normal;font-weight:normal;font-stretch:normal;font-size:6.35px;line-height:1;font-family:Roboto;-inkscape-font-specification:Roboto;font-variant-ligatures:normal;font-variant-caps:normal;font-variant-numeric:normal;font-variant-east-asian:normal;font-variation-settings:'wght' 100;letter-spacing:0px;word-spacing:0px;writing-mode:lr-tb;white-space:pre;fill:#ffffff"
           id="path1317" />
        <path
           d="m 96.506512,69.933327 v 3.354834 h -0.57671 v -1.305346 h -0.86506 l -0.790651,1.305346 h -0.620117 l 0.84336,-1.392163 q -0.322461,-0.117822 -0.496094,-0.362768 -0.170532,-0.248047 -0.170532,-0.576709 0,-0.458887 0.344165,-0.73794 0.344165,-0.282153 0.920869,-0.285254 z m -2.099095,1.029395 q 0,0.244946 0.167431,0.396875 0.167434,0.148828 0.443384,0.151929 h 0.91157 v -1.113111 h -0.82475 q -0.31936,0 -0.5085,0.15813 -0.189135,0.155029 -0.189135,0.406177 z"
           style="font-style:normal;font-variant:normal;font-weight:normal;font-stretch:normal;font-size:6.35px;line-height:1;font-family:Roboto;-inkscape-font-specification:Roboto;font-variant-ligatures:normal;font-variant-caps:normal;font-variant-numeric:normal;font-variant-east-asian:normal;font-variation-settings:'wght' 100;letter-spacing:0px;word-spacing:0px;writing-mode:lr-tb;white-space:pre;fill:#ffffff"
           id="path1319" />
        <path
           d="m 54.533882,78.413631 h -0.418579 v 1.42937 h -0.576709 v -3.354833 h 0.576709 v 1.420068 h 0.375171 l 1.128613,-1.420068 h 0.694531 l -1.327051,1.612304 1.438672,1.742529 h -0.728637 z"
           style="font-style:normal;font-variant:normal;font-weight:normal;font-stretch:normal;font-size:6.35px;line-height:1;font-family:Roboto;-inkscape-font-specification:Roboto;font-variant-ligatures:normal;font-variant-caps:normal;font-variant-numeric:normal;font-variant-east-asian:normal;font-variation-settings:'wght' 100;letter-spacing:0px;word-spacing:0px;writing-mode:lr-tb;white-space:pre;fill:#ffffff"
           id="path1321" />
        <path
           d="m 58.01584,79.002743 0.781348,-2.514575 h 0.613916 l -1.348755,3.872631 q -0.313159,0.837158 -0.995288,0.837158 l -0.108521,-0.0093 -0.21394,-0.04031 v -0.465088 l 0.155029,0.0124 q 0.291455,0 0.452686,-0.117823 0.164331,-0.117822 0.269751,-0.430981 L 57.74919,79.80579 56.552363,76.488164 h 0.626319 z"
           style="font-style:normal;font-variant:normal;font-weight:normal;font-stretch:normal;font-size:6.35px;line-height:1;font-family:Roboto;-inkscape-font-specification:Roboto;font-variant-ligatures:normal;font-variant-caps:normal;font-variant-numeric:normal;font-variant-east-asian:normal;font-variation-settings:'wght' 100;letter-spacing:0px;word-spacing:0px;writing-mode:lr-tb;white-space:pre;fill:#ffffff"
           id="path1323" />
        <path
           d="M 62.666719,79.843001 H 62.09311 v -2.880444 h -1.544091 v 2.880444 H 59.97231 v -3.354833 h 2.694409 z"
           style="font-style:normal;font-variant:normal;font-weight:normal;font-stretch:normal;font-size:6.35px;line-height:1;font-family:Roboto;-inkscape-font-specification:Roboto;font-variant-ligatures:normal;font-variant-caps:normal;font-variant-numeric:normal;font-variant-east-asian:normal;font-variation-settings:'wght' 100;letter-spacing:0px;word-spacing:0px;writing-mode:lr-tb;white-space:pre;fill:#ffffff"
           id="path1325" />
        <path
           d="m 65.758003,76.488168 h 0.573608 v 3.354833 h -0.573608 v -2.446362 l -1.547193,2.446362 h -0.573608 v -3.354833 h 0.573608 v 2.449462 z"
           style="font-style:normal;font-variant:normal;font-weight:normal;font-stretch:normal;font-size:6.35px;line-height:1;font-family:Roboto;-inkscape-font-specification:Roboto;font-variant-ligatures:normal;font-variant-caps:normal;font-variant-numeric:normal;font-variant-east-asian:normal;font-variation-settings:'wght' 100;letter-spacing:0px;word-spacing:0px;writing-mode:lr-tb;white-space:pre;fill:#ffffff"
           id="path1327" />
        <path
           d="m 69.745356,76.953255 h -1.125513 v 2.889746 h -0.573608 v -2.889746 h -1.103809 v -0.465087 h 2.80293 z"
           style="font-style:normal;font-variant:normal;font-weight:normal;font-stretch:normal;font-size:6.35px;line-height:1;font-family:Roboto;-inkscape-font-specification:Roboto;font-variant-ligatures:normal;font-variant-caps:normal;font-variant-numeric:normal;font-variant-east-asian:normal;font-variation-settings:'wght' 100;letter-spacing:0px;word-spacing:0px;writing-mode:lr-tb;white-space:pre;fill:#ffffff"
           id="path1329" />
        <path
           d="m 70.929781,77.644686 h 0.871264 q 0.570508,0.0062 0.902271,0.297656 0.331763,0.291455 0.331763,0.79065 0,0.502295 -0.341065,0.806152 -0.341064,0.303857 -0.917773,0.303857 h -1.420069 v -3.354833 h 0.573609 z m 0,0.468189 v 1.261938 h 0.852661 q 0.322461,0 0.499194,-0.164331 0.176734,-0.167432 0.176734,-0.455786 0,-0.279053 -0.173633,-0.455786 -0.170532,-0.179834 -0.480591,-0.186035 z"
           style="font-style:normal;font-variant:normal;font-weight:normal;font-stretch:normal;font-size:6.35px;line-height:1;font-family:Roboto;-inkscape-font-specification:Roboto;font-variant-ligatures:normal;font-variant-caps:normal;font-variant-numeric:normal;font-variant-east-asian:normal;font-variation-settings:'wght' 100;letter-spacing:0px;word-spacing:0px;writing-mode:lr-tb;white-space:pre;fill:#ffffff"
           id="path1331" />
        <path
           d="m 76.796089,76.680404 q 0.632519,0 1.010791,0.42478 0.381372,0.42168 0.381372,1.11311 v 0.05271 q 0,0.47439 -0.182935,0.849561 -0.182934,0.37207 -0.5271,0.579809 -0.341064,0.204639 -0.787548,0.204639 -0.675928,0 -1.088306,-0.449585 -0.412378,-0.452685 -0.412378,-1.212329 v -0.279053 q 0,-1.057299 0.390674,-1.680517 0.393774,-0.623218 1.159619,-0.759644 0.434082,-0.07751 0.586011,-0.189135 0.151928,-0.111622 0.151928,-0.306958 h 0.47129 q 0,0.387573 -0.176734,0.604614 -0.173633,0.217041 -0.558105,0.306958 l -0.427881,0.09612 q -0.511597,0.120923 -0.768945,0.409277 -0.254249,0.285254 -0.331763,0.762744 0.455786,-0.527099 1.11001,-0.527099 z m -0.111622,0.471289 q -0.421679,0 -0.669726,0.285254 -0.248047,0.282153 -0.248047,0.784448 v 0.04961 q 0,0.539502 0.248047,0.855762 0.251147,0.313159 0.675928,0.313159 0.427881,0 0.675927,-0.316259 0.248047,-0.31626 0.248047,-0.923975 0,-0.47439 -0.251147,-0.759644 -0.248047,-0.288354 -0.679029,-0.288355 z"
           style="font-style:normal;font-variant:normal;font-weight:normal;font-stretch:normal;font-size:6.35px;line-height:1;font-family:Roboto;-inkscape-font-specification:Roboto;font-variant-ligatures:normal;font-variant-caps:normal;font-variant-numeric:normal;font-variant-east-asian:normal;font-variation-settings:'wght' 100;letter-spacing:0px;word-spacing:0px;writing-mode:lr-tb;white-space:pre;fill:#ffffff"
           id="path1333" />
        <path
           d="m 80.950874,76.488168 h 0.573608 v 3.354833 h -0.573608 v -2.446362 l -1.547193,2.446362 h -0.573608 v -3.354833 h 0.573608 v 2.449462 z"
           style="font-style:normal;font-variant:normal;font-weight:normal;font-stretch:normal;font-size:6.35px;line-height:1;font-family:Roboto;-inkscape-font-specification:Roboto;font-variant-ligatures:normal;font-variant-caps:normal;font-variant-numeric:normal;font-variant-east-asian:normal;font-variation-settings:'wght' 100;letter-spacing:0px;word-spacing:0px;writing-mode:lr-tb;white-space:pre;fill:#ffffff"
           id="path1335" />
        <path
           d="m 85.195575,76.488168 v 3.354833 h -0.576708 v -2.880444 h -1.141016 l -0.06821,1.255737 q -0.05581,0.865064 -0.291455,1.237134 -0.232544,0.372071 -0.74104,0.387573 h -0.229443 v -0.505395 l 0.164331,-0.0124 q 0.279052,-0.03101 0.399975,-0.322461 0.120923,-0.291455 0.155029,-1.079004 l 0.06201,-1.435571 z"
           style="font-style:normal;font-variant:normal;font-weight:normal;font-stretch:normal;font-size:6.35px;line-height:1;font-family:Roboto;-inkscape-font-specification:Roboto;font-variant-ligatures:normal;font-variant-caps:normal;font-variant-numeric:normal;font-variant-east-asian:normal;font-variation-settings:'wght' 100;letter-spacing:0px;word-spacing:0px;writing-mode:lr-tb;white-space:pre;fill:#ffffff"
           id="path1337" />
        <path
           d="m 87.508612,79.905013 q -0.682129,0 -1.11001,-0.446484 -0.427881,-0.449585 -0.427881,-1.199927 v -0.10542 q 0,-0.499194 0.189136,-0.889868 0.192236,-0.393774 0.533301,-0.613916 0.344165,-0.223242 0.74414,-0.223242 0.654224,0 1.016993,0.430981 0.362768,0.430982 0.362768,1.234033 v 0.238746 H 86.54433 q 0.0124,0.496093 0.288354,0.803051 0.279053,0.303858 0.706934,0.303858 0.303857,0 0.514697,-0.124024 0.21084,-0.124023 0.36897,-0.328662 l 0.350366,0.272852 q -0.42168,0.648022 -1.265039,0.648022 z m -0.07131,-3.007568 q -0.347265,0 -0.58291,0.254248 -0.235644,0.251147 -0.291455,0.706933 h 1.680518 v -0.04341 q -0.02481,-0.437182 -0.235645,-0.675927 -0.21084,-0.241846 -0.570508,-0.241846 z"
           style="font-style:normal;font-variant:normal;font-weight:normal;font-stretch:normal;font-size:6.35px;line-height:1;font-family:Roboto;-inkscape-font-specification:Roboto;font-variant-ligatures:normal;font-variant-caps:normal;font-variant-numeric:normal;font-variant-east-asian:normal;font-variation-settings:'wght' 100;letter-spacing:0px;word-spacing:0px;writing-mode:lr-tb;white-space:pre;fill:#ffffff"
           id="path1339" />
        <path
           d="m 91.939348,76.953255 h -1.125512 v 2.889746 h -0.573609 v -2.889746 h -1.103808 v -0.465087 h 2.802929 z"
           style="font-style:normal;font-variant:normal;font-weight:normal;font-stretch:normal;font-size:6.35px;line-height:1;font-family:Roboto;-inkscape-font-specification:Roboto;font-variant-ligatures:normal;font-variant-caps:normal;font-variant-numeric:normal;font-variant-east-asian:normal;font-variation-settings:'wght' 100;letter-spacing:0px;word-spacing:0px;writing-mode:lr-tb;white-space:pre;fill:#ffffff"
           id="path1341" />
        <path
           d="m 93.123775,77.644686 h 0.871265 q 0.570508,0.0062 0.902272,0.297656 0.33176,0.291455 0.33176,0.79065 0,0.502295 -0.34106,0.806152 -0.341068,0.303857 -0.917777,0.303857 h -1.420068 v -3.354833 h 0.573608 z m 3.302127,2.198315 h -0.57671 v -3.354833 h 0.57671 z m -3.302127,-1.730126 v 1.261938 h 0.852661 q 0.322461,0 0.499195,-0.164331 0.176733,-0.167432 0.176733,-0.455786 0,-0.279053 -0.173633,-0.455786 -0.170532,-0.179834 -0.48059,-0.186035 z"
           style="font-style:normal;font-variant:normal;font-weight:normal;font-stretch:normal;font-size:6.35px;line-height:1;font-family:Roboto;-inkscape-font-specification:Roboto;font-variant-ligatures:normal;font-variant-caps:normal;font-variant-numeric:normal;font-variant-east-asian:normal;font-variation-settings:'wght' 100;letter-spacing:0px;word-spacing:0px;writing-mode:lr-tb;white-space:pre;fill:#ffffff"
           id="path1343" />
        <path
           d="m 76.265888,86.397842 h -0.899169 v -2.629297 h -1.122413 v 2.629297 h -0.896069 v -3.354834 h 2.917651 z"
           style="font-style:normal;font-variant:normal;font-weight:bold;font-stretch:normal;font-size:6.35px;line-height:1;font-family:Roboto;-inkscape-font-specification:'Roboto Bold';font-variant-ligatures:normal;font-variant-caps:normal;font-variant-numeric:normal;font-variant-east-asian:normal;font-variation-settings:'wght' 100;letter-spacing:0px;word-spacing:0px;writing-mode:lr-tb;white-space:pre;fill:#ffffff"
           id="path1345" />
        <path
           d="m 76.811591,84.689419 q 0,-0.499195 0.192237,-0.889868 0.192236,-0.390674 0.551904,-0.604615 0.362769,-0.21394 0.840259,-0.21394 0.679028,0 1.106909,0.415478 0.430981,0.415479 0.480591,1.128614 l 0.0062,0.229443 q 0,0.772046 -0.430981,1.240234 -0.430982,0.465088 -1.156519,0.465088 -0.725537,0 -1.159619,-0.465088 -0.430982,-0.465088 -0.430982,-1.265039 z m 0.89607,0.06511 q 0,0.47749 0.179834,0.731738 0.179834,0.251148 0.514697,0.251148 0.325562,0 0.508496,-0.248047 0.182935,-0.251148 0.182935,-0.799951 0,-0.468189 -0.182935,-0.725537 -0.182934,-0.257349 -0.514697,-0.257349 -0.328662,0 -0.508496,0.257349 -0.179834,0.254248 -0.179834,0.790649 z"
           style="font-style:normal;font-variant:normal;font-weight:bold;font-stretch:normal;font-size:6.35px;line-height:1;font-family:Roboto;-inkscape-font-specification:'Roboto Bold';font-variant-ligatures:normal;font-variant-caps:normal;font-variant-numeric:normal;font-variant-east-asian:normal;font-variation-settings:'wght' 100;letter-spacing:0px;word-spacing:0px;writing-mode:lr-tb;white-space:pre;fill:#ffffff"
           id="path1347" />
        <path
           d="m 82.085688,86.459853 q -0.737939,0 -1.203027,-0.452685 -0.461987,-0.452686 -0.461987,-1.206128 v -0.08682 q 0,-0.505395 0.195337,-0.90227 0.195336,-0.399976 0.551904,-0.613916 0.359668,-0.217041 0.818555,-0.217041 0.68833,0 1.082104,0.434082 0.396875,0.434082 0.396875,1.230932 v 0.36587 h -2.136304 q 0.04341,0.328662 0.26045,0.527099 0.220141,0.198438 0.555004,0.198438 0.517798,0 0.809253,-0.375171 l 0.440284,0.492993 q -0.201539,0.285254 -0.545704,0.446484 -0.344165,0.15813 -0.762744,0.15813 z m -0.102319,-2.75332 q -0.26665,0 -0.434082,0.179834 -0.164331,0.179834 -0.21084,0.514697 h 1.246436 v -0.07131 q -0.0062,-0.297657 -0.161231,-0.458887 -0.155029,-0.164331 -0.440283,-0.164331 z"
           style="font-style:normal;font-variant:normal;font-weight:bold;font-stretch:normal;font-size:6.35px;line-height:1;font-family:Roboto;-inkscape-font-specification:'Roboto Bold';font-variant-ligatures:normal;font-variant-caps:normal;font-variant-numeric:normal;font-variant-east-asian:normal;font-variation-settings:'wght' 100;letter-spacing:0px;word-spacing:0px;writing-mode:lr-tb;white-space:pre;fill:#ffffff"
           id="path1349" />
        <path
           d="m 85.251386,84.044497 0.564307,-1.001489 h 0.958081 l -0.954981,1.64331 0.995288,1.711524 H 85.8529 l -0.598413,-1.0542 -0.595313,1.0542 h -0.964282 l 0.995288,-1.711524 -0.95188,-1.64331 h 0.961182 z"
           style="font-style:normal;font-variant:normal;font-weight:bold;font-stretch:normal;font-size:6.35px;line-height:1;font-family:Roboto;-inkscape-font-specification:'Roboto Bold';font-variant-ligatures:normal;font-variant-caps:normal;font-variant-numeric:normal;font-variant-east-asian:normal;font-variation-settings:'wght' 100;letter-spacing:0px;word-spacing:0px;writing-mode:lr-tb;white-space:pre;fill:#ffffff"
           id="path1351" />
        <path
           d="m 89.148822,86.397842 q -0.06201,-0.120923 -0.08992,-0.300757 -0.325561,0.362768 -0.84646,0.362768 -0.492993,0 -0.818554,-0.285254 -0.322461,-0.285254 -0.322461,-0.719336 0,-0.5333 0.393774,-0.818554 0.396875,-0.285254 1.144116,-0.288355 h 0.412378 v -0.192236 q 0,-0.232544 -0.120923,-0.37207 -0.117822,-0.139527 -0.37517,-0.139527 -0.226343,0 -0.356568,0.108521 -0.127124,0.10852 -0.127124,0.297656 h -0.896069 q 0,-0.291455 0.179834,-0.539502 0.179834,-0.248047 0.508496,-0.387573 0.328662,-0.142627 0.737939,-0.142627 0.620117,0 0.982886,0.313159 0.365869,0.310059 0.365869,0.874365 v 1.454175 q 0.0031,0.47749 0.133325,0.722437 v 0.05271 z m -0.74104,-0.623218 q 0.198438,0 0.365869,-0.08682 0.167432,-0.08992 0.248047,-0.238745 V 84.87235 h -0.334863 q -0.672827,0 -0.716235,0.465088 l -0.0031,0.05271 q 0,0.167432 0.117822,0.275952 0.117823,0.108521 0.322461,0.108521 z"
           style="font-style:normal;font-variant:normal;font-weight:bold;font-stretch:normal;font-size:6.35px;line-height:1;font-family:Roboto;-inkscape-font-specification:'Roboto Bold';font-variant-ligatures:normal;font-variant-caps:normal;font-variant-numeric:normal;font-variant-east-asian:normal;font-variation-settings:'wght' 100;letter-spacing:0px;word-spacing:0px;writing-mode:lr-tb;white-space:pre;fill:#ffffff"
           id="path1353" />
        <path
           d="m 93.343915,83.762344 h -1.075904 v 2.635498 h -0.89917 v -2.635498 h -1.057299 v -0.719336 h 3.032373 z"
           style="font-style:normal;font-variant:normal;font-weight:bold;font-stretch:normal;font-size:6.35px;line-height:1;font-family:Roboto;-inkscape-font-specification:'Roboto Bold';font-variant-ligatures:normal;font-variant-caps:normal;font-variant-numeric:normal;font-variant-east-asian:normal;font-variation-settings:'wght' 100;letter-spacing:0px;word-spacing:0px;writing-mode:lr-tb;white-space:pre;fill:#ffffff"
           id="path1355" />
        <path
           d="m 94.751582,84.025893 h 0.64182 q 0.43408,0 0.76274,0.145728 0.32867,0.145727 0.5023,0.418579 0.17673,0.269751 0.17673,0.629419 0,0.5302 -0.39377,0.855762 -0.39068,0.322461 -1.0666,0.322461 h -1.522391 v -3.354834 h 0.899171 z m 0,0.719336 v 0.936377 h 0.63562 q 0.26665,0 0.40928,-0.124023 0.14262,-0.124024 0.14262,-0.337964 0,-0.217041 -0.13952,-0.344165 -0.13953,-0.130225 -0.41238,-0.130225 z"
           style="font-style:normal;font-variant:normal;font-weight:bold;font-stretch:normal;font-size:6.35px;line-height:1;font-family:Roboto;-inkscape-font-specification:'Roboto Bold';font-variant-ligatures:normal;font-variant-caps:normal;font-variant-numeric:normal;font-variant-east-asian:normal;font-variation-settings:'wght' 100;letter-spacing:0px;word-spacing:0px;writing-mode:lr-tb;white-space:pre;fill:#ffffff"
           id="path1357" />
        <path
           d="M 64.275923,92.952682 H 63.224824 V 90.404 H 62.30085 v 2.548682 h -1.044898 v -3.354834 h 3.019971 z"
           style="font-style:normal;font-variant:normal;font-weight:900;font-stretch:normal;font-size:6.35px;line-height:1;font-family:Roboto;-inkscape-font-specification:'Roboto Heavy';font-variant-ligatures:normal;font-variant-caps:normal;font-variant-numeric:normal;font-variant-east-asian:normal;font-variation-settings:'wght' 100;letter-spacing:0px;word-spacing:0px;writing-mode:lr-tb;white-space:pre;fill:#ffffff"
           id="path1359" />
        <path
           d="m 64.703804,91.244259 q 0,-0.502295 0.195337,-0.892969 0.195336,-0.393774 0.561206,-0.604614 0.365869,-0.21084 0.858862,-0.21084 0.753442,0 1.187524,0.468188 0.434082,0.465088 0.434082,1.26814 v 0.03721 q 0,0.784448 -0.437182,1.246436 -0.434082,0.458886 -1.178223,0.458886 -0.716235,0 -1.150317,-0.427881 -0.434082,-0.430981 -0.468189,-1.16582 z m 1.044897,0.06511 q 0,0.465088 0.145728,0.682129 0.145727,0.217041 0.430981,0.217041 0.558105,0 0.570508,-0.858862 v -0.10542 q 0,-0.902271 -0.576709,-0.902271 -0.523999,0 -0.567407,0.778247 z"
           style="font-style:normal;font-variant:normal;font-weight:900;font-stretch:normal;font-size:6.35px;line-height:1;font-family:Roboto;-inkscape-font-specification:'Roboto Heavy';font-variant-ligatures:normal;font-variant-caps:normal;font-variant-numeric:normal;font-variant-east-asian:normal;font-variation-settings:'wght' 100;letter-spacing:0px;word-spacing:0px;writing-mode:lr-tb;white-space:pre;fill:#ffffff"
           id="path1361" />
        <path
           d="m 69.81977,92.208541 q 0.220142,0 0.341065,-0.117822 0.120923,-0.120923 0.117822,-0.334864 h 0.979785 q 0,0.551905 -0.396875,0.905372 -0.393774,0.353466 -1.016992,0.353466 -0.731738,0 -1.153418,-0.458886 -0.42168,-0.458887 -0.42168,-1.271241 v -0.04341 q 0,-0.508496 0.186036,-0.896069 0.189135,-0.390674 0.542602,-0.598413 0.353467,-0.21084 0.837158,-0.21084 0.654224,0 1.038697,0.362769 0.384472,0.362768 0.384472,0.982885 h -0.979785 q 0,-0.260449 -0.127124,-0.399975 -0.127124,-0.139527 -0.341064,-0.139527 -0.406177,0 -0.47439,0.517798 -0.0217,0.164331 -0.0217,0.452686 0,0.505395 0.120923,0.700732 0.120923,0.195337 0.384472,0.195337 z"
           style="font-style:normal;font-variant:normal;font-weight:900;font-stretch:normal;font-size:6.35px;line-height:1;font-family:Roboto;-inkscape-font-specification:'Roboto Heavy';font-variant-ligatures:normal;font-variant-caps:normal;font-variant-numeric:normal;font-variant-east-asian:normal;font-variation-settings:'wght' 100;letter-spacing:0px;word-spacing:0px;writing-mode:lr-tb;white-space:pre;fill:#ffffff"
           id="path1363" />
        <path
           d="m 73.800922,91.799264 0.759644,-2.201416 h 1.314648 v 3.354834 H 74.827216 V 91.09233 l -0.675927,1.860352 h -0.694532 l -0.63872,-1.761133 v 1.761133 h -1.047998 v -3.354834 h 1.283642 z"
           style="font-style:normal;font-variant:normal;font-weight:900;font-stretch:normal;font-size:6.35px;line-height:1;font-family:Roboto;-inkscape-font-specification:'Roboto Heavy';font-variant-ligatures:normal;font-variant-caps:normal;font-variant-numeric:normal;font-variant-east-asian:normal;font-variation-settings:'wght' 100;letter-spacing:0px;word-spacing:0px;writing-mode:lr-tb;white-space:pre;fill:#ffffff"
           id="path1365" />
        <path
           d="m 76.442622,91.244259 q 0,-0.502295 0.195337,-0.892969 0.195337,-0.393774 0.561206,-0.604614 0.365869,-0.21084 0.858863,-0.21084 0.753442,0 1.187524,0.468188 0.434082,0.465088 0.434082,1.26814 v 0.03721 q 0,0.784448 -0.437183,1.246436 -0.434082,0.458886 -1.178222,0.458886 -0.716236,0 -1.150318,-0.427881 -0.434082,-0.430981 -0.468188,-1.16582 z m 1.044898,0.06511 q 0,0.465088 0.145727,0.682129 0.145728,0.217041 0.430982,0.217041 0.558105,0 0.570507,-0.858862 v -0.10542 q 0,-0.902271 -0.576708,-0.902271 -0.524,0 -0.567408,0.778247 z"
           style="font-style:normal;font-variant:normal;font-weight:900;font-stretch:normal;font-size:6.35px;line-height:1;font-family:Roboto;-inkscape-font-specification:'Roboto Heavy';font-variant-ligatures:normal;font-variant-caps:normal;font-variant-numeric:normal;font-variant-east-asian:normal;font-variation-settings:'wght' 100;letter-spacing:0px;word-spacing:0px;writing-mode:lr-tb;white-space:pre;fill:#ffffff"
           id="path1367" />
        <path
           d="m 82.984858,90.397799 h -1.0573 v 2.554883 h -1.051099 v -2.554883 h -1.041797 v -0.799951 h 3.150196 z"
           style="font-style:normal;font-variant:normal;font-weight:900;font-stretch:normal;font-size:6.35px;line-height:1;font-family:Roboto;-inkscape-font-specification:'Roboto Heavy';font-variant-ligatures:normal;font-variant-caps:normal;font-variant-numeric:normal;font-variant-east-asian:normal;font-variation-settings:'wght' 100;letter-spacing:0px;word-spacing:0px;writing-mode:lr-tb;white-space:pre;fill:#ffffff"
           id="path1369" />
        <path
           d="m 86.48852,91.300069 q 0,0.781348 -0.353467,1.249536 -0.350366,0.465088 -0.948779,0.465088 -0.461987,0 -0.759644,-0.337964 v 1.565796 h -1.044897 v -4.644677 h 0.976685 l 0.03101,0.310058 q 0.300757,-0.37207 0.79065,-0.37207 0.620117,0 0.964282,0.458887 0.344165,0.455786 0.344165,1.255737 z m -1.044897,-0.06511 q 0,-0.892969 -0.520899,-0.892969 -0.37207,0 -0.496094,0.266651 v 1.320849 q 0.136426,0.279053 0.502295,0.279053 0.499195,0 0.514698,-0.861963 z"
           style="font-style:normal;font-variant:normal;font-weight:900;font-stretch:normal;font-size:6.35px;line-height:1;font-family:Roboto;-inkscape-font-specification:'Roboto Heavy';font-variant-ligatures:normal;font-variant-caps:normal;font-variant-numeric:normal;font-variant-east-asian:normal;font-variation-settings:'wght' 100;letter-spacing:0px;word-spacing:0px;writing-mode:lr-tb;white-space:pre;fill:#ffffff"
           id="path1371" />
        <path
           d="m 88.572114,93.014693 q -0.772046,0 -1.249536,-0.458886 -0.47749,-0.461988 -0.47749,-1.199927 v -0.08682 q 0,-0.514697 0.189136,-0.908471 0.192236,-0.393775 0.558105,-0.607715 0.365869,-0.217041 0.868164,-0.217041 0.706934,0 1.116211,0.440283 0.409277,0.437183 0.409277,1.221631 v 0.406177 h -2.077392 q 0.05581,0.282153 0.244946,0.443384 0.189136,0.16123 0.489893,0.16123 0.496093,0 0.775146,-0.347266 l 0.47749,0.564307 q -0.195337,0.269751 -0.555004,0.430981 -0.356568,0.15813 -0.768946,0.15813 z m -0.117822,-2.672705 q -0.458887,0 -0.545703,0.607715 h 1.054199 v -0.08061 q 0.0062,-0.251148 -0.127124,-0.387573 -0.133325,-0.139527 -0.381372,-0.139527 z"
           style="font-style:normal;font-variant:normal;font-weight:900;font-stretch:normal;font-size:6.35px;line-height:1;font-family:Roboto;-inkscape-font-specification:'Roboto Heavy';font-variant-ligatures:normal;font-variant-caps:normal;font-variant-numeric:normal;font-variant-east-asian:normal;font-variation-settings:'wght' 100;letter-spacing:0px;word-spacing:0px;writing-mode:lr-tb;white-space:pre;fill:#ffffff"
           id="path1373" />
        <path
           d="m 93.309809,90.397799 h -1.0573 v 2.554883 H 91.20141 v -2.554883 h -1.041797 v -0.799951 h 3.150196 z"
           style="font-style:normal;font-variant:normal;font-weight:900;font-stretch:normal;font-size:6.35px;line-height:1;font-family:Roboto;-inkscape-font-specification:'Roboto Heavy';font-variant-ligatures:normal;font-variant-caps:normal;font-variant-numeric:normal;font-variant-east-asian:normal;font-variation-settings:'wght' 100;letter-spacing:0px;word-spacing:0px;writing-mode:lr-tb;white-space:pre;fill:#ffffff"
           id="path1375" />
        <path
           d="m 94.819792,90.518722 h 0.53641 q 0.46508,0 0.81855,0.151928 0.35347,0.151929 0.5395,0.430982 0.18604,0.279053 0.18604,0.648022 0,0.542603 -0.42168,0.874366 -0.41858,0.328662 -1.14412,0.328662 h -1.565794 v -3.354834 h 1.051094 z m 0,0.803051 v 0.830957 h 0.5302 q 0.23875,0 0.37207,-0.10852 0.13643,-0.111621 0.13643,-0.300757 0,-0.186035 -0.12092,-0.303857 -0.12092,-0.117823 -0.38758,-0.117823 z"
           style="font-style:normal;font-variant:normal;font-weight:900;font-stretch:normal;font-size:6.35px;line-height:1;font-family:Roboto;-inkscape-font-specification:'Roboto Heavy';font-variant-ligatures:normal;font-variant-caps:normal;font-variant-numeric:normal;font-variant-east-asian:normal;font-variation-settings:'wght' 100;letter-spacing:0px;word-spacing:0px;writing-mode:lr-tb;white-space:pre;fill:#ffffff"
           id="path1377" />
      </g>
    </g>
    <text
       xml:space="preserve"
       style="font-size:11.2889px;line-height:1.25;font-family:Monoton;-inkscape-font-specification:Monoton;letter-spacing:0px;word-spacing:0px;writing-mode:lr-tb;stroke-width:0.264583"
       x="67.649498"
       y="63.79174"
       id="text1004"><tspan
         sodipodi:role="line"
         id="tspan1002"
         x="67.649498"
         y="63.79174"
         style="stroke-width:0.264583" /></text>
  </g>
</svg>
