<?xml version="1.0" encoding="UTF-8" standalone="no"?>
<svg
   xmlns:dc="http://purl.org/dc/elements/1.1/"
   xmlns:cc="http://creativecommons.org/ns#"
   xmlns:rdf="http://www.w3.org/1999/02/22-rdf-syntax-ns#"
   xmlns:svg="http://www.w3.org/2000/svg"
   xmlns="http://www.w3.org/2000/svg"
   xmlns:xlink="http://www.w3.org/1999/xlink"
   xmlns:sodipodi="http://sodipodi.sourceforge.net/DTD/sodipodi-0.dtd"
   xmlns:inkscape="http://www.inkscape.org/namespaces/inkscape"
   inkscape:export-ydpi="72"
   inkscape:export-xdpi="72"
   inkscape:export-filename="/home/madhead/Projects/2D/parastaev.png"
   inkscape:version="1.0 (4035a4fb49, 2020-05-01)"
   id="svg8"
   version="1.1"
   viewBox="0 0 2048 2048"
   height="2048pt"
   width="2048pt"
   sodipodi:docname="parastaev.svg">
  <defs
     id="defs2">
    <linearGradient
       id="linearGradient892"
       inkscape:collect="always">
      <stop
         id="stop888"
         offset="0"
         style="stop-color:#00ffff;stop-opacity:0.33219266" />
      <stop
         id="stop890"
         offset="0.99999988"
         style="stop-color:#000000;stop-opacity:0;" />
    </linearGradient>
    <inkscape:path-effect
       overflow_perspective="false"
       vertical_mirror="true"
       horizontal_mirror="false"
       deform_type="perspective"
       lpeversion="1"
       is_visible="true"
       id="path-effect3133"
       down_right_point="2047.9999,2047.9999"
       down_left_point="-1000,2048"
       up_right_point="2048,1235.812"
       up_left_point="0,1235.812"
       effect="perspective-envelope" />
    <inkscape:path-effect
       effect="perspective-envelope"
       up_left_point="0,1235.812"
       up_right_point="2048,1235.812"
       down_left_point="-1000,2048"
       down_right_point="2047.9999,2047.9999"
       id="path-effect3061"
       is_visible="true"
       lpeversion="1"
       deform_type="perspective"
       horizontal_mirror="false"
       vertical_mirror="true"
       overflow_perspective="false" />
    <linearGradient
       inkscape:collect="always"
       id="linearGradient2915">
      <stop
         style="stop-color:#ff5b00;stop-opacity:1"
         offset="0"
         id="stop2911" />
      <stop
         id="stop2931"
         offset="0.11101941"
         style="stop-color:#fb1f2f;stop-opacity:1" />
      <stop
         id="stop2921"
         offset="0.39534396"
         style="stop-color:#632346;stop-opacity:1" />
      <stop
         id="stop2919"
         offset="0.77674592"
         style="stop-color:#000000;stop-opacity:1" />
      <stop
         style="stop-color:#000000;stop-opacity:1"
         offset="1"
         id="stop2913" />
    </linearGradient>
    <linearGradient
       inkscape:collect="always"
       id="linearGradient2198">
      <stop
         style="stop-color:#ff5b00;stop-opacity:1"
         offset="0"
         id="stop2194" />
      <stop
         style="stop-color:#ff0092;stop-opacity:1"
         offset="1"
         id="stop2196" />
    </linearGradient>
    <linearGradient
       inkscape:collect="always"
       xlink:href="#linearGradient2198"
       id="linearGradient2200"
       x1="1015.8024"
       y1="321.80713"
       x2="1015.8024"
       y2="1142.1237"
       gradientUnits="userSpaceOnUse"
       gradientTransform="scale(1.3333333)" />
    <linearGradient
       inkscape:collect="always"
       xlink:href="#linearGradient2915"
       id="linearGradient2917"
       x1="2311.9346"
       y1="1640.4305"
       x2="2311.9346"
       y2="-89.966209"
       gradientUnits="userSpaceOnUse" />
    <filter
       y="-0.25"
       height="1.5"
       inkscape:menu-tooltip="Darkens the edge with an inner blur and adds a flexible glow"
       inkscape:menu="Shadows and Glows"
       inkscape:label="Dark and Glow"
       style="color-interpolation-filters:sRGB;"
       id="filter3129">
      <feGaussianBlur
         stdDeviation="15"
         result="result6"
         id="feGaussianBlur3119" />
      <feComposite
         result="result8"
         operator="over"
         in2="result6"
         id="feComposite3121" />
      <feComposite
         result="result9"
         operator="over"
         in2="SourceAlpha"
         in="result8"
         id="feComposite3123" />
      <feColorMatrix
         values="1 0 0 0 0 0 1 0 0 0 0 0 1 0 0 0 0 0 1 0 "
         result="result10"
         id="feColorMatrix3125" />
      <feBlend
         in="result10"
         mode="normal"
         in2="result6"
         id="feBlend3127" />
    </filter>
    <linearGradient
       gradientUnits="userSpaceOnUse"
       y2="1748.7234"
       x2="1251.776"
       y1="1273.4436"
       x1="1251.776"
       id="linearGradient894"
       xlink:href="#linearGradient892"
       inkscape:collect="always" />
  </defs>
  <sodipodi:namedview
     inkscape:window-maximized="1"
     inkscape:window-y="0"
     inkscape:window-x="0"
     inkscape:window-height="999"
     inkscape:window-width="1920"
     inkscape:object-paths="true"
     inkscape:snap-global="false"
     id="base"
     pagecolor="#ffffff"
     bordercolor="#666666"
     borderopacity="1.0"
     inkscape:pageopacity="0.0"
     inkscape:pageshadow="2"
     inkscape:zoom="0.19619047"
     inkscape:cx="1956.3683"
     inkscape:cy="1090.3341"
     inkscape:document-units="pt"
     inkscape:current-layer="layer3"
     inkscape:document-rotation="0"
     showgrid="false"
     units="pt" />
  <metadata
     id="metadata5">
    <rdf:RDF>
      <cc:Work
         rdf:about="">
        <dc:format>image/svg+xml</dc:format>
        <dc:type
           rdf:resource="http://purl.org/dc/dcmitype/StillImage" />
        <dc:title />
      </cc:Work>
    </rdf:RDF>
  </metadata>
  <g
     inkscape:groupmode="layer"
     id="layer3"
     inkscape:label="background"
     style="display:inline">
    <path
       id="path900"
       style="fill:#000000;fill-opacity:1;stroke:none;stroke-width:5;stroke-linecap:round;stroke-linejoin:round;stroke-miterlimit:4;stroke-dasharray:none;stroke-dashoffset:7.28882;paint-order:stroke fill markers"
       d="m 0,1235.812 v 812.187 h 2047.9995 v -812.187 z" />
    <path
       d="m 0,1235.812 v 812.187 h 2047.9995 v -812.187 z"
       style="fill:url(#linearGradient894);fill-opacity:1;stroke:none;stroke-width:5;stroke-linecap:round;stroke-linejoin:round;stroke-miterlimit:4;stroke-dasharray:none;stroke-dashoffset:7.28882;paint-order:stroke fill markers"
       id="path63" />
    <path
       d="M -5e-5,1235.812 -500,2048 M 187.49995,1235.812 -220.94728,2048 M 374.99996,1235.812 58.105463,2048 M 562.49996,1235.812 337.15819,2048 M 749.99997,1235.812 616.21093,2048 M 937.49997,1235.812 895.26365,2048 M 1125,1235.812 1174.3164,2048 M 1312.5,1235.812 1453.3692,2048 M 1500,1235.812 1732.4219,2048 M 1687.4999,1235.812 2011.4745,2048 M 1874.9999,1235.812 2290.5272,2048 M -5e-5,1235.812 H 2048 M -31.710405,1287.3215 H 2079.7103 M -65.447482,1342.1232 H 2113.4474 m -2214.85939,58.4199 H 2149.4119 m -2289.24397,62.4087 H 2187.832 m -2368.80008,66.8203 H 2228.968 m -2454.08658,71.7171 H 2273.1185 m -2545.74602,77.1723 H 2320.6274 m -2644.52064,83.2748 H 2371.8931 m -2751.27277,90.1309 H 2427.3796 m -2867.0101,97.87 h 2927.2609"
       style="fill:none;stroke:#00ffff;stroke-width:5;stroke-miterlimit:4;stroke-dasharray:none;stroke-linejoin:round;stroke-linecap:round;filter:url(#filter3129)"
       id="path2951"
       inkscape:path-effect="#path-effect3061"
       inkscape:original-d="M 0,0 0,2047.9999 M 187.49999,0 l 0,2047.9999 M 374.99999,0 l 0,2047.9999 M 562.49998,0 l 0,2047.9999 M 749.99998,0 l 0,2047.9999 M 937.49997,0 l 0,2047.9999 M 1125,0 l 0,2047.9999 M 1312.5,0 l 0,2047.9999 M 1500,0 l 0,2047.9999 M 1687.4999,0 l 0,2047.9999 M 1874.9999,0 l 0,2047.9999 M 0,0 2047.9999,0 M 0,187.49999 l 2047.9999,0 M 0,374.99999 l 2047.9999,0 M 0,562.49998 l 2047.9999,0 M 0,749.99998 l 2047.9999,0 M 0,937.49997 l 2047.9999,0 M 0,1125 l 2047.9999,0 M 0,1312.5 l 2047.9999,0 M 0,1500 l 2047.9999,0 M 0,1687.4999 l 2047.9999,0 M 0,1874.9999 l 2047.9999,0" />
    <path
       inkscape:path-effect="#path-effect3133"
       inkscape:original-d="M 0,0 0,2047.9999 M 187.49999,0 l 0,2047.9999 M 374.99999,0 l 0,2047.9999 M 562.49998,0 l 0,2047.9999 M 749.99998,0 l 0,2047.9999 M 937.49997,0 l 0,2047.9999 M 1125,0 l 0,2047.9999 M 1312.5,0 l 0,2047.9999 M 1500,0 l 0,2047.9999 M 1687.4999,0 l 0,2047.9999 M 1874.9999,0 l 0,2047.9999 M 0,0 2047.9999,0 M 0,187.49999 l 2047.9999,0 M 0,374.99999 l 2047.9999,0 M 0,562.49998 l 2047.9999,0 M 0,749.99998 l 2047.9999,0 M 0,937.49997 l 2047.9999,0 M 0,1125 l 2047.9999,0 M 0,1312.5 l 2047.9999,0 M 0,1500 l 2047.9999,0 M 0,1687.4999 l 2047.9999,0 M 0,1874.9999 l 2047.9999,0"
       id="path3131"
       style="fill:none;stroke:#00ffff;stroke-width:5;stroke-miterlimit:4;stroke-dasharray:none;stroke-linejoin:round;stroke-linecap:round;"
       d="M -5e-5,1235.812 -500,2048 M 187.49995,1235.812 -220.94728,2048 M 374.99996,1235.812 58.105463,2048 M 562.49996,1235.812 337.15819,2048 M 749.99997,1235.812 616.21093,2048 M 937.49997,1235.812 895.26365,2048 M 1125,1235.812 1174.3164,2048 M 1312.5,1235.812 1453.3692,2048 M 1500,1235.812 1732.4219,2048 M 1687.4999,1235.812 2011.4745,2048 M 1874.9999,1235.812 2290.5272,2048 M -5e-5,1235.812 H 2048 M -31.710405,1287.3215 H 2079.7103 M -65.447482,1342.1232 H 2113.4474 m -2214.85939,58.4199 H 2149.4119 m -2289.24397,62.4087 H 2187.832 m -2368.80008,66.8203 H 2228.968 m -2454.08658,71.7171 H 2273.1185 m -2545.74602,77.1723 H 2320.6274 m -2644.52064,83.2748 H 2371.8931 m -2751.27277,90.1309 H 2427.3796 m -2867.0101,97.87 h 2927.2609" />
    <path
       id="rect1241"
       style="fill:url(#linearGradient2917);fill-opacity:1;stroke:none;stroke-width:6.66669;stroke-linecap:round;stroke-linejoin:round;stroke-miterlimit:4;stroke-dasharray:none;stroke-dashoffset:7.28882;paint-order:stroke fill markers"
       d="M 0,0 V 1647.75 H 2730.666 V 0 Z"
       transform="scale(0.75)" />
    <path
       id="path1453"
       style="fill:url(#linearGradient2200);fill-opacity:1;stroke:none;stroke-width:6.66667;stroke-linecap:round;stroke-linejoin:round;stroke-miterlimit:4;stroke-dasharray:none;stroke-dashoffset:7.28882;paint-order:stroke fill markers"
       d="M 1365.334,312.53125 A 583.87443,612.80152 0 0 0 791.11328,814.35938 H 1939.5547 A 583.87443,612.80152 0 0 0 1365.334,312.53125 Z M 784.875,859.14258 a 583.87443,612.80152 0 0 0 -3.41406,65.50195 H 1949.207 a 583.87443,612.80152 0 0 0 -3.416,-65.50195 z m -0.4043,128.33203 a 583.87443,612.80152 0 0 0 9.79492,65.50199 H 1936.4004 a 583.87443,612.80152 0 0 0 9.7969,-65.50199 z m 31.83008,146.37889 a 583.87443,612.80152 0 0 0 26.78516,65.502 H 1887.5801 a 583.87443,612.80152 0 0 0 26.7851,-65.502 z m 85.74219,164.4297 a 583.87443,612.80152 0 0 0 55.38086,65.502 h 815.81837 a 583.87443,612.80152 0 0 0 55.3808,-65.502 z m 216.61523,182.4766 a 583.87443,612.80152 0 0 0 246.6758,57.375 583.87443,612.80152 0 0 0 246.6738,-57.375 z"
       transform="scale(0.75)" />
  </g>
  <g
     inkscape:label="trace"
     id="layer2"
     inkscape:groupmode="layer"
     style="display:inline">
    <path
       style="fill:#ffffff;fill-opacity:1;stroke:none;stroke-width:6.66667;stroke-linecap:round;stroke-linejoin:round;stroke-miterlimit:4;stroke-dasharray:none;stroke-dashoffset:7.28882;paint-order:stroke fill markers"
       d="m 624,2202.7461 c -14.28745,0.02 -28.76909,0.7282 -43.15234,1.9336 -41.06716,3.4415 -81.31387,10.8812 -114.01954,17.6133 -9.11964,1.8771 -17.43569,3.6568 -25.20898,5.3242 12.63726,66.1052 26.50376,94.2093 47.06641,110.3984 20.48008,16.1242 49.00038,21.0198 91.08203,38.6387 l 5.15625,-35.8711 c 0.23582,-1.6407 1.64126,-2.8589 3.29883,-2.8594 h 189.44726 l 13.25586,-31.1601 c 0.52294,-1.23 1.7299,-2.0287 3.06641,-2.0293 h 291.72071 c -39.7291,-20.4288 -66.1945,-20.9051 -107.09571,-22.4434 -43.13251,-1.6223 -72.02587,-1.8027 -121.84375,3.1309 -29.83655,2.9548 -64.14896,-10.3869 -96.35742,-27.5235 -32.14209,-17.101 -62.20423,-38.1678 -82.89258,-51.4043 -17.10533,-2.6608 -35.15386,-3.774 -53.52344,-3.748 z"
       id="path1507"
       transform="scale(0.75)" />
    <path
       style="fill:#ffffff;fill-opacity:1;stroke:none;stroke-width:6.66667;stroke-linecap:round;stroke-linejoin:round;stroke-miterlimit:4;stroke-dasharray:none;stroke-dashoffset:7.28882;paint-order:stroke fill markers"
       d="m 2162.7441,2105.0234 c -1.8297,0 -3.6618,0 -5.4961,0.01 -20.3444,0.1244 -40.9293,1.383 -61.0898,4.1211 -41.7419,5.6693 -81.6415,17.6643 -113.9062,38.8203 -32.2173,21.1248 -56.8829,51.273 -68.627,93.8672 -0.1826,0.8781 -0.7114,1.6455 -1.4668,2.1289 -42.0931,26.916 -97.2047,47.2093 -155.3477,41.4512 -51.0121,-5.0519 -103.4997,-34.2335 -145.0703,-32.6699 -41.4186,1.5577 -66.9761,20.2682 -90.459,51.9824 h 298.3106 c 1.3372,-2e-4 2.5452,0.7987 3.0684,2.0293 l 13.2539,31.1601 h 189.4472 c 1.6576,4e-4 3.0631,1.2187 3.2989,2.8594 l 5.166,35.9512 c 72.2438,-26.234 129.0093,-56.1597 165.1718,-97.7344 36.0345,-41.4274 52.0327,-94.4477 42.7735,-168.4453 -24.6975,-3.2918 -51.5818,-5.4218 -79.0274,-5.5274 z"
       id="path1503"
       transform="scale(0.75)" />
    <path
       style="fill:#ffffff;fill-opacity:1;stroke:none;stroke-width:6.66667;stroke-linecap:round;stroke-linejoin:round;stroke-miterlimit:4;stroke-dasharray:none;stroke-dashoffset:7.28882;paint-order:stroke fill markers"
       d="m 1515.8906,1096.1934 c -71.2737,35.2641 -141.6157,72.2032 -209.1679,82.6211 -65.5591,10.1104 -128.6464,-5.385 -185.5215,-71.4493 0.5852,2.7205 1.1019,5.1481 1.7246,8.0352 14.1719,65.7117 39.4635,132.0451 36.6269,198.8594 24.8708,46.7446 47.4358,74.0934 71.5391,98.3203 25.3629,25.493 52.6139,47.6959 85.6309,84.8789 103.7301,-79.1301 121.9834,-118.2916 231.8769,-237.6758 -4.8643,-24.5682 -12.7666,-50.0817 -17.9648,-77.2969 -5.4188,-28.3689 -12.1233,-58.1375 -14.7442,-86.2929 z"
       id="path1489"
       transform="scale(0.75)" />
    <path
       style="fill:#ffffff;fill-opacity:1;stroke:none;stroke-width:6.66667;stroke-linecap:round;stroke-linejoin:round;stroke-miterlimit:4;stroke-dasharray:none;stroke-dashoffset:7.28882;paint-order:stroke fill markers"
       d="m 1329.1152,828.45117 c -18.6166,-0.0463 -37.257,0.62433 -55.6621,1.40625 -61.9298,2.63103 -124.6107,12.83346 -178.082,36.77539 1.7511,2.71829 3.5406,5.45942 5.418,8.24805 10.5288,15.63947 9.896,32.47853 7.123,49.23633 -2.773,16.7578 -7.5482,33.80339 -6.4101,51.09179 3.3041,50.19222 7.2732,73.67502 16.6777,118.02152 57.8215,73.0186 120.482,89.3364 187.5312,78.9961 66.615,-10.2734 137.4046,-47.5223 209.5977,-83.1856 -0.6486,-9.5893 -0.7632,-18.9593 -0.1113,-27.9805 0.1601,-2.2157 0.7061,-4.1885 1.9453,-5.7734 1.2392,-1.5848 3.135,-2.4942 4.8886,-2.7637 3.5084,-0.5389 6.8143,0.5548 10.4551,1.6621 7.2816,2.2147 15.4919,4.8877 21.7071,2.5196 8.2962,-3.161 13.7875,-11.6029 16.3007,-26.836 2.5132,-15.2331 1.7174,-36.77185 -2.4296,-64.11129 -0.027,-0.17908 -0.044,-0.37739 -0.07,-0.55859 -6.1693,8.43101 -15.7727,23.13258 -21.2519,37.40038 -1.0208,2.6585 -3.3496,3.6815 -5.4453,4.2695 -2.0959,0.5883 -4.3596,0.7431 -6.584,0.6133 -2.2245,-0.1298 -4.3737,-0.5226 -6.3008,-1.4043 -0.9636,-0.4408 -1.9022,-1.0043 -2.7187,-1.9472 -0.8164,-0.943 -1.441,-2.4426 -1.3028,-3.9258 3.254,-34.91887 -1.11,-77.03334 -8.5508,-116.30276 -54.0549,-45.98249 -120.2368,-55.28592 -186.7246,-55.45117 z"
       transform="scale(0.75)"
       id="path1477" />
    <path
       style="fill:#ffffff;fill-opacity:1;stroke:none;stroke-width:6.66667;stroke-linecap:round;stroke-linejoin:round;stroke-miterlimit:4;stroke-dasharray:none;stroke-dashoffset:7.28882;paint-order:stroke fill markers"
       d="m 1276.0801,686.25391 c -26.252,0.0414 -52.3963,5.64556 -78.5567,18.41211 -28.336,13.8283 -56.7337,36.1496 -85.1328,69.10156 42.7302,-26.51501 99.0639,-37.84644 156.7188,-38.54883 9.6435,-0.11748 19.3231,0.0625 28.9824,0.51758 72.7807,3.42888 144.4233,22.51093 190.832,49.36719 -2.112,-5.47893 -4.1521,-10.30326 -6.0566,-14.27149 -53.4874,-36.31711 -106.7238,-66.91575 -159.3906,-78.99023 -15.8555,-3.63505 -31.6453,-5.61269 -47.3965,-5.58789 z"
       transform="scale(0.75)"
       id="path1467" />
    <path
       style="fill:#4d4d4d;fill-opacity:1;stroke:none;stroke-width:6.66667;stroke-linecap:round;stroke-linejoin:round;stroke-miterlimit:4;stroke-dasharray:none;stroke-dashoffset:7.28882;paint-order:stroke fill markers"
       d="m 853.27539,2442.9277 39.69727,287.7383 h 821.74414 l 39.6953,-287.7383 z"
       transform="scale(0.75)"
       id="path1381" />
    <path
       style="fill:#4d4d4d;fill-opacity:1;stroke:none;stroke-width:6.66667;stroke-linecap:round;stroke-linejoin:round;stroke-miterlimit:4;stroke-dasharray:none;stroke-dashoffset:7.28882;paint-order:stroke fill markers"
       d="m 796.19727,2311.4023 -13.25586,31.1602 c -0.52294,1.23 -1.7299,2.0287 -3.06641,2.0293 H 591.11133 l -13.17578,91.668 H 2035.6484 l -13.1757,-91.668 H 1833.709 c -1.3365,-6e-4 -2.5435,-0.7993 -3.0664,-2.0293 l -13.2559,-31.1602 z"
       id="path1345"
       transform="scale(0.75)" />
    <path
       style="fill:#b1ffff;fill-opacity:1;stroke:none;stroke-width:6.66667;stroke-linecap:round;stroke-linejoin:round;stroke-miterlimit:4;stroke-dasharray:none;stroke-dashoffset:7.28882;paint-order:stroke fill markers"
       d="m 1761.1426,2442.9278 -39.6953,287.7383 h 235.3418 c -4.1798,-22.7661 -7.7406,-52.419 -6.7891,-87.2324 0.5389,-19.7151 10.2858,-30.2839 19.0918,-40.8652 8.806,-10.5814 16.9856,-21.3212 17.3516,-44.0801 0.6765,-42.0821 0.7403,-64.6488 -11.7188,-115.5606 z"
       transform="scale(0.75)"
       id="path1316" />
    <path
       style="fill:#b1ffff;fill-opacity:1;stroke:none;stroke-width:6.66667;stroke-linecap:round;stroke-linejoin:round;stroke-miterlimit:4;stroke-dasharray:none;stroke-dashoffset:7.28882;paint-order:stroke fill markers"
       d="m 790.23633,2442.9278 c -1.77489,20.5966 2.31169,45.119 7.0039,69.4063 4.9175,25.4533 10.47278,50.6034 10.08594,71.3906 -1.06712,57.3431 -9.52046,102.5129 -9.70508,146.9414 h 88.62305 l -39.69922,-287.7383 z"
       transform="scale(0.75)"
       id="path1312" />
    <path
       style="fill:#b1ffff;fill-opacity:1;stroke:none;stroke-width:6.66667;stroke-linecap:round;stroke-linejoin:round;stroke-miterlimit:4;stroke-dasharray:none;stroke-dashoffset:7.28882;paint-order:stroke fill markers"
       d="m 435.09766,2229.002 c -11.5895,2.4742 -21.43896,4.5132 -28.9375,5.6777 12.48961,7.3922 17.16256,7.7282 32.09961,9.9101 -1.06701,-4.9687 -2.12043,-10.1442 -3.16211,-15.5878 z"
       transform="scale(0.75)"
       id="path1276" />
    <path
       style="fill:#b1ffff;fill-opacity:1;stroke:none;stroke-width:6.66667;stroke-linecap:round;stroke-linejoin:round;stroke-miterlimit:4;stroke-dasharray:none;stroke-dashoffset:7.28882;paint-order:stroke fill markers"
       d="m 694.79102,2209.793 c 19.364,12.7422 43.44336,28.7502 68.75781,42.2187 4.31566,2.2961 8.66561,4.5032 13.02734,6.6133 -17.98724,-24.7195 -45.00611,-39.5203 -76.92578,-47.6602 -1.60655,-0.4096 -3.22923,-0.7961 -4.85937,-1.1718 z"
       transform="scale(0.75)"
       id="path1274" />
    <path
       style="fill:#b1ffff;fill-opacity:1;stroke:none;stroke-width:6.66667;stroke-linecap:round;stroke-linejoin:round;stroke-miterlimit:4;stroke-dasharray:none;stroke-dashoffset:7.28882;paint-order:stroke fill markers"
       d="m 2248.6016,2111.502 c 1.3482,11.2267 2.1188,22.0099 2.3242,32.373 11.774,-0.3435 23.0248,0.045 33.8222,-2.0957 10.5477,-2.0915 20.7318,-6.476 31.1016,-16.5117 -18.4715,-5.1388 -41.5494,-10.0586 -67.248,-13.7656 z"
       transform="scale(0.75)"
       id="path1270" />
    <path
       style="fill:#b1ffff;fill-opacity:1;stroke:none;stroke-width:6.66667;stroke-linecap:round;stroke-linejoin:round;stroke-miterlimit:4;stroke-dasharray:none;stroke-dashoffset:7.28882;paint-order:stroke fill markers"
       d="m 1152.7949,1361.8203 c -3.9538,0.4539 -9.24,1.8883 -15.5527,4.4531 -7.3735,2.9956 -15.7874,7.122 -24.3106,11.545 -17.0462,8.8458 -34.4232,18.8386 -45.8515,23.5957 -1.9269,0.8021 -4.5548,0.6612 -6.211,-0.6582 -1.6561,-1.3195 -2.2935,-3.0414 -2.7265,-4.7696 -0.8661,-3.456 -0.7924,-7.5994 -0.4942,-11.875 0.2828,-4.0538 0.8351,-8.1461 1.3399,-11.3613 -125.24478,51.491 -285.9591,134.5017 -360.97658,246.7617 -128.96808,192.9947 -228.41334,409.2637 -278.05469,524.4512 -6.84055,15.8728 -15.3981,38.4338 -20.33398,56.6914 -2.46795,9.1288 -4.00268,17.2426 -4.05078,22.5371 -0.024,2.6472 0.39697,4.5477 0.78711,5.291 0.12949,0.2469 0.1795,0.3721 0.2207,0.4571 0.12514,0.029 0.24819,0.065 0.36914,0.1093 0.0796,-0.01 0.14711,-0.015 0.28125,-0.025 9.88197,-0.5126 35.44088,-6.5056 68.25391,-13.2597 32.81294,-6.7542 73.30437,-14.2486 114.80664,-17.7266 41.50226,-3.478 84.02053,-2.9653 121.00781,6.4668 36.60277,9.3341 67.9236,27.5766 86.69531,59.3809 2.45043,1.067 4.8977,2.0827 7.3418,3.0625 17.27706,-108.1974 51.98041,-244.4468 49.6582,-416.4219 -0.0246,-1.8411 1.44805,-3.353 3.28906,-3.377 1.84102,-0.025 3.35461,1.448 3.37891,3.2891 2.34509,173.6689 -32.84997,311.0734 -49.9668,418.9629 19.2222,7.0789 37.94405,11.0166 54.42188,9.3848 50.08692,-4.9602 79.5233,-4.7822 122.75,-3.1563 44.40761,1.6701 73.92231,2.3962 120.83011,29.1055 h 153.7422 c 1.7041,-313.0322 22.3537,-650.3019 59.2382,-801.836 -6.2518,-7.0715 -12.2953,-13.5992 -18.1601,-19.705 -7.3259,-5.2653 -34.4334,-24.8954 -65.3399,-44.1368 -31.1506,-19.3934 -66.3985,-38.1992 -87.1992,-41.1972 -1.0695,-0.1542 -2.1888,-0.5268 -3.1426,-1.3301 -0.9537,-0.8035 -1.5722,-2.0174 -1.7636,-3.1016 -0.383,-2.1681 0.2757,-3.8339 1.0429,-5.5742 1.5345,-3.4804 4.2092,-7.3418 6.8985,-11.3672 2.6893,-4.0253 5.3822,-8.1657 6.8008,-11.3613 0.6334,-1.4269 0.8884,-2.5242 0.9804,-3.3047 z"
       id="path1262"
       transform="scale(0.75)" />
    <path
       style="fill:#b1ffff;fill-opacity:1;stroke:none;stroke-width:6.66667;stroke-linecap:round;stroke-linejoin:round;stroke-miterlimit:4;stroke-dasharray:none;stroke-dashoffset:7.28882;paint-order:stroke fill markers"
       d="m 1687.291,1311.0352 c -0.394,4.6737 -1.1942,12.0189 -2.791,19.9101 -2.6688,13.1886 -7.0434,28.1309 -17.4453,34.3613 -9.6883,5.8031 -21.3992,6.0717 -33.4785,3.836 -12.0794,-2.2356 -24.7338,-6.9954 -36.8711,-11.875 -12.1374,-4.8798 -23.7735,-9.8877 -33.4531,-12.6875 -8.4798,-2.4527 -15.0059,-2.8283 -19.1739,-1.0957 0.8024,5.6374 4.6694,13.7637 10.4629,22.4765 6.4736,9.7355 14.9022,20.188 22.4434,29.5528 7.5412,9.3648 14.1469,17.4683 17.3261,23.4629 0.7948,1.4986 1.397,2.8699 1.6993,4.3418 0.3024,1.4718 0.3008,3.3802 -0.9414,4.9531 -1.2423,1.5729 -3.1438,2.05 -4.7813,2.082 -1.6373,0.033 -3.342,-0.2877 -5.3984,-0.8633 -75.6164,-21.1658 -141.1253,-18.5079 -191.9141,12.416 -20.2021,19.2205 -43.3552,38.9396 -73.6855,62.004 -36.5547,149.5688 -57.4718,487.6772 -59.1797,800.8242 h 252.9355 c 24.9022,-34.9085 53.3497,-56.9467 98.4453,-58.6426 44.7887,-1.6845 97.0839,27.8534 145.9766,32.6953 55.4092,5.4874 108.4315,-13.5777 149.3477,-39.332 -16.6544,-143.7899 -3.4607,-286.0429 25.7031,-427.3848 0.3162,-1.5386 1.6637,-2.6481 3.2344,-2.6621 0.2375,0 0.4745,0.021 0.707,0.07 1.8022,0.3726 2.9615,2.1351 2.5898,3.9375 -28.156,136.4582 -41.3261,273.529 -27.0781,411.8672 13.4893,-36.5182 37.1246,-63.5395 66.625,-82.8828 33.4031,-21.9024 74.245,-34.0901 116.666,-39.8516 83.2943,-11.3128 172.5268,2.1111 224.7129,17.0274 1.8557,-5.7227 1.5795,-15.7453 -1.6387,-29.1973 -3.6645,-15.3179 -10.5739,-34.6902 -19.75,-56.6855 -18.3521,-43.9908 -45.748,-98.5257 -74.3066,-153.3516 -28.5586,-54.8259 -58.2807,-109.9534 -81.3398,-155.2891 -11.5296,-22.6678 -21.3934,-42.8848 -28.627,-59.4375 -7.2336,-16.5527 -11.8764,-29.2494 -12.875,-37.834 -1.4857,-12.7685 -13.4556,-34.2447 -32.5508,-58.7421 -19.0952,-24.4974 -45.1603,-52.3362 -74.3926,-79.4903 -58.4645,-54.3081 -129.8305,-105.886 -182.9296,-123.1679 -26.5869,-8.6531 -80.5447,-33.3088 -124.2735,-55.3457 z"
       id="path1260"
       transform="scale(0.75)" />
    <path
       style="fill:#b1ffff;fill-opacity:1;stroke:none;stroke-width:6.66667;stroke-linecap:round;stroke-linejoin:round;stroke-miterlimit:4;stroke-dasharray:none;stroke-dashoffset:7.28882;paint-order:stroke fill markers"
       d="m 1149.373,1309.0898 c -15.8031,5.6231 -26.1385,10.895 -32.8847,15.7266 -7.1454,5.1175 -10.5287,9.6693 -13.1719,14.1973 -5.2865,9.0559 -8.0379,19.1277 -27.9102,27.0683 -3.0181,1.2061 -6.0839,2.4505 -9.1503,3.6953 -0.5272,2.8943 -1.5544,8.9971 -1.959,14.7989 -0.2766,3.965 -0.1813,7.8129 0.3144,9.791 0.1522,0.608 0.1699,0.5659 0.2539,0.7207 10.5852,-4.4521 27.9264,-14.3313 44.9961,-23.1895 8.6089,-4.4673 17.1607,-8.6702 24.8711,-11.8027 7.7105,-3.1327 14.4904,-5.2654 20.1817,-5.3164 0.8128,-0.01 1.5994,0.2831 2.2129,0.8164 1.8161,1.5759 2.5423,4.0343 2.4453,6.1367 -0.097,2.1026 -0.7661,4.0749 -1.6641,6.0977 -1.796,4.0458 -4.6494,8.3118 -7.3535,12.3594 -2.7042,4.0476 -5.2721,7.9252 -6.3418,10.3515 -0.2876,0.6516 -0.2426,0.6143 -0.3086,0.9278 23.4972,3.7492 57.8113,22.639 88.7969,41.9296 12.2735,7.6411 23.8518,15.3276 33.8926,22.1954 -14.1051,-13.3661 -27.3333,-25.3506 -40.2286,-38.3126 -25.7866,-25.9186 -50.1465,-55.8911 -76.9922,-108.1914 z"
       transform="scale(0.75)"
       id="path1258" />
    <path
       style="fill:#b1ffff;fill-opacity:1;stroke:none;stroke-width:6.66667;stroke-linecap:round;stroke-linejoin:round;stroke-miterlimit:4;stroke-dasharray:none;stroke-dashoffset:7.28882;paint-order:stroke fill markers"
       d="m 1575.0371,1241.2031 c -84.7322,90.2137 -120.0691,138.314 -165.6953,184.625 49.5026,-22.0151 109.9152,-21.6317 177.3437,-2.7578 1.1262,0.3151 1.6551,0.3331 2.3067,0.4121 -0.1783,-0.457 -0.2349,-0.7465 -0.5723,-1.3828 -2.4993,-4.7123 -9.0913,-13.0458 -16.6289,-22.4062 -7.5377,-9.3604 -16.0705,-19.9214 -22.8008,-30.043 -6.7302,-10.1216 -11.8781,-19.6353 -11.9101,-28.1641 0,-1.0997 0.5363,-2.1292 1.4414,-2.7539 6.9037,-4.7621 16.2463,-3.5443 26.582,-0.5547 10.3359,2.9896 22.0553,8.0679 34.0899,12.9063 12.0346,4.8384 24.3727,9.4268 35.5957,11.5039 11.2229,2.0772 21.1197,1.6231 28.8379,-3 6.6825,-4.0027 11.7943,-17.3839 14.3398,-29.9629 1.8901,-9.3405 2.6338,-18.0003 2.8926,-21.8516 -8.782,-4.478 -17.1024,-8.8209 -24.5235,-12.8339 -31.0189,-16.7738 -65.1439,-28.0729 -81.2988,-53.7364 z"
       id="path1256"
       transform="scale(0.75)" />
    <path
       style="fill:#ff8080;stroke:none;stroke-width:6.66667;stroke-linecap:round;stroke-linejoin:round;stroke-miterlimit:4;stroke-dasharray:none;stroke-dashoffset:7.28882;paint-order:stroke fill markers"
       d="m 1239.0371,1010.9473 c -9.0963,-0.028 -19.3515,3.0609 -29.6816,7.4765 22.903,7.5401 45.8255,6.0654 69.0722,0.4317 -11.8088,-4.5424 -24.9701,-7.8652 -39.3906,-7.9082 z"
       transform="scale(0.75)"
       id="path1232" />
    <path
       style="fill:#784421;fill-opacity:1;stroke:none;stroke-width:6.66667;stroke-linecap:round;stroke-linejoin:round;stroke-miterlimit:4;stroke-dasharray:none;stroke-dashoffset:7.28882;paint-order:stroke fill markers"
       d="m 1241.8555,915.80664 c -0.9676,-0.0162 -1.9326,-0.0154 -2.8965,0.004 -19.4536,0.38932 -41.6851,7.66323 -59.7793,26.41406 -18.0943,18.75083 -32.2068,49.12421 -34.8731,96.2305 -0.1652,2.9187 0.4172,3.5675 0.6172,3.707 0.2001,0.1395 1.4283,0.4415 3.9297,-0.2383 5.0028,-1.3595 13.4355,-5.9778 23.1524,-11.541 19.4337,-11.1263 44.4818,-26.1695 67.0507,-26.1016 28.8851,0.089 52.6882,12.3561 70.3164,22.0801 8.8142,4.8621 16.173,9.0858 21.4161,10.8653 2.6214,0.8897 4.6358,1.1199 5.9004,0.8906 1.2645,-0.2293 1.9859,-0.6546 2.9121,-2.2012 7.2265,-12.0686 8.5484,-25.4026 5.4609,-38.97265 -3.0875,-13.57007 -10.679,-27.29463 -21.2363,-39.46875 -20.4548,-23.58737 -51.9763,-41.15431 -81.9707,-41.66797 z"
       id="path1230"
       transform="scale(0.75)" />
    <path
       style="fill:#784421;stroke:none;stroke-width:6.66667;stroke-linecap:round;stroke-linejoin:round;stroke-miterlimit:4;stroke-dasharray:none;stroke-dashoffset:7.28882;paint-order:stroke fill markers"
       d="m 1237.875,879.34375 c -5.619,-0.0336 -20.4347,4.20235 -31.75,9.43945 -5.6577,2.61856 -10.5967,5.52806 -13.2344,7.86328 -1.1278,0.99851 -1.5389,1.70925 -1.75,2.10938 0.7371,0.0251 1.942,-0.0647 3.4317,-0.28516 3.0109,-0.44566 7.1643,-1.37647 11.8867,-2.41601 9.4447,-2.07911 21.1972,-4.60621 32.1816,-4.41211 12.6362,0.22328 26.0595,2.70418 36.6016,4.67187 5.271,0.98384 9.8351,1.84143 13.0566,2.23047 1.3052,0.15759 2.1802,0.17938 2.9258,0.17969 -0.3221,-0.5682 -0.9511,-1.44701 -2.2637,-2.51953 -2.9568,-2.41607 -8.1796,-5.25055 -14.2441,-7.77735 -12.1291,-5.0536 -27.9139,-9.03048 -36.8418,-9.08398 z"
       id="path1226"
       transform="scale(0.75)" />
    <path
       style="fill:#784421;stroke:none;stroke-width:6.66667;stroke-linecap:round;stroke-linejoin:round;stroke-miterlimit:4;stroke-dasharray:none;stroke-dashoffset:7.28882;paint-order:stroke fill markers"
       d="m 1493.3105,777.99609 c 19.0536,46.40071 44.4105,147.90595 37.7735,221.96289 0.063,0.0365 0.015,0.0171 0.1035,0.0566 0.7649,0.35 2.3137,0.7176 3.9141,0.8106 1.6004,0.093 3.2879,-0.065 4.3925,-0.375 1.1045,-0.3102 1.2256,-0.7704 1.0235,-0.2422 7.5712,-19.71787 21.2313,-38.48811 26.6523,-44.83512 -0.7459,-19.76261 2.7668,-47.19207 6.4629,-74.75 1.8977,-14.14899 3.8458,-28.30911 5.3477,-41.27539 -28.5906,-20.55 -57.1626,-41.64129 -85.67,-61.35352 z"
       id="path1220"
       transform="scale(0.75)" />
    <path
       id="path1186"
       style="fill:#cccccc;stroke:none;stroke-width:6.66667;stroke-linecap:round;stroke-linejoin:round;stroke-miterlimit:4;stroke-dasharray:none;stroke-dashoffset:7.28882;paint-order:stroke fill markers"
       d="m 1276.3359,741.85938 c -68.8535,-0.17206 -136.1324,14.83809 -180.0019,51.68164 -7.8533,10.24305 -15.7061,21.32833 -23.5567,33.30664 5.1924,10.70409 11.4775,22.0578 18.9864,34.10156 54.7942,-24.73536 118.602,-35.08572 181.4062,-37.75391 21.1706,-0.89941 42.7891,-1.66728 64.4258,-1.35156 61.9568,0.90408 124.0538,10.72615 176.2207,51.80859 -6.1585,-29.98327 -13.9284,-57.70907 -21.2129,-78.52343 -44.3904,-28.14643 -119.1485,-49.16717 -194.8242,-52.73243 -7.1485,-0.33678 -14.3043,-0.51933 -21.4434,-0.5371 z m 2.2618,17.76562 c 2.531,0.007 5.0621,0.0346 7.5937,0.082 10.1267,0.18968 20.2529,0.69571 30.3242,1.48242 10.0713,0.78672 20.0871,1.8539 29.9883,3.16602 9.9012,1.31212 19.6884,2.86887 29.3047,4.63476 9.6163,1.7659 19.0608,3.74259 28.2773,5.89063 8.183,1.90714 16.1082,3.99531 23.8907,6.15039 2.7299,10.42605 1.7438,23.62514 1.125,34.59766 -7.2799,-1.45626 -14.7388,-2.86795 -22.5176,-4.16407 -8.66,-1.44295 -17.6095,-2.77221 -26.7988,-3.95898 -9.1894,-1.18677 -18.6193,-2.22982 -28.2442,-3.09961 -9.6248,-0.86979 -19.4435,-1.56657 -29.4101,-2.05859 -9.9667,-0.49203 -20.0803,-0.78053 -30.295,-0.83399 -10.2146,-0.0535 -20.5315,0.12832 -30.9004,0.57422 -2.8095,0.12082 -5.6425,0.42562 -8.4589,0.58594 -1.3568,-10.61649 -0.4786,-29.23321 1.8769,-42.45117 0.5073,-0.0259 1.01,-0.0755 1.5176,-0.0996 5.0336,-0.23949 10.0811,-0.39114 15.1367,-0.45899 2.5278,-0.0339 5.0588,-0.0464 7.5899,-0.0391 z m -44.5254,2.18359 c 0.1763,14.18037 -0.1488,28.31277 -2.1289,42.28711 -0.7438,0.0688 -1.4828,0.0826 -2.2266,0.1543 -10.4293,1.00605 -20.8658,2.30855 -31.2617,3.93555 -5.198,0.8135 -10.3866,1.70736 -15.5586,2.6875 -5.1721,0.98013 -10.3285,2.04485 -15.4629,3.19922 -5.1344,1.15437 -10.247,2.39817 -15.332,3.73437 -5.0851,1.3362 -10.1421,2.76538 -15.1661,4.29102 -5.0239,1.52563 -10.0136,3.14842 -14.9648,4.87109 -4.9511,1.72267 -9.8638,3.54535 -14.7305,5.47266 -4.8666,1.9273 -9.6885,3.95812 -14.459,6.09765 -1.9547,0.8768 -3.8614,1.85229 -5.7988,2.76563 1.0035,-7.61224 1.5433,-14.45345 3.4297,-24.16407 0.9981,-0.85453 1.9413,-1.78462 2.9551,-2.61718 3.65,-2.99761 7.4019,-5.85375 11.2461,-8.57227 3.8442,-2.71852 7.7806,-5.29965 11.8047,-7.74805 4.0241,-2.44838 8.1346,-4.76397 12.3242,-6.95117 4.1896,-2.1872 8.46,-4.24666 12.8008,-6.18164 4.3408,-1.93497 8.7528,-3.7458 13.2304,-5.4375 4.4776,-1.6917 9.0191,-3.26332 13.6192,-4.7207 4.6001,-1.45738 9.2586,-2.79924 13.9668,-4.03125 4.7082,-1.23201 9.4675,-2.35354 14.2695,-3.36914 4.802,-1.0156 9.646,-1.92623 14.5273,-2.73438 4.8817,-0.80814 9.7997,-1.51536 14.7461,-2.125 2.7087,-0.33382 5.4452,-0.56736 8.17,-0.84375 z"
       transform="scale(0.75)" />
    <path
       style="fill:#4d4d4d;stroke:none;stroke-width:6.66667;stroke-linecap:round;stroke-linejoin:round;stroke-miterlimit:4;stroke-dasharray:none;stroke-dashoffset:7.28882;paint-order:stroke fill markers"
       d="m 1268.125,603.66016 c -2.3923,0.006 -4.7918,0.0413 -7.1973,0.10546 -60.7575,1.62191 -124.0114,16.92973 -189.9004,71.3379 -2.5221,3.12487 -4.6868,6.27954 -6.1933,9.5371 -8.8562,19.15022 -16.2021,42.09513 -13.2793,72.57032 1.7233,17.96843 7.0506,38.59996 17.9004,62.5625 7.1892,-10.81487 14.3916,-20.89448 21.6054,-30.30274 0.1091,-0.1739 0.234,-0.33736 0.3731,-0.48828 34.1,-44.35814 68.4778,-73.37644 103.166,-90.30469 27.0474,-13.1994 54.2467,-18.99914 81.4453,-19.06054 16.3192,-0.0368 32.6367,1.993 48.9219,5.72656 85.4015,19.57926 170.2559,85.45973 254.8535,146.39258 0.5347,-5.10401 0.981,-9.97242 1.2969,-14.50781 -33.5711,-46.8693 -67.7245,-87.44034 -102.5254,-120.61329 -68.3481,-65.15072 -136.3045,-93.13766 -210.4668,-92.95507 z"
       transform="scale(0.75)"
       id="path1158" />
    <path
       style="fill:#4d4d4d;stroke:none;stroke-width:6.66667;stroke-linecap:round;stroke-linejoin:round;stroke-miterlimit:4;stroke-dasharray:none;stroke-dashoffset:7.28882;paint-order:stroke fill markers"
       d="m 1323.1875,515.20898 c -89.435,0.34703 -179.367,46.92917 -227.998,131.08985 -0.8553,1.48016 -1.812,2.92217 -2.8204,4.34375 58.0389,-39.84456 114.5059,-52.10284 168.3809,-53.54102 4.918,-0.131 9.8105,-0.14223 14.6797,-0.0312 73.0376,1.66482 140.7326,30.82726 207.7598,94.71875 33.4812,31.91498 66.247,70.48155 98.4257,114.74414 0.068,-3.45177 0.03,-6.63153 -0.1679,-9.41015 -12.0866,-170.11728 -104.8104,-257.05888 -208.8907,-277.29493 -16.2625,-3.16187 -32.8071,-4.68344 -49.3691,-4.61914 z"
       transform="scale(0.75)"
       id="path1156" />
    <path
       id="path935"
       style="fill:#d4aa00;stroke:none;stroke-width:6.66665;stroke-linecap:round;stroke-linejoin:round;stroke-miterlimit:4;stroke-dasharray:none;stroke-opacity:1"
       d="m 1312.0469,518.29102 c -27.7504,-0.18014 -55.5188,5.61111 -84.6543,21.27734 a 6.0006,6.0006 0 0 0 -3.0488,4.14844 c -2.0985,10.90546 -6.0244,24.01374 -8.4473,35.95312 -1.2115,5.96971 -2.0671,11.65412 -2.0156,16.92969 0.015,1.59801 0.1233,3.18144 0.3398,4.73437 3.982,-0.64373 7.9524,-1.20703 11.9102,-1.69531 -0.1421,-0.90863 -0.2383,-1.94808 -0.25,-3.15625 -0.037,-3.82892 0.6482,-8.87328 1.7753,-14.42773 2.0717,-10.2085 5.4621,-22.04776 7.7833,-33.10157 51.7679,-26.92553 97.6846,-20.97928 151.3007,-6.32812 -5.274,12.04155 -9.9978,24.88861 -15.3359,36.0918 -6.3073,13.23765 -13.5503,23.42762 -22.6563,27.39258 l -3.6152,1.57421 c 5.3064,1.5383 10.5929,3.23913 15.8574,5.12305 9.3643,-6.84018 15.8154,-17.53207 21.2461,-28.92969 6.7648,-14.19756 12.0562,-29.99032 18.1446,-42.67383 a 6.0006,6.0006 0 0 0 -3.7793,-8.37304 c -29.071,-8.21051 -56.8044,-14.35893 -84.5547,-14.53906 z m 1.832,17.44726 c -17.2459,-0.0143 -37.6231,3.45344 -63.2344,12.40234 -4.2685,16.79004 -10.7616,37.75649 -7.7597,49.85352 5.9852,-0.44172 11.9413,-0.73444 17.8652,-0.89258 4.918,-0.13128 9.8105,-0.14228 14.6797,-0.0312 21.4091,0.488 42.356,3.36043 62.9648,8.75586 16.6921,-9.77139 26.0653,-36.00496 30.9551,-57.02539 -16.2995,-7.27083 -33.2974,-13.04414 -55.4707,-13.0625 z"
       transform="scale(0.75)" />
    <path
       style="fill:#cccccc;fill-opacity:1;stroke:none;stroke-width:5;stroke-linecap:round;stroke-linejoin:round;stroke-miterlimit:4;stroke-dasharray:none;stroke-dashoffset:7.28882;paint-order:stroke fill markers"
       d="m 1086.0527,1755.3266 c -2.6717,16.698 -5.3439,33.3953 -8.0156,50.0934 h 4.8458 c 0.2873,-2.972 0.5739,-5.9448 0.8613,-8.9166 -0.1884,-1.1757 -0.1934,-2.3302 0.3559,-3.4014 0.6485,-1.2648 1.9358,-1.9809 2.9561,-2.2368 2.0406,-0.5117 3.7673,-0.1327 4.9863,-0.1245 l 2.3071,0.014 0.17,2.3013 c 0.304,4.121 0.6084,8.2423 0.9126,12.3633 h 6.2548 c -1.9699,-16.698 -3.9379,-33.3953 -5.9077,-50.0933 z"
       id="path1419" />
    <path
       style="fill:#cccccc;fill-opacity:1;stroke:none;stroke-width:5;stroke-linecap:round;stroke-linejoin:round;stroke-miterlimit:4;stroke-dasharray:none;stroke-dashoffset:7.28882;paint-order:stroke fill markers"
       d="m 1042.3652,1755.3266 v 50.0934 h 5.9458 v -18.772 c -0.043,-1.3269 -0.4376,-3.0321 0.1787,-5.0831 0.3084,-1.0254 1.2015,-2.3097 2.5342,-2.8008 1.3328,-0.4911 2.6297,-0.2937 3.9873,0.1436 l 1.7344,0.5596 v 25.9527 h 6.0205 v -50.0934 h -6.0205 v 12.5977 c 0.047,1.3235 0.434,3.0195 -0.1787,5.0582 -0.3082,1.0254 -1.2015,2.3096 -2.5342,2.8007 -1.3327,0.4911 -2.6326,0.2908 -3.9902,-0.1465 l -1.7315,-0.5581 v -19.752 z"
       id="path1417" />
    <path
       style="fill:#cccccc;fill-opacity:1;stroke:none;stroke-width:5;stroke-linecap:round;stroke-linejoin:round;stroke-miterlimit:4;stroke-dasharray:none;stroke-dashoffset:7.28882;paint-order:stroke fill markers"
       d="m 1011.6973,1755.3266 c -2.6718,16.6982 -5.3439,33.3953 -8.0157,50.0934 h 4.8457 c 0.2874,-2.9718 0.574,-5.9447 0.8614,-8.9166 -0.1884,-1.1757 -0.1933,-2.3302 0.3559,-3.4014 0.6485,-1.2648 1.9343,-1.9809 2.9546,-2.2368 2.0406,-0.5117 3.7675,-0.1327 4.9864,-0.1245 l 2.307,0.014 0.17,2.3013 c 0.3041,4.121 0.607,8.2423 0.9111,12.3633 h 6.2578 c -1.9697,-16.698 -3.9379,-33.3953 -5.9077,-50.0933 z"
       id="path1415" />
    <path
       style="fill:#cccccc;fill-opacity:1;stroke:none;stroke-width:5;stroke-linecap:round;stroke-linejoin:round;stroke-miterlimit:4;stroke-dasharray:none;stroke-dashoffset:7.28882;paint-order:stroke fill markers"
       d="m 952.17187,1755.3266 v 50.0948 c 1.1406,-10e-5 2.28143,-2e-4 3.42188,0 0.4878,-2.1109 0.69015,-4.8525 0.59032,-8.0464 -0.12262,-3.9152 -0.46957,-8.1627 -0.13912,-12.0424 0.30037,-5.5956 -0.73522,-12.9557 0.35738,-18.9126 l 4.95262,0.2914 c 0.8244,12.8519 3.70657,25.6443 5.81107,38.71 h 5.12258 c 1.39477,-8.2129 2.78872,-16.4258 4.18357,-24.6387 l 0.009,-0.041 0.007,-0.041 c 0.91673,-4.4778 1.36785,-9.88 2.1753,-14.2808 l 4.95698,0.5258 c -0.37485,12.7662 -0.17648,25.6007 -0.20798,38.4742 h 4.99515 v -50.0933 h -10.40625 c -1.08097,7.0496 -2.16075,14.0998 -3.24172,21.1495 l -0.007,0.044 -0.009,0.041 c -0.91673,4.8482 -1.22093,10.6566 -2.35253,15.5625 l -4.92772,-0.3618 c -0.97508,-12.1077 -2.76405,-24.219 -4.23488,-36.4351 z"
       id="path1413" />
    <path
       style="fill:#cccccc;fill-opacity:1;stroke:none;stroke-width:5;stroke-linecap:round;stroke-linejoin:round;stroke-miterlimit:4;stroke-dasharray:none;stroke-dashoffset:7.28882;paint-order:stroke fill markers"
       d="m 921.50392,1755.3266 c -2.67172,16.698 -5.34397,33.3953 -8.01562,50.0934 h 4.84567 l 0.86138,-8.9166 c -0.18847,-1.1757 -0.19185,-2.3302 0.35737,-3.4014 0.64853,-1.2648 1.93433,-1.9809 2.95463,-2.2368 2.0406,-0.5117 3.76733,-0.1327 4.9863,-0.1245 l 2.30715,0.014 0.16988,2.3013 c 0.30412,4.121 0.60855,8.2423 0.91259,12.3633 h 6.25493 c -1.9698,-16.698 -3.93795,-33.3953 -5.90775,-50.0933 z"
       id="path1411" />
    <path
       style="fill:#cccccc;fill-opacity:1;stroke:none;stroke-width:5;stroke-linecap:round;stroke-linejoin:round;stroke-miterlimit:4;stroke-dasharray:none;stroke-dashoffset:7.28882;paint-order:stroke fill markers"
       d="m 902.2632,1755.2622 c -1.20083,0.05 -2.63228,0.1132 -4.0635,0.035 -0.0443,0.1586 -0.0839,0.2328 -0.12893,0.6562 -0.1305,1.2229 0.1287,2.9984 -0.73387,5.02 -0.93495,4.1836 -1.02427,9.6276 -2.55322,14.1006 l -4.86181,-0.6783 c -0.3267,-6.2592 -1.54769,-12.5869 -2.55322,-19.0693 h -6.0015 c 2.41223,9.908 4.82572,19.8167 7.2378,29.7247 l 0.0397,0.1596 0.0173,0.1641 c 0.73283,6.833 0.32273,13.5538 0.36473,20.0449 h 5.93407 v -17.6704 l 0.0488,-0.2432 c 2.1987,-10.8975 5.21603,-21.5848 7.81058,-32.2354 -0.31013,-0.027 -0.17978,-0.025 -0.55665,-0.01 z"
       id="path1407" />
    <path
       id="path1034"
       style="color:#000000;font-style:normal;font-variant:normal;font-weight:normal;font-stretch:normal;font-size:medium;line-height:normal;font-family:sans-serif;font-variant-ligatures:normal;font-variant-position:normal;font-variant-caps:normal;font-variant-numeric:normal;font-variant-alternates:normal;font-variant-east-asian:normal;font-feature-settings:normal;font-variation-settings:normal;text-indent:0;text-align:start;text-decoration:none;text-decoration-line:none;text-decoration-style:solid;text-decoration-color:#000000;letter-spacing:normal;word-spacing:normal;text-transform:none;writing-mode:lr-tb;direction:ltr;text-orientation:mixed;dominant-baseline:auto;baseline-shift:baseline;text-anchor:start;white-space:normal;shape-padding:0;shape-margin:0;inline-size:0;clip-rule:nonzero;display:inline;overflow:visible;visibility:visible;opacity:1;isolation:auto;mix-blend-mode:normal;color-interpolation:sRGB;color-interpolation-filters:linearRGB;solid-color:#000000;solid-opacity:1;vector-effect:none;fill:#000000;fill-opacity:1;fill-rule:nonzero;stroke:none;stroke-width:6.66667;stroke-linecap:round;stroke-linejoin:round;stroke-miterlimit:4;stroke-dasharray:none;stroke-dashoffset:0;stroke-opacity:1;color-rendering:auto;image-rendering:auto;shape-rendering:auto;text-rendering:auto;enable-background:accumulate;stop-color:#000000;stop-opacity:1"
       d="m 1324.4238,508.53516 c -92.1836,-0.10011 -184.8996,47.71092 -235.0078,134.42773 -6.9558,12.0376 -23.4735,23.39582 -30.6348,38.88086 -9.1212,19.72801 -16.9208,44.14243 -13.8652,76.00195 1.9314,20.13822 8.1724,43.20942 20.9492,70.00977 v 0.008 c 0.05,0.12245 0.1076,0.2418 0.1719,0.35742 7.4131,15.49719 17.002,32.23436 29.2188,50.38086 9.2379,13.72194 8.762,28.19667 6.0761,44.42774 -2.6858,16.23108 -7.7199,33.84832 -6.4843,52.61718 3.8312,58.19933 8.6187,81.15023 21.5605,141.15823 13.4694,62.4543 36.3233,124.4186 36.6973,185.6015 -0.8966,-0.7581 -2.1269,-0.9912 -3.2383,-0.6093 -17.8501,6.1361 -29.3712,11.9498 -37.2598,17.5996 -7.8886,5.6498 -12.1078,11.2231 -15.0469,16.2578 -5.8781,10.0695 -6.2112,16.8788 -24.6289,24.2383 -127.71463,51.0335 -300.46745,136.2067 -380.46285,255.916 -129.36655,193.5909 -228.91128,410.1421 -278.63281,525.5156 -6.94797,16.1221 -15.57011,38.8001 -20.65039,57.5918 -2.54014,9.3958 -4.22263,17.7602 -4.28125,24.2149 -0.0293,3.2273 0.27413,6.0167 1.55078,8.4492 11.31742,13.3943 39.18079,18.4407 49.3418,19.9726 11.6295,51.0934 25.11285,76.2265 44.76562,91.6993 22.56577,17.7661 51.86307,22.2895 94.22656,40.2109 l -7.99804,55.6562 c -0.28917,2.0091 1.26904,3.8081 3.29882,3.8086 h 209.44922 c -1.77965,21.7732 2.48638,46.4962 7.15625,70.668 4.93758,25.5572 10.32536,50.5288 9.96289,70.0059 -1.05496,56.6897 -9.61846,101.9502 -9.75976,147.0644 h 6.72265 c 0.18462,-44.4285 8.63796,-89.5983 9.70508,-146.9414 0.38684,-20.7872 -5.16844,-45.9373 -10.08594,-71.3906 -4.69221,-24.2873 -8.77879,-48.8097 -7.0039,-69.4063 h 56.30859 l 39.69922,287.7383 h 6.72852 l -39.69727,-287.7383 h 901.13671 l -39.6953,287.7383 h 6.7305 l 39.6953,-287.7383 h 213.582 c 12.4591,50.9118 12.3953,73.4785 11.7188,115.5606 -0.366,22.7589 -8.5456,33.4987 -17.3516,44.0801 -8.806,10.5813 -18.5529,21.1501 -19.0918,40.8652 -0.9515,34.8134 2.6093,64.4663 6.7891,87.2324 h 6.7812 c -4.2129,-22.5754 -7.8596,-52.1705 -6.9062,-87.0508 0.4826,-17.6569 8.5815,-26.0033 17.5527,-36.7832 8.9712,-10.7798 18.5003,-23.8446 18.8926,-48.2363 0.67,-41.677 0.6503,-65.3954 -11.5274,-115.668 h 57.9121 c 2.0298,-5e-4 3.5881,-1.7995 3.2989,-3.8086 l -7.9961,-55.6386 c 73.3367,-26.5172 131.6231,-56.8675 169.2324,-100.1055 30.179,-34.6956 46.7483,-77.6942 46.9512,-132.8281 11.5424,-0.3274 23.2183,0.1204 35.0644,-2.2285 38.6155,-11.7727 46.2193,-23.7142 38.7754,-59.4903 -3.8088,-15.9209 -10.8292,-35.5217 -20.082,-57.7011 -18.5057,-44.3589 -45.9567,-98.9825 -74.5449,-153.8653 -28.5882,-54.8828 -58.3129,-110.0137 -81.3125,-155.2324 -11.4999,-22.6094 -21.3185,-42.7443 -28.459,-59.084 -7.1406,-16.3397 -11.5651,-29.075 -12.3633,-35.9355 -1.8349,-15.7697 -14.5167,-37.1834 -33.9141,-62.0684 -19.3973,-24.885 -45.664,-52.9223 -75.1133,-80.2773 -58.8967,-54.7101 -130.287,-106.685 -185.4023,-124.6231 -32.0864,-10.4429 -109.2614,-46.7056 -154.123,-70.9648 -33.279,-17.9959 -67.6935,-29.7492 -80.9317,-54.9727 -0.586,-1.116 -1.7514,-1.806 -3.0117,-1.7832 -0.8972,0.016 -1.7498,0.3938 -2.3652,1.0469 -6.6597,7.0689 -12.9421,13.8154 -19.0254,20.3887 -4.9713,-23.5274 -12.2021,-47.4618 -16.9883,-72.5196 -7.7847,-40.7561 -17.9319,-83.8514 -15.3418,-119.6972 0.1003,-1.3882 0.4169,-1.9802 0.5469,-2.1465 0.13,-0.1663 0.112,-0.1949 0.6484,-0.2774 1.0731,-0.1648 4.0043,0.3823 7.5059,1.4473 7.003,2.1299 16.7028,5.9236 26.0215,2.373 11.1196,-4.2367 17.7925,-15.5465 20.5039,-31.9804 2.7112,-16.434 1.7889,-38.47612 -2.4161,-66.1973 -2.6766,-17.64678 1.1944,-50.51504 5.584,-83.24414 4.3896,-32.7291 9.2418,-65.35027 7.8555,-84.86328 -12.2469,-172.37464 -107.383,-262.58632 -214.2656,-283.36719 -13.3603,-2.59761 -26.902,-4.1157 -40.4844,-4.58789 -2.9698,-0.10324 -5.9417,-0.15684 -8.9141,-0.16015 z m -1.2363,6.67382 c 16.562,-0.0643 33.1066,1.45727 49.3691,4.61914 104.0803,20.23605 196.8041,107.17765 208.8907,277.29493 0.1974,2.77862 0.2359,5.95838 0.1679,9.41015 -32.1787,-44.26259 -64.9445,-82.82916 -98.4257,-114.74414 -67.0272,-63.89149 -134.7222,-93.05393 -207.7598,-94.71875 -4.8692,-0.11098 -9.7617,-0.0996 -14.6797,0.0312 -53.875,1.43818 -110.342,13.69646 -168.3809,53.54102 1.0084,-1.42158 1.9651,-2.86359 2.8204,-4.34375 48.631,-84.16068 138.563,-130.74282 227.998,-131.08985 z m -55.0625,88.45118 c 74.1623,-0.18259 142.1187,27.80435 210.4668,92.95507 34.8009,33.17295 68.9543,73.74399 102.5254,120.61329 -0.3159,4.53539 -0.7622,9.4038 -1.2969,14.50781 -84.5976,-60.93285 -169.452,-126.81332 -254.8535,-146.39258 -16.2852,-3.73356 -32.6027,-5.7634 -48.9219,-5.72656 -27.1986,0.0614 -54.3979,5.86114 -81.4453,19.06054 -34.6882,16.92825 -69.066,45.94655 -103.166,90.30469 -0.1391,0.15092 -0.264,0.31438 -0.3731,0.48828 -7.2138,9.40826 -14.4162,19.48787 -21.6054,30.30274 -10.8498,-23.96254 -16.1771,-44.59407 -17.9004,-62.5625 -2.9228,-30.47519 4.4231,-53.4201 13.2793,-72.57032 1.5065,-3.25756 3.6712,-6.41223 6.1933,-9.5371 65.889,-54.40817 129.1429,-69.71599 189.9004,-71.3379 2.4055,-0.0642 4.805,-0.0996 7.1973,-0.10546 z m 7.9551,82.59375 c 15.7512,-0.0248 31.541,1.95284 47.3965,5.58789 52.6668,12.07448 105.9032,42.67312 159.3906,78.99023 1.9045,3.96823 3.9446,8.79256 6.0566,14.27149 -46.4087,-26.85626 -118.0513,-45.93831 -190.832,-49.36719 -9.6593,-0.45507 -19.3389,-0.63506 -28.9824,-0.51758 -57.6549,0.70239 -113.9886,12.03382 -156.7188,38.54883 28.3991,-32.95196 56.7968,-55.27326 85.1328,-69.10156 26.1604,-12.76655 52.3047,-18.37073 78.5567,-18.41211 z m 0.2558,55.60547 c 7.1391,0.0178 14.2949,0.20032 21.4434,0.5371 75.6757,3.56526 150.4338,24.586 194.8242,52.73243 7.2845,20.81436 15.0544,48.54016 21.2129,78.52343 -52.1669,-41.08244 -114.2639,-50.90451 -176.2207,-51.80859 -21.6367,-0.31572 -43.2552,0.45215 -64.4258,1.35156 -62.8042,2.66819 -126.612,13.01855 -181.4062,37.75391 -7.5089,-12.04376 -13.794,-23.39747 -18.9864,-34.10156 7.8506,-11.97831 15.7034,-23.06359 23.5567,-33.30664 43.8695,-36.84355 111.1484,-51.85368 180.0019,-51.68164 z m 2.2618,17.76562 c -2.5311,-0.007 -5.0621,0.005 -7.5899,0.0391 -5.0556,0.0679 -10.1031,0.2195 -15.1367,0.45899 -0.5076,0.0241 -1.0103,0.0737 -1.5176,0.0996 -2.3555,13.21796 -3.2337,31.83468 -1.8769,42.45117 2.8164,-0.16032 5.6494,-0.46512 8.4589,-0.58594 10.3689,-0.4459 20.6858,-0.62768 30.9004,-0.57422 10.2147,0.0535 20.3283,0.34196 30.295,0.83399 9.9666,0.49202 19.7853,1.1888 29.4101,2.05859 9.6249,0.86979 19.0548,1.91284 28.2442,3.09961 9.1893,1.18677 18.1388,2.51603 26.7988,3.95898 7.7788,1.29612 15.2377,2.70781 22.5176,4.16407 0.6188,-10.97252 1.6049,-24.17161 -1.125,-34.59766 -7.7825,-2.15508 -15.7077,-4.24325 -23.8907,-6.15039 -9.2165,-2.14804 -18.661,-4.12473 -28.2773,-5.89063 -9.6163,-1.76589 -19.4035,-3.32264 -29.3047,-4.63476 -9.9012,-1.31212 -19.917,-2.3793 -29.9883,-3.16602 -10.0713,-0.78671 -20.1975,-1.29274 -30.3242,-1.48242 -2.5316,-0.0474 -5.0627,-0.0747 -7.5937,-0.082 z m -44.5254,2.18359 c -2.7248,0.27639 -5.4613,0.50993 -8.17,0.84375 -4.9464,0.60964 -9.8645,1.31686 -14.7461,2.125 -4.8813,0.80815 -9.7253,1.71878 -14.5273,2.73438 -4.802,1.0156 -9.5613,2.13713 -14.2695,3.36914 -4.7082,1.23201 -9.3667,2.57387 -13.9668,4.03125 -4.6001,1.45738 -9.1416,3.029 -13.6192,4.7207 -4.4776,1.6917 -8.8896,3.50253 -13.2304,5.4375 -4.3408,1.93498 -8.6112,3.99444 -12.8008,6.18164 -4.1896,2.1872 -8.3001,4.5028 -12.3242,6.95117 -4.0241,2.4484 -7.9605,5.02953 -11.8047,7.74805 -3.8442,2.71852 -7.5961,5.57466 -11.2461,8.57227 -1.0138,0.83256 -1.957,1.76265 -2.9551,2.61718 -1.8864,9.71062 -2.4262,16.55183 -3.4297,24.16407 1.9374,-0.91334 3.8439,-1.88883 5.7988,-2.76563 4.7705,-2.13953 9.5924,-4.17035 14.459,-6.09765 4.8667,-1.92731 9.7794,-3.74999 14.7305,-5.47266 4.9512,-1.72267 9.9409,-3.34546 14.9648,-4.87109 5.024,-1.52564 10.081,-2.95482 15.1661,-4.29102 5.085,-1.3362 10.1976,-2.58 15.332,-3.73437 5.1344,-1.15437 10.2908,-2.21909 15.4629,-3.19922 5.172,-0.98014 10.3606,-1.874 15.5586,-2.6875 10.3959,-1.627 20.8324,-2.9295 31.2617,-3.93555 0.7438,-0.0717 1.4828,-0.0855 2.2266,-0.1543 1.9801,-13.97434 2.3052,-28.10674 2.1289,-42.28711 z m 259.2382,16.1875 c 28.5074,19.71223 57.0794,40.80352 85.67,61.35352 -1.5019,12.96628 -3.45,27.1264 -5.3477,41.27539 -3.6961,27.55793 -7.2088,54.98739 -6.4629,74.75 -5.421,6.34701 -19.0811,25.11723 -26.6523,44.834 0.2021,-0.5271 0.081,-0.068 -1.0235,0.2422 -1.1046,0.3099 -2.7921,0.4684 -4.3925,0.375 -1.6004,-0.093 -3.1492,-0.4606 -3.9141,-0.8106 -0.088,-0.0394 -0.04,-0.0201 -0.1035,-0.0566 6.637,-74.05694 -18.7199,-175.56218 -37.7735,-221.96289 z m -164.1953,50.45508 c 66.4878,0.16525 132.6697,9.46868 186.7246,55.45117 7.4408,39.26942 11.8048,81.38391 8.5508,116.30276 -0.1382,1.4832 0.4864,2.9828 1.3028,3.9258 0.8165,0.9429 1.7551,1.5064 2.7187,1.9472 1.9271,0.8817 4.0763,1.2745 6.3008,1.4043 2.2244,0.1298 4.4881,-0.025 6.584,-0.6133 2.0957,-0.588 4.4245,-1.611 5.4453,-4.2695 5.4792,-14.26781 15.0826,-28.96937 21.2519,-37.40038 0.026,0.1812 0.043,0.37951 0.07,0.55859 4.147,27.33944 4.9428,48.87819 2.4296,64.11129 -2.5132,15.2331 -8.0045,23.675 -16.3007,26.836 -6.2152,2.3681 -14.4255,-0.3049 -21.7071,-2.5196 -3.6408,-1.1073 -6.9467,-2.201 -10.4551,-1.6621 -1.7536,0.2695 -3.6494,1.1789 -4.8886,2.7637 -1.2392,1.5849 -1.7852,3.5577 -1.9453,5.7734 -0.6519,9.0212 -0.5373,18.3912 0.1113,27.9805 -72.1931,35.6633 -142.9827,72.9122 -209.5977,83.1856 -67.0492,10.3403 -129.7097,-5.9775 -187.5312,-78.9961 -9.4045,-44.3465 -13.3736,-67.8293 -16.6777,-118.02152 -1.1381,-17.2884 3.6371,-34.33399 6.4101,-51.09179 2.773,-16.7578 3.4058,-33.59686 -7.123,-49.23633 -1.8774,-2.78863 -3.6669,-5.52976 -5.418,-8.24805 53.4713,-23.94193 116.1522,-34.14436 178.082,-36.77539 18.4051,-0.78192 37.0455,-1.45252 55.6621,-1.40625 z m -91.2011,44.22656 c -8.4545,-0.0506 -22.6156,4.51544 -34.5879,10.05665 -5.9862,2.77057 -11.2687,5.74438 -14.8555,8.91992 -1.7934,1.58777 -3.2618,3.20687 -3.9727,5.41601 -0.7108,2.20916 0.063,5.18467 1.9004,6.83594 1.4821,1.33173 3.0085,1.45889 4.4532,1.51367 1.4446,0.0548 2.974,-0.10041 4.6972,-0.35547 3.4464,-0.5101 7.6439,-1.46541 12.3438,-2.5 9.3997,-2.06918 20.7753,-4.43197 30.6308,-4.25781 11.8377,0.20917 24.9737,2.59811 35.4981,4.5625 5.2622,0.9822 9.8592,1.85784 13.4785,2.29492 1.8097,0.21854 3.3579,0.33868 4.791,0.25586 1.4332,-0.0828 3.1128,-0.0781 4.5742,-2.00781 1.5141,-1.99929 1.6744,-4.92318 0.7539,-7.03516 -0.9205,-2.11196 -2.4961,-3.74797 -4.4394,-5.33593 -3.8867,-3.17592 -9.4857,-6.09684 -15.9004,-8.76954 -12.8293,-5.34536 -28.6348,-9.52948 -39.3652,-9.59375 z m -0.039,6.66602 c 8.9279,0.0535 24.7127,4.03038 36.8418,9.08398 6.0645,2.5268 11.2873,5.36128 14.2441,7.77735 1.3126,1.07252 1.9416,1.95133 2.2637,2.51953 -0.7456,-3.1e-4 -1.6206,-0.0221 -2.9258,-0.17969 -3.2215,-0.38904 -7.7856,-1.24663 -13.0566,-2.23047 -10.5421,-1.96769 -23.9654,-4.44859 -36.6016,-4.67187 -10.9844,-0.1941 -22.7369,2.333 -32.1816,4.41211 -4.7224,1.03954 -8.8758,1.97035 -11.8867,2.41601 -1.4897,0.22048 -2.6946,0.31024 -3.4317,0.28516 0.2111,-0.40013 0.6222,-1.11087 1.75,-2.10938 2.6377,-2.33522 7.5767,-5.24472 13.2344,-7.86328 11.3153,-5.2371 26.131,-9.47309 31.75,-9.43945 z m 4.0898,29.79297 c -1.0475,-0.017 -2.0961,-0.0156 -3.1425,0.006 -21.0207,0.42068 -45.046,8.35396 -64.4395,28.45117 -19.3935,20.09721 -34,52.21231 -36.7324,100.48631 -0.2266,4.0028 0.6469,7.584 3.4609,9.5469 2.814,1.9628 6.1575,1.6366 9.4922,0.7304 6.6695,-1.8124 14.9738,-6.6104 24.7149,-12.1875 7.8498,-4.4942 16.5599,-9.4599 25.4336,-13.7969 29.4125,11.7894 58.8379,8.856 87.7363,0.7422 6.3641,2.9471 12.261,6.1066 17.6621,9.086 8.737,4.8194 16.0939,9.1649 22.4961,11.3379 3.2011,1.0864 6.2414,1.6814 9.2344,1.1386 2.9929,-0.5427 5.7323,-2.4849 7.4394,-5.3359 8.166,-13.6375 9.6361,-28.962 6.2422,-43.87887 -3.394,-14.91696 -11.5593,-29.50725 -22.7012,-42.35547 -21.5874,-24.89341 -54.4221,-43.44487 -86.8965,-43.9707 z m -0.1093,6.66992 c 29.9944,0.51366 61.5159,18.0806 81.9707,41.66797 10.5573,12.17412 18.1488,25.89868 21.2363,39.46875 3.0875,13.57004 1.7656,26.90404 -5.4609,38.97264 -0.9262,1.5466 -1.6476,1.9719 -2.9121,2.2012 -1.2646,0.2293 -3.279,-9e-4 -5.9004,-0.8906 -5.2431,-1.7795 -12.6019,-6.0032 -21.4161,-10.8653 -17.6282,-9.724 -41.4313,-21.9911 -70.3164,-22.0801 -22.5689,-0.068 -47.617,14.9753 -67.0507,26.1016 -9.7169,5.5632 -18.1496,10.1815 -23.1524,11.541 -2.5014,0.6798 -3.7296,0.3778 -3.9297,0.2383 -0.2,-0.1395 -0.7824,-0.7883 -0.6172,-3.707 2.6663,-47.1063 16.7788,-77.47966 34.8731,-96.23049 18.0942,-18.75083 40.3257,-26.02474 59.7793,-26.41406 0.9639,-0.0193 1.9289,-0.02 2.8965,-0.004 z m -2.8184,95.14066 c 14.4205,0.043 27.5818,3.3658 39.3906,7.9082 -23.2467,5.6337 -46.1692,7.1084 -69.0722,-0.4317 10.3301,-4.4156 20.5853,-7.504 29.6816,-7.4765 z m 276.8535,85.2461 c 2.6209,28.1554 9.3254,57.924 14.7442,86.2929 5.1982,27.2152 13.1005,52.7287 17.9648,77.2969 -109.8935,119.3842 -128.1468,158.5457 -231.8769,237.6758 -33.017,-37.183 -60.268,-59.3859 -85.6309,-84.8789 -24.1033,-24.2269 -46.6683,-51.5757 -71.5391,-98.3203 2.8366,-66.8143 -22.455,-133.1477 -36.6269,-198.8594 -0.6227,-2.8871 -1.1394,-5.3147 -1.7246,-8.0352 56.8751,66.0643 119.9624,81.5597 185.5215,71.4493 67.5522,-10.4179 137.8942,-47.357 209.1679,-82.6211 z m 59.1465,145.0097 c 16.1549,25.6635 50.2799,36.9626 81.2988,53.7364 7.4211,4.013 15.7415,8.3559 24.5235,12.8339 -0.2588,3.8513 -1.0025,12.5111 -2.8926,21.8516 -2.5455,12.579 -7.6573,25.9602 -14.3398,29.9629 -7.7182,4.6231 -17.615,5.0772 -28.8379,3 -11.223,-2.0771 -23.5611,-6.6655 -35.5957,-11.5039 -12.0346,-4.8384 -23.754,-9.9167 -34.0899,-12.9063 -10.3357,-2.9896 -19.6783,-4.2074 -26.582,0.5547 -0.9051,0.6247 -1.4452,1.6542 -1.4414,2.7539 0.032,8.5288 5.1799,18.0425 11.9101,28.1641 6.7303,10.1216 15.2631,20.6826 22.8008,30.043 7.5376,9.3604 14.1296,17.6939 16.6289,22.4062 0.3374,0.6363 0.394,0.9258 0.5723,1.3828 -0.6516,-0.079 -1.1805,-0.097 -2.3067,-0.4121 -67.4285,-18.8739 -127.8411,-19.2573 -177.3437,2.7578 45.6262,-46.311 80.9631,-94.4113 165.6953,-184.625 z m -425.6641,67.8867 c 26.8457,52.3003 51.2056,82.2727 76.9922,108.1914 12.8953,12.962 26.1235,24.9466 40.2286,38.3126 -10.0408,-6.8678 -21.6191,-14.5543 -33.8926,-22.1954 -30.9856,-19.2906 -65.2997,-38.1804 -88.7969,-41.9296 0.066,-0.3136 0.021,-0.2762 0.3086,-0.9278 1.0697,-2.4263 3.6376,-6.3039 6.3418,-10.3515 2.7041,-4.0476 5.5575,-8.3136 7.3535,-12.3594 0.898,-2.0228 1.5674,-3.9951 1.6641,-6.0977 0.097,-2.1024 -0.6292,-4.5608 -2.4453,-6.1367 -0.6135,-0.5333 -1.4001,-0.8228 -2.2129,-0.8164 -5.6913,0.051 -12.4712,2.1837 -20.1817,5.3164 -7.7104,3.1325 -16.2622,7.3354 -24.8711,11.8027 -17.0697,8.8582 -34.4109,18.7374 -44.9961,23.1895 -0.084,-0.1548 -0.1017,-0.1127 -0.2539,-0.7207 -0.4957,-1.9781 -0.591,-5.826 -0.3144,-9.791 0.4046,-5.8018 1.4318,-11.9046 1.959,-14.7989 3.0664,-1.2448 6.1322,-2.4892 9.1503,-3.6953 19.8723,-7.9406 22.6237,-18.0124 27.9102,-27.0683 2.6432,-4.528 6.0265,-9.0798 13.1719,-14.1973 6.7462,-4.8316 17.0816,-10.1035 32.8847,-15.7266 z m 537.918,1.9454 c 43.7288,22.0369 97.6866,46.6926 124.2735,55.3457 53.0991,17.2819 124.4651,68.8598 182.9296,123.1679 29.2323,27.1541 55.2974,54.9929 74.3926,79.4903 19.0952,24.4974 31.0651,45.9735 32.5508,58.7421 0.9986,8.5846 5.6414,21.2813 12.875,37.834 7.2336,16.5527 17.0974,36.7697 28.627,59.4375 23.0591,45.3357 52.7812,100.4632 81.3398,155.2891 28.5586,54.8259 55.9545,109.3608 74.3066,153.3516 9.1761,21.9953 16.0855,41.3676 19.75,56.6855 3.2182,13.452 3.4944,23.4746 1.6387,29.1973 -52.1861,-14.9163 -141.4186,-28.3402 -224.7129,-17.0274 -42.421,5.7615 -83.2629,17.9492 -116.666,39.8516 -29.5004,19.3433 -53.1357,46.3646 -66.625,82.8828 -14.248,-138.3382 -1.0779,-275.409 27.0781,-411.8672 0.3717,-1.8024 -0.7876,-3.5649 -2.5898,-3.9375 -0.2325,-0.049 -0.4695,-0.072 -0.707,-0.07 -1.5707,0.014 -2.9182,1.1235 -3.2344,2.6621 -29.1638,141.3419 -42.3575,283.5949 -25.7031,427.3848 -40.9162,25.7543 -93.9385,44.8194 -149.3477,39.332 -48.8927,-4.8419 -101.1879,-34.3798 -145.9766,-32.6953 -45.0956,1.6959 -73.5431,23.7341 -98.4453,58.6426 h -252.9355 c 1.7079,-313.147 22.625,-651.2554 59.1797,-800.8242 30.3303,-23.0644 53.4834,-42.7836 73.6855,-62.004 50.7888,-30.9239 116.2977,-33.5818 191.9141,-12.416 2.0564,0.5756 3.7611,0.8958 5.3984,0.8633 1.6375,-0.032 3.539,-0.5091 4.7813,-2.082 1.2422,-1.5729 1.2438,-3.4813 0.9414,-4.9531 -0.3023,-1.4719 -0.9045,-2.8432 -1.6993,-4.3418 -3.1792,-5.9946 -9.7849,-14.0981 -17.3261,-23.4629 -7.5412,-9.3648 -15.9698,-19.8173 -22.4434,-29.5528 -5.7935,-8.7128 -9.6605,-16.8391 -10.4629,-22.4765 4.168,-1.7326 10.6941,-1.357 19.1739,1.0957 9.6796,2.7998 21.3157,7.8077 33.4531,12.6875 12.1373,4.8796 24.7917,9.6394 36.8711,11.875 12.0793,2.2357 23.7902,1.9671 33.4785,-3.836 10.4019,-6.2304 14.7765,-21.1727 17.4453,-34.3613 1.5968,-7.8912 2.397,-15.2364 2.791,-19.9101 z m -534.4961,50.7851 c -0.092,0.7805 -0.347,1.8778 -0.9804,3.3047 -1.4186,3.1956 -4.1115,7.336 -6.8008,11.3613 -2.6893,4.0254 -5.364,7.8868 -6.8985,11.3672 -0.7672,1.7403 -1.4259,3.4061 -1.0429,5.5742 0.1914,1.0842 0.8099,2.2981 1.7636,3.1016 0.9538,0.8033 2.0731,1.1759 3.1426,1.3301 20.8007,2.998 56.0486,21.8038 87.1992,41.1972 30.9065,19.2414 58.014,38.8715 65.3399,44.1368 5.8648,6.1058 11.9083,12.6335 18.1601,19.705 -36.8845,151.5341 -57.5341,488.8038 -59.2382,801.836 h -153.7422 c -46.9078,-26.7093 -76.4225,-27.4354 -120.83011,-29.1055 -43.2267,-1.6259 -72.66308,-1.8039 -122.75,3.1563 -16.47783,1.6318 -35.19968,-2.3059 -54.42188,-9.3848 17.11683,-107.8895 52.31189,-245.294 49.9668,-418.9629 -0.0243,-1.8411 -1.53789,-3.3137 -3.37891,-3.2891 -1.84101,0.024 -3.31367,1.5359 -3.28906,3.377 2.32221,171.9751 -32.38114,308.2245 -49.6582,416.4219 -2.4441,-0.9798 -4.89137,-1.9955 -7.3418,-3.0625 -18.77171,-31.8043 -50.09254,-50.0468 -86.69531,-59.3809 -36.98728,-9.4321 -79.50555,-9.9448 -121.00781,-6.4668 -41.50227,3.478 -81.9937,10.9724 -114.80664,17.7266 -32.81302,6.7541 -58.37194,12.7471 -68.25391,13.2597 -0.13414,0.01 -0.20168,0.017 -0.28125,0.025 -0.12095,-0.044 -0.244,-0.08 -0.36914,-0.1093 -0.0412,-0.085 -0.0912,-0.2102 -0.2207,-0.4571 -0.39014,-0.7433 -0.81116,-2.6438 -0.78711,-5.291 0.0481,-5.2945 1.58283,-13.4083 4.05078,-22.5371 4.93588,-18.2576 13.49343,-40.8186 20.33398,-56.6914 49.64135,-115.1875 149.08661,-331.4565 278.05469,-524.4512 75.01748,-112.26 235.7318,-195.2707 360.97658,-246.7617 -0.5048,3.2152 -1.0571,7.3075 -1.3399,11.3613 -0.2982,4.2756 -0.3719,8.419 0.4942,11.875 0.433,1.7282 1.0704,3.4501 2.7265,4.7696 1.6562,1.3194 4.2841,1.4603 6.211,0.6582 11.4283,-4.7571 28.8053,-14.7499 45.8515,-23.5957 8.5232,-4.423 16.9371,-8.5494 24.3106,-11.545 6.3127,-2.5648 11.5989,-3.9992 15.5527,-4.4531 z M 1505.6406,1652.5 v 0 c -0.024,4e-4 -0.048,0 -0.072,0 -1.5648,0.031 -2.8974,1.1466 -3.2032,2.6816 0,0 -17.0174,85.6854 -31.3886,173.8262 -7.1856,44.0704 -13.7085,88.7489 -17.1192,123.7265 -1.7053,17.4888 -2.6385,32.5385 -2.4668,43.9864 0.086,5.724 0.4392,10.542 1.1621,14.4199 0.7228,3.8777 1.6048,6.9195 3.9961,9.1054 1.8856,1.7233 4.5358,3.1722 8.2227,4.918 3.6869,1.7458 8.3542,3.6721 13.9082,5.7735 11.1079,4.2026 25.7439,9.0925 42.791,14.3789 34.0941,10.5726 77.8119,22.7247 121.8203,33.957 44.0083,11.2323 88.2955,21.5405 123.5391,28.4219 17.6218,3.4406 32.9769,6.0249 44.9668,7.4394 11.9897,1.4144 20.1753,1.9821 25.4765,0.209 3.3798,-1.1304 5.4707,-3.9836 7.5411,-7.7168 2.0705,-3.7332 4.0098,-8.6093 5.9355,-14.5605 3.8513,-11.9023 7.5969,-28.0908 11.2441,-47.2051 7.2944,-38.2285 14.1528,-88.0989 20.0664,-137.6504 11.8272,-99.1028 19.8672,-196.9043 19.8672,-196.9043 0.1436,-1.7595 -1.1093,-3.3259 -2.8574,-3.5723 l -392.9707,-55.2031 c -0.1521,-0.022 -0.3054,-0.033 -0.459,-0.033 z m 2.6719,7.0781 386.6895,54.3223 c -0.3983,4.8143 -8.0568,97.1175 -19.5625,193.5273 -5.9042,49.4718 -12.7537,99.2544 -19.9922,137.1895 -3.6192,18.9675 -7.3462,34.9862 -11.0411,46.4043 -1.8469,5.7092 -3.6993,10.2729 -5.4218,13.3789 -1.7227,3.106 -3.4261,4.4913 -3.8262,4.625 -2.2584,0.7553 -10.8721,0.8774 -22.5801,-0.5039 -11.708,-1.3812 -26.9481,-3.942 -44.4707,-7.3633 -35.0452,-6.8424 -79.251,-17.1309 -123.1679,-28.3398 -43.917,-11.209 -87.5578,-23.3421 -121.4922,-33.8653 -16.9672,-5.2614 -31.5136,-10.122 -42.4082,-14.2441 -5.4474,-2.0609 -9.9843,-3.9415 -13.4161,-5.5664 -3.4317,-1.625 -5.8121,-3.1102 -6.5761,-3.8086 -0.2583,-0.236 -1.3301,-2.1412 -1.9395,-5.4102 -0.6093,-3.269 -0.9684,-7.7992 -1.0508,-13.2968 -0.1649,-10.9954 0.7415,-25.8857 2.4336,-43.2383 3.3842,-34.7054 9.8928,-79.3064 17.0664,-123.3028 13.9348,-85.4653 29.823,-165.7974 30.7559,-170.5078 z m 654.4316,445.4453 v 0 c 27.4456,0.1056 54.3299,2.2356 79.0274,5.5274 9.2592,73.9976 -6.739,127.0179 -42.7735,168.4453 -36.1625,41.5747 -92.928,71.5004 -165.1718,97.7344 l -5.166,-35.9512 c -0.2358,-1.6407 -1.6413,-2.859 -3.2989,-2.8594 h -189.4472 l -13.2539,-31.1601 c -0.5232,-1.2306 -1.7312,-2.0295 -3.0684,-2.0293 h -298.3106 c 23.4829,-31.7142 49.0404,-50.4247 90.459,-51.9824 41.5706,-1.5636 94.0582,27.618 145.0703,32.6699 58.143,5.7581 113.2546,-14.5352 155.3477,-41.4512 0.7554,-0.4834 1.2842,-1.2508 1.4668,-2.1289 11.7441,-42.5942 36.4097,-72.7424 68.627,-93.8672 32.2647,-21.156 72.1643,-33.151 113.9062,-38.8203 20.1605,-2.7381 40.7454,-3.9967 61.0898,-4.1211 1.8343,-0.011 3.6664,-0.013 5.4961,-0.01 z m 85.8575,6.4786 c 25.6986,3.707 48.7765,8.6268 67.248,13.7656 -10.3698,10.0357 -20.5539,14.4202 -31.1016,16.5117 -10.7974,2.1411 -22.0482,1.7522 -33.8222,2.0957 -0.2054,-10.3631 -0.976,-21.1463 -2.3242,-32.373 z M 624,2202.7461 c 18.36958,-0.026 36.41811,1.0872 53.52344,3.748 20.68835,13.2365 50.75049,34.3033 82.89258,51.4043 32.20846,17.1366 66.52087,30.4783 96.35742,27.5235 49.81788,-4.9336 78.71124,-4.7532 121.84375,-3.1309 40.90121,1.5383 67.36661,2.0146 107.09571,22.4434 H 793.99219 c -1.33651,6e-4 -2.54347,0.7993 -3.06641,2.0293 l -13.25586,31.1601 H 588.22266 c -1.65757,5e-4 -3.06301,1.2187 -3.29883,2.8594 l -5.15625,35.8711 c -42.08165,-17.6189 -70.60195,-22.5145 -91.08203,-38.6387 -20.56265,-16.1891 -34.42915,-44.2932 -47.06641,-110.3984 7.77329,-1.6674 16.08934,-3.4471 25.20898,-5.3242 32.70567,-6.7321 72.95238,-14.1718 114.01954,-17.6133 14.38325,-1.2054 28.86489,-1.9137 43.15234,-1.9336 z m 70.79102,7.0469 c 1.63014,0.3757 3.25282,0.7622 4.85937,1.1718 31.91967,8.1399 58.93854,22.9407 76.92578,47.6602 -4.36173,-2.1101 -8.71168,-4.3172 -13.02734,-6.6133 -25.31445,-13.4685 -49.39381,-29.4765 -68.75781,-42.2187 z m -259.69336,19.209 c 1.04168,5.4436 2.0951,10.6191 3.16211,15.5878 -14.93705,-2.1819 -19.61,-2.5179 -32.09961,-9.9101 7.49854,-1.1645 17.348,-3.2035 28.9375,-5.6777 z m 361.09961,82.4003 H 1817.3867 l 13.2559,31.1602 c 0.5229,1.23 1.7299,2.0287 3.0664,2.0293 h 188.7637 l 13.1757,91.668 H 577.93555 l 13.17578,-91.668 H 779.875 c 1.33651,-6e-4 2.54347,-0.7993 3.06641,-2.0293 z m 409.08203,22.1739 c -0.8684,-0.01 -1.7124,0.079 -2.5391,0.1133 -2.2045,0.092 -4.3981,0.2414 -5.414,0.1074 l -0.2012,-0.025 h -0.2031 c -1.9625,-0.018 -4.0722,1.2656 -4.9512,2.7324 -0.879,1.4668 -1.0416,2.8237 -1.1738,4.0625 -0.1712,1.6027 -0.2486,2.2784 -0.3516,3.2109 -0.3918,-2.3814 -0.801,-4.7933 -1.1406,-7.1484 l -0.4121,-2.8574 h -22.2188 l 1.0039,4.123 c 3.527,14.4875 7.0531,28.9735 10.5801,43.461 0.9803,9.3149 0.1294,19.2081 0.4317,29.3105 l 0.098,3.2305 h 3.2344 17.9258 v -29.5117 c 3.0879,-15.2231 7.5101,-30.4327 11.1601,-45.8907 l 0.5039,-2.1406 -1.7675,-1.3086 c -1.2857,-0.9501 -2.5084,-1.3097 -3.6876,-1.4219 -0.2945,-0.028 -0.5874,-0.041 -0.8769,-0.043 z m 17.707,0.1914 -0.4492,2.8086 c -3.9178,24.4862 -7.8361,48.9707 -11.7539,73.457 l -0.6172,3.8594 h 3.9102 16.4218 l 1.8047,-18.6582 -0.1172,-0.5235 c -0.1106,-0.4898 -0.092,-0.2872 -0.09,-0.4218 0.2255,-0.021 0.9924,-3e-4 1.4434,0.01 0.406,5.5023 0.8107,11.0036 1.2168,16.5059 l 0.2285,3.0879 h 22.0332 l -0.4375,-3.7227 c -2.8886,-24.4862 -5.7775,-48.9727 -8.666,-73.459 l -0.3457,-2.9433 z m 39.9102,0 v 76.7929 3.336 h 3.3359 c 3.5236,-9e-4 7.046,-5e-4 10.5703,0 h 2.2442 l 0.8437,-2.0781 c 1.4445,-3.556 1.6553,-7.6111 1.6485,-11.7539 0.6477,3.6606 1.3547,7.3552 1.914,11.0039 l 0.4356,2.8281 h 18.1269 l 0.4707,-2.7774 c 0.7031,-4.1397 1.4063,-8.2782 2.1094,-12.4179 0.01,3.9386 -0.044,7.9127 -0.065,11.8437 l -0.016,3.3477 h 20.0293 v -80.125 h -26.2637 l -0.4355,2.8281 c -1.3383,8.7277 -2.6774,17.4578 -4.0156,26.1855 -1.0947,-8.7183 -2.2627,-17.3987 -3.2735,-26.0644 l -0.3437,-2.9492 z m 80.3457,0 -0.4473,2.8086 c -3.9177,24.4862 -7.8361,48.9707 -11.7539,73.457 l -0.6172,3.8594 h 3.9102 16.4219 l 0.291,-3.0117 c 0.4872,-5.0382 0.9737,-10.0755 1.4609,-15.1133 l 0.053,-0.5332 -0.1171,-0.5235 c -0.1106,-0.4896 -0.092,-0.287 -0.09,-0.4218 0.2252,-0.021 0.9916,-3e-4 1.4414,0.01 0.406,5.5023 0.8126,11.0035 1.2188,16.5059 l 0.2265,3.0879 h 22.0352 l -0.4395,-3.7227 c -2.8885,-24.4862 -5.7755,-48.9727 -8.664,-73.459 l -0.3457,-2.9433 z m 39.9121,0 v 80.125 h 3.332 15.8418 2.086 19.2734 v -80.125 h -19.2734 -2.086 z m 59.2305,0 -0.4493,2.8086 c -3.9178,24.4862 -7.8361,48.9707 -11.7539,73.457 l -0.6171,3.8594 h 3.9101 16.4219 l 0.291,-3.0117 c 0.4871,-5.038 0.9739,-10.0753 1.4609,-15.1133 l 0.053,-0.5332 -0.1172,-0.5235 c -0.1107,-0.4896 -0.092,-0.287 -0.09,-0.4218 0.2251,-0.021 0.9916,-3e-4 1.4414,0.01 0.406,5.5024 0.8128,11.0036 1.2188,16.5059 l 0.2285,3.0879 h 22.0332 l -0.4375,-3.7227 c -2.8887,-24.4862 -5.7775,-48.9727 -8.666,-73.459 l -0.3457,-2.9433 z m -239.3672,6.582 c 0.5025,-0.021 0.3287,-0.024 0.7422,0.012 -3.4594,14.2008 -7.4825,28.4504 -10.4141,42.9805 l -0.065,0.3242 v 23.5606 h -7.9121 c -0.056,-8.6548 0.4908,-17.6159 -0.4863,-26.7266 l -0.023,-0.2188 -0.053,-0.2128 c -3.2161,-13.2106 -6.4341,-26.4222 -9.6504,-39.6329 h 8.002 c 1.3407,8.6432 2.9687,17.0801 3.4043,25.4258 l 6.4824,0.9043 c 2.0386,-5.964 2.1577,-13.2227 3.4043,-18.8008 1.1501,-2.6954 0.8045,-5.0628 0.9785,-6.6933 0.06,-0.5645 0.1128,-0.6635 0.1719,-0.875 1.9083,0.104 3.8169,0.02 5.418,-0.047 z m -6.1035,0.047 v 0 c 0,0 -0.058,0.035 -0.055,0.035 l -0.4063,-0.029 c 0.1643,0.022 0.2973,-0.022 0.461,-0.01 z m 31.7578,0.039 h 12.9687 c 2.6264,22.264 5.2506,44.5271 7.877,66.7911 h -8.3399 c -0.4054,-5.4947 -0.8113,-10.9897 -1.2168,-16.4844 l -0.2265,-3.0684 -3.0762,-0.019 c -1.6253,-0.011 -3.9276,-0.5163 -6.6484,0.166 -1.3604,0.3412 -3.0748,1.296 -3.9395,2.9824 -0.7323,1.4283 -0.7278,2.9676 -0.4765,4.5352 l -1.1485,11.8887 h -6.4609 c 3.5622,-22.264 7.1252,-44.5271 10.6875,-66.7911 z m 40.8906,0 h 14.7422 c 1.9611,16.2882 4.3464,32.4365 5.6465,48.5801 l 6.5703,0.4824 c 1.5088,-6.5412 1.9144,-14.2857 3.1367,-20.75 l 0.012,-0.055 0.01,-0.059 c 1.4413,-9.3996 2.881,-18.7998 4.3223,-28.1993 h 13.875 v 66.7911 h -6.6602 c 0.042,-17.1647 -0.2225,-34.2773 0.2773,-51.2989 l -6.6093,-0.7011 c -1.0766,5.8677 -1.6781,13.0707 -2.9004,19.041 l -0.01,0.055 -0.012,0.055 c -1.8598,10.9505 -3.7184,21.901 -5.5781,32.8515 h -6.8301 c -2.806,-17.4209 -6.6489,-34.4775 -7.7481,-51.6133 l -6.6035,-0.3886 c -1.4568,7.9426 -0.076,17.756 -0.4765,25.2168 -0.4406,5.173 0.022,10.8363 0.1855,16.0566 0.1331,4.2585 -0.1367,7.914 -0.7871,10.7285 -1.5206,-3e-4 -3.0417,-10e-5 -4.5625,0 z m 79.3672,0 h 12.9687 c 2.6264,22.264 5.2506,44.5271 7.877,66.7911 h -8.3438 c -0.4054,-5.4946 -0.8093,-10.9897 -1.2148,-16.4844 l -0.2266,-3.0684 -3.0761,-0.019 c -1.6252,-0.011 -3.9277,-0.5163 -6.6485,0.166 -1.3604,0.3412 -3.0748,1.296 -3.9394,2.9824 -0.7323,1.4283 -0.7258,2.9676 -0.4746,4.5352 -0.3832,3.9625 -0.7653,7.9263 -1.1485,11.8887 h -6.4609 c 3.5623,-22.264 7.1252,-44.5269 10.6875,-66.7911 z m 40.8906,0 h 7.9277 v 26.336 l 2.3086,0.7441 c 1.8102,0.5831 3.5434,0.8501 5.3204,0.1953 1.7769,-0.6548 2.9679,-2.367 3.3789,-3.7343 0.8169,-2.7182 0.3013,-4.9796 0.2382,-6.7442 v -16.7969 h 8.0274 v 66.7911 h -8.0274 v -34.6036 l -2.3125,-0.746 c -1.8101,-0.5831 -3.5394,-0.8463 -5.3164,-0.1915 -1.7769,0.6547 -2.9678,2.3671 -3.3789,3.7344 -0.8218,2.7346 -0.2961,5.0083 -0.2383,6.7774 v 25.0293 h -7.9277 z m 58.25,0 h 12.9688 c 2.6264,22.264 5.2504,44.5271 7.8769,66.7911 h -8.3398 c -0.4055,-5.4947 -0.8114,-10.9897 -1.2168,-16.4844 l -0.2266,-3.0684 -3.0762,-0.019 c -1.6253,-0.011 -3.9276,-0.5163 -6.6484,0.166 -1.3604,0.3412 -3.0767,1.296 -3.9414,2.9824 -0.7324,1.4283 -0.7258,2.9676 -0.4746,4.5352 -0.3831,3.9624 -0.7653,7.9261 -1.1484,11.8887 h -6.461 c 3.5623,-22.264 7.1252,-44.5271 10.6875,-66.7911 z m -217.2949,6.3145 c -1.5518,5.8017 -1.1645,12.7506 -2.0098,18.0312 l -0.016,0.092 -1.8496,17.7911 2.748,0.7363 c 1.6842,0.4511 3.2107,0.6532 4.7813,0.3398 1.5706,-0.3134 3.1555,-1.4014 3.9433,-2.7714 1.4832,-2.5796 0.9947,-5.0094 0.418,-7.4766 -0.5801,-8.7877 -1.5033,-17.3912 -1.4629,-25.8672 z m 120.2578,0 c -1.5515,5.8017 -1.1643,12.7507 -2.0098,18.0312 l -0.016,0.092 -0.01,0.09 c -0.5156,4.9577 -1.0311,9.9153 -1.5468,14.873 l -0.295,2.8282 2.7481,0.7363 c 1.6841,0.4511 3.2127,0.6532 4.7832,0.3398 1.5705,-0.3133 3.1555,-1.4015 3.9434,-2.7714 1.4832,-2.5796 0.9946,-5.0094 0.4179,-7.4766 -0.58,-8.7879 -1.5043,-17.3895 -1.4629,-25.8652 z m 99.1406,0 c -1.552,5.8017 -1.1644,12.7507 -2.0097,18.0312 l -0.016,0.092 -0.01,0.09 c -0.5156,4.9579 -1.0314,9.9153 -1.5469,14.873 l -0.2949,2.8282 2.748,0.7363 c 1.684,0.4511 3.2108,0.6532 4.7813,0.3398 1.5706,-0.3134 3.1556,-1.4015 3.9433,-2.7714 1.4832,-2.5796 0.9945,-5.0094 0.418,-7.4766 -0.58,-8.7879 -1.5024,-17.3896 -1.4609,-25.8652 z"
       transform="scale(0.75)" />
  </g>
</svg>
