<?xml version="1.0" encoding="UTF-8" standalone="no"?>
<svg
   xmlns:dc="http://purl.org/dc/elements/1.1/"
   xmlns:cc="http://creativecommons.org/ns#"
   xmlns:rdf="http://www.w3.org/1999/02/22-rdf-syntax-ns#"
   xmlns:svg="http://www.w3.org/2000/svg"
   xmlns="http://www.w3.org/2000/svg"
   xmlns:sodipodi="http://sodipodi.sourceforge.net/DTD/sodipodi-0.dtd"
   xmlns:inkscape="http://www.inkscape.org/namespaces/inkscape"
   version="1.1"
   width="420mm"
   height="297mm"
   viewBox="-0.5 -0.5 1587.4016 1122.5197"
   overflow="visible"
   enable-background="new -0.5 -0.5 263 390"
   xml:space="preserve"
   id="svg5"
   sodipodi:docname="WWF_logo.svg"
   inkscape:version="1.0 (4035a4fb49, 2020-05-01)"><metadata
     id="metadata11"><rdf:RDF><cc:Work
         rdf:about=""><dc:format>image/svg+xml</dc:format><dc:type
           rdf:resource="http://purl.org/dc/dcmitype/StillImage" /><dc:title /></cc:Work></rdf:RDF></metadata><defs
     id="defs9" /><sodipodi:namedview
     inkscape:snap-global="false"
     inkscape:document-rotation="0"
     pagecolor="#ffffff"
     bordercolor="#666666"
     borderopacity="1"
     objecttolerance="10"
     gridtolerance="10"
     guidetolerance="10"
     inkscape:pageopacity="0"
     inkscape:pageshadow="2"
     inkscape:window-width="1920"
     inkscape:window-height="999"
     id="namedview7"
     showgrid="false"
     units="mm"
     inkscape:snap-bbox="true"
     inkscape:bbox-paths="true"
     inkscape:bbox-nodes="true"
     inkscape:snap-bbox-edge-midpoints="true"
     inkscape:snap-bbox-midpoints="true"
     inkscape:object-paths="true"
     inkscape:snap-intersection-paths="true"
     inkscape:snap-smooth-nodes="true"
     inkscape:snap-midpoints="true"
     inkscape:zoom="1.1873199"
     inkscape:cx="1013.6618"
     inkscape:cy="618.53106"
     inkscape:window-x="0"
     inkscape:window-y="0"
     inkscape:window-maximized="1"
     inkscape:current-layer="svg5" /><path
     sodipodi:nodetypes="ccscccccccscsccsccccsccsszcsccsccsscccccscsccccccsccccsccccccccccccccccccsscsccccccs"
     id="foreground"
     d="m 766.08854,42.906333 c -14.92853,0.342692 -30.65756,5.284955 -41.98782,15.051679 -20.14119,17.362174 -40.25561,35.4017 -39.55952,59.018008 0.6961,23.6163 13.86297,36.8394 13.86297,36.8394 0,0 9.03047,6.91809 0,13.86296 -9.0278,6.94755 -115.96915,75.03083 -110.41379,215.33112 0,0 2.7817,36.51277 -1.38683,75.40832 -2.9932,27.94279 6.82707,61.82112 12.62606,78.77635 0.14458,0.16331 2.84595,7.13228 -3.26896,3.06816 -28.98961,-18.11716 -52.65946,-45.3478 -72.48741,-79.1699 -18.19213,-33.04302 -28.56928,-71.22641 -28.56928,-111.84881 0,-86.28612 46.84976,-161.44279 115.85938,-200.12951 -94.6794,26.10618 -164.47882,114.77776 -164.47882,220.08061 0,8.05059 0.39356,16.02889 1.18872,23.86529 0.77105,18.15733 2.77366,47.13088 7.87121,58.72351 7.64096,17.36485 6.93148,54.8468 6.93148,61.09825 0,6.24878 2.0856,211.81584 123.6342,211.12243 0,0 57.93103,1.44037 58.32459,-22.18128 0.34805,-20.83729 -5.59819,-23.02731 -11.09198,-35.10453 -5.20731,-11.45609 -9.01708,-12.15753 -6.23806,-48.96481 0,0 0.14189,-7.45087 2.92091,-7.62757 2.77902,-0.1767 36.65199,100.70328 80.40949,153.49125 43.75482,52.78529 87.52035,58.32459 120.85786,58.32459 0,0 62.48776,0.0134 62.48776,-31.2412 0,-31.25727 -52.18348,-15.59695 -52.18348,-114.9134 0,-99.32181 65.01707,-91.737 77.18662,-73.28614 12.16955,18.45086 31.04772,43.14588 21.32116,108.43408 -9.72389,65.2882 -3.94024,73.52739 20.36948,73.52739 24.30972,0 152.11242,4.1364 174.33652,-361.19479 0,0 2.7603,-59.01801 -16.6848,-109.72037 0,0 8.3398,97.23888 -52.0865,149.33075 -60.4262,52.09188 -95.16398,44.46163 -95.16398,44.46163 0,0 -29.14222,-2.1097 -40.94635,12.47613 -11.80682,14.58583 -9.75602,25.0192 -34.7538,17.38091 -25.00582,-7.64096 -25.11023,-13.87099 -48.02776,-11.09197 -22.91754,2.77901 -36.71893,5.53126 -45.7494,-13.22042 -9.03315,-18.75169 -19.1265,-30.83961 -37.87551,-34.31205 -18.75436,-3.47243 -101.15307,-42.6732 -98.92824,-153.19408 2.08292,-102.79424 48.62211,-138.23877 48.62211,-138.23877 0,0 7.65971,-8.32367 15.29799,-4.85124 7.64097,3.47244 20.12245,4.18459 34.70829,-9.01173 14.58583,-13.19632 24.30972,-23.64843 50.70236,-32.6789 0,0 18.07433,-2.78705 17.37824,-20.84532 -0.69609,-18.05827 -15.31137,-57.609756 -34.06841,-69.416569 -8.20587,-5.169832 -19.33801,-7.699863 -30.9467,-7.429458 z m 63.02857,497.104337 c 4.19262,-0.15528 10.24596,2.62106 16.63663,5.05203 9.29552,3.53133 30.55314,1.86339 38.87146,1.28509 8.31296,-0.57561 13.88706,2.95305 7.22598,10.843 -9.17772,10.88047 -20.15726,10.47888 -34.01487,11.43735 -13.85761,0.95846 -28.7192,-12.62607 -28.7192,-12.62607 -0.78712,-1.33864 -7.53387,-8.52714 -4.40681,-13.61665 0.97721,-1.58763 2.50058,-2.30247 4.40681,-2.37475 z M 758.15307,318.40936 c 16.05298,-19.69409 25.00314,-22.2268 38.89288,-22.2268 13.89241,0 33.16617,8.90732 38.89555,30.56118 6.24878,23.61363 9.42671,27.23331 -13.08923,53.58848 -16.14937,18.90964 -45.2541,60.31648 -74.42576,33.92384 -29.16899,-26.39265 -18.33671,-61.41953 9.72656,-95.8467 z m 260.88503,36.77247 c -9.4079,-23.60024 -17.1881,-28.70314 -30.43798,-32.86899 -13.24987,-4.16853 -34.30401,-1.45109 -46.26879,17.48533 -13.04639,20.64987 -17.56297,22.60161 -3.9945,54.49875 9.73459,22.88273 25.47969,71.66281 61.22408,55.23768 35.74439,-16.4278 35.91839,-53.0905 19.47719,-94.35277 z M 865.16671,510.18575 c 7.42946,-11.63547 24.75415,-15.58714 34.79663,-15.8977 13.1401,-0.40427 12.95269,-11.73989 12.95269,-11.73989 0,0 0.92902,-11.57121 -46.5258,-16.18416 -47.40128,-4.61028 -48.69708,7.62222 -48.69708,7.62222 0,0 -2.23821,11.11339 10.61006,13.88974 9.78815,2.11773 26.00712,9.27142 31.27869,21.96442 1.03611,3.07887 3.96773,3.14045 5.58481,0.34537 z M 1089.0062,225.28814 c -7.9756,2.60499 -20.4785,1.9089 -33.5142,-12.82151 -13.0357,-14.7304 -21.5468,-26.1624 -46.7775,-38.06024 0,0 -17.63789,-4.7602 -14.94723,-22.63106 2.69067,-17.87086 21.57083,-55.599117 41.51663,-65.25875 19.9457,-9.656957 53.5403,-3.815127 71.636,15.67281 18.0931,19.48793 36.1085,39.66661 32.8021,63.05802 -3.3038,23.39141 -17.8816,35.04562 -17.8816,35.04562 l 0.2544,0.0402 c -6.9422,9.03047 -33.0886,24.95495 -33.0886,24.95495 z"
     style="stroke-width:1" /><g
     transform="matrix(2.677282,0,0,2.677282,441.47077,38.073839)"
     id="g18885"
     style="stroke-width:0.373513"><path
       style="fill:#000000;stroke-width:0.373513"
       id="path17"
       d="m 199.32201,388.652 c 0,0 -4.54,0.385 -4.54,-6.75 0,-7.133 0,-58.889 0,-58.889 0,0 0,-4.41 6.485,-4.41 6.485,0 44.361,0 44.361,0 0,0 5.375,-0.26 5.375,4.93 0,5.19 -4.986,4.67 -4.986,4.67 h -26.461 c 0,0 -3.113,0 -3.113,2.982 0,2.983 0,14.527 0,14.527 h 20.365 c 0,0 5.504,0 5.504,4.281 0,4.279 -4.597,4.54 -4.597,4.54 h -21.401 v 28.317 c 0,0 0.315,5.803 -3.445,5.803 -2.596,-0.001 -13.547,-0.135 -13.547,-0.001 z" /><path
       style="fill:#000000;stroke-width:0.373513"
       id="WWF"
       d="m 10.162,318.662 v 0 H 23.37 c 0,0 3.422,-0.62 4.77,2.852 1.587,4.092 8.123,30.316 8.123,30.316 l 9.363,-13.855 c 0,0 -3.819,-19.404 2.876,-19.313 8.071,0.108 12.566,0 12.566,0 0,0 3.216,-0.308 5.228,5.054 2.369,6.314 8.135,28.541 8.135,28.541 l 13.327,-30.375 c 0,0 1.834,-3.219 4.77,-3.219 3.118,0 5.092,2.186 4.402,4.688 -1.05,3.81 -23.113,61.818 -23.113,61.818 0,0 -1.468,3.484 -4.586,3.484 -3.119,0 -4.403,-1.834 -6.054,-6.053 C 61.526,378.381 51.07,350.131 51.07,350.131 l -15.776,35.771 c 0,0 -1.192,2.75 -3.669,2.75 -2.935,0 -4.036,-1.283 -5.503,-4.035 -1.468,-2.751 -19.995,-55.766 -19.995,-55.766 0,0 -3.67,-10.189 4.035,-10.189 z" /><path
       style="fill:#000000;stroke-width:0.373513"
       d="m 105.90913,318.61172 c 0,0 -5.375,-0.26031 -5.375,4.92969 0,5.19 4.98633,4.66992 4.98633,4.66992 h 26.46094 c 0,0 3.11328,4.2e-4 3.11328,2.98242 v 50.7168 c 0,0.77581 0.0625,1.44848 0.1582,2.05664 0.11695,1.6805 0.69579,4.69531 3.41406,4.69531 0.11911,-4e-5 0.44887,-0.002 0.71094,-0.004 0.15332,0.007 0.25586,0.002 0.25586,0.002 0,-0.002 0.0551,-0.002 0.0606,-0.004 0.31324,-0.002 0.57597,-0.005 0.79687,-0.006 v -0.0332 c 2.55204,-0.0482 10.51681,0.0441 12.69141,0.0449 3.76,0 3.44336,-5.80273 3.44336,-5.80273 0.0339,-17.22169 0.0579,-34.44443 0.1289,-51.66602 0,-2.982 3.11329,-2.98242 3.11329,-2.98242 h 26.46093 c 0,0 4.98633,0.52008 4.98633,-4.66992 0,-5.19 -5.375,-4.92969 -5.375,-4.92969 H 141.5791 c -0.38658,0 -0.74602,0.0194 -1.08789,0.0488 v -0.0488 z"
       id="path23" /></g><path
     d="m 853.16917,709.37926 0.1855,0.63492 c 0.68888,2.35039 3.30357,3.6509 5.72736,2.84924 l 23.80982,-7.87705 c 2.14512,-0.70943 3.40918,-2.83762 2.94174,-4.95166 l -0.0221,-0.0834 c -0.54343,-2.45668 -3.18295,-3.91607 -5.69475,-3.14871 l -23.97705,7.32641 c -2.3068,0.7051 -3.62463,3.03153 -2.97442,5.2505"
     style="fill:#c30000;fill-opacity:1;fill-rule:nonzero;stroke:none;stroke-width:0.133333"
     id="path1258" /><path
     d="m 1410.472,663.96471 c -0.1095,0 -0.2298,-0.0435 -0.2671,-0.13468 l -0.01,-0.0373 c -0.017,-0.12526 0.1877,-0.30754 0.3062,-0.33807 0.01,-0.002 0.02,-0.003 0.031,-0.003 0.1083,0 0.2865,0.1082 0.3071,0.19665 0.03,0.1284 -0.1436,0.2577 -0.2527,0.29811 -0.033,0.0121 -0.073,0.0184 -0.1141,0.0184"
     style="fill:#3d424a;fill-opacity:1;fill-rule:nonzero;stroke:none;stroke-width:0.133333"
     id="path4652" /><path
     sodipodi:nodetypes="ccccc"
     d="m 231.99496,1021.3712 c 43.65563,-20.4767 96.81659,-23.27791 164.00203,0 2.7176,17.008 -0.52599,31.0709 -10.01814,42.0468 -47.19187,-9.627 -93.62124,-4.3515 -140.00954,1.7268 -9.66907,-11.2752 -13.82738,-26.1972 -13.97435,-43.7736 z"
     transform="rotate(-29.645768)"
     style="fill:#c30000;stroke-width:1.00157;stroke-linecap:round;stroke-linejoin:round;stroke-dashoffset:7.28882;paint-order:stroke fill markers"
     id="rect18923" /><path
     sodipodi:nodetypes="ccccc"
     d="m 1031.3597,494.4758 c 68.8492,-19.12002 93.1943,-12.21701 159.3167,-1.22087 -3.4532,21.08504 -6.2872,29.56527 -14.0079,40.09259 -52.1069,-5.33675 -77.7044,-11.03856 -137.121,-1.13954 -9.7579,-11.28533 -11.0606,-24.12497 -8.1878,-37.73218 z"
     transform="rotate(9.7856059)"
     style="fill:#c30000;stroke-width:1.00157;stroke-linecap:round;stroke-linejoin:round;stroke-dashoffset:7.28882;paint-order:stroke fill markers"
     id="rect18925" /><path
     id="path18955"
     style="fill:#c30000;fill-opacity:1;fill-rule:nonzero;stroke:none;stroke-width:0.133333"
     d="m 905.20784,686.75187 0.12963,0.64863 c 0.4821,2.40136 2.97394,3.92409 5.4582,3.33601 l 24.40409,-5.77889 c 2.19865,-0.5204 3.6428,-2.53074 3.36077,-4.67739 l -0.0146,-0.085 c -0.32797,-2.49459 -2.83072,-4.17777 -5.39969,-3.63151 l -24.52286,5.2158 c -2.35933,0.50204 -3.87428,2.7052 -3.41928,4.97227" /><ellipse
     transform="matrix(0.96154633,-0.27464278,0.26946928,0.96300899,0,0)"
     ry="18.601864"
     rx="25.921448"
     cx="675.45465"
     cy="912.0069"
     id="path18957"
     style="fill:none;fill-opacity:1;stroke:#c30000;stroke-width:7.90006;stroke-linecap:round;stroke-linejoin:round;stroke-miterlimit:4;stroke-dasharray:none;stroke-dashoffset:7.28882;paint-order:stroke fill markers" /></svg>
