<?xml version="1.0" encoding="UTF-8" standalone="no"?>
<!-- Created with Inkscape (http://www.inkscape.org/) -->

<svg
   xmlns:dc="http://purl.org/dc/elements/1.1/"
   xmlns:cc="http://creativecommons.org/ns#"
   xmlns:rdf="http://www.w3.org/1999/02/22-rdf-syntax-ns#"
   xmlns:svg="http://www.w3.org/2000/svg"
   xmlns="http://www.w3.org/2000/svg"
   xmlns:sodipodi="http://sodipodi.sourceforge.net/DTD/sodipodi-0.dtd"
   xmlns:inkscape="http://www.inkscape.org/namespaces/inkscape"
   width="512"
   height="512"
   viewBox="0 0 135.46666 135.46667"
   version="1.1"
   id="svg1687"
   sodipodi:docname="00001.svg"
   inkscape:version="0.92.5 (2060ec1f9f, 2020-04-08)">
  <defs
     id="defs1681" />
  <sodipodi:namedview
     id="base"
     pagecolor="#ffffff"
     bordercolor="#666666"
     borderopacity="1.0"
     inkscape:pageopacity="0.0"
     inkscape:pageshadow="2"
     inkscape:zoom="1.4"
     inkscape:cx="223.5984"
     inkscape:cy="252.36557"
     inkscape:document-units="mm"
     inkscape:current-layer="layer1"
     showgrid="false"
     inkscape:window-width="1920"
     inkscape:window-height="999"
     inkscape:window-x="0"
     inkscape:window-y="0"
     inkscape:window-maximized="1"
     units="px" />
  <metadata
     id="metadata1684">
    <rdf:RDF>
      <cc:Work
         rdf:about="">
        <dc:format>image/svg+xml</dc:format>
        <dc:type
           rdf:resource="http://purl.org/dc/dcmitype/StillImage" />
        <dc:title></dc:title>
      </cc:Work>
    </rdf:RDF>
  </metadata>
  <g
     inkscape:label="Layer 1"
     inkscape:groupmode="layer"
     id="layer1"
     transform="translate(0,-161.53331)">
    <g
       id="g2522" />
    <path
       style="color:#000000;font-style:normal;font-variant:normal;font-weight:normal;font-stretch:normal;font-size:medium;line-height:normal;font-family:sans-serif;font-variant-ligatures:normal;font-variant-position:normal;font-variant-caps:normal;font-variant-numeric:normal;font-variant-alternates:normal;font-feature-settings:normal;text-indent:0;text-align:start;text-decoration:none;text-decoration-line:none;text-decoration-style:solid;text-decoration-color:#000000;letter-spacing:normal;word-spacing:normal;text-transform:none;writing-mode:lr-tb;direction:ltr;text-orientation:mixed;dominant-baseline:auto;baseline-shift:baseline;text-anchor:start;white-space:normal;shape-padding:0;clip-rule:nonzero;display:inline;overflow:visible;visibility:visible;opacity:1;isolation:auto;mix-blend-mode:normal;color-interpolation:sRGB;color-interpolation-filters:linearRGB;solid-color:#000000;solid-opacity:1;vector-effect:none;fill:#666666;fill-opacity:1;fill-rule:nonzero;stroke:none;stroke-width:0.26458332;stroke-linecap:butt;stroke-linejoin:miter;stroke-miterlimit:4;stroke-dasharray:none;stroke-dashoffset:0;stroke-opacity:1;color-rendering:auto;image-rendering:auto;shape-rendering:auto;text-rendering:auto;enable-background:accumulate"
       d="m 67.734641,187.40215 a 41.870333,41.870333 0 0 0 -0.106626,0.004 c -14.494594,5.84303 -27.936498,16.63816 -40.086087,30.24695 a 41.870333,41.870333 0 0 0 -0.102884,0.40406 c 12.314394,-13.85094 25.95713,-24.80817 40.667103,-30.63605 a 41.870333,41.870333 0 0 0 -0.371506,-0.0187 z m -2.845601,0.10064 a 41.870333,41.870333 0 0 0 -0.655843,0.0696 c -13.105554,5.59112 -25.23514,15.34365 -36.076581,28.17018 a 41.870333,41.870333 0 0 0 -0.177709,0.48749 C 39.047498,203.04807 51.466185,193.08866 64.88904,187.5028 Z m 5.352618,0.0247 c -15.480832,6.12154 -29.876568,17.84126 -43.109772,31.73148 a 41.870333,41.870333 0 0 0 -0.09653,0.37824 c 13.400987,-14.10585 27.991927,-25.98952 43.675826,-32.08616 a 41.870333,41.870333 0 0 0 -0.469528,-0.0236 z m 2.343899,0.18519 c -0.329643,0.12952 -0.658956,0.2608 -0.987692,0.39545 -15.960561,6.53766 -30.861734,18.98424 -44.849084,32.65071 a 41.870333,41.870333 0 0 0 -0.07146,0.33971 c 14.040849,-13.73809 28.99518,-26.25906 44.993871,-32.81234 0.431686,-0.17681 0.864643,-0.34753 1.297842,-0.51554 a 41.870333,41.870333 0 0 0 -0.383478,-0.058 z m -11.857919,0.28508 a 41.870333,41.870333 0 0 0 -0.816716,0.1721 c -11.245053,5.31313 -21.65038,13.86776 -30.922999,25.29614 a 41.870333,41.870333 0 0 0 -0.171723,0.47028 c 9.539171,-11.84437 20.286902,-20.61702 31.911438,-25.93852 z m 13.804869,0.009 c -0.806294,0.32038 -1.610346,0.65515 -2.411614,1.00602 -16.051326,7.0288 -31.117135,19.95817 -45.586113,33.02671 a 41.870333,41.870333 0 0 0 -0.04489,0.29855 C 41.0103,209.2193 56.120601,196.22847 72.197213,189.1886 c 0.900136,-0.39416 1.803562,-0.76933 2.709795,-1.125 a 41.870333,41.870333 0 0 0 -0.374501,-0.0565 z m 1.807027,0.30267 c -1.237191,0.5 -2.468946,1.03658 -3.695239,1.60836 -16.122679,7.51751 -31.342395,20.9077 -46.290965,33.32377 a 41.870333,41.870333 0 0 0 -0.04302,0.28321 c 15.005792,-12.45614 30.269904,-25.90531 46.414425,-33.43301 1.303653,-0.60785 2.613279,-1.17532 3.928695,-1.7019 a 41.870333,41.870333 0 0 0 -0.313892,-0.0804 z m 1.503612,0.38385 c -1.566636,0.65194 -3.125172,1.36386 -4.675823,2.13102 -16.186543,8.00808 -31.555861,21.85671 -46.989832,33.58079 a 41.870333,41.870333 0 0 0 -0.04115,0.27161 c 15.497656,-11.75593 30.910329,-25.66393 47.11591,-33.68142 1.624324,-0.80361 3.256722,-1.54627 4.897681,-2.22343 a 41.870333,41.870333 0 0 0 -0.306783,-0.0786 z m 1.44263,0.36851 c -1.875848,0.80428 -3.740314,1.69657 -5.595052,2.66715 -16.228149,8.49213 -31.72879,22.77479 -47.637443,33.76747 a 41.870333,41.870333 0 0 0 -0.01197,0.24094 c 15.969444,-11.01412 31.503097,-25.34264 47.738457,-33.83856 1.925563,-1.00765 3.860986,-1.9316 5.807929,-2.75993 a 41.870333,41.870333 0 0 0 -0.301919,-0.0771 z m 1.309814,0.3876 c -2.140338,0.94929 -4.266694,2.0171 -6.381837,3.18456 -16.241783,8.96467 -31.849419,23.64894 -48.211353,33.88233 a 41.870333,41.870333 0 0 0 -0.01197,0.23458 c 16.429452,-10.25003 32.067852,-24.98072 48.315358,-33.94856 2.170327,-1.19792 4.351464,-2.29115 6.546456,-3.25901 a 41.870333,41.870333 0 0 0 -0.256652,-0.0939 z m -25.763053,0.0438 a 41.870333,41.870333 0 0 0 -0.946163,0.31427 c -8.439337,4.77739 -16.294663,11.58533 -23.391098,20.41604 a 41.870333,41.870333 0 0 0 -0.317632,0.65734 c 7.441796,-9.38559 15.729716,-16.51215 24.654893,-21.38765 z m 26.917231,0.37787 c -2.352225,1.0846 -4.688441,2.31806 -7.012989,3.66793 -16.253689,9.43852 -31.966369,24.52546 -48.784887,33.98484 a 41.870333,41.870333 0 0 0 -0.01159,0.2271 c 16.892725,-9.47175 32.635376,-24.60598 48.892635,-34.04658 2.392065,-1.38907 4.796917,-2.63819 7.218383,-3.7233 a 41.870333,41.870333 0 0 0 -0.301545,-0.10999 z m 1.131732,0.41303 c -2.556497,1.21938 -5.094802,2.61988 -7.621317,4.15991 -16.263306,9.9132 -32.080248,25.39864 -49.358049,34.06977 a 41.870333,41.870333 0 0 0 -0.01084,0.22223 c 17.358234,-8.67949 33.202545,-24.21346 49.467666,-34.12776 2.575038,-1.5696 5.160482,-2.99752 7.763486,-4.23623 a 41.870333,41.870333 0 0 0 -0.240936,-0.0879 z m 1.079728,0.39396 c -2.74287,1.36328 -5.465715,2.94069 -8.178017,4.67245 -16.264652,10.38471 -32.179535,26.25878 -49.91138,34.13188 a 41.870333,41.870333 0 0 0 0.0075,0.20876 c 17.811139,-7.88062 33.747725,-23.79801 50.007157,-34.17939 2.755089,-1.75907 5.519016,-3.35755 8.302227,-4.73306 a 41.870333,41.870333 0 0 0 -0.227469,-0.10064 z m 0.939802,0.44483 c -2.881995,1.49203 -5.742409,3.22886 -8.594418,5.13264 -16.24619,10.84461 -32.239007,27.08327 -50.401486,34.1618 a 41.870333,41.870333 0 0 0 0.0071,0.20278 c 18.246432,-7.08331 34.260899,-23.36477 50.500254,-34.20483 2.890061,-1.92917 5.786979,-3.68587 8.704037,-5.18838 a 41.870333,41.870333 0 0 0 -0.215496,-0.10401 z m 0.910996,0.43998 c -3.011139,1.62229 -5.99978,3.51984 -8.982385,5.59767 -16.227338,11.30476 -32.297464,27.90692 -50.891591,34.18799 a 41.870333,41.870333 0 0 0 0.0071,0.19903 c 18.682528,-6.28352 34.775438,-22.93104 50.994848,-34.23027 3.019204,-2.10333 6.042357,-4.019 9.086393,-5.65079 a 41.870333,41.870333 0 0 0 -0.214374,-0.10363 z m 0.890796,0.43024 c -3.133471,1.75455 -6.242953,3.81689 -9.34978,6.07206 -16.206726,11.76409 -32.353814,28.7273 -51.378702,34.2097 a 41.870333,41.870333 0 0 0 0.02357,0.19267 c 19.109338,-5.48779 35.275068,-22.49258 51.468118,-34.24673 3.141521,-2.28036 6.283513,-4.36211 9.447425,-6.12556 a 41.870333,41.870333 0 0 0 -0.210631,-0.10214 z m 0.872835,0.42201 c -3.248873,1.88923 -6.473133,4.12106 -9.698091,6.55656 -16.16585,12.20848 -32.368322,29.50418 -51.792859,34.21081 a 41.870333,41.870333 0 0 0 0.0232,0.19193 c 19.51054,-4.71166 35.732927,-22.05266 51.884146,-34.25009 3.258992,-2.4612 6.514636,-4.71103 9.792742,-6.60856 a 41.870333,41.870333 0 0 0 -0.209135,-0.10064 z m 0.788282,0.45307 c -3.336132,2.01739 -6.647302,4.40665 -9.963344,7.0085 -16.1252,12.65223 -32.382534,30.28008 -52.20552,34.21605 a 41.870333,41.870333 0 0 0 0.02357,0.19305 c 19.910038,-3.94118 36.191188,-21.61898 52.300922,-34.25908 3.340824,-2.62129 6.673692,-5.02379 10.029191,-7.04553 a 41.870333,41.870333 0 0 0 -0.184819,-0.11299 z m 0.750497,0.4598 c -3.410587,2.14388 -6.795702,4.6899 -10.19044,7.45371 -9.206193,7.49517 -18.486826,16.58894 -28.533454,23.58714 -7.506634,5.2289 -15.438004,9.28586 -24.084353,10.64014 a 41.870333,41.870333 0 0 0 0.0232,0.19043 c 8.686464,-1.35939 16.647962,-5.43378 24.170026,-10.67344 10.065077,-7.01105 19.349951,-16.10867 28.546176,-23.59574 3.418368,-2.78305 6.824071,-5.34205 10.25217,-7.49 a 41.870333,41.870333 0 0 0 -0.183322,-0.11224 z m -43.263913,0.2877 a 41.870333,41.870333 0 0 0 -1.959296,1.29672 c -3.298874,2.64826 -6.471407,5.68643 -9.502048,9.12419 a 41.870333,41.870333 0 0 0 -1.356207,1.82984 c 4.022795,-4.80911 8.30843,-8.88209 12.817551,-12.25075 z m 44.003934,0.16612 c -3.480661,2.27229 -6.935934,4.97703 -10.405937,7.9049 -9.19044,7.75457 -18.488102,17.07553 -28.629606,24.07238 -7.564034,5.21858 -15.594184,9.14223 -24.40086,10.16949 a 41.870333,41.870333 0 0 0 0.02282,0.18893 c 8.846206,-1.03255 16.90824,-4.97297 24.48691,-10.20166 10.1619,-7.01091 19.462549,-16.33526 28.643823,-24.08211 3.492888,-2.94717 6.967816,-5.6641 10.465048,-7.94007 a 41.870333,41.870333 0 0 0 -0.182198,-0.11186 z m 0.731789,0.44857 c -3.548619,2.40273 -7.071623,5.26764 -10.614697,8.36246 -9.174709,8.01396 -18.487869,17.56061 -28.72426,24.55613 -7.608317,5.19949 -15.722557,8.9864 -24.670607,9.69846 a 41.870333,41.870333 0 0 0 0.04228,0.18744 c 8.978449,-0.72161 17.119161,-4.52253 24.735703,-9.72765 10.258713,-7.01077 19.576663,-16.56335 28.742965,-24.56996 3.5646,-3.11363 7.105946,-5.9903 10.669321,-8.39576 a 41.870333,41.870333 0 0 0 -0.180703,-0.11112 z m 0.720567,0.44185 c -3.612047,2.53431 -7.198423,5.56261 -10.81074,8.82562 -9.158984,8.27334 -18.489139,18.0468 -28.82041,25.04099 -7.63926,5.17172 -15.822221,8.82024 -24.891715,9.23231 a 41.870333,41.870333 0 0 0 0.04228,0.18818 c 9.098927,-0.42253 17.309438,-4.08502 24.956813,-9.26223 10.355527,-7.0106 19.689295,-16.79143 28.840613,-25.05783 3.62919,-3.27826 7.229094,-6.31525 10.85077,-8.84994 a 41.870333,41.870333 0 0 0 -0.167608,-0.1171 z m 0.646863,0.4815 c -3.650961,2.65781 -7.276506,5.8357 -10.934202,9.24913 -9.14328,8.53271 -18.48927,18.53149 -28.915436,25.52437 -7.670306,5.14451 -15.921078,8.65846 -25.110204,8.77736 a 41.870333,41.870333 0 0 0 0.04228,0.18968 c 9.217003,-0.13021 17.495966,-3.65711 25.174181,-8.80692 10.452324,-7.01043 19.803071,-17.01836 28.939381,-25.54456 3.671052,-3.4259 7.307139,-6.61025 10.964131,-9.2671 a 41.870333,41.870333 0 0 0 -0.160126,-0.12196 z m 0.634144,0.48187 c -3.685061,2.78154 -7.345243,6.10965 -11.043821,9.67227 -9.127606,8.79208 -18.49015,19.01802 -29.011213,26.00961 -7.702008,5.11823 -16.019017,8.50417 -25.32645,8.33515 a 41.870333,41.870333 0 0 0 0.04303,0.1908 c 9.333156,0.15561 17.678751,-3.24329 25.387805,-8.3662 10.54912,-7.01023 19.918369,-17.24457 29.039647,-26.03056 3.711415,-3.57499 7.381516,-6.90878 11.071507,-9.68873 a 41.870333,41.870333 0 0 0 -0.1605,-0.12234 z m 0.630027,0.47925 c -3.718262,2.90643 -7.411883,6.38429 -11.150445,10.09803 -9.11194,9.05145 -18.491766,19.50417 -29.10774,26.49447 -7.729033,5.08935 -16.107715,8.34443 -25.525108,7.89818 a 41.870333,41.870333 0 0 0 0.06397,0.1923 c 9.434088,0.42619 17.83638,-2.84033 25.567013,-7.93072 10.645917,-7.01004 20.031053,-17.47264 29.137295,-26.51842 3.750297,-3.7254 7.453343,-7.20769 11.175138,-10.11187 a 41.870333,41.870333 0 0 0 -0.160127,-0.12197 z m 0.62554,0.47552 c -3.749154,3.03295 -7.474418,6.6629 -11.251461,10.52902 -9.096294,9.31081 -18.493015,19.9888 -29.20389,26.97784 -7.731734,5.0451 -16.142236,8.16922 -25.630987,7.4784 a 41.870333,41.870333 0 0 0 0.06472,0.19492 c 9.503474,0.66844 17.938056,-2.46767 25.67102,-7.51357 10.742704,-7.00981 20.144879,-17.69919 29.236063,-27.00477 3.787997,-3.87733 7.522024,-7.51074 11.273908,-10.54063 a 41.870333,41.870333 0 0 0 -0.159377,-0.12121 z m 0.619927,0.4714 c -3.778774,3.15984 -7.534409,6.94309 -11.348359,10.96263 -9.080651,9.57017 -18.492754,20.47529 -29.298544,27.46308 -7.734111,5.00142 -16.175189,7.99866 -25.732,7.07323 a 41.870333,41.870333 0 0 0 0.06472,0.19529 c 9.570266,0.9019 18.036631,-2.10538 25.772033,-7.10764 10.839489,-7.00958 20.257601,-17.92725 29.333711,-27.49264 3.824005,-4.03014 7.587484,-7.81629 11.367813,-10.97274 a 41.870333,41.870333 0 0 0 -0.159377,-0.12121 z m 0.580267,0.49833 c -3.794329,3.28172 -7.56679,7.208 -11.404102,11.36894 -9.065033,9.82952 -18.49361,20.96177 -29.39432,27.94832 -7.73614,4.95829 -16.207588,7.8316 -25.829648,6.68039 a 41.870333,41.870333 0 0 0 0.06585,0.19791 c 9.633469,1.12564 18.129202,-1.75789 25.866687,-6.71705 10.936266,-7.00934 20.371832,-18.15419 29.432854,-27.97938 3.841693,-4.16568 7.616326,-8.08981 11.406348,-11.36482 a 41.870333,41.870333 0 0 0 -0.143665,-0.13431 z m 0.553708,0.5163 c -3.800847,3.39992 -7.580814,7.46309 -11.432912,11.75765 -9.049418,10.08889 -18.495202,21.44785 -29.490844,28.43319 -7.733799,4.91313 -16.228436,7.66747 -25.906343,6.30439 a 41.870333,41.870333 0 0 0 0.09016,0.20166 c 9.678187,1.32792 18.19067,-1.43487 25.919439,-6.3448 11.033031,-7.00908 20.482703,-18.38075 29.52863,-28.46574 3.855905,-4.29882 7.638818,-8.35977 11.435531,-11.75279 a 41.870333,41.870333 0 0 0 -0.143664,-0.13356 z m 0.551462,0.5133 c -3.807277,3.51904 -7.595031,7.72049 -11.461346,12.14936 -9.033829,10.34824 -18.494924,21.93282 -29.585497,28.91693 -7.701699,4.85003 -16.18343,7.48636 -25.867809,5.95908 a 41.870333,41.870333 0 0 0 0.09129,0.2039 c 9.682897,1.49099 18.18149,-1.15368 25.878285,-6.00061 11.129798,-7.00881 20.596955,-18.60842 29.627773,-28.95322 3.869234,-4.43221 7.658773,-8.63034 11.460597,-12.14151 a 41.870333,41.870333 0 0 0 -0.143289,-0.13393 z m 0.549591,0.51218 c -3.812309,3.63835 -7.606544,7.97854 -11.486413,12.54219 -9.01825,10.60761 -18.496134,22.41889 -29.681647,29.4018 -7.668855,4.78753 -16.134654,7.31199 -25.821043,5.63134 a 41.870333,41.870333 0 0 0 0.09166,0.20465 c 9.683762,1.6425 18.167016,-0.88866 25.831145,-5.67324 11.226555,-7.00853 20.709734,-18.83537 29.725421,-29.43997 3.882156,-4.56635 7.678197,-8.90262 11.484914,-12.53284 a 41.870333,41.870333 0 0 0 -0.144037,-0.13393 z m 0.548468,0.51105 c -3.816977,3.75852 -7.617492,8.23863 -11.510357,12.93765 -9.002684,10.86697 -18.497341,22.90345 -29.777796,29.88517 -7.635123,4.72554 -16.083321,7.14119 -25.76717,5.31857 a 41.870333,41.870333 0 0 0 0.09278,0.20689 c 9.679734,1.78344 18.144212,-0.63984 25.775026,-5.36272 11.3233,-7.00822 20.823648,-19.06193 29.824189,-29.92632 3.8945,-4.70099 7.696002,-9.17628 11.506614,-12.92605 a 41.870333,41.870333 0 0 0 -0.143289,-0.13319 z m 0.543229,0.50994 c -3.820546,3.87871 -7.625612,8.49874 -11.530182,13.33272 -8.987127,11.12633 -18.497414,23.38988 -29.872828,30.37041 -7.578994,4.65086 -15.980639,6.96242 -25.623129,5.03835 a 41.870333,41.870333 0 0 0 0.122338,0.21363 c 9.624782,1.87295 18.032832,-0.44604 25.599935,-5.08961 11.420053,-7.00793 20.937945,-19.2885 29.923332,-30.41269 3.90072,-4.8292 7.702036,-9.43788 11.51073,-13.30429 a 41.870333,41.870333 0 0 0 -0.130196,-0.14852 z m 0.492725,0.56081 c -3.806436,3.98846 -7.599366,8.72874 -11.498383,13.67692 -8.971582,11.38571 -18.49973,23.8759 -29.9701,30.85528 -7.501946,4.5647 -15.829858,6.77906 -25.393791,4.79292 a 41.870333,41.870333 0 0 0 0.123087,0.21475 c 9.546046,1.93436 17.880732,-0.28622 25.37097,-4.8438 11.516784,-7.00762 21.050752,-19.51658 30.02098,-30.90056 3.894688,-4.94269 7.683764,-9.67066 11.47818,-13.64623 a 41.870333,41.870333 0 0 0 -0.130943,-0.14928 z m 0.493098,0.56119 c -3.792478,4.09815 -7.573644,8.95847 -11.466957,14.02074 -8.956053,11.64508 -18.500909,24.36193 -30.066249,31.34015 -7.423155,4.47893 -15.674498,6.60201 -25.154725,4.56695 a 41.870333,41.870333 0 0 0 0.123461,0.21512 c 9.461363,1.98345 17.718321,-0.14558 25.130407,-4.61783 11.613521,-7.00729 21.163581,-19.74465 30.118626,-31.38841 3.88834,-5.05581 7.665562,-9.90325 11.446007,-13.98782 a 41.870333,41.870333 0 0 0 -0.13057,-0.1489 z m 0.492722,0.56119 c -3.778352,4.2081 -7.5477,9.18835 -11.435155,14.36456 -8.940539,11.90446 -18.502095,24.84795 -30.162399,31.82501 -7.323241,4.38194 -15.470866,6.41845 -24.829984,4.37316 a 41.870333,41.870333 0 0 0 0.1605,0.2241 c 9.324836,1.98021 17.465774,-0.0633 24.768628,-4.43302 11.710238,-7.00694 21.276416,-19.97122 30.216273,-31.87477 3.882207,-5.16922 7.647382,-10.13573 11.413456,-14.32977 a 41.870333,41.870333 0 0 0 -0.131319,-0.14927 z m 0.492352,0.56044 c -3.764149,4.31793 -7.520786,9.41824 -11.402609,14.70876 -8.925029,12.16383 -18.503266,25.33469 -30.258549,32.31062 -7.189101,4.26623 -15.189926,6.22376 -24.370557,4.22463 a 41.870333,41.870333 0 0 0 0.158629,0.22186 c 9.146573,1.93608 17.139504,-0.028 24.3092,-4.28262 11.806955,-7.00659 21.390756,-20.1978 30.315417,-32.36114 3.875953,-5.2825 7.628587,-10.36866 11.380161,-14.67209 a 41.870333,41.870333 0 0 0 -0.131692,-0.15002 z m 0.492724,0.56081 c -3.750097,4.42771 -7.494755,9.64827 -11.370809,15.05296 -8.909529,12.42321 -18.504422,25.81919 -30.354699,32.794 -7.053155,4.15133 -14.903051,6.03674 -23.899533,4.09405 a 41.870333,41.870333 0 0 0 0.157882,0.22074 c 8.963006,1.88135 16.804565,-0.009 23.838924,-4.14943 11.903669,-7.00625 21.503612,-20.42438 30.413063,-32.8475 3.869734,-5.39586 7.610199,-10.60154 11.347612,-15.01442 a 41.870333,41.870333 0 0 0 -0.13244,-0.1504 z m 0.47102,0.58588 c -3.729315,4.53234 -7.455778,9.86354 -11.318801,15.37208 -8.894028,12.68261 -18.504091,26.30519 -30.449352,33.27887 -6.870769,4.01119 -14.512217,5.83083 -23.248929,4.0125 a 41.870333,41.870333 0 0 0 0.199783,0.22747 c 8.685656,1.74444 16.304229,-0.0804 23.145296,-4.07423 12.000371,-7.00587 21.616096,-20.65134 30.510337,-33.33424 3.851778,-5.4925 7.569426,-10.80174 11.281386,-15.31521 a 41.870333,41.870333 0 0 0 -0.11972,-0.16724 z m 0.38423,0.53762 c -3.707793,4.63902 -7.410917,10.07901 -11.257445,15.68598 -8.878314,12.94165 -18.502628,26.77806 -30.514454,33.73417 -6.00595,3.47809 -12.602824,5.24257 -20.023962,4.33238 -0.835536,-0.10248 -1.68229,-0.24085 -2.539192,-0.41266 a 41.870333,41.870333 0 0 0 0.407049,0.46354 c 0.70239,0.13377 1.397867,0.2438 2.085378,0.32811 7.507847,0.92085 14.200277,-0.86816 20.263029,-4.37914 12.125447,-7.02192 21.759436,-20.90718 30.638661,-33.85016 3.822791,-5.57237 7.508816,-10.96602 11.181876,-15.5655 a 41.870333,41.870333 0 0 0 -0.24094,-0.33672 z"
       id="path1041"
       inkscape:connector-curvature="0" />
    <path
       style="color:#000000;font-style:normal;font-variant:normal;font-weight:normal;font-stretch:normal;font-size:medium;line-height:normal;font-family:sans-serif;font-variant-ligatures:normal;font-variant-position:normal;font-variant-caps:normal;font-variant-numeric:normal;font-variant-alternates:normal;font-feature-settings:normal;text-indent:0;text-align:start;text-decoration:none;text-decoration-line:none;text-decoration-style:solid;text-decoration-color:#000000;letter-spacing:normal;word-spacing:normal;text-transform:none;writing-mode:lr-tb;direction:ltr;text-orientation:mixed;dominant-baseline:auto;baseline-shift:baseline;text-anchor:start;white-space:normal;shape-padding:0;clip-rule:nonzero;display:inline;overflow:visible;visibility:visible;opacity:1;isolation:auto;mix-blend-mode:normal;color-interpolation:sRGB;color-interpolation-filters:linearRGB;solid-color:#000000;solid-opacity:1;vector-effect:none;fill:#666666;fill-opacity:1;fill-rule:nonzero;stroke:none;stroke-width:0.26458332;stroke-linecap:butt;stroke-linejoin:miter;stroke-miterlimit:4;stroke-dasharray:none;stroke-dashoffset:0;stroke-opacity:1;color-rendering:auto;image-rendering:auto;shape-rendering:auto;text-rendering:auto;enable-background:accumulate"
       d="m 101.63942,204.79227 c -3.893051,4.74014 -7.777991,10.37566 -11.816389,16.18768 -8.876387,12.77479 -18.486294,26.39289 -30.457959,33.17972 -5.985837,3.39342 -12.558183,5.08178 -19.937541,4.11202 -0.725566,-0.0954 -1.459647,-0.21773 -2.201355,-0.3659 a 41.870333,41.870333 0 0 0 0.205767,0.23421 c 0.66295,0.12826 1.319906,0.23592 1.970148,0.32137 7.422438,0.97543 14.043139,-0.7248 20.057635,-4.13446 12.028983,-6.81932 21.643514,-20.46251 30.520437,-33.23809 4.026938,-5.79553 7.903792,-11.40827 11.778977,-16.12894 a 41.870333,41.870333 0 0 0 -0.11972,-0.16761 z m 0.47926,0.67043 c -4.090848,4.84098 -8.164235,10.68305 -12.403024,16.7051 -8.874201,12.60758 -18.465848,25.99613 -30.368916,32.59721 -5.951532,3.30053 -12.479081,4.90674 -19.794999,3.88006 -0.651623,-0.0914 -1.30982,-0.20502 -1.974262,-0.33934 a 41.870333,41.870333 0 0 0 0.229713,0.23907 c 0.577305,0.1126 1.150338,0.21066 1.717986,0.29032 7.358719,1.0327 13.933143,-0.58631 19.913596,-3.90288 11.960901,-6.63315 21.557689,-20.04523 30.432518,-32.6537 4.227907,-6.00659 8.293968,-11.82752 12.366358,-16.64972 a 41.870333,41.870333 0 0 0 -0.11897,-0.16612 z m 0.48823,0.68278 c -4.293268,4.93288 -8.557884,10.98274 -13.000125,17.21166 -8.872034,12.44037 -18.445409,25.59675 -30.279874,32.01208 -5.917237,3.20767 -12.396605,4.7332 -19.64909,3.6496 -0.555617,-0.083 -1.116479,-0.18351 -1.681321,-0.29781 a 41.870333,41.870333 0 0 0 0.266752,0.24842 c 0.465218,0.0903 0.927564,0.1705 1.38651,0.23907 7.294993,1.08995 13.822774,-0.44745 19.769184,-3.67092 11.892818,-6.44697 21.470723,-19.62869 30.343476,-32.07007 4.431837,-6.21432 8.689419,-12.24268 12.962708,-17.15666 a 41.870333,41.870333 0 0 0 -0.11822,-0.16537 z m 0.48375,0.7187 c -4.494321,5.01162 -8.947967,11.25595 -13.591249,17.68081 -8.869841,12.27316 -18.424965,25.19997 -30.190832,31.42957 -6.248199,3.30819 -13.121075,4.72874 -20.857891,3.16959 a 41.870333,41.870333 0 0 0 0.237944,0.22186 c 7.669626,1.4828 14.503621,0.0636 20.708988,-3.22197 11.824743,-6.26077 21.385264,-19.21139 30.255931,-31.48569 4.628845,-6.4049 9.071695,-12.6223 13.540739,-17.61309 a 41.870333,41.870333 0 0 0 -0.10363,-0.18108 z m 0.44782,0.7808 c -4.684725,5.07379 -9.316113,11.49306 -14.14794,18.08936 -8.867654,12.10593 -18.404534,24.8013 -30.10179,30.84518 -6.123194,3.1638 -12.839628,4.50713 -20.373772,2.99712 a 41.870333,41.870333 0 0 0 0.234204,0.21811 c 7.469238,1.43764 14.147635,0.0968 20.228984,-3.04538 11.756659,-6.07456 21.299422,-18.79484 30.16801,-30.90205 4.817653,-6.57694 9.437957,-12.96914 14.095564,-18.02201 a 41.870333,41.870333 0 0 0 -0.10326,-0.18033 z m 0.45494,0.79352 c -4.877792,5.12697 -9.688106,11.72059 -14.710253,18.48369 -8.86547,11.93871 -18.384089,24.40301 -30.012749,30.26117 -5.99633,3.02076 -12.554712,4.29123 -19.885912,2.83101 a 41.870333,41.870333 0 0 0 0.230463,0.21437 c 7.26711,1.39075 13.787373,0.12565 19.741872,-2.87403 11.688577,-5.88835 21.213947,-18.37792 30.080466,-30.31804 5.008637,-6.7449 9.809115,-13.31248 14.659003,-18.41934 a 41.870333,41.870333 0 0 0 -0.10289,-0.17883 z m 0.46392,0.80849 c -5.074646,5.17309 -10.066585,11.93809 -15.281548,18.86417 -8.863274,11.77149 -18.36365,24.00508 -29.923707,29.67753 -5.869286,2.88003 -12.271194,4.0718 -19.401043,2.66004 a 41.870333,41.870333 0 0 0 0.227468,0.21175 c 7.066612,1.34602 13.4294,0.16026 19.257005,-2.69932 11.620502,-5.70211 21.128473,-17.96248 29.992922,-29.73552 5.202221,-6.90916 10.185063,-13.64761 15.231033,-18.80057 a 41.870333,41.870333 0 0 0 -0.10213,-0.17808 z m 0.47177,0.8227 c -5.275532,5.21092 -10.452148,12.14447 -15.862188,19.22932 -8.861082,11.60425 -18.34322,23.60825 -29.834665,29.09502 -5.73925,2.74029 -11.981034,3.85803 -18.907571,2.49579 a 41.870333,41.870333 0 0 0 0.21138,0.19679 c 6.870194,1.30633 13.079263,0.2016 18.779622,-2.52011 11.552423,-5.51588 21.041492,-17.54405 29.903878,-29.15001 5.398101,-7.06922 10.56566,-13.97797 15.811304,-19.16946 a 41.870333,41.870333 0 0 0 -0.10176,-0.17734 z m 0.42463,0.88892 c -5.46057,5.23572 -10.806371,12.31525 -16.394567,19.52975 -8.858872,11.43702 -18.322407,23.20805 -29.745248,28.50913 -5.608151,2.60262 -11.692009,3.64342 -18.418216,2.32519 a 41.870333,41.870333 0 0 0 0.265256,0.20166 c 6.647971,1.24979 12.680285,0.22437 18.233771,-2.35288 11.484349,-5.32963 20.955638,-17.12711 29.815959,-28.566 5.571544,-7.19301 10.903535,-14.24216 16.327595,-19.45716 a 41.870333,41.870333 0 0 0 -0.0845,-0.18969 z m 0.41079,0.91848 c -5.64172,5.25321 -11.152777,12.4675 -16.914227,19.79874 -8.856672,11.26979 -18.300475,22.81158 -29.654711,27.927 -5.442294,2.45192 -11.329888,3.41152 -17.809512,2.16843 a 41.870333,41.870333 0 0 0 0.283961,0.21625 c 6.393891,1.16843 12.221303,0.21556 17.603369,-2.20922 11.416266,-5.14337 20.870149,-16.71166 29.728414,-27.98349 5.745943,-7.31149 11.243196,-14.49579 16.847256,-19.72878 a 41.870333,41.870333 0 0 0 -0.0846,-0.18893 z m 0.41715,0.93158 c -5.82508,5.26614 -11.502517,12.6131 -17.43875,20.05651 -8.854458,11.10255 -18.281534,22.41322 -29.567166,27.34298 -5.269231,2.3017 -10.95218,3.1894 -17.177989,2.02851 a 41.870333,41.870333 0 0 0 0.281718,0.214 c 6.141993,1.08987 11.764766,0.20811 16.97409,-2.06741 11.348182,-4.95709 20.78316,-16.29473 29.639371,-27.39949 5.921443,-7.42486 11.585876,-14.74186 17.372536,-19.98767 a 41.870333,41.870333 0 0 0 -0.0838,-0.18743 z m 0.42089,0.94092 c -6.01039,5.27345 -11.855123,12.75333 -17.967015,20.30344 -8.852249,10.93531 -18.261095,22.01447 -29.478124,26.7586 -5.093021,2.15404 -10.568405,2.97607 -16.540478,1.89569 a 41.870333,41.870333 0 0 0 0.286955,0.21812 c 5.886027,1.00944 11.297213,0.19102 16.328349,-1.93685 11.280107,-4.7708 20.697658,-15.87628 29.551826,-26.81397 6.097824,-7.53274 11.930357,-14.98527 17.901547,-20.23946 a 41.870333,41.870333 0 0 0 -0.0831,-0.18557 z m 0.37301,1.00079 c -6.1797,5.27543 -12.178069,12.86173 -18.448896,20.49162 -8.850019,10.76807 -18.239153,21.61647 -29.387585,26.17496 -4.914884,2.00966 -10.182536,2.76357 -15.90147,1.76214 a 41.870333,41.870333 0 0 0 0.292192,0.22223 c 5.63073,0.93081 10.830794,0.17712 15.681484,-1.80628 11.21202,-4.5845 20.611781,-15.46084 29.463907,-26.23146 6.251959,-7.60693 12.233118,-15.15808 18.366958,-20.41343 a 41.870333,41.870333 0 0 0 -0.0666,-0.19978 z m 0.34382,1.03483 c -6.33865,5.27363 -12.480925,12.95318 -18.900464,20.64464 -8.847789,10.60082 -18.219831,21.21957 -29.299664,25.59245 -4.73106,1.8672 -9.784615,2.56073 -15.246752,1.63942 a 41.870333,41.870333 0 0 0 0.317634,0.22709 c 5.36466,0.84615 10.341025,0.15027 14.999827,-1.68843 11.143935,-4.39817 20.526276,-15.04388 29.37636,-25.64744 6.401345,-7.66965 12.526609,-15.31597 18.818909,-20.56982 a 41.870333,41.870333 0 0 0 -0.0658,-0.19791 z m 0.34719,1.04456 c -6.49897,5.27033 -12.786081,13.04118 -19.355029,20.78942 -8.845565,10.43357 -18.199385,20.82079 -29.210623,25.00807 -4.505857,1.71345 -9.300453,2.3516 -14.455847,1.54065 a 41.870333,41.870333 0 0 0 0.39171,0.24019 c 5.02986,0.72078 9.720902,0.075 14.131855,-1.60238 11.075853,-4.21186 20.440751,-14.62693 29.288815,-25.06344 6.551484,-7.72765 12.822379,-15.46455 19.274589,-20.71535 a 41.870333,41.870333 0 0 0 -0.0655,-0.19716 z m 0.34943,1.05167 c -6.66071,5.26591 -13.09457,13.12534 -19.813329,20.92523 -8.843329,10.26632 -18.177437,20.42273 -29.120084,24.42443 -4.254311,1.55579 -8.762225,2.14751 -13.583014,1.46096 a 41.870333,41.870333 0 0 0 0.382358,0.2342 c 4.699622,0.60457 9.105939,0.006 13.266875,-1.51558 11.007749,-4.02551 20.353745,-14.20847 29.199774,-24.47793 6.70218,-7.78065 13.11884,-15.60866 19.73177,-20.85565 a 41.870333,41.870333 0 0 0 -0.0644,-0.19566 z m 0.27199,1.1205 c -6.79462,5.26154 -13.350459,13.17827 -20.192692,20.99408 -8.841085,10.09906 -18.156979,20.02429 -29.031043,23.84042 -4.001015,1.4041 -8.222344,1.95048 -12.712796,1.3779 a 41.870333,41.870333 0 0 0 0.380486,0.23308 c 4.37025,0.49551 8.48897,-0.0588 12.395911,-1.42991 10.93965,-3.83914 20.267843,-13.79338 29.111853,-23.89579 6.820435,-7.79091 13.354431,-15.66827 20.095051,-20.91064 a 41.870333,41.870333 0 0 0 -0.0468,-0.20914 z m 0.2559,1.13997 c -6.92276,5.25743 -13.595913,13.22125 -20.555967,21.04196 -8.838827,9.9318 -18.136893,19.62733 -28.942375,23.2579 -3.746589,1.25883 -7.683028,1.75897 -11.848192,1.29111 a 41.870333,41.870333 0 0 0 0.377494,0.23159 c 4.046588,0.39647 7.87959,-0.11491 11.531681,-1.34199 10.871545,-3.65277 20.181937,-13.37605 29.023934,-23.31141 6.938747,-7.79676 13.591195,-15.72379 20.459825,-20.96265 a 41.870333,41.870333 0 0 0 -0.0464,-0.20651 z m 0.25703,1.14482 c -7.05113,5.25554 -13.842879,13.26496 -20.920745,21.08611 -8.836568,9.76454 -18.116044,19.22736 -28.852958,22.6724 -3.450181,1.10702 -7.058148,1.56835 -10.853765,1.21965 a 41.870333,41.870333 0 0 0 0.486363,0.23495 c 3.637504,0.26568 7.104649,-0.20654 10.42539,-1.27203 10.803435,-3.46637 20.096398,-12.95795 28.936389,-22.72627 7.057336,-7.79847 13.828146,-15.77117 20.825336,-21.00829 a 41.870333,41.870333 0 0 0 -0.046,-0.20652 z m 0.23083,1.16428 c -7.17066,5.25546 -14.073483,13.30201 -21.260446,21.10968 -8.834302,9.59727 -18.095569,18.83037 -28.763917,22.08988 -3.108268,0.94967 -6.341245,1.37409 -9.721286,1.15156 a 41.870333,41.870333 0 0 0 0.452692,0.21887 c 3.235443,0.15579 6.338424,-0.2741 9.325462,-1.18673 10.735315,-3.27997 20.010483,-12.5421 28.848468,-22.14339 7.160393,-7.77879 14.036077,-15.7821 21.145597,-21.01988 a 41.870333,41.870333 0 0 0 -0.0266,-0.21999 z m 0.14965,1.23349 c -7.26035,5.259 -14.248945,13.30488 -21.517471,21.06553 -8.832034,9.43001 -18.07508,18.43188 -28.674874,21.50588 -2.773522,0.80434 -5.644502,1.18746 -8.627716,1.06588 a 41.870333,41.870333 0 0 0 0.439597,0.21213 c 2.844071,0.0647 5.5875,-0.3245 8.241994,-1.09432 10.667189,-3.09355 19.924919,-12.12512 28.760923,-21.55937 7.242528,-7.73288 14.204367,-15.73665 21.404117,-20.97799 a 41.870333,41.870333 0 0 0 -0.0266,-0.21774 z m 0.14965,1.23163 c -7.34993,5.2652 -14.424449,13.31127 -21.774493,21.02175 -8.829755,9.26275 -18.054587,18.03448 -28.585835,20.92299 -2.44042,0.66936 -4.954283,1.01204 -7.551355,0.9716 a 41.870333,41.870333 0 0 0 0.546597,0.20091 c 2.420784,-0.0162 4.770035,-0.36155 7.05564,-0.98844 10.599048,-2.90711 19.839359,-11.70853 28.673378,-20.97574 7.324888,-7.68407 14.372408,-15.68819 21.662258,-20.93571 a 41.870333,41.870333 0 0 0 -0.0262,-0.21736 z m 0.14928,1.23124 c -7.43928,5.27423 -14.59972,13.32093 -22.031148,20.97799 -8.82746,9.09545 -18.034068,17.63631 -28.496792,20.33935 -2.011354,0.51963 -4.071157,0.81689 -6.184674,0.86124 a 41.870333,41.870333 0 0 0 0.504321,0.18407 c 1.953437,-0.0817 3.86132,-0.37781 5.728242,-0.86012 10.530899,-2.72065 19.75379,-11.28967 28.585832,-20.38986 7.405279,-7.63008 14.538129,-15.63427 21.916289,-20.89118 a 41.870333,41.870333 0 0 0 -0.0221,-0.22149 z m 0.0599,1.29934 c -7.49658,5.28709 -14.71704,13.2978 -22.199879,20.86799 -8.825165,8.92818 -18.012054,17.23776 -28.406252,19.75534 -1.596494,0.38669 -3.222732,0.63312 -4.880846,0.72506 a 41.870333,41.870333 0 0 0 0.459427,0.16761 c 1.514559,-0.11227 3.002964,-0.35145 4.466688,-0.70598 10.462744,-2.53419 19.667832,-10.87456 28.497913,-19.80772 7.452517,-7.53951 14.640009,-15.50477 22.071179,-20.77445 a 41.870333,41.870333 0 0 0 -0.008,-0.22785 z m 0.0464,1.30944 c -7.54831,5.3025 -14.824807,13.27007 -22.354017,20.7464 -8.822855,8.7609 -17.991156,16.84031 -28.316836,19.17246 -1.194636,0.26982 -2.405467,0.46132 -3.633136,0.56867 a 41.870333,41.870333 0 0 0 0.524524,0.14291 c 1.062712,-0.11402 2.112747,-0.29043 3.150888,-0.52489 10.39456,-2.3477 19.58225,-10.45721 28.410367,-19.22334 7.499649,-7.44699 14.7425,-15.36916 22.22644,-20.65399 a 41.870333,41.870333 0 0 0 -0.008,-0.22822 z m -0.0236,1.35658 c -7.57521,5.32023 -14.884954,13.22024 -22.437822,20.57879 -8.820537,8.59361 -17.9706,16.4421 -28.227794,18.58882 -0.698849,0.14626 -1.403421,0.26392 -2.113063,0.35542 a 41.870333,41.870333 0 0 0 0.491602,0.12571 c 0.556899,-0.0818 1.110449,-0.17927 1.660744,-0.29444 10.326377,-2.1612 19.495523,-10.03909 28.321701,-18.6382 7.516648,-7.32327 14.787402,-15.17091 22.292292,-20.47292 a 41.870333,41.870333 0 0 0 0.0123,-0.24318 z m -0.0696,1.38988 c -7.58551,5.33811 -14.914505,13.15168 -22.475605,20.37676 -8.818215,8.42633 -17.950416,16.04351 -28.139126,18.00481 -0.219418,0.0422 -0.439155,0.0813 -0.659584,0.11822 a 41.870333,41.870333 0 0 0 0.449324,0.11449 c 0.08238,-0.0151 0.165053,-0.0287 0.247298,-0.0445 10.258169,-1.97469 19.409159,-9.62211 28.233405,-18.0542 7.525576,-7.19113 14.815348,-14.95397 22.331948,-20.2735 a 41.870333,41.870333 0 0 0 0.0123,-0.24206 z m -0.0696,1.38838 c -7.5958,5.35721 -14.944038,13.08647 -22.513399,20.17773 -8.591502,8.04883 -17.466576,15.26588 -27.27976,17.27189 a 41.870333,41.870333 0 0 0 0.536497,0.0808 c 9.680153,-2.15673 18.4199,-9.29502 26.873084,-17.21427 7.534147,-7.05828 14.843418,-14.73566 22.371608,-20.07335 a 41.870333,41.870333 0 0 0 0.012,-0.24281 z m -0.16275,1.45385 c -7.57341,5.37314 -14.912799,12.98305 -22.45952,19.91173 -8.092297,7.42958 -16.421778,14.06649 -25.511267,16.33471 a 41.870333,41.870333 0 0 0 0.491227,0.0745 c 8.973348,-2.38289 17.182335,-8.95272 25.149861,-16.26774 7.502199,-6.88782 14.792719,-14.43717 22.289669,-19.78901 a 41.870333,41.870333 0 0 0 0.04,-0.26414 z m -0.22672,1.501 c -7.52831,5.38391 -14.837692,12.8504 -22.340548,19.59821 -7.611974,6.84594 -15.420697,12.94352 -23.841918,15.3833 a 41.870333,41.870333 0 0 0 0.448204,0.0677 c 8.319769,-2.52628 16.023098,-8.56349 23.522414,-15.30811 7.458329,-6.70776 14.718478,-14.11587 22.171818,-19.47736 a 41.870333,41.870333 0 0 0 0.04,-0.26376 z m -0.22672,1.50099 c -7.48332,5.39212 -14.762372,12.7182 -22.221203,19.28656 -7.078835,6.23373 -14.317774,11.77878 -22.033393,14.35035 a 41.870333,41.870333 0 0 0 0.518914,0.0258 c 7.586257,-2.64788 14.69668,-8.11737 21.641683,-14.23324 7.413277,-6.52825 14.641939,-13.7931 22.050599,-19.16086 a 41.870333,41.870333 0 0 0 0.0434,-0.26862 z m -0.38834,1.61997 c -7.38214,5.38346 -14.579004,12.51012 -21.940236,18.85444 -6.514344,5.61443 -13.155882,10.61033 -20.157152,13.25079 a 41.870333,41.870333 0 0 0 0.474765,0.0239 c 6.886903,-2.68992 13.412734,-7.61827 19.806971,-13.12919 7.305354,-6.29617 14.441892,-13.35111 21.740452,-18.70592 a 41.870333,41.870333 0 0 0 0.0752,-0.29406 z m -0.42089,1.64802 c -7.27026,5.3635 -14.373963,12.28068 -21.626721,18.39539 -5.950089,5.01646 -11.999221,9.48625 -18.313833,12.12093 a 41.870333,41.870333 0 0 0 0.542856,-0.0191 c 6.174568,-2.6691 12.085215,-7.05856 17.894065,-11.95594 7.196765,-6.06751 14.240033,-12.91487 21.428433,-18.24724 a 41.870333,41.870333 0 0 0 0.0752,-0.29406 z m -0.51442,1.71873 c -7.12655,5.32345 -14.106983,12.00112 -21.220049,17.86451 -5.310601,4.37758 -10.694039,8.29683 -16.261753,10.86462 a 41.870333,41.870333 0 0 0 0.49422,-0.0176 c 5.444246,-2.5797 10.704804,-6.42618 15.889499,-10.7 7.04158,-5.80445 13.946233,-12.39547 20.976863,-17.67931 a 41.870333,41.870333 0 0 0 0.12122,-0.33223 z m -0.6753,1.85043 c -6.928064,5.24889 -13.732807,11.62825 -20.652123,17.20193 -4.608175,3.71201 -9.266426,7.06115 -14.043188,9.47998 a 41.870333,41.870333 0 0 0 0.555577,-0.0673 c 4.631098,-2.40732 9.145864,-5.66817 13.60808,-9.2626 C 93.12454,256.02012 99.85227,249.72481 106.686,244.5192 a 41.870333,41.870333 0 0 0 0.12272,-0.33522 z m -0.76023,1.9144 c -6.701959,5.14402 -13.301488,11.20754 -19.999266,16.47688 -3.887145,3.05814 -7.806934,5.84549 -11.79731,8.03098 a 41.870333,41.870333 0 0 0 0.507313,-0.0614 c 3.860814,-2.15766 7.651887,-4.86447 11.408594,-7.81998 6.605789,-5.19698 13.108092,-11.16002 19.696979,-16.24679 a 41.870333,41.870333 0 0 0 0.18369,-0.37974 z m -1.02884,2.12953 c -6.385529,4.97101 -12.691087,10.6303 -19.077801,15.53482 -3.052798,2.34433 -6.123883,4.51408 -9.230059,6.35341 a 41.870333,41.870333 0 0 0 0.598228,-0.13431 c 2.944365,-1.77937 5.855484,-3.84498 8.74781,-6.06608 6.292509,-4.83217 12.499936,-10.38949 18.773262,-15.29726 a 41.870333,41.870333 0 0 0 0.18856,-0.39058 z m -1.28774,2.33753 c -5.983244,4.71684 -11.908509,9.89849 -17.897809,14.38514 -2.171138,1.62643 -4.350273,3.16046 -6.543462,4.54825 a 41.870333,41.870333 0 0 0 0.742641,-0.24655 c 1.982497,-1.28161 3.953075,-2.67735 5.915678,-4.14756 5.85965,-4.38954 11.65227,-9.4367 17.490382,-14.06227 a 41.870333,41.870333 0 0 0 0.29257,-0.47701 z m -1.66224,2.64133 c -5.456732,4.34385 -10.876275,8.9409 -16.342944,12.93316 -1.090324,0.79625 -2.182378,1.56792 -3.276968,2.3091 a 41.870333,41.870333 0 0 0 0.757979,-0.28658 c 0.878988,-0.60542 1.756503,-1.22875 2.63235,-1.86838 5.274662,-3.85203 10.500722,-8.26039 15.752943,-12.46026 a 41.870333,41.870333 0 0 0 0.47664,-0.62704 z m -2.744217,3.50444 c -4.274495,3.41872 -8.535469,6.87367 -12.818674,9.97494 a 41.870333,41.870333 0 0 0 1.334132,-0.73777 c 3.538985,-2.61824 7.063036,-5.45148 10.591877,-8.27866 a 41.870333,41.870333 0 0 0 0.892665,-0.95851 z"
       id="path957"
       inkscape:connector-curvature="0" />
  </g>
</svg>
