<?xml version="1.0" encoding="UTF-8" standalone="no"?>
<!-- Created with Inkscape (http://www.inkscape.org/) -->

<svg
   width="200mm"
   height="60mm"
   viewBox="0 0 200 60"
   version="1.1"
   id="svg1"
   inkscape:version="1.3 (1:1.3+202307231459+0e150ed6c4)"
   sodipodi:docname="200 mm.svg"
   xmlns:inkscape="http://www.inkscape.org/namespaces/inkscape"
   xmlns:sodipodi="http://sodipodi.sourceforge.net/DTD/sodipodi-0.dtd"
   xmlns="http://www.w3.org/2000/svg"
   xmlns:svg="http://www.w3.org/2000/svg">
  <sodipodi:namedview
     id="namedview1"
     pagecolor="#ffffff"
     bordercolor="#666666"
     borderopacity="1.0"
     inkscape:showpageshadow="2"
     inkscape:pageopacity="0.0"
     inkscape:pagecheckerboard="0"
     inkscape:deskcolor="#d1d1d1"
     inkscape:document-units="mm"
     inkscape:zoom="0.70710678"
     inkscape:cx="466.69047"
     inkscape:cy="342.23968"
     inkscape:window-width="1920"
     inkscape:window-height="1136"
     inkscape:window-x="0"
     inkscape:window-y="27"
     inkscape:window-maximized="1"
     inkscape:current-layer="layer1"
     showguides="true" />
  <defs
     id="defs1" />
  <g
     inkscape:label="Layer 1"
     inkscape:groupmode="layer"
     id="layer1"
     transform="translate(-7.8809865,-47.806818)">
    <path
       style="fill:none;stroke:#000000;stroke-width:0.1"
       d="m 10.994404,47.93911 v 9.455903 m 0,3 v 15.911805 m 0,3 v 15.911805 m 0,3 v 9.455907 m 2.981125,-59.73542 v 9.455903 m 0,3 v 15.911805 m 0,3 v 15.911805 m 0,3 v 9.455907 m 2.981126,-59.73542 v 9.455903 m 0,3 v 15.911805 m 0,3 v 15.911805 m 0,3 v 9.455907 M 19.93778,47.93911 v 9.455903 m 0,3 v 15.911805 m 0,3 v 15.911805 m 0,3 v 9.455907 m 2.981126,-59.73542 v 9.455903 m 0,3 v 15.911805 m 0,3 v 15.911805 m 0,3 v 9.455907 m 2.981125,-59.73542 v 9.455903 m 0,3 v 15.911805 m 0,3 v 15.911805 m 0,3 v 9.455907 m 2.981126,-59.73542 v 9.455903 m 0,3 v 15.911805 m 0,3 v 15.911805 m 0,3 v 9.455907 m 2.981125,-59.73542 v 9.455903 m 0,3 v 15.911805 m 0,3 v 15.911805 m 0,3 v 9.455907 m 2.981126,-59.73542 v 9.455903 m 0,3 v 15.911805 m 0,3 v 15.911805 m 0,3 v 9.455907 m 2.981125,-59.73542 v 9.455903 m 0,3 v 15.911805 m 0,3 v 15.911805 m 0,3 v 9.455907 m 2.981126,-59.73542 v 9.455903 m 0,3 v 15.911805 m 0,3 v 15.911805 m 0,3 v 9.455907 m 2.981125,-59.73542 v 9.455903 m 0,3 v 15.911805 m 0,3 v 15.911805 m 0,3 v 9.455907 M 46.76791,47.93911 v 9.455903 m 0,3 v 15.911805 m 0,3 v 15.911805 m 0,3 v 9.455907 m 2.981125,-59.73542 v 9.455903 m 0,3 v 15.911805 m 0,3 v 15.911805 m 0,3 v 9.455907 m 2.981126,-59.73542 v 9.455903 m 0,3 v 15.911805 m 0,3 v 15.911805 m 0,3 v 9.455907 m 2.981125,-59.73542 v 9.455903 m 0,3 v 15.911805 m 0,3 v 15.911805 m 0,3 v 9.455907 m 2.981126,-59.73542 v 9.455903 m 0,3 v 15.911805 m 0,3 v 15.911805 m 0,3 v 9.455907 m 2.981125,-59.73542 v 9.455903 m 0,3 v 15.911805 m 0,3 v 15.911805 m 0,3 v 9.455907 m 2.981126,-59.73542 v 9.455903 m 0,3 v 15.911805 m 0,3 v 15.911805 m 0,3 v 9.455907 m 2.981125,-59.73542 v 9.455903 m 0,3 v 15.911805 m 0,3 v 15.911805 m 0,3 v 9.455907 m 2.981126,-59.73542 v 9.455903 m 0,3 v 15.911805 m 0,3 v 15.911805 m 0,3 v 9.455907 m 2.981125,-59.73542 v 9.455903 m 0,3 v 15.911805 m 0,3 v 15.911805 m 0,3 v 9.455907 m 2.981126,-59.73542 v 9.455903 m 0,3 v 15.911805 m 0,3 v 15.911805 m 0,3 v 9.455907 m 2.981126,-59.73542 v 9.455903 m 0,3 v 15.911805 m 0,3 v 15.911805 m 0,3 v 9.455907 m 2.981125,-59.73542 v 9.455903 m 0,3 v 15.911805 m 0,3 v 15.911805 m 0,3 v 9.455907 m 2.981126,-59.73542 v 9.455903 m 0,3 v 15.911805 m 0,3 v 15.911805 m 0,3 v 9.455907 m 2.981125,-59.73542 v 9.455903 m 0,3 v 15.911805 m 0,3 v 15.911805 m 0,3 v 9.455907 m 2.981126,-59.73542 v 9.455903 m 0,3 v 15.911805 m 0,3 v 15.911805 m 0,3 v 9.455907 m 2.981125,-59.73542 v 9.455903 m 0,3 v 15.911805 m 0,3 v 15.911805 m 0,3 v 9.455907 m 2.981126,-59.73542 v 9.455903 m 0,3 v 15.911805 m 0,3 v 15.911805 m 0,3 v 9.455907 m 2.981126,-59.73542 v 9.455903 m 0,3 v 15.911805 m 0,3 v 15.911805 m 0,3 v 9.455907 m 2.98112,-59.73542 v 9.455903 m 0,3 v 15.911805 m 0,3 v 15.911805 m 0,3 v 9.455907 m 2.98113,-59.73542 v 9.455903 m 0,3 v 15.911805 m 0,3 v 15.911805 m 0,3 v 9.455907 m 2.98113,-59.73542 v 9.455903 m 0,3 v 15.911805 m 0,3 v 15.911805 m 0,3 v 9.455907 m 2.98112,-59.73542 v 9.455903 m 0,3 v 15.911805 m 0,3 v 15.911805 m 0,3 v 9.455907 m 2.98113,-59.73542 v 9.455903 m 0,3 v 15.911805 m 0,3 v 15.911805 m 0,3 v 9.455907 m 2.98112,-59.73542 v 9.455903 m 0,3 v 15.911805 m 0,3 v 15.911805 m 0,3 v 9.455907 m 2.98113,-59.73542 v 9.455903 m 0,3 v 15.911805 m 0,3 v 15.911805 m 0,3 v 9.455907 m 2.98112,-59.73542 v 9.455903 m 0,3 v 15.911805 m 0,3 v 15.911805 m 0,3 v 9.455907 m 2.98113,-59.73542 v 9.455903 m 0,3 v 15.911805 m 0,3 v 15.911805 m 0,3 v 9.455907 m 2.98112,-59.73542 v 9.455903 m 0,3 v 15.911805 m 0,3 v 15.911805 m 0,3 v 9.455907 m 2.98113,-59.73542 v 9.455903 m 0,3 v 15.911805 m 0,3 v 15.911805 m 0,3 v 9.455907 m 2.98113,-59.73542 v 9.455903 m 0,3 v 15.911805 m 0,3 v 15.911805 m 0,3 v 9.455907 m 2.98112,-59.73542 v 9.455903 m 0,3 v 15.911805 m 0,3 v 15.911805 m 0,3 v 9.455907 m 2.98113,-59.73542 v 9.455903 m 0,3 v 15.911805 m 0,3 v 15.911805 m 0,3 v 9.455907 m 2.98112,-59.73542 v 9.455903 m 0,3 v 15.911805 m 0,3 v 15.911805 m 0,3 v 9.455907 m 2.98113,-59.73542 v 9.455903 m 0,3 v 15.911805 m 0,3 v 15.911805 m 0,3 v 9.455907 m 2.98112,-59.73542 v 9.455903 m 0,3 v 15.911805 m 0,3 v 15.911805 m 0,3 v 9.455907 m 2.98113,-59.73542 v 9.455903 m 0,3 v 15.911805 m 0,3 v 15.911805 m 0,3 v 9.455907 m 2.98112,-59.73542 v 9.455903 m 0,3 v 15.911805 m 0,3 v 15.911805 m 0,3 v 9.455907 m 2.98113,-59.73542 v 9.455903 m 0,3 v 15.911805 m 0,3 v 15.911805 m 0,3 v 9.455907 m 2.98113,-59.73542 v 9.455903 m 0,3 v 15.911805 m 0,3 v 15.911805 m 0,3 v 9.455907 m 2.98112,-59.73542 v 9.455903 m 0,3 v 15.911805 m 0,3 v 15.911805 m 0,3 v 9.455907 m 2.98113,-59.73542 v 9.455903 m 0,3 v 15.911805 m 0,3 v 15.911805 m 0,3 v 9.455907 m 2.98112,-59.73542 v 9.455903 m 0,3 v 15.911805 m 0,3 v 15.911805 m 0,3 v 9.455907 m 2.98113,-59.73542 v 9.455903 m 0,3 v 15.911805 m 0,3 v 15.911805 m 0,3 v 9.455907 m 2.98112,-59.73542 v 9.455903 m 0,3 v 15.911805 m 0,3 v 15.911805 m 0,3 v 9.455907 m 2.98113,-59.73542 v 9.455903 m 0,3 v 15.911805 m 0,3 v 15.911805 m 0,3 v 9.455907 m 2.98112,-59.73542 v 9.455903 m 0,3 v 15.911805 m 0,3 v 15.911805 m 0,3 v 9.455907 m 2.98113,-59.73542 v 9.455903 m 0,3 v 15.911805 m 0,3 v 15.911805 m 0,3 v 9.455907 m 2.98112,-59.73542 v 9.455903 m 0,3 v 15.911805 m 0,3 v 15.911805 m 0,3 v 9.455907 m 2.98113,-59.73542 v 9.455903 m 0,3 v 15.911805 m 0,3 v 15.911805 m 0,3 v 9.455907 m 2.98113,-59.73542 v 9.455903 m 0,3 v 15.911805 m 0,3 v 15.911805 m 0,3 v 9.455907 m 2.98112,-59.73542 v 9.455903 m 0,3 v 15.911805 m 0,3 v 15.911805 m 0,3 v 9.455907 m 2.98113,-59.73542 v 9.455903 m 0,3 v 15.911805 m 0,3 v 15.911805 m 0,3 v 9.455907 m 2.98112,-59.73542 v 9.455903 m 0,3 v 15.911805 m 0,3 v 15.911805 m 0,3 v 9.455907 M 9.5038408,50.93911 v 15.911805 m 0,3 v 15.911806 m 0,3 V 104.67453 M 12.484966,50.93911 v 15.911805 m 0,3 v 15.911806 m 0,3 v 15.911809 m 2.981126,-53.73542 v 15.911805 m 0,3 v 15.911806 m 0,3 v 15.911809 m 2.981125,-53.73542 v 15.911805 m 0,3 v 15.911806 m 0,3 v 15.911809 m 2.981126,-53.73542 v 15.911805 m 0,3 v 15.911806 m 0,3 v 15.911809 m 2.981125,-53.73542 v 15.911805 m 0,3 v 15.911806 m 0,3 v 15.911809 m 2.981126,-53.73542 v 15.911805 m 0,3 v 15.911806 m 0,3 v 15.911809 m 2.981125,-53.73542 v 15.911805 m 0,3 v 15.911806 m 0,3 v 15.911809 m 2.981126,-53.73542 v 15.911805 m 0,3 v 15.911806 m 0,3 V 104.67453 M 36.33397,50.93911 v 15.911805 m 0,3 v 15.911806 m 0,3 v 15.911809 m 2.981126,-53.73542 v 15.911805 m 0,3 v 15.911806 m 0,3 v 15.911809 m 2.981126,-53.73542 v 15.911805 m 0,3 v 15.911806 m 0,3 v 15.911809 m 2.981125,-53.73542 v 15.911805 m 0,3 v 15.911806 m 0,3 v 15.911809 m 2.981126,-53.73542 v 15.911805 m 0,3 v 15.911806 m 0,3 v 15.911809 m 2.981125,-53.73542 v 15.911805 m 0,3 v 15.911806 m 0,3 v 15.911809 m 2.981126,-53.73542 v 15.911805 m 0,3 v 15.911806 m 0,3 v 15.911809 m 2.981125,-53.73542 v 15.911805 m 0,3 v 15.911806 m 0,3 v 15.911809 m 2.981126,-53.73542 v 15.911805 m 0,3 v 15.911806 m 0,3 V 104.67453 M 63.1641,50.93911 v 15.911805 m 0,3 v 15.911806 m 0,3 v 15.911809 m 2.981126,-53.73542 v 15.911805 m 0,3 v 15.911806 m 0,3 v 15.911809 m 2.981125,-53.73542 v 15.911805 m 0,3 v 15.911806 m 0,3 v 15.911809 m 2.981126,-53.73542 v 15.911805 m 0,3 v 15.911806 m 0,3 v 15.911809 m 2.981125,-53.73542 v 15.911805 m 0,3 v 15.911806 m 0,3 v 15.911809 m 2.981126,-53.73542 v 15.911805 m 0,3 v 15.911806 m 0,3 v 15.911809 m 2.981125,-53.73542 v 15.911805 m 0,3 v 15.911806 m 0,3 v 15.911809 m 2.981126,-53.73542 v 15.911805 m 0,3 v 15.911806 m 0,3 v 15.911809 m 2.981125,-53.73542 v 15.911805 m 0,3 v 15.911806 m 0,3 V 104.67453 M 89.99423,50.93911 v 15.911805 m 0,3 v 15.911806 m 0,3 v 15.911809 m 2.981125,-53.73542 v 15.911805 m 0,3 v 15.911806 m 0,3 v 15.911809 m 2.981126,-53.73542 v 15.911805 m 0,3 v 15.911806 m 0,3 v 15.911809 m 2.981125,-53.73542 v 15.911805 m 0,3 v 15.911806 m 0,3 v 15.911809 m 2.981124,-53.73542 v 15.911805 m 0,3 v 15.911806 m 0,3 v 15.911809 m 2.98113,-53.73542 v 15.911805 m 0,3 v 15.911806 m 0,3 v 15.911809 m 2.98112,-53.73542 v 15.911805 m 0,3 v 15.911806 m 0,3 v 15.911809 m 2.98113,-53.73542 v 15.911805 m 0,3 v 15.911806 m 0,3 v 15.911809 m 2.98112,-53.73542 v 15.911805 m 0,3 v 15.911806 m 0,3 v 15.911809 m 2.98113,-53.73542 v 15.911805 m 0,3 v 15.911806 m 0,3 v 15.911809 m 2.98113,-53.73542 v 15.911805 m 0,3 v 15.911806 m 0,3 v 15.911809 m 2.98112,-53.73542 v 15.911805 m 0,3 v 15.911806 m 0,3 v 15.911809 m 2.98113,-53.73542 v 15.911805 m 0,3 v 15.911806 m 0,3 v 15.911809 m 2.98112,-53.73542 v 15.911805 m 0,3 v 15.911806 m 0,3 v 15.911809 m 2.98113,-53.73542 v 15.911805 m 0,3 v 15.911806 m 0,3 v 15.911809 m 2.98112,-53.73542 v 15.911805 m 0,3 v 15.911806 m 0,3 v 15.911809 m 2.98113,-53.73542 v 15.911805 m 0,3 v 15.911806 m 0,3 v 15.911809 m 2.98112,-53.73542 v 15.911805 m 0,3 v 15.911806 m 0,3 v 15.911809 m 2.98113,-53.73542 v 15.911805 m 0,3 v 15.911806 m 0,3 v 15.911809 m 2.98112,-53.73542 v 15.911805 m 0,3 v 15.911806 m 0,3 v 15.911809 m 2.98113,-53.73542 v 15.911805 m 0,3 v 15.911806 m 0,3 v 15.911809 m 2.98113,-53.73542 v 15.911805 m 0,3 v 15.911806 m 0,3 v 15.911809 m 2.98112,-53.73542 v 15.911805 m 0,3 v 15.911806 m 0,3 v 15.911809 m 2.98113,-53.73542 v 15.911805 m 0,3 v 15.911806 m 0,3 v 15.911809 m 2.98112,-53.73542 v 15.911805 m 0,3 v 15.911806 m 0,3 v 15.911809 m 2.98113,-53.73542 v 15.911805 m 0,3 v 15.911806 m 0,3 v 15.911809 m 2.98112,-53.73542 v 15.911805 m 0,3 v 15.911806 m 0,3 v 15.911809 m 2.98113,-53.73542 v 15.911805 m 0,3 v 15.911806 m 0,3 v 15.911809 m 2.98112,-53.73542 v 15.911805 m 0,3 v 15.911806 m 0,3 v 15.911809 m 2.98113,-53.73542 v 15.911805 m 0,3 v 15.911806 m 0,3 V 104.67453 M 179.428,50.93911 v 15.911805 m 0,3 v 15.911806 m 0,3 v 15.911809 m 2.98112,-53.73542 v 15.911805 m 0,3 v 15.911806 m 0,3 v 15.911809 m 2.98113,-53.73542 v 15.911805 m 0,3 v 15.911806 m 0,3 v 15.911809 m 2.98112,-53.73542 v 15.911805 m 0,3 v 15.911806 m 0,3 v 15.911809 m 2.98113,-53.73542 v 15.911805 m 0,3 v 15.911806 m 0,3 v 15.911809 m 2.98112,-53.73542 v 15.911805 m 0,3 v 15.911806 m 0,3 v 15.911809 m 2.98113,-53.73542 v 15.911805 m 0,3 v 15.911806 m 0,3 v 15.911809 m 2.98112,-53.73542 v 15.911805 m 0,3 v 15.911806 m 0,3 V 104.67453 M 203.277,50.93911 v 15.911805 m 0,3 v 15.911806 m 0,3 v 15.911809 m 2.98113,-53.73542 v 15.911805 m 0,3 v 15.911806 m 0,3 v 15.911809"
       id="path1"
       sodipodi:nodetypes="cccccccccccccccccccccccccccccccccccccccccccccccccccccccccccccccccccccccccccccccccccccccccccccccccccccccccccccccccccccccccccccccccccccccccccccccccccccccccccccccccccccccccccccccccccccccccccccccccccccccccccccccccccccccccccccccccccccccccccccccccccccccccccccccccccccccccccccccccccccccccccccccccccccccccccccccccccccccccccccccccccccccccccccccccccccccccccccccccccccccccccccccccccccccccccccccccccccccccccccccccccccccccccccccccccccccccccccccccccccccccccccccccccccccccccccccccccccccccccccccccccccccccccccccccccccccccccccccccccccccccccccccccccccccccccccccccccccccccccccccccccccccccccccccccccccccccccccccccccccccccccccccccccccccccccccccccccccccccccccccccccccccccccccccccccccccccccccccccccccccccccccccccccccccccccccccccccccccccccccccccccccccccccccccccccccccccccccccccccccccccccccccccccccccccccccccccccccccccccccccccccccccccccccccccccccccccccccccccccccccccccccccccccccccccccccccccccccccccccccccccccccccccccccccccccccccccccccccccccccccccccccccccc"
       inkscape:label="hinge">
      <desc
         id="desc1">Hinge cut parameters: actual(requested)&#10;cut length: 15.91 mm (15.00 mm)&#10;gap length: 3.00 mm (3.00 mm)&#10;separation distance: 1.49 mm (1.50 mm)</desc>
    </path>
    <path
       id="path23"
       style="fill:none;stroke:#000000;stroke-width:0.264583px;stroke-linecap:butt;stroke-linejoin:miter;stroke-opacity:1"
       d="m 7.880993,52.439135 c 0,-0.755358 -0.6120016,-1.36787 -1.36736,-1.36787 -0.7553684,0 -1.36786,0.612502 -1.36787,1.36787 v 4.955773 c 0,0.755228 -0.6125216,1.36787 -1.36788,1.36788 v 0 c -0.7553584,0 -1.36736,-0.612512 -1.36736,-1.36788 v -9.455753 l 205.470467,-4.6e-5 v 9.455904 c 0,0.755366 0.61234,1.367711 1.36771,1.36771 0.75536,-5e-6 1.3677,-0.612348 1.3677,-1.36771 v 0 2.63e-4 -4.956165 c 0,-0.755366 0.61234,-1.367711 1.36771,-1.36771 0.75536,5e-6 1.3677,0.612348 1.3677,1.36771 v 50.735409 c 0,0.75536 -0.61232,1.36771 -1.36768,1.36771 -0.75537,0 -1.36771,-0.61234 -1.36772,-1.36771 l -1e-5,-4.956029 c 0,-0.755229 -0.61234,-1.367571 -1.3677,-1.367576 -0.75536,-10e-7 -1.36771,0.612343 -1.36771,1.367708 v 9.455907 H 2.410523 v -9.455753 c 0,-0.755364 0.6119908,-1.367876 1.36736,-1.367875 0.7551792,5e-6 1.36759,0.612241 1.36788,1.367358 v 5.17e-4 4.955773 c 0,0.75536 0.6125008,1.36787 1.36787,1.36787 0.7553592,0 1.36736,-0.61251 1.3673568,-1.36736 z"
       sodipodi:nodetypes="cscssssccsssccssssscsssccssscsscc"
       inkscape:label="contour" />
  </g>
</svg>
