<?xml version="1.0" encoding="UTF-8" standalone="no"?>
<!-- Created with Inkscape (http://www.inkscape.org/) -->

<svg
   width="1280"
   height="640"
   viewBox="0 0 338.66666 169.33334"
   version="1.1"
   id="svg5"
   inkscape:version="1.1.1 (3bf5ae0d25, 2021-09-20)"
   sodipodi:docname="pod.svg"
   xmlns:inkscape="http://www.inkscape.org/namespaces/inkscape"
   xmlns:sodipodi="http://sodipodi.sourceforge.net/DTD/sodipodi-0.dtd"
   xmlns="http://www.w3.org/2000/svg"
   xmlns:svg="http://www.w3.org/2000/svg">
  <sodipodi:namedview
     id="namedview7"
     pagecolor="#505050"
     bordercolor="#ffffff"
     borderopacity="1"
     inkscape:pageshadow="0"
     inkscape:pageopacity="0"
     inkscape:pagecheckerboard="1"
     inkscape:document-units="mm"
     showgrid="false"
     units="px"
     width="1280px"
     showguides="false"
     inkscape:guide-bbox="true"
     fit-margin-top="20"
     inkscape:snap-bbox="true"
     inkscape:bbox-paths="true"
     inkscape:bbox-nodes="true"
     inkscape:snap-bbox-edge-midpoints="true"
     inkscape:snap-bbox-midpoints="true"
     inkscape:object-paths="true"
     inkscape:snap-intersection-paths="true"
     inkscape:snap-smooth-nodes="true"
     inkscape:snap-midpoints="true"
     inkscape:snap-object-midpoints="true"
     inkscape:snap-center="true"
     inkscape:snap-text-baseline="true"
     inkscape:snap-page="true"
     inkscape:zoom="0.63584368"
     inkscape:cx="502.48199"
     inkscape:cy="419.12817"
     inkscape:window-width="1920"
     inkscape:window-height="999"
     inkscape:window-x="0"
     inkscape:window-y="0"
     inkscape:window-maximized="1"
     inkscape:current-layer="layer2"
     inkscape:snap-global="false">
    <sodipodi:guide
       position="14.111111,169.33333"
       orientation="-1,0"
       id="guide824"
       inkscape:label=""
       inkscape:locked="false"
       inkscape:color="rgb(0,0,255)" />
    <sodipodi:guide
       position="0,155.22222"
       orientation="0,1"
       id="guide826"
       inkscape:label=""
       inkscape:locked="false"
       inkscape:color="rgb(0,0,255)" />
    <sodipodi:guide
       position="0,14.111111"
       orientation="0,1"
       id="guide842"
       inkscape:label=""
       inkscape:locked="false"
       inkscape:color="rgb(0,0,255)" />
    <sodipodi:guide
       position="324.55556,169.33333"
       orientation="-1,0"
       id="guide924"
       inkscape:label=""
       inkscape:locked="false"
       inkscape:color="rgb(0,0,255)" />
    <sodipodi:guide
       position="0,56.444445"
       orientation="0,1"
       id="guide1926"
       inkscape:label=""
       inkscape:locked="false"
       inkscape:color="rgb(0,0,255)" />
  </sodipodi:namedview>
  <defs
     id="defs2">
    <filter
       id="filter4284"
       inkscape:label="z-depth1"
       style="color-interpolation-filters:sRGB;"
       x="-0.019609483"
       y="-0.25653129"
       width="1.039219"
       height="1.598573">
      <feFlood
         id="feFlood4286"
         result="flood"
         flood-color="rgb(0,0,0)"
         flood-opacity="0.12" />
      <feComposite
         id="feComposite4288"
         result="composite1"
         operator="in"
         in2="SourceGraphic"
         in="flood" />
      <feGaussianBlur
         id="feGaussianBlur4290"
         result="blur"
         stdDeviation="1.5"
         in="composite" />
      <feOffset
         id="feOffset4292"
         result="offset"
         dy="1"
         dx="0" />
      <feComposite
         id="feComposite4294"
         result="fbSourceGraphic"
         operator="over"
         in2="offset"
         in="SourceGraphic" />
      <feColorMatrix
         id="feColorMatrix4332"
         values="0 0 0 -1 0 0 0 0 -1 0 0 0 0 -1 0 0 0 0 1 0"
         in="fbSourceGraphic"
         result="fbSourceGraphicAlpha" />
      <feFlood
         in="fbSourceGraphic"
         result="flood"
         flood-color="rgb(0,0,0)"
         flood-opacity="0.24"
         id="feFlood4334" />
      <feComposite
         result="composite1"
         operator="in"
         in="flood"
         in2="fbSourceGraphic"
         id="feComposite4336" />
      <feGaussianBlur
         result="blur"
         stdDeviation="1"
         in="composite"
         id="feGaussianBlur4338" />
      <feOffset
         result="offset"
         dy="1"
         dx="0"
         id="feOffset4340" />
      <feComposite
         result="composite2"
         operator="over"
         in="fbSourceGraphic"
         in2="offset"
         id="feComposite4342" />
      <feBlend
         mode="normal"
         id="feBlend5366"
         in2="composite2" />
    </filter>
    <filter
       id="filter4346"
       inkscape:label="z-depth2"
       style="color-interpolation-filters:sRGB;"
       x="-0.2148189"
       y="-0.28904042"
       width="1.4296378"
       height="1.6837426">
      <feFlood
         id="feFlood4348"
         result="flood"
         flood-color="rgb(0,0,0)"
         flood-opacity="0.16" />
      <feComposite
         id="feComposite4350"
         result="composite1"
         operator="in"
         in2="SourceGraphic"
         in="flood" />
      <feGaussianBlur
         id="feGaussianBlur4352"
         result="blur"
         stdDeviation="3.8388125"
         in="composite" />
      <feOffset
         id="feOffset4354"
         result="offset"
         dy="3"
         dx="0" />
      <feComposite
         id="feComposite4356"
         result="fbSourceGraphic"
         operator="over"
         in2="offset"
         in="SourceGraphic" />
      <feColorMatrix
         id="feColorMatrix4358"
         values="0 0 0 -1 0 0 0 0 -1 0 0 0 0 -1 0 0 0 0 1 0"
         in="fbSourceGraphic"
         result="fbSourceGraphicAlpha" />
      <feFlood
         in="fbSourceGraphic"
         result="flood"
         flood-color="rgb(0,0,0)"
         flood-opacity="0.23"
         id="feFlood4360" />
      <feComposite
         result="composite1"
         operator="in"
         in="flood"
         in2="fbSourceGraphic"
         id="feComposite4362" />
      <feGaussianBlur
         result="blur"
         stdDeviation="3"
         in="composite"
         id="feGaussianBlur4364" />
      <feOffset
         result="offset"
         dy="3"
         dx="0"
         id="feOffset4366" />
      <feComposite
         result="composite2"
         operator="over"
         in="fbSourceGraphic"
         in2="offset"
         id="feComposite4368" />
    </filter>
    <filter
       id="filter4375"
       inkscape:label="z-depth3"
       style="color-interpolation-filters:sRGB;"
       x="-0.024375"
       y="-0.14625022"
       width="1.04875"
       height="1.3675006">
      <feFlood
         id="feFlood4377"
         result="flood"
         flood-color="rgb(0,0,0)"
         flood-opacity="0.19" />
      <feComposite
         id="feComposite4379"
         result="composite1"
         operator="in"
         in2="SourceGraphic"
         in="flood" />
      <feGaussianBlur
         id="feGaussianBlur4381"
         result="blur"
         stdDeviation="10"
         in="composite" />
      <feOffset
         id="feOffset4383"
         result="offset"
         dy="10"
         dx="0" />
      <feComposite
         id="feComposite4385"
         result="fbSourceGraphic"
         operator="over"
         in2="offset"
         in="SourceGraphic" />
      <feColorMatrix
         id="feColorMatrix4387"
         values="0 0 0 -1 0 0 0 0 -1 0 0 0 0 -1 0 0 0 0 1 0"
         in="fbSourceGraphic"
         result="fbSourceGraphicAlpha" />
      <feFlood
         in="fbSourceGraphic"
         result="flood"
         flood-color="rgb(0,0,0)"
         flood-opacity="0.23"
         id="feFlood4389" />
      <feComposite
         result="composite1"
         operator="in"
         in="flood"
         in2="fbSourceGraphic"
         id="feComposite4391" />
      <feGaussianBlur
         result="blur"
         stdDeviation="3"
         in="composite"
         id="feGaussianBlur4393" />
      <feOffset
         result="offset"
         dy="6"
         dx="0"
         id="feOffset4395" />
      <feComposite
         result="composite2"
         operator="over"
         in="fbSourceGraphic"
         in2="offset"
         id="feComposite4397" />
    </filter>
    <filter
       id="filter4419"
       inkscape:label="z-depth4"
       style="color-interpolation-filters:sRGB;"
       x="-0.83404743"
       y="-0.85908126"
       width="2.6680949"
       height="3.1703106">
      <feFlood
         id="feFlood4421"
         result="flood"
         flood-color="rgb(0,0,0)"
         flood-opacity="0.25" />
      <feComposite
         id="feComposite4423"
         result="composite1"
         operator="in"
         in2="SourceGraphic"
         in="flood" />
      <feGaussianBlur
         id="feGaussianBlur4425"
         result="blur"
         stdDeviation="14"
         in="composite" />
      <feOffset
         id="feOffset4427"
         result="offset"
         dy="14"
         dx="0" />
      <feComposite
         id="feComposite4429"
         result="fbSourceGraphic"
         operator="over"
         in2="offset"
         in="SourceGraphic" />
      <feColorMatrix
         id="feColorMatrix4431"
         values="0 0 0 -1 0 0 0 0 -1 0 0 0 0 -1 0 0 0 0 1 0"
         in="fbSourceGraphic"
         result="fbSourceGraphicAlpha" />
      <feFlood
         in="fbSourceGraphic"
         result="flood"
         flood-color="rgb(0,0,0)"
         flood-opacity="0.22"
         id="feFlood4433" />
      <feComposite
         result="composite1"
         operator="in"
         in="flood"
         in2="fbSourceGraphic"
         id="feComposite4435" />
      <feGaussianBlur
         result="blur"
         stdDeviation="5"
         in="composite"
         id="feGaussianBlur4437" />
      <feOffset
         result="offset"
         dy="10"
         dx="0"
         id="feOffset4439" />
      <feComposite
         result="composite2"
         operator="over"
         in="fbSourceGraphic"
         in2="offset"
         id="feComposite4441" />
    </filter>
    <clipPath
       clipPathUnits="userSpaceOnUse"
       id="clipPath926">
      <circle
         style="fill:#e6e6e6;fill-opacity:1;stroke:none;stroke-width:0.79375;stroke-linecap:round;paint-order:stroke fill markers"
         id="circle928"
         cx="97.868248"
         cy="115.34225"
         r="6.3434505" />
    </clipPath>
  </defs>
  <g
     inkscape:label="background"
     inkscape:groupmode="layer"
     id="layer1"
     sodipodi:insensitive="true">
    <rect
       style="fill:#ffffff;stroke-width:1.07184;stroke-linecap:round;paint-order:stroke fill markers"
       id="rect949"
       width="338.66666"
       height="169.33333"
       x="0"
       y="0" />
  </g>
  <g
     inkscape:groupmode="layer"
     id="layer2"
     inkscape:label="image">
    <path
       id="rect8438"
       style="fill:#ffe680;fill-opacity:1;stroke:none;stroke-width:3;stroke-linecap:round;paint-order:stroke fill markers"
       d="M 0 0 L 0 426.66602 C 0 426.66602 65.107775 405.81641 177.17383 405.81641 C 234.14196 405.81641 280.58697 419.73918 326.7793 433.43359 C 374.41119 424.41266 422.36585 415.27361 473.6543 415.35742 C 516.16925 415.42682 562.25675 424.40619 608.8418 434.69336 C 660.79926 419.41702 711.24635 402.80664 766.05078 402.80664 C 830.24917 402.80664 896.76547 420.78476 957.69531 433.32422 C 993.57386 423.22707 1029.4661 414.71746 1068.0586 415.22461 C 1109.4432 415.76844 1174.5143 427.99551 1212.4766 433.57031 C 1251.0875 429.85103 1280 426.66602 1280 426.66602 L 1280 0 L 0 0 z "
       transform="scale(0.26458333)" />
    <path
       id="path8800"
       style="fill:#dd9e13;stroke:none;stroke-width:0.999999px;stroke-linecap:butt;stroke-linejoin:miter;stroke-opacity:1;fill-opacity:1;filter:url(#filter4375)"
       d="m 0,0 v 325.99219 c 196.67846,14.94256 310.54774,36.12421 650.08984,36.46289 339.5421,0.33868 453.66356,-31.68725 629.91016,-4.88086 V 0 Z"
       transform="scale(0.26458333)"
       sodipodi:nodetypes="cczccc" />
    <path
       id="path13003"
       style="fill:#0056ae;fill-opacity:1;stroke:none;stroke-width:0.999999px;stroke-linecap:butt;stroke-linejoin:miter;stroke-opacity:1;filter:url(#filter4375)"
       d="M 0,0 V 162.99609 C 105.03698,154.10471 278.17939,134.67306 617.72149,135.01174 957.26363,135.35042 1191.6855,190.40417 1280,213.33301 V 0 Z"
       transform="scale(0.26458333)"
       sodipodi:nodetypes="cczccc" />
    <path
       style="fill:#536c7e;fill-opacity:1;stroke:none;stroke-width:0.264583px;stroke-linecap:butt;stroke-linejoin:miter;stroke-opacity:1;filter:url(#filter4284)"
       d="M 336.92554,154.76726 61.525898,139.79224 c 0,0 -64.422112,-73.865709 -6.240815,-68.122855 56.736727,5.600266 110.807097,1.721238 199.814147,50.778765 28.17157,15.52717 49.24107,21.43994 81.82631,32.31911 z"
       id="path57604"
       sodipodi:nodetypes="ccssc"
       transform="matrix(0.43985013,0.05510295,-0.0528993,0.45817324,203.65792,48.091713)" />
    <ellipse
       style="fill:#e6e6e6;fill-opacity:1;stroke:none;stroke-width:0.358905;stroke-linecap:round;paint-order:stroke fill markers"
       id="circle57606"
       cx="250.05052"
       cy="75.60186"
       transform="matrix(0.99224405,0.12430501,-0.11469505,0.99340075,0,0)"
       rx="2.8119771"
       ry="2.9257069" />
    <ellipse
       style="fill:#000000;fill-opacity:1;stroke:none;stroke-width:0.234225;stroke-linecap:round;paint-order:stroke fill markers"
       id="circle57608"
       cx="250.20967"
       cy="75.852196"
       transform="matrix(0.99224405,0.12430501,-0.11469505,0.99340075,0,0)"
       rx="1.8351226"
       ry="1.9093437" />
    <path
       id="path57612"
       mask="none"
       style="fill:#84939e;fill-opacity:1;stroke:none;stroke-width:0.452152px;stroke-linecap:butt;stroke-linejoin:miter;stroke-opacity:1"
       d="M 804.52344 347.12109 C 809.14099 383.14966 844.06445 436.65234 844.06445 436.65234 L 916.29492 449.87891 C 902.11847 434.78097 890.50727 420.37109 890.59961 407.13672 C 890.79945 378.48667 837.03754 365.0044 804.52344 347.12109 z "
       transform="scale(0.26458333)" />
    <path
       style="fill:#90caf8;stroke:none;stroke-width:0.264583px;stroke-linecap:butt;stroke-linejoin:miter;stroke-opacity:1;fill-opacity:1;filter:url(#filter4284)"
       d="m 0,112.88889 c 0,0 23.421264,6.38343 49.369786,6.38343 25.948522,0 49.241449,-9.41921 75.951114,-9.37556 26.70967,0.0436 58.70713,13.26879 85.29766,13.26879 26.59053,0 47.16811,-13.62974 71.97183,-13.30379 14.17484,0.18627 39.00241,5.59068 44.93762,5.59068 5.93521,0 11.13865,-2.56355 11.13865,-2.56355 v 56.44444 H 0 Z"
       id="path2612"
       sodipodi:nodetypes="czzzszcccc" />
    <path
       style="fill:#44fccf;stroke:none;stroke-width:0.264583px;stroke-linecap:butt;stroke-linejoin:miter;stroke-opacity:1;fill-opacity:1;filter:url(#filter4284)"
       d="m 0,112.88889 c 0,0 17.226295,-5.51668 46.877105,-5.51668 29.65081,0 48.526522,14.25933 77.316125,14.25933 28.7896,0 51.66127,-15.05585 78.49118,-15.05585 26.82991,0 55.20193,11.88265 76.83626,11.18446 21.63433,-0.69819 59.14599,-4.87126 59.14599,-4.87126 m 0,0 v 56.44444 H 0 v -56.44444"
       id="path1961"
       sodipodi:nodetypes="czzzzccccc" />
    <path
       style="fill:#004747;stroke:none;stroke-width:0.264583px;stroke-linecap:butt;stroke-linejoin:miter;stroke-opacity:1;fill-opacity:1;filter:url(#filter4284)"
       d="m 0,169.33333 h 338.66666 v -28.22222 c 0,0 -24.81436,-9.79278 -55.06895,-9.79278 -30.25459,0 -47.30463,8.76943 -74.1927,8.76943 C 134.95996,140.95906 0,129.81948 0,129.81948 Z"
       id="path5414"
       sodipodi:nodetypes="ccczccc" />
    <path
       style="fill:#536c7e;fill-opacity:1;stroke:none;stroke-width:0.264583px;stroke-linecap:butt;stroke-linejoin:miter;stroke-opacity:1;filter:url(#filter4284)"
       d="M 339.57137,154.76726 64.171731,139.79224 c 0,0 -64.55200601,-62.529326 -6.240815,-68.122855 17.419337,-1.670958 39.914893,6.820837 69.923084,12.191999 35.8178,6.411023 81.45979,11.893167 129.89106,38.586766 28.17157,15.52717 49.24107,21.43994 81.82631,32.31911 z"
       id="path1426"
       sodipodi:nodetypes="ccsssc" />
    <circle
       style="fill:#e6e6e6;fill-opacity:1;stroke:none;stroke-width:0.79375;stroke-linecap:round;paint-order:stroke fill markers"
       id="path24864"
       cx="97.868248"
       cy="115.34225"
       r="6.3434505" />
    <path
       id="path52568"
       clip-path="none"
       mask="none"
       style="fill:#84939e;stroke:none;stroke-width:0.999999px;stroke-linecap:butt;stroke-linejoin:miter;stroke-opacity:1;fill-opacity:1"
       d="M 136.54883 306.13867 C 86.937547 377.61002 242.53906 528.34766 242.53906 528.34766 L 432.40234 538.67188 C 388.87204 503.07855 346.25724 471.59267 336.33398 445.83008 C 315.93659 392.87469 200.74736 357.68657 136.54883 306.13867 z "
       transform="scale(0.26458333)" />
    <path
       style="fill:#2b9bf2;stroke:none;stroke-width:0.264583px;stroke-linecap:butt;stroke-linejoin:miter;stroke-opacity:1;fill-opacity:1;filter:url(#filter4284)"
       d="m 0,169.33333 h 338.66666 v -39.51385 c 0,0 -24.81436,11.06919 -55.06895,11.06919 -30.25459,0 -48.34476,-17.53821 -75.23283,-17.53821 -26.88807,0 -39.56763,7.18762 -61.62068,7.18762 -22.05305,0 -75.5166,-6.97654 -103.738822,-6.97654 C 14.783156,123.56154 0,129.81948 0,129.81948 Z"
       id="path4327"
       sodipodi:nodetypes="ccczzzzcc" />
    <path
       style="fill:#00d6d6;stroke:none;stroke-width:0.264583px;stroke-linecap:butt;stroke-linejoin:miter;stroke-opacity:1;fill-opacity:1;filter:url(#filter4284)"
       d="m 0,169.33333 h 338.66666 v -22.05135 c 0,0 -61.92208,-10.95895 -92.17667,-10.95895 -30.25459,0 -50.36105,6.94754 -77.24912,6.94754 -26.88807,0 -38.85052,-12.0954 -60.90357,-12.0954 -22.053055,0 -38.973539,7.28319 -67.195761,7.28319 C 12.919317,138.45836 0,134.02958 0,134.02958 Z"
       id="path5918"
       sodipodi:nodetypes="ccczzzzcc" />
    <path
       style="fill:#016950;stroke:none;stroke-width:0.264583px;stroke-linecap:butt;stroke-linejoin:miter;stroke-opacity:1;fill-opacity:1;filter:url(#filter4284)"
       d="M 0,169.33333 H 338.66666 V 149.5764 c 0,0 -31.0149,5.53551 -61.26949,5.53551 -30.25459,0 -81.25043,-18.63372 -108.1385,-18.63372 -26.88807,0 -42.92561,14.98096 -64.97866,14.98096 -22.053052,0 -43.693327,-7.54352 -62.92134,-7.54352 C 22.130657,143.91563 0,155.1178 0,155.1178 Z"
       id="path6379"
       sodipodi:nodetypes="ccczzzzcc" />
    <path
       style="fill:#0b77ca;stroke:none;stroke-width:0.264583px;stroke-linecap:butt;stroke-linejoin:miter;stroke-opacity:1;fill-opacity:1;filter:url(#filter4284)"
       d="m 0,169.33333 h 338.66666 v -7.5861 c 0,0 -29.55043,-10.36546 -59.80502,-10.36546 -30.25459,0 -56.88329,10.4288 -110.62751,10.4288 -53.74422,0 -138.910452,-7.48383 -168.23413,-15.8662 z"
       id="path7127"
       sodipodi:nodetypes="ccczzcc" />
    <path
       id="circle1168"
       style="fill:#000000;fill-opacity:1;stroke:none;stroke-width:3;stroke-linecap:round;paint-order:stroke fill markers"
       d="M 380.62109 419.08789 A 26.646227 26.646227 0 0 0 353.97461 445.73438 A 26.646227 26.646227 0 0 0 355.75391 455.27734 A 23.975246 23.975246 0 0 0 369.89648 459.91406 A 23.975246 23.975246 0 0 0 393.87109 435.93945 A 23.975246 23.975246 0 0 0 387.89258 420.09961 A 26.646227 26.646227 0 0 0 380.62109 419.08789 z "
       transform="scale(0.26458333)" />
  </g>
</svg>
