<?xml version="1.0" encoding="UTF-8" standalone="no"?>
<svg
   version="1.1"
   width="307.0256pt"
   height="321.40366pt"
   id="svg6"
   viewBox="0 0 307.0256 321.40366"
   xmlns="http://www.w3.org/2000/svg"
   xmlns:svg="http://www.w3.org/2000/svg">
  <defs
     id="defs6" />
  <path
     id="path6"
     style="fill:#ff0000;stroke:none;stroke-width:0.216;stroke-linecap:butt;stroke-linejoin:miter;stroke-dasharray:none"
     d="m 52.345067,0.01006525 c -4.4981,0.1929 -7.5625,3.26849995 -10.3843,9.25489995 -15.2368,41.0020998 -14.1308,88.3104998 3.0073,128.6294048 -3.5914,-0.8147 -11.8667,-5.2589 -19.3652,-18.608 -17.1990005,-30.618205 -31.1209005,-13.3264 -23.4360005,2.1285 4.6257,9.304 14.4315005,19.5322 19.5190005,24.0424 6.6072,5.8569 30.4703,9.422 38.6221,11.836 16.7707,4.9669 24.2445,14.4352 39.865703,21.1391 -4.182103,3.6514 -8.020203,7.6982 -11.417003,12.1026 l 0.022,-0.037 c -2.2271,1.2468 -6.1213,0.43 -7.3945,-1.9615 -13.4282,-13.2588 -38.5304,-2.853 -47.2032,-3.7837 9.16,15.3975 14.8437,23.0194 32.9605,26.0406 3.0397,0.5067 7.5172,1.4273 10.2158,-0.107 -3.5061,9.0652 -5.4515,18.9166 -5.48,29.2193 -0.1446,52.1226 43.982503,81.498 81.962403,81.498 44.4759,-0.3616 80.4808,-36.4661 80.6045,-81.0556 0.029,-10.2637 -1.8472,-20.0885 -5.2998,-29.1929 2.6679,1.5014 7.1498,0.6055 10.1924,0.1157 18.1332,-2.9206 23.8572,-10.5109 33.1025,-25.8574 -8.6778,0.8827 -33.7205,-9.6626 -47.2221,3.5215 -1.2864,2.3844 -5.1859,3.1797 -7.3755,1.957 -3.3585,-4.415 -7.1973,-8.5074 -11.3701,-12.1831 15.6737,-6.5994 23.201,-16.0266 39.999,-20.9004 8.165,-2.3687 32.0469,-5.8004 38.6865,-11.6206 5.1124,-4.4818 14.9751,-14.6559 19.6524,-23.9341 7.7704,-15.412 -6.0542,-32.779705 -23.4229,-2.2573 -7.5724,13.3073 -15.8733,17.7047 -19.4692,18.4995 17.3616,-40.223305 18.7296,-87.524305 3.7207,-128.6103048 -3.718,-8.0026 -7.8941,-10.83329995 -15.356,-8.5738 -9.3035,2.8191 -7.0956,12.3242998 -3.8042,20.5107998 9.5951,23.8654 11.7381,45.7686 9.3164,64.2348 -16.4332,-6.8718 -24.5726,-18.2381 -30.9082,-33.7133 -3.6641,-8.9481 -4.4312,-16.3379 -13.1059,-20.8096 -7.3739,-3.7996 -12.1217,2.7278 -11.2237,13.5337 2.3237,27.9734 31.6588,50.6838 51.8189,60.795405 -3.5486,19.1096 -11.3534,34.8777 -30.2359,41.8887 -8.8229,-11.3529 -12.9873,-23.7664 -10.3623,-38.8052 1.4927,-8.5486 1.6033,-10.539505 -6.3867,-15.273905 -18.8506,-11.1695 -12.4896,48.556205 3.8291,60.960905 -8.0751,8.0237 -13.323,12.6234 -20.0815,12.5845 -10.7703,-5.3311 -22.91,-8.3433 -35.7525,-8.3789 -12.8665,-0.036 -25.0428,2.9202 -35.8286,8.1958 -6.7297,-0.017 -11.9515,-4.642 -19.981903,-12.7105 16.387303,-12.3139 23.081103,-72.003605 4.168903,-60.939005 -8.016203,4.6901 -7.917003,6.680605 -6.471703,15.237305 2.5415,15.0531 -1.6933,27.4443 -10.5791,38.7481 -18.8431,-7.1157 -26.5605,-22.9267 -30.0029,-42.0557 20.2159,-9.999605 49.676903,-32.546705 52.155803,-60.506805 0.9579,-10.8008 -3.7526,-17.3554 -11.147503,-13.5967 -8.6995,4.4234 -9.508,11.8087 -13.2217,20.7363 -6.4214,15.4399 -14.6231,26.7616 -31.0942,33.542 -2.3192,-18.4792 -0.056,-40.3702 9.6709,-64.1821 3.3368,-8.1681 5.5992,-17.6605998 -3.6885,-20.53119975 -1.8623,-0.5753 -3.5207,-0.8319 -5.02,-0.7676 z M 153.31817,183.43777 c 22.9301,0.064 43.564,13.9341 52.2796,35.1427 8.7155,21.2086 3.7962,45.5785 -12.4628,61.7474 -16.2589,16.1689 -40.6558,20.9528 -61.8156,12.1196 -21.1599,-8.8333 -34.915403,-29.5439 -34.851803,-52.474 0.087,-31.3108 25.539803,-56.6228 56.850603,-56.5357 z" />
</svg>
