<?xml version="1.0" encoding="UTF-8" standalone="no"?>
<svg
   version="1.1"
   width="307.0256pt"
   height="321.40366pt"
   id="svg6"
   viewBox="0 0 307.0256 321.40366"
   xmlns="http://www.w3.org/2000/svg"
   xmlns:svg="http://www.w3.org/2000/svg">
  <defs
     id="defs6" />
  <path
     id="path12"
     style="fill:#ff0000;stroke:#ff0000;stroke-width:0.375px;stroke-linecap:round;stroke-linejoin:miter"
     d="M 153.52148 -143.82129 C 131.71905 -71.429025 101.47991 -6.1000748 47.414063 48.241699 C 62.975084 52.497137 78.736629 55.656092 94.605469 58.570313 C 78.42233 86.728699 46.864365 135.71776 0.52880859 184.07373 C 22.887754 191.20426 40.767696 196.13463 59.512207 197.76709 C 39.378464 232.50336 -10.184063 294.71517 -37.854492 322.84863 L 344.87988 322.84863 C 315.81536 293.29803 267.20008 231.76659 247.51025 197.76123 C 266.31795 196.08264 283.92279 191.25633 306.49072 184.07959 C 260.91824 136.55294 228.74176 86.848902 212.49463 58.568848 C 228.29299 55.470116 244.23527 52.902076 259.66992 48.241699 C 207.25252 -4.4450673 173.39196 -72.825374 153.52148 -143.82129 z M 153.66943 168.43799 C 176.59949 168.50199 197.23413 182.37251 205.94971 203.58105 C 214.6652 224.78961 209.74579 249.15827 193.48682 265.32715 C 177.22795 281.49601 152.83017 286.28045 131.67041 277.44727 C 110.51055 268.61397 96.755248 247.90369 96.818848 224.97363 C 96.905848 193.66289 122.35869 168.35089 153.66943 168.43799 z " />
</svg>
