<?xml version="1.0" encoding="UTF-8" standalone="no"?>
<svg
   version="1.1"
   width="307.0256pt"
   height="321.40369pt"
   id="svg6"
   viewBox="0 0 307.0256 321.40369"
   xml:space="preserve"
   xmlns="http://www.w3.org/2000/svg"
   xmlns:svg="http://www.w3.org/2000/svg"><defs
     id="defs6" /><path
     id="path4"
     style="fill:#211d1d;fill-opacity:1;fill-rule:nonzero;stroke:none;stroke-width:0.0999997"
     d="M 153.5127 0 C 152.049 -1.1102219e-16 150.58602 0.45692561 149.3335 1.3696289 C 115.8309 25.784115 81.245163 62.92771 59.296875 117.55811 C 57.728778 121.46621 59.689963 125.90804 63.578613 127.31104 C 65.025311 127.83052 66.481651 128.34472 67.952637 128.84473 C 73.132661 130.61188 74.51688 137.43312 70.511719 141.23438 C 52.452079 158.3862 35.348521 179.57754 20.973633 205.65234 C 18.682204 209.81287 20.773983 215.08026 25.259766 216.37646 C 30.86699 217.9931 36.664409 219.45904 42.635742 220.73584 C 48.204116 221.93012 50.275994 229.0028 46.246582 233.11963 C 29.852105 249.84909 14.453203 270.09918 1.4619141 294.51855 C -0.63533425 298.46058 1.1956228 303.38299 5.3027344 304.93652 C 32.790306 315.32566 103.10596 321.4043 103.10596 321.4043 L 203.91943 321.4043 C 203.91943 321.4043 274.23509 315.32566 301.72266 304.93652 C 305.82977 303.38299 307.66072 298.46058 305.56348 294.51855 C 292.57218 270.09918 277.16844 249.84909 260.77881 233.11963 C 256.74939 229.0028 258.82127 221.93012 264.38965 220.73584 C 270.36097 219.45904 276.1584 217.9931 281.76563 216.37646 C 286.2514 215.08026 288.34318 209.81287 286.05176 205.65234 C 271.67686 179.57754 254.57332 158.3862 236.51367 141.23438 C 232.50852 137.43312 233.89272 130.61188 239.07275 128.84473 C 240.54373 128.34472 242.00493 127.83052 243.44678 127.31104 C 247.33542 125.90804 249.29661 121.46621 247.72852 117.55811 C 225.78023 62.92771 191.20081 25.784115 157.69336 1.3696289 C 156.44084 0.45692561 154.97639 1.1102219e-16 153.5127 0 z M 153.31787 183.43799 C 176.24793 183.50199 196.88256 197.37251 205.59814 218.58105 C 214.31364 239.78961 209.39423 264.15827 193.13525 280.32715 C 176.87639 296.49601 152.47861 301.28045 131.31885 292.44727 C 110.15899 283.61397 96.403685 262.90369 96.467285 239.97363 C 96.554285 208.66289 122.00713 183.35089 153.31787 183.43799 z " /></svg>
