<?xml version="1.0" encoding="UTF-8"?>
<svg width="100" height="100" version="1.1" viewBox="0 0 100 100" xmlns="http://www.w3.org/2000/svg">
 <g stroke-opacity=".11976">
  <g stroke-width="3.2349">
   <rect x="46" y="8" width="8" height="17" rx="4" ry="4"/>
   <rect transform="rotate(45)" x="66.711" y="-42" width="8" height="17" rx="4" ry="4"/>
   <rect transform="rotate(90)" x="46" y="-92" width="8" height="17" rx="4" ry="4"/>
   <rect transform="rotate(135)" x="-4" y="-112.71" width="8" height="17" rx="4" ry="4"/>
  </g>
  <path d="m50 30a20 20 0 0 0-20 20 20 20 0 0 0 20 20 20 20 0 0 0 20-20 20 20 0 0 0-20-20zm0 8a12 12 0 0 1 12 12 12 12 0 0 1-12 12 12 12 0 0 1-12-12 12 12 0 0 1 12-12z" stroke-width="2.6517"/>
  <g stroke-width="3.2349">
   <rect transform="scale(-1)" x="-54" y="-92" width="8" height="17" rx="4" ry="4"/>
   <rect transform="rotate(225)" x="-74.711" y="-42" width="8" height="17" rx="4" ry="4"/>
   <rect transform="rotate(-90)" x="-54" y="8" width="8" height="17" rx="4" ry="4"/>
   <rect transform="rotate(-45)" x="-4" y="28.711" width="8" height="17" rx="4" ry="4"/>
  </g>
 </g>
 <style type="text/css">.st0{fill:#171717;}
	.st1{fill:#13AFF0;}</style>
</svg>
