<?xml version="1.0" encoding="UTF-8" standalone="no"?>
<!-- Created with Inkscape (http://www.inkscape.org/) -->

<svg
   width="324.00015mm"
   height="217.00002mm"
   viewBox="0 0 324.00015 217.00002"
   version="1.1"
   id="svg1"
   inkscape:version="1.3 (1:1.3+202307231459+0e150ed6c4)"
   sodipodi:docname="good fibes 1.svg"
   xml:space="preserve"
   xmlns:inkscape="http://www.inkscape.org/namespaces/inkscape"
   xmlns:sodipodi="http://sodipodi.sourceforge.net/DTD/sodipodi-0.dtd"
   xmlns="http://www.w3.org/2000/svg"
   xmlns:svg="http://www.w3.org/2000/svg"><sodipodi:namedview
     id="namedview1"
     pagecolor="#ffffff"
     bordercolor="#666666"
     borderopacity="1.0"
     inkscape:showpageshadow="2"
     inkscape:pageopacity="0.0"
     inkscape:pagecheckerboard="0"
     inkscape:deskcolor="#d1d1d1"
     inkscape:document-units="mm"
     showguides="true"
     inkscape:zoom="1.045059"
     inkscape:cx="-6.6981862"
     inkscape:cy="330.12489"
     inkscape:window-width="1920"
     inkscape:window-height="1136"
     inkscape:window-x="0"
     inkscape:window-y="27"
     inkscape:window-maximized="1"
     inkscape:current-layer="layer1"
     showgrid="false" /><defs
     id="defs1" /><g
     inkscape:label="layout"
     inkscape:groupmode="layer"
     id="layer1"
     transform="translate(-35.754418,-53.207302)"><path
       id="page"
       style="display:none;fill:none;fill-rule:evenodd;stroke:#808080;stroke-linecap:round;paint-order:stroke fill markers"
       d="m 48.754417,201.70731 a 2.5,2.5 0 0 1 -2.5,2.5 2.5,2.5 0 0 1 -2.5,-2.5 2.5,2.5 0 0 1 2.5,-2.5 2.5,2.5 0 0 1 2.5,2.5 z m 0,-80.00001 a 2.5,2.5 0 0 1 -2.5,2.5 2.5,2.5 0 0 1 -2.5,-2.5 2.5,2.5 0 0 1 2.5,-2.5 2.5,2.5 0 0 1 2.5,2.5 z m -9.5,-64.999998 H 187.75442 V 266.7073 H 39.254417 Z"
       inkscape:label="page" /><path
       id="front"
       style="fill:none;fill-rule:evenodd;stroke:#000000;stroke-linecap:round;paint-order:stroke fill markers"
       d="m 48.754417,201.70731 c 0,1.38071 -1.119288,2.5 -2.5,2.5 -1.380712,0 -2.5,-1.11929 -2.5,-2.5 0,-1.38071 1.119288,-2.5 2.5,-2.5 1.380712,0 2.5,1.11929 2.5,2.5 z m 0,-80.00001 c 0,1.38071 -1.119288,2.5 -2.5,2.5 -1.380712,0 -2.5,-1.11929 -2.5,-2.5 0,-1.38071 1.119288,-2.5 2.5,-2.5 1.380712,0 2.5,1.11929 2.5,2.5 z m -10.5,-67.999998 H 190.75442 c 1.108,0 2,0.892 2,2 V 267.70732 c 0,1.108 -0.892,2 -2,2 H 38.254417 c -1.108,0 -2,-0.892 -2,-2 V 55.707302 c 0,-1.108 0.892,-2 2,-2 z"
       inkscape:label="front"
       sodipodi:nodetypes="sssssssssssssssssss"
       transform="translate(1.1666667e-6)" /><path
       id="back"
       style="fill:none;stroke:#000000;paint-order:stroke fill markers"
       d="m 209.33085,218.70731 c 0,0.82843 -0.67158,1.5 -1.50001,1.5 -0.82843,0 -1.50001,-0.67157 -1.50001,-1.5 0,-0.82843 0.67158,-1.50001 1.50001,-1.50001 0.82843,0 1.50001,0.67158 1.50001,1.50001 z m 0,-114 c 0,0.82843 -0.67158,1.50001 -1.50001,1.50001 -0.82843,0 -1.50001,-0.67158 -1.50001,-1.50001 0,-0.82843 0.67158,-1.50001 1.50001,-1.50001 0.82843,0 1.50001,0.67158 1.50001,1.50001 z m -8.57617,126.29173 h -3.00033 c -1.108,0 -1.99988,-0.89188 -1.99988,-1.99988 V 94.415639 c 0,-1.107994 0.89188,-1.999878 1.99988,-1.999878 h 3.00033 c 1.10447,-6.6e-5 1.99981,-0.895406 1.99988,-1.999878 l -6e-5,-34.708414 c -6e-5,-1.104508 0.89537,-1.999939 1.99994,-1.999939 h 152.50025 c 1.108,0 1.99988,0.891886 1.99988,1.999878 V 267.70739 c 0,1.108 -0.89188,1.99988 -1.99988,1.99988 H 204.75444 c -1.108,0 -1.99988,-0.89188 -1.99988,-1.99988 v -34.70848 c -7e-5,-1.10447 -0.89541,-1.9998 -1.99988,-1.99987 z"
       sodipodi:nodetypes="sssssssssscsssscccssssssscc"
       inkscape:label="back" /><g
       inkscape:label="Layer 1"
       id="layer1-6"
       transform="matrix(2.0422662,-0.03665485,0.03668214,2.0437867,-36.050102,-44.592942)"
       style="stroke-width:0.489392"
       inkscape:transform-center-x="-4.7598058"
       inkscape:transform-center-y="-0.29457479"><path
         id="path2"
         style="fill:#000000;fill-opacity:0.87451;fill-rule:evenodd;stroke:none;stroke-width:0.129483;stroke-linecap:round;stroke-linejoin:round;stroke-miterlimit:2;paint-order:stroke fill markers"
         d="m 77.093665,111.62495 c -0.237063,2.07078 -1.503309,3.67169 -3.712998,3.67169 -2.209691,0 -3.383368,-1.46226 -3.563767,-3.53874 -0.217562,-2.50423 1.463631,-3.4325 3.67332,-3.4325 2.20969,0 3.878406,0.89769 3.603445,3.29955 z"
         sodipodi:nodetypes="sssss" /><path
         id="path4"
         style="fill:#000000;fill-opacity:0.87451;fill-rule:evenodd;stroke:none;stroke-width:0.129483;stroke-linecap:round;stroke-linejoin:round;stroke-miterlimit:2;paint-order:stroke fill markers"
         d="m 80.490256,96.280922 a 1.566861,1.5306423 0 0 0 -1.566933,1.530632 1.566861,1.5306423 0 0 0 1.566933,1.530636 1.566861,1.5306423 0 0 0 1.566934,-1.530636 1.566861,1.5306423 0 0 0 -1.566934,-1.530632 z m -13.089462,0.498431 a 1.566861,1.5306423 0 0 0 -1.566769,1.530633 1.566861,1.5306423 0 0 0 1.566769,1.530633 1.566861,1.5306423 0 0 0 1.566934,-1.530633 1.566861,1.5306423 0 0 0 -1.566934,-1.530633 z" /><path
         id="path6"
         style="fill:#4d4d4d;fill-opacity:0.87451;fill-rule:evenodd;stroke:none;stroke-width:0.129483;stroke-linecap:round;stroke-linejoin:round;stroke-miterlimit:2;paint-order:stroke fill markers"
         d="m 80.9036,95.145663 c -0.07175,-0.0019 -0.143314,9.59e-4 -0.214359,0.0088 -1.663768,0.181469 -2.653847,1.553729 -2.805307,2.713785 -0.206852,1.584326 1.105096,2.560022 2.740192,2.560032 1.635093,0 2.472619,-1.069294 2.472619,-2.66705 0,-1.497894 -1.116922,-2.587343 -2.193145,-2.615521 z m -13.65403,0.82758 c -1.527721,0.0097 -1.950527,1.075119 -1.950528,2.324027 10e-7,1.289189 0.759189,2.45433 2.078614,2.45433 1.319425,0 2.027736,-1.12603 1.980607,-2.414366 -0.07668,-2.096149 -1.921044,-2.360236 -1.957469,-2.361514 -0.0516,-0.0019 -0.101942,-0.0029 -0.151224,-0.0026 z m 13.240686,0.307679 a 1.566861,1.5306423 0 0 1 1.566934,1.530632 1.566861,1.5306423 0 0 1 -1.566934,1.530636 1.566861,1.5306423 0 0 1 -1.566933,-1.530636 1.566861,1.5306423 0 0 1 1.566933,-1.530632 z m -13.089462,0.498431 a 1.566861,1.5306423 0 0 1 1.566934,1.530633 1.566861,1.5306423 0 0 1 -1.566934,1.530633 1.566861,1.5306423 0 0 1 -1.566769,-1.530633 1.566861,1.5306423 0 0 1 1.566769,-1.530633 z" /><path
         id="path8"
         style="fill:#9d7f64;fill-opacity:0.87451;stroke:none;stroke-width:0.129483px;stroke-linecap:butt;stroke-linejoin:miter;stroke-opacity:1"
         d="m 83.069641,87.317767 c -0.04806,-0.0025 -0.09595,-0.0016 -0.143951,0.0025 -0.672042,0.05686 -1.372992,0.717984 -3.065282,0.881088 -0.985896,0.09502 -1.982138,-0.01409 -2.973225,-0.115276 0.647953,5.240129 -2.941368,5.749251 -2.355773,8.632521 0.819446,4.03468 3.963292,2.103257 5.547486,7.74648 1.037416,3.69546 2.150376,5.61583 3.73149,6.72864 0.597364,-1.44075 0.867748,-2.83568 1.257051,-4.36234 0.50337,-1.97399 1.462689,-2.57437 1.67816,-4.2132 0.09026,-0.68647 -0.184759,-1.3471 -0.247904,-1.99025 -0.09142,-0.931139 -0.04984,-1.824954 0.182789,-2.66342 0.05547,-0.199916 0.968591,-0.279609 1.149954,-0.200165 0.01023,0.0045 0.02415,0.02234 0.03603,0.03303 -1.637591,-5.121857 -4.13105,-7.729527 -4.073105,-10.3108 -0.180429,-0.05643 -0.370091,-0.108266 -0.578613,-0.150454 -0.04882,-0.0099 -0.09705,-0.01582 -0.145108,-0.01833 z m -11.892405,1.214201 c -0.802538,0.187561 -1.598023,0.367299 -2.720857,0.461601 -1.038101,0.08719 -1.868096,0.01116 -2.591779,-0.054 -0.810546,3.844307 -3.54002,3.237029 -5.182238,7.787434 0.147935,0.143947 -0.138401,0.874794 0.120814,1.554746 0.160131,0.420043 0.476208,0.251881 0.713309,0.694797 0.204562,0.38213 -0.15789,1.473654 0.141637,1.853174 0.195838,0.24814 0.813015,0.13417 1.048645,0.5929 0.342507,0.66679 0.29671,1.6959 0.610841,2.75523 0.281909,0.95069 0.936983,1.90126 1.031292,3.04493 4.373876,-0.43935 3.155254,-3.57542 5.467494,-5.32899 3.561317,-2.700815 3.93951,-5.852581 1.360842,-13.361817 z m 9.726364,6.613695 c 1.076219,0.02819 2.193145,1.117627 2.193145,2.615521 0,1.597756 -0.837529,2.667046 -2.472619,2.667046 -1.635096,0 -2.947044,-0.975702 -2.740192,-2.560029 0.15146,-1.160052 1.141542,-2.532315 2.805307,-2.713785 0.07104,-0.0077 0.142611,-0.01064 0.214359,-0.0088 z m -13.65403,0.82758 c 0.04928,-3.1e-4 0.09962,6.39e-4 0.151224,0.0026 0.03642,0.0013 1.880789,0.265368 1.957469,2.361514 0.04713,1.288336 -0.661184,2.414363 -1.980607,2.414363 -1.319423,0 -2.078613,-1.165142 -2.078614,-2.454328 10e-7,-1.248908 0.422809,-2.314387 1.950528,-2.324026 z"
         sodipodi:nodetypes="ccscsscsssssccsccsccsssssccccsssscscssss" /><path
         id="path10"
         style="fill:#432b17;fill-opacity:0.87451;stroke:none;stroke-width:0.129483px;stroke-linecap:butt;stroke-linejoin:miter;stroke-opacity:1"
         d="m 83.793362,87.486553 c -0.05795,2.581303 2.435514,5.188996 4.073105,10.310965 0.394595,0.355498 1.672125,4.009812 2.273467,3.311302 0.580299,-0.67406 -0.651103,-1.609954 1.257547,-3.751268 0.695997,-0.780837 1.24124,-2.100496 1.081532,-2.417171 -0.644803,-1.278544 -2.772177,-2.315708 -4.886897,-3.917253 -1.345967,-1.019344 -1.500513,-2.817863 -3.798754,-3.536575 z m -19.165981,1.385794 c -0.334553,0.008 -0.653114,0.05042 -0.969975,0.154583 -1.114097,0.366228 -2.555198,1.629268 -3.330376,3.079762 -0.885763,1.65742 -1.461448,3.738079 -1.700308,5.635994 -0.18848,1.497609 -0.470904,2.572484 -0.167585,2.544014 1.907703,-0.17917 1.145854,-3.539667 2.14687,-3.586455 0.03396,-0.0016 0.0579,0.0087 0.07635,0.02675 1.642547,-4.551319 4.372788,-3.942734 5.182733,-7.789581 -0.443056,-0.0399 -0.857116,-0.07414 -1.237714,-0.06507 z" /><path
         style="fill:none;stroke:#000000;stroke-width:0.129483px;stroke-linecap:butt;stroke-linejoin:miter;stroke-opacity:1"
         d="m 63.657396,89.026849 c 1.267448,-0.416637 2.562026,0.154572 4.798947,-0.0333 2.315143,-0.194438 3.247366,-0.748065 5.691873,-0.997166 1.868168,-0.190371 3.809446,0.388317 5.712112,0.204936 1.934057,-0.186406 2.573305,-1.02324 3.354357,-0.865221 2.864592,0.579552 2.925754,2.587596 4.377393,3.686968 2.114722,1.601548 4.24211,2.638824 4.886913,3.917367 0.159708,0.316678 -0.385517,1.636254 -1.081513,2.417091 -1.90865,2.141317 -0.677258,3.077196 -1.257556,3.751266 -0.61949,0.71958 -1.959544,-3.191096 -2.309512,-3.344393 -0.181363,-0.07944 -1.094452,2.33e-4 -1.149918,0.200149 -0.23263,0.838478 -0.274191,1.732243 -0.182774,2.663374 0.06315,0.64317 0.338119,1.30376 0.247863,1.99023 -0.215471,1.63883 -1.174749,2.23921 -1.678118,4.21321 -0.561151,2.20057 -0.858759,4.12502 -2.275697,6.31209 -2.813057,4.34199 -6.911856,3.91766 -10.013238,3.87919 -2.798279,-0.0347 -5.948904,-0.59991 -7.48668,-5.0781 -0.412252,-1.20053 -0.801952,-3.01207 -0.942933,-4.72172 -0.09431,-1.14368 -0.749466,-2.09425 -1.031376,-3.04493 -0.314132,-1.05935 -0.26827,-2.08846 -0.610779,-2.75526 -0.235631,-0.45873 -0.852869,-0.34477 -1.048708,-0.59291 -0.299529,-0.37951 0.06293,-1.470971 -0.141636,-1.853101 -0.237102,-0.442916 -0.553026,-0.274757 -0.713159,-0.6948 -0.291521,-0.764695 0.108282,-1.595906 -0.197306,-1.581623 -1.001017,0.04679 -0.239132,3.407394 -2.146838,3.586564 -0.303319,0.0285 -0.02093,-1.046492 0.167552,-2.544102 0.23886,-1.897917 0.814666,-3.978621 1.70043,-5.636041 0.775179,-1.450497 2.216204,-2.713541 3.330301,-3.07977 z"
         id="path1"
         sodipodi:nodetypes="ssssssssssssssssssssssssssss" /></g><path
       d="m 103.99166,120.09471 q -1.6041,0.3326 -2.76607,-0.29739 -1.13544,-0.61257 -1.41337,-1.95297 -0.173126,-0.83502 0.07655,-1.62021 0.24974,-0.78518 0.84892,-1.32196 0.59463,-0.55875 1.40767,-0.72733 0.83502,-0.17313 1.427,0.13951 0.61393,0.30816 0.75518,0.98936 0.10939,0.52737 -0.0687,0.88513 -0.25244,-0.22269 -0.63591,-0.30361 -0.3615,-0.0855 -0.73507,-0.009 -0.65922,0.13663 -0.98561,0.66273 -0.32638,0.52604 -0.18058,1.22921 0.14579,0.70318 0.63247,1.06064 0.50862,0.35292 1.1239,0.22534 0.76908,-0.15946 1.1772,-0.95457 0.4081,-0.7951 0.41583,-2.19475 l 0.0918,-5.08408 -0.0879,0.0183 q -0.42016,0.95803 -1.18604,1.5752 -0.74388,0.6126 -1.75469,0.82219 -1.27449,0.26427 -2.38259,-0.21645 -1.1081,-0.48072 -1.895185,-1.62391 -0.769664,-1.16969 -1.115944,-2.83972 -0.501179,-2.41715 0.143499,-4.61352 0.640161,-2.21834 2.249048,-3.7437 1.608902,-1.525381 3.828282,-1.985557 1.8678,-0.387274 3.1131,0.202512 1.2673,0.585225 1.55888,1.991565 0.19592,0.94489 -0.14707,1.61189 -0.34298,0.66701 -1.09011,0.82192 -0.41751,0.0866 -0.82752,-0.0117 -0.38804,-0.1029 -0.6981,-0.38238 0.34087,-0.3457 0.48609,-0.9717 0.16265,-0.65253 0.0397,-1.24583 -0.13663,-0.659222 -0.60512,-0.928797 -0.451,-0.296101 -1.15419,-0.150304 -1.2745,0.264263 -2.22417,1.652951 -0.95423,1.36671 -1.30121,3.34091 -0.346969,1.9742 0.0675,3.97385 0.34172,1.64805 1.05134,2.41766 0.70507,0.74764 1.69392,0.54262 1.18659,-0.24603 1.82782,-1.68536 0.66321,-1.44388 0.71593,-3.95297 l 2.59751,-0.51567 -0.0732,7.71591 q -0.0244,3.41992 -1.00184,5.22693 -0.95556,1.80244 -2.99915,2.22617 z m 10.23219,-6.15089 q -1.65789,0.0962 -2.67065,-0.69924 -1.01277,-0.79544 -1.11937,-2.63255 -0.0884,-1.52345 0.43099,-3.41937 0.5194,-1.89591 1.83043,-3.32073 1.30972,-1.44724 3.41568,-1.56945 2.86768,-0.1664 3.0757,3.4182 l 8.9e-4,0.0224 q 0.0685,0.0185 0.24774,0.009 0.73933,-0.0428 1.68058,-0.47968 0.93998,-0.45917 1.69161,-1.06476 l 0.23673,0.5932 q -0.60941,0.73222 -1.63379,1.28621 -1.00327,0.53028 -2.22377,0.80341 -0.0609,2.04915 -0.71184,3.61551 -0.65092,1.56636 -1.76781,2.46289 -1.1169,0.89655 -2.48354,0.97585 z m 0.77913,-2.06834 q 0.53769,-0.0312 1.04028,-0.6673 0.50129,-0.65851 0.84345,-1.73489 0.34088,-1.09879 0.4447,-2.4086 -0.61272,-0.0994 -0.65952,-0.90586 -0.0533,-0.91855 0.62433,-1.2501 -0.0877,-0.73673 -0.28255,-0.99517 -0.19613,-0.28085 -0.64421,-0.25485 -0.73933,0.0429 -1.37143,1.15859 -0.63212,1.11569 -0.97069,2.64144 -0.33856,1.52575 -0.27226,2.66835 0.0623,1.07536 0.33095,1.44193 0.26725,0.34416 0.91695,0.30646 z m 9.26365,1.91278 q -1.65677,-0.11369 -2.56114,-1.0305 -0.90433,-0.9168 -0.77839,-2.75268 0.10437,-1.52245 0.85882,-3.33771 0.75438,-1.81527 2.23464,-3.06337 1.48179,-1.27049 3.58634,-1.12611 2.86577,0.1966 2.62001,3.77881 l -8.9e-4,0.0224 q 0.0656,0.0269 0.24474,0.0393 0.73884,0.0507 1.72765,-0.26387 0.99037,-0.33696 1.81238,-0.84292 l 0.16003,0.61832 q -0.69689,0.6495 -1.78296,1.06988 -1.06215,0.39951 -2.30735,0.51653 -0.31887,2.0251 -1.16216,3.49684 -0.84327,1.47176 -2.06432,2.22028 -1.22104,0.74851 -2.58676,0.65483 z m 1.03379,-1.95357 q 0.53732,0.0369 1.11613,-0.53077 0.58035,-0.59002 1.05554,-1.61464 0.47672,-1.04702 0.74491,-2.33329 -0.59528,-0.1758 -0.53999,-0.9818 0.063,-0.91793 0.777,-1.16138 0.005,-0.7419 -0.15477,-1.02285 -0.15916,-0.30335 -0.60691,-0.33407 -0.73884,-0.0507 -1.50663,0.97636 -0.76777,1.02706 -1.29607,2.49793 -0.52828,1.47086 -0.60662,2.6127 -0.0737,1.07465 0.14644,1.47216 0.22169,0.37512 0.87097,0.41965 z m 8.37755,2.98565 q -1.25359,-0.25448 -1.9152,-1.28185 -0.6616,-1.02738 -0.29103,-2.85278 0.33038,-1.62748 1.3298,-3.27942 1.02589,-1.66948 2.5515,-2.64214 1.55206,-0.99017 3.33349,-0.62853 0.9017,0.18305 1.27905,0.58024 0.37736,0.39719 0.27467,0.90302 l -0.0178,0.088 2.10451,-4.83959 3.34424,0.22091 -4.94008,11.36271 q -0.15495,0.31202 -0.21744,0.61993 -0.17859,0.87971 0.7231,1.06276 0.39589,0.0804 0.73057,0.0114 -0.3112,1.08179 -1.13551,1.53272 -0.79787,0.43341 -1.74357,0.24143 -0.8797,-0.17858 -1.40622,-0.74344 -0.50004,-0.58241 -0.51047,-1.54628 -1.69012,1.55752 -3.49354,1.19143 z m 1.86262,-1.84309 q 0.48384,0.0982 1.05251,-0.22144 0.59066,-0.31516 0.98438,-1.01381 l 0.1594,-0.33404 2.10006,-4.81759 q -0.0418,-0.80992 -0.74545,-0.9528 -0.8797,-0.17858 -1.79331,0.71222 -0.90916,0.8688 -1.5997,2.23996 -0.68606,1.34917 -0.9093,2.44883 -0.22323,1.09964 0.0223,1.47003 0.2674,0.37486 0.72925,0.46864 z"
       id="text11"
       style="font-size:19.7556px;line-height:1.25;font-family:Lobster;-inkscape-font-specification:'Lobster, Normal';letter-spacing:0px;word-spacing:0px;stroke-width:0.264582"
       aria-label="Good" /><path
       d="m 103.97001,206.889 -0.24461,-0.0451 q -1.46766,-0.2703 -2.47881,0.60108 -0.98484,0.85325 -1.459893,3.43277 -0.151538,0.82277 -0.05732,1.18501 0.09838,0.33998 0.09015,0.38446 -1.200821,-0.22116 -1.711122,-0.82093 -0.483991,-0.61794 -0.271016,-1.77428 0.290762,-1.57886 1.306607,-2.72527 1.019924,-1.16865 2.857384,-1.65795 1.8597,-0.48519 4.48369,-0.003 0.80055,0.14743 2.16463,0.60557 0.1293,0.0468 1.02058,0.32592 0.91349,0.28318 1.86968,0.45929 1.66781,0.30715 3.30223,0.17132 -0.53715,1.41852 -1.36633,2.30042 -0.82506,0.85967 -2.02588,0.63851 -0.80054,-0.14741 -1.39451,-0.41776 -0.58988,-0.29256 -1.39571,-0.78584 -0.82806,-0.49738 -1.65024,-0.90169 l -1.7753,4.27135 2.80189,0.51601 -0.65883,1.58002 -2.8019,-0.51601 -3.34107,8.02947 -3.202179,-0.58973 z m 4.04432,16.24108 q -1.06739,-0.19657 -1.61164,-0.98656 -0.52202,-0.78587 -0.27629,-2.12011 0.10227,-0.55594 0.4441,-1.41267 l 2.82673,-6.85966 3.20216,0.58974 -2.99348,7.26578 q -0.15039,0.31719 -0.22002,0.69521 -0.0819,0.44475 0.0813,0.68175 0.18962,0.21885 0.67885,0.30895 0.64488,0.11875 1.2991,-0.31254 0.65831,-0.45355 1.06264,-1.27576 l 0.93397,0.17201 q -1.26509,2.25009 -2.71457,2.87981 -1.44538,0.60749 -2.7129,0.37405 z m 9.55817,0.73571 q -1.53741,-0.0209 -2.34119,-0.77808 -0.80347,-0.77979 -0.7847,-2.15894 0.009,-0.67827 0.17579,-1.28658 l 2.5733,-11.29424 3.35231,-0.40666 -1.15447,5.07229 q 0.6383,-0.37574 1.04679,-0.48325 0.40881,-0.13016 0.81577,-0.12452 2.66789,0.0362 2.61528,3.90245 -0.0213,1.56003 -0.65596,3.33785 -0.61184,1.75551 -2.03084,3.00254 -1.39637,1.24735 -3.61208,1.21721 z m 1.29596,-2.17584 q 0.70088,0.009 1.32302,-0.84132 0.62245,-0.87344 1.00173,-2.15724 0.37958,-1.3064 0.39588,-2.50469 0.013,-0.90436 -0.2956,-1.54173 -0.30792,-0.63737 -0.87316,-0.64505 -0.33913,-0.004 -0.77024,0.10257 -0.40819,0.085 -0.56923,0.28622 l -1.32163,5.72581 q -0.0715,0.27038 -0.0748,0.51909 -0.0144,1.04 1.18413,1.05631 z m 10.92029,1.79936 q -1.6639,0.17644 -2.6764,-0.58021 -1.0149,-0.77917 -1.21042,-2.62294 -0.16453,-1.55149 0.24464,-3.48213 0.40918,-1.93064 1.63771,-3.42521 1.22613,-1.51706 3.33973,-1.7412 2.47336,-0.26231 2.70228,1.89626 0.13348,1.25918 -0.47391,2.39228 -0.60745,1.1331 -1.73002,1.91156 -1.12493,0.75596 -2.4645,0.98899 0.0266,0.67932 0.0504,0.90415 0.11686,1.10178 0.54201,1.46598 0.42278,0.3417 1.27722,0.2511 1.2142,-0.12872 2.00901,-0.78151 0.81731,-0.65514 1.73,-1.91156 l 0.76451,-0.081 q -2.0547,4.42444 -5.74227,4.81551 z m -0.56547,-5.76097 q 0.82717,-0.13319 1.51196,-0.75153 0.70725,-0.62073 1.06873,-1.50038 0.38397,-0.882 0.28619,-1.8039 -0.0978,-0.9219 -0.65989,-0.86228 -0.80947,0.0858 -1.44621,1.58588 -0.61427,1.49762 -0.76078,3.33221 z m 10.14698,4.36058 q -1.06228,0.2225 -1.87605,-0.0228 -0.81839,-0.26751 -1.30692,-0.83513 -0.49317,-0.58975 -0.6415,-1.29795 -0.15299,-0.73032 0.0898,-1.33563 0.21605,-0.62281 0.65195,-0.96822 0.53861,-1.72997 0.85127,-3.4357 0.30803,-1.72786 0.49867,-3.68525 l 3.18266,-1.12871 q 0.70402,2.80959 1.66031,6.05147 0.3888,1.30466 0.51397,1.90221 0.28277,1.34998 -0.22249,2.3568 -0.50527,1.00681 -1.4445,1.59628 -0.91707,0.58482 -1.95722,0.8027 z m -1.0744,-1.59999 q 0.81884,-0.17153 1.27014,-0.7743 0.45126,-0.60276 0.22412,-1.68719 -0.13911,-0.66391 -0.52217,-1.83118 -0.74978,-2.47657 -0.99696,-3.32576 -0.16494,1.85958 -0.91646,4.55823 0.56464,0.15895 0.67125,0.66796 0.0881,0.42048 -0.13001,0.81272 -0.19605,0.38759 -0.61653,0.47567 -0.46473,0.0972 -0.65779,-0.16254 0.16689,0.7967 0.55551,1.10803 0.41079,0.3067 1.11898,0.15836 z"
       id="text13"
       style="font-size:19.7556px;line-height:1.25;font-family:Lobster;-inkscape-font-specification:'Lobster, Normal';letter-spacing:0px;word-spacing:0px;stroke-width:0.264583"
       aria-label="Fibes" /><path
       id="path31"
       style="fill:none;fill-rule:evenodd;stroke:#000000;stroke-width:0.999998;stroke-linecap:round;stroke-dasharray:none;paint-order:stroke fill markers"
       d="m 166.82808,139.62307 a 52.052605,52.052605 0 0 1 4.88028,22.00557 v 0 a 52.052605,52.052605 0 0 1 -4.88074,22.00654" /><path
       id="path33"
       style="fill:none;fill-rule:evenodd;stroke:#000000;stroke-width:0.999998;stroke-linecap:round;stroke-dasharray:none;paint-order:stroke fill markers"
       d="m 72.483879,183.63518 a 52.052605,52.052605 0 0 1 -4.880735,-22.00654 52.052605,52.052605 0 0 1 4.880583,-22.00623" /><path
       id="circle14"
       style="fill:none;fill-rule:evenodd;stroke:#000000;stroke-width:0.999998;stroke-linecap:round;stroke-dasharray:none;paint-order:stroke fill markers"
       d="m 170.76936,135.12079 a 57.578356,57.578356 0 0 1 6.46474,26.50785 v 0 a 57.578356,57.578356 0 0 1 -6.4948,26.56572" /><path
       id="path26"
       style="fill:none;fill-rule:evenodd;stroke:#000000;stroke-width:0.999998;stroke-linecap:round;stroke-dasharray:none;paint-order:stroke fill markers"
       d="m 68.572194,188.19436 a 57.578356,57.578356 0 0 1 -6.4948,-26.56572 57.578356,57.578356 0 0 1 6.4948,-26.56572" /><path
       id="circle15"
       style="fill:none;fill-rule:evenodd;stroke:#000000;stroke-width:0.999998;stroke-linecap:round;stroke-dasharray:none;paint-order:stroke fill markers"
       d="m 176.48779,135.12377 a 62.708763,62.708763 0 0 1 5.87673,26.50487 v 0 a 62.708763,62.708763 0 0 1 -5.88264,26.51753" /><path
       id="path24"
       style="fill:none;fill-rule:evenodd;stroke:#000000;stroke-width:0.999998;stroke-linecap:round;stroke-dasharray:none;paint-order:stroke fill markers"
       d="m 62.829616,188.14617 a 62.708763,62.708763 0 0 1 -5.88263,-26.51753 62.708763,62.708763 0 0 1 5.882887,-26.51809" /><path
       style="font-size:10.5833px;line-height:1.25;letter-spacing:0px;word-spacing:0px;stroke-width:0.264583"
       d="m 160.89523,121.50865 1.288,1.44773 1.77515,-0.77394 -0.97311,1.67544 1.28583,1.44531 -1.89388,-0.41075 -0.97286,1.67088 -0.19642,-1.93391 -1.89576,-0.41774 1.7706,-0.77421 z"
       id="path12" /><path
       style="font-size:10.5833px;line-height:1.25;letter-spacing:0px;word-spacing:0px;stroke-width:0.264583"
       d="m 154.31063,115.40099 1.80516,1.50926 1.99422,-1.24609 -0.87013,2.18591 1.80214,1.50675 -2.34802,-0.1557 -0.87063,2.1804 -0.58072,-2.28786 -2.35152,-0.16375 1.98866,-1.24561 z"
       id="path11" /><path
       style="font-size:10.5833px;line-height:1.25;letter-spacing:0px;word-spacing:0px;stroke-width:0.264583"
       d="m 146.78091,110.33459 2.36141,1.44453 2.10545,-1.79458 -0.63499,2.6941 2.35747,1.44212 -2.75934,0.22442 -0.63652,2.68774 -1.071,-2.5621 -2.76482,0.21565 2.0991,-1.79307 z"
       id="text15" /><path
       style="font-size:10.5833px;line-height:1.25;letter-spacing:0px;word-spacing:0px;stroke-width:0.264583"
       d="m 152.96928,209.13809 -2.36146,1.44447 0.63886,2.69171 -2.10934,-1.79224 -2.35751,1.44206 1.05684,-2.55879 -2.10299,-1.79071 2.76875,0.21332 1.06713,-2.55968 0.64039,2.68536 z"
       id="path14" /><path
       style="font-size:10.5833px;line-height:1.25;letter-spacing:0px;word-spacing:0px;stroke-width:0.264583"
       d="m 159.0413,203.90209 -1.80519,1.50923 0.87308,2.18343 -1.99719,-1.24363 -1.80217,1.5067 0.5692,-2.2833 -1.99166,-1.24313 2.35456,-0.16622 0.57775,-2.28532 0.87358,2.17788 z"
       id="path13" /><path
       style="font-size:10.5833px;line-height:1.25;letter-spacing:0px;word-spacing:0px;stroke-width:0.264583"
       d="m 164.27064,197.95577 -1.28802,1.4477 0.97525,1.67305 -1.77731,-0.77154 -1.28585,1.44528 0.18757,-1.92881 -1.77274,-0.77182 1.89793,-0.42012 0.19429,-1.93149 0.97498,1.66847 z"
       id="text16" /><path
       style="font-size:10.5833px;line-height:1.35;letter-spacing:0px;word-spacing:0px;stroke-width:0.264583"
       d="m 86.346173,114.11642 2.361569,-1.44428 -0.638624,-2.69176 2.10919,1.79241 2.357624,-1.44186 -1.057045,2.55871 2.102831,1.79087 -2.768731,-0.21355 -1.067338,2.55959 -0.640162,-2.68541 z"
       id="path9" /><path
       style="font-size:10.5833px;line-height:1.35;letter-spacing:0px;word-spacing:0px;stroke-width:0.264583"
       d="m 80.273697,119.35192 1.805317,-1.50907 -0.872912,-2.1835 1.997091,1.24378 1.802303,-1.50654 -0.569399,2.28325 1.991556,1.24329 -2.354562,0.16602 -0.577948,2.28527 -0.873406,-2.17796 z"
       id="path7" /><path
       style="font-size:10.5833px;line-height:1.35;letter-spacing:0px;word-spacing:0px;stroke-width:0.264584"
       d="m 75.04379,125.29752 1.288053,-1.44752 -0.975053,-1.67303 1.77713,0.77165 1.285904,-1.44509 -0.187722,1.92868 1.772564,0.77192 -1.897842,0.41993 -0.194442,1.93137 -0.974787,-1.66846 z"
       id="text17" /><path
       style="font-size:10.5833px;line-height:1.25;letter-spacing:0px;word-spacing:0px;stroke-width:0.264583"
       d="m 78.419642,201.75315 -1.288134,-1.4476 -1.775089,0.7741 0.972963,-1.67554 -1.285984,-1.44518 1.893924,0.41057 0.972695,-1.67098 0.196604,1.9339 1.895808,0.41754 -1.770522,0.77438 z"
       id="path5" /><path
       style="font-size:10.5833px;line-height:1.25;letter-spacing:0px;word-spacing:0px;stroke-width:0.264583"
       d="m 85.005237,207.86046 -1.805317,-1.50906 -1.994077,1.2463 0.869897,-2.18601 -1.802304,-1.50656 2.348043,0.15545 0.87039,-2.18048 0.580962,2.2878 2.351547,0.1635 -1.98854,1.24582 z"
       id="path3" /><path
       style="font-size:10.5833px;line-height:1.25;letter-spacing:0px;word-spacing:0px;stroke-width:0.264583"
       d="m 92.535941,212.92635 -2.361577,-1.44427 -2.105246,1.79481 0.634689,-2.69417 -2.357632,-1.44187 2.759312,-0.22472 0.636218,-2.68782 1.071291,2.562 2.764787,-0.21597 -2.098896,1.7933 z"
       id="text18" /></g></svg>
