<?xml version="1.0" encoding="UTF-8" standalone="no"?>
<!-- Created with Inkscape (http://www.inkscape.org/) -->

<svg
   width="331mm"
   height="217.00003mm"
   viewBox="0 0 331 217.00004"
   version="1.1"
   id="svg1"
   inkscape:version="1.3 (1:1.3+202307231459+0e150ed6c4)"
   sodipodi:docname="notebook.svg"
   xml:space="preserve"
   xmlns:inkscape="http://www.inkscape.org/namespaces/inkscape"
   xmlns:sodipodi="http://sodipodi.sourceforge.net/DTD/sodipodi-0.dtd"
   xmlns="http://www.w3.org/2000/svg"
   xmlns:svg="http://www.w3.org/2000/svg"><sodipodi:namedview
     id="namedview1"
     pagecolor="#ffffff"
     bordercolor="#666666"
     borderopacity="1.0"
     inkscape:showpageshadow="2"
     inkscape:pageopacity="0.0"
     inkscape:pagecheckerboard="0"
     inkscape:deskcolor="#d1d1d1"
     inkscape:document-units="mm"
     showguides="false"
     inkscape:zoom="0.45254834"
     inkscape:cx="-197.76893"
     inkscape:cy="711.5262"
     inkscape:window-width="1920"
     inkscape:window-height="1136"
     inkscape:window-x="0"
     inkscape:window-y="27"
     inkscape:window-maximized="1"
     inkscape:current-layer="layer1"><sodipodi:guide
       position="86.547166,108.50007"
       orientation="1,0"
       id="guide11"
       inkscape:locked="false" /><sodipodi:guide
       position="86.547162,108.50008"
       orientation="0,-1"
       id="guide33"
       inkscape:locked="false" /></sodipodi:namedview><defs
     id="defs1" /><g
     inkscape:label="Layer 1"
     inkscape:groupmode="layer"
     id="layer1"
     transform="translate(-35.754417,-53.207302)"><path
       id="page"
       style="display:none;fill:none;fill-rule:evenodd;stroke:#808080;stroke-linecap:round;paint-order:stroke fill markers"
       d="m 48.754417,201.70731 a 2.5,2.5 0 0 1 -2.5,2.5 2.5,2.5 0 0 1 -2.5,-2.5 2.5,2.5 0 0 1 2.5,-2.5 2.5,2.5 0 0 1 2.5,2.5 z m 0,-80.00001 a 2.5,2.5 0 0 1 -2.5,2.5 2.5,2.5 0 0 1 -2.5,-2.5 2.5,2.5 0 0 1 2.5,-2.5 2.5,2.5 0 0 1 2.5,2.5 z m -9.5,-64.999998 H 187.75442 V 266.7073 H 39.254417 Z"
       inkscape:label="page"
       sodipodi:insensitive="true" /><path
       id="back"
       style="fill:none;fill-rule:evenodd;stroke:#000000;stroke-linecap:round;paint-order:stroke fill markers"
       d="m 216.33084,218.70731 c 0,0.82843 -0.67158,1.5 -1.5,1.5 -0.82843,0 -1.5,-0.67157 -1.5,-1.5 0,-0.82843 0.67157,-1.5 1.5,-1.5 0.82842,0 1.5,0.67157 1.5,1.5 z m 0,-114 c 0,0.82843 -0.67158,1.5 -1.5,1.5 -0.82843,0 -1.5,-0.67157 -1.5,-1.5 0,-0.82843 0.67157,-1.5 1.5,-1.5 0.82842,0 1.5,0.67157 1.5,1.5 z M 204.75443,53.707302 h 159.5 c 1.108,0 2,0.892 2,2 V 267.70733 c 0,1.108 -0.892,2 -2,2 h -159.5 c -1.108,0 -2,-0.892 -2,-2 V 55.707302 c 0,-1.108 0.892,-2 2,-2 z"
       sodipodi:nodetypes="sssssssssssssssssss"
       inkscape:label="back" /><path
       id="front"
       style="fill:none;fill-rule:evenodd;stroke:#000000;stroke-linecap:round;paint-order:stroke fill markers"
       d="m 48.754417,201.70731 a 2.5,2.5 0 0 1 -2.5,2.5 2.5,2.5 0 0 1 -2.5,-2.5 2.5,2.5 0 0 1 2.5,-2.5 2.5,2.5 0 0 1 2.5,2.5 z m 0,-80.00001 a 2.5,2.5 0 0 1 -2.5,2.5 2.5,2.5 0 0 1 -2.5,-2.5 2.5,2.5 0 0 1 2.5,-2.5 2.5,2.5 0 0 1 2.5,2.5 z m -10.5,-67.999998 H 197.75442 c 1.108,0 2,0.892 2,2 V 267.70732 c 0,1.108 -0.892,2 -2,2 H 38.254417 c -1.108,0 -2,-0.892 -2,-2 V 55.707302 c 0,-1.108 0.892,-2 2,-2 z"
       inkscape:label="front"
       transform="translate(1.1666667e-6)" /><g
       inkscape:label="Layer 1"
       id="layer1-6"
       transform="matrix(2.2836661,-0.04098753,0.04101804,2.2853663,-51.809009,-68.890104)"
       style="stroke-width:0.43766"
       inkscape:transform-center-x="-4.7598058"
       inkscape:transform-center-y="-0.29457479"><path
         id="path2"
         style="fill:#000000;fill-opacity:0.87451;fill-rule:evenodd;stroke:none;stroke-width:0.115796;stroke-linecap:round;stroke-linejoin:round;stroke-miterlimit:2;paint-order:stroke fill markers"
         d="m 77.093665,111.62495 c -0.237063,2.07078 -1.503309,3.67169 -3.712998,3.67169 -2.209691,0 -3.383368,-1.46226 -3.563767,-3.53874 -0.217562,-2.50423 1.463631,-3.4325 3.67332,-3.4325 2.20969,0 3.878406,0.89769 3.603445,3.29955 z"
         sodipodi:nodetypes="sssss" /><path
         id="path4"
         style="fill:#000000;fill-opacity:0.87451;fill-rule:evenodd;stroke:none;stroke-width:0.115796;stroke-linecap:round;stroke-linejoin:round;stroke-miterlimit:2;paint-order:stroke fill markers"
         d="m 80.490256,96.280922 a 1.566861,1.5306423 0 0 0 -1.566933,1.530632 1.566861,1.5306423 0 0 0 1.566933,1.530636 1.566861,1.5306423 0 0 0 1.566934,-1.530636 1.566861,1.5306423 0 0 0 -1.566934,-1.530632 z m -13.089462,0.498431 a 1.566861,1.5306423 0 0 0 -1.566769,1.530633 1.566861,1.5306423 0 0 0 1.566769,1.530633 1.566861,1.5306423 0 0 0 1.566934,-1.530633 1.566861,1.5306423 0 0 0 -1.566934,-1.530633 z" /><path
         id="path6"
         style="fill:#4d4d4d;fill-opacity:0.87451;fill-rule:evenodd;stroke:none;stroke-width:0.115796;stroke-linecap:round;stroke-linejoin:round;stroke-miterlimit:2;paint-order:stroke fill markers"
         d="m 80.9036,95.145663 c -0.07175,-0.0019 -0.143314,9.59e-4 -0.214359,0.0088 -1.663768,0.181469 -2.653847,1.553729 -2.805307,2.713785 -0.206852,1.584326 1.105096,2.560022 2.740192,2.560032 1.635093,0 2.472619,-1.069294 2.472619,-2.66705 0,-1.497894 -1.116922,-2.587343 -2.193145,-2.615521 z m -13.65403,0.82758 c -1.527721,0.0097 -1.950527,1.075119 -1.950528,2.324027 10e-7,1.289189 0.759189,2.45433 2.078614,2.45433 1.319425,0 2.027736,-1.12603 1.980607,-2.414366 -0.07668,-2.096149 -1.921044,-2.360236 -1.957469,-2.361514 -0.0516,-0.0019 -0.101942,-0.0029 -0.151224,-0.0026 z m 13.240686,0.307679 a 1.566861,1.5306423 0 0 1 1.566934,1.530632 1.566861,1.5306423 0 0 1 -1.566934,1.530636 1.566861,1.5306423 0 0 1 -1.566933,-1.530636 1.566861,1.5306423 0 0 1 1.566933,-1.530632 z m -13.089462,0.498431 a 1.566861,1.5306423 0 0 1 1.566934,1.530633 1.566861,1.5306423 0 0 1 -1.566934,1.530633 1.566861,1.5306423 0 0 1 -1.566769,-1.530633 1.566861,1.5306423 0 0 1 1.566769,-1.530633 z" /><path
         id="path8"
         style="fill:#9d7f64;fill-opacity:0.87451;stroke:none;stroke-width:0.115796px;stroke-linecap:butt;stroke-linejoin:miter;stroke-opacity:1"
         d="m 83.069641,87.317767 c -0.04806,-0.0025 -0.09595,-0.0016 -0.143951,0.0025 -0.672042,0.05686 -1.372992,0.717984 -3.065282,0.881088 -0.985896,0.09502 -1.982138,-0.01409 -2.973225,-0.115276 0.647953,5.240129 -2.941368,5.749251 -2.355773,8.632521 0.819446,4.03468 3.963292,2.103257 5.547486,7.74648 1.037416,3.69546 2.150376,5.61583 3.73149,6.72864 0.597364,-1.44075 0.867748,-2.83568 1.257051,-4.36234 0.50337,-1.97399 1.462689,-2.57437 1.67816,-4.2132 0.09026,-0.68647 -0.184759,-1.3471 -0.247904,-1.99025 -0.09142,-0.931139 -0.04984,-1.824954 0.182789,-2.66342 0.05547,-0.199916 0.968591,-0.279609 1.149954,-0.200165 0.01023,0.0045 0.02415,0.02234 0.03603,0.03303 -1.637591,-5.121857 -4.13105,-7.729527 -4.073105,-10.3108 -0.180429,-0.05643 -0.370091,-0.108266 -0.578613,-0.150454 -0.04882,-0.0099 -0.09705,-0.01582 -0.145108,-0.01833 z m -11.892405,1.214201 c -0.802538,0.187561 -1.598023,0.367299 -2.720857,0.461601 -1.038101,0.08719 -1.868096,0.01116 -2.591779,-0.054 -0.810546,3.844307 -3.54002,3.237029 -5.182238,7.787434 0.147935,0.143947 -0.138401,0.874794 0.120814,1.554746 0.160131,0.420043 0.476208,0.251881 0.713309,0.694797 0.204562,0.38213 -0.15789,1.473654 0.141637,1.853174 0.195838,0.24814 0.813015,0.13417 1.048645,0.5929 0.342507,0.66679 0.29671,1.6959 0.610841,2.75523 0.281909,0.95069 0.936983,1.90126 1.031292,3.04493 4.373876,-0.43935 3.155254,-3.57542 5.467494,-5.32899 3.561317,-2.700815 3.93951,-5.852581 1.360842,-13.361817 z m 9.726364,6.613695 c 1.076219,0.02819 2.193145,1.117627 2.193145,2.615521 0,1.597756 -0.837529,2.667046 -2.472619,2.667046 -1.635096,0 -2.947044,-0.975702 -2.740192,-2.560029 0.15146,-1.160052 1.141542,-2.532315 2.805307,-2.713785 0.07104,-0.0077 0.142611,-0.01064 0.214359,-0.0088 z m -13.65403,0.82758 c 0.04928,-3.1e-4 0.09962,6.39e-4 0.151224,0.0026 0.03642,0.0013 1.880789,0.265368 1.957469,2.361514 0.04713,1.288336 -0.661184,2.414363 -1.980607,2.414363 -1.319423,0 -2.078613,-1.165142 -2.078614,-2.454328 10e-7,-1.248908 0.422809,-2.314387 1.950528,-2.324026 z"
         sodipodi:nodetypes="ccscsscsssssccsccsccsssssccccsssscscssss" /><path
         id="path10"
         style="fill:#432b17;fill-opacity:0.87451;stroke:none;stroke-width:0.115796px;stroke-linecap:butt;stroke-linejoin:miter;stroke-opacity:1"
         d="m 83.793362,87.486553 c -0.05795,2.581303 2.435514,5.188996 4.073105,10.310965 0.394595,0.355498 1.672125,4.009812 2.273467,3.311302 0.580299,-0.67406 -0.651103,-1.609954 1.257547,-3.751268 0.695997,-0.780837 1.24124,-2.100496 1.081532,-2.417171 -0.644803,-1.278544 -2.772177,-2.315708 -4.886897,-3.917253 -1.345967,-1.019344 -1.500513,-2.817863 -3.798754,-3.536575 z m -19.165981,1.385794 c -0.334553,0.008 -0.653114,0.05042 -0.969975,0.154583 -1.114097,0.366228 -2.555198,1.629268 -3.330376,3.079762 -0.885763,1.65742 -1.461448,3.738079 -1.700308,5.635994 -0.18848,1.497609 -0.470904,2.572484 -0.167585,2.544014 1.907703,-0.17917 1.145854,-3.539667 2.14687,-3.586455 0.03396,-0.0016 0.0579,0.0087 0.07635,0.02675 1.642547,-4.551319 4.372788,-3.942734 5.182733,-7.789581 -0.443056,-0.0399 -0.857116,-0.07414 -1.237714,-0.06507 z" /><path
         style="fill:none;stroke:#000000;stroke-width:0.115796px;stroke-linecap:butt;stroke-linejoin:miter;stroke-opacity:1"
         d="m 63.657396,89.026849 c 1.267448,-0.416637 2.562026,0.154572 4.798947,-0.0333 2.315143,-0.194438 3.247366,-0.748065 5.691873,-0.997166 1.868168,-0.190371 3.809446,0.388317 5.712112,0.204936 1.934057,-0.186406 2.573305,-1.02324 3.354357,-0.865221 2.864592,0.579552 2.925754,2.587596 4.377393,3.686968 2.114722,1.601548 4.24211,2.638824 4.886913,3.917367 0.159708,0.316678 -0.385517,1.636254 -1.081513,2.417091 -1.90865,2.141317 -0.677258,3.077196 -1.257556,3.751266 -0.61949,0.71958 -1.959544,-3.191096 -2.309512,-3.344393 -0.181363,-0.07944 -1.094452,2.33e-4 -1.149918,0.200149 -0.23263,0.838478 -0.274191,1.732243 -0.182774,2.663374 0.06315,0.64317 0.338119,1.30376 0.247863,1.99023 -0.215471,1.63883 -1.174749,2.23921 -1.678118,4.21321 -0.561151,2.20057 -0.858759,4.12502 -2.275697,6.31209 -2.813057,4.34199 -6.911856,3.91766 -10.013238,3.87919 -2.798279,-0.0347 -5.948904,-0.59991 -7.48668,-5.0781 -0.412252,-1.20053 -0.801952,-3.01207 -0.942933,-4.72172 -0.09431,-1.14368 -0.749466,-2.09425 -1.031376,-3.04493 -0.314132,-1.05935 -0.26827,-2.08846 -0.610779,-2.75526 -0.235631,-0.45873 -0.852869,-0.34477 -1.048708,-0.59291 -0.299529,-0.37951 0.06293,-1.470971 -0.141636,-1.853101 -0.237102,-0.442916 -0.553026,-0.274757 -0.713159,-0.6948 -0.291521,-0.764695 0.108282,-1.595906 -0.197306,-1.581623 -1.001017,0.04679 -0.239132,3.407394 -2.146838,3.586564 -0.303319,0.0285 -0.02093,-1.046492 0.167552,-2.544102 0.23886,-1.897917 0.814666,-3.978621 1.70043,-5.636041 0.775179,-1.450497 2.216204,-2.713541 3.330301,-3.07977 z"
         id="path1"
         sodipodi:nodetypes="ssssssssssssssssssssssssssss" /></g><path
       d="m 104.78597,115.26396 q -1.79371,0.37191 -3.09303,-0.33254 -1.26965,-0.68498 -1.58043,-2.18382 -0.193592,-0.93372 0.0856,-1.81172 0.27926,-0.87799 0.94926,-1.47822 0.66492,-0.62479 1.57406,-0.8133 0.93372,-0.1936 1.59567,0.156 0.6865,0.34458 0.84445,1.1063 0.12232,0.58971 -0.0768,0.98976 -0.28228,-0.24901 -0.71107,-0.3395 -0.40424,-0.0956 -0.82196,-0.01 -0.73714,0.15278 -1.10211,0.74107 -0.36496,0.58822 -0.20193,1.3745 0.16303,0.7863 0.70723,1.18601 0.56874,0.39464 1.25675,0.25198 0.85999,-0.17831 1.31635,-1.0674 0.45634,-0.88909 0.46498,-2.45418 l 0.10261,-5.68502 -0.0983,0.0204 q -0.46982,1.07127 -1.32623,1.76139 -0.83181,0.68502 -1.9621,0.91938 -1.42513,0.29551 -2.66421,-0.24204 -1.239083,-0.53754 -2.119203,-1.81585 -0.86064,-1.30796 -1.247849,-3.17539 -0.560421,-2.702863 0.160466,-5.158837 0.715821,-2.480549 2.51489,-4.186225 1.799066,-1.705676 4.280786,-2.220247 2.08858,-0.433055 3.48107,0.226445 1.4171,0.654405 1.74315,2.226977 0.21908,1.056573 -0.16446,1.802419 -0.38352,0.745848 -1.21896,0.91907 -0.46686,0.0968 -0.92533,-0.01315 -0.43391,-0.115063 -0.78062,-0.427585 0.38116,-0.386561 0.54355,-1.086556 0.18187,-0.729662 0.0444,-1.393091 -0.15278,-0.737143 -0.67665,-1.03858 -0.50431,-0.331103 -1.29061,-0.168072 -1.42515,0.295497 -2.48707,1.848329 -1.06703,1.528261 -1.45502,3.735818 -0.38798,2.207557 0.0755,4.443565 0.38211,1.84286 1.17561,2.70343 0.78841,0.83602 1.89414,0.60676 1.32685,-0.27511 2.04388,-1.88457 0.7416,-1.61455 0.80055,-4.420223 l 2.90454,-0.576614 -0.0819,8.627937 q -0.0273,3.82417 -1.12025,5.84477 -1.06851,2.01549 -3.35366,2.48931 z m 11.44165,-6.87794 q -1.85385,0.10758 -2.98632,-0.78189 -1.13248,-0.88946 -1.25168,-2.94372 -0.0988,-1.70353 0.48193,-3.82355 0.58079,-2.120013 2.04679,-3.713254 1.46453,-1.618299 3.81942,-1.754951 3.20664,-0.186079 3.43925,3.822232 l 10e-4,0.02501 q 0.0766,0.02068 0.27702,0.0096 0.82672,-0.04794 1.87923,-0.536373 1.05109,-0.513442 1.89156,-1.190621 l 0.26471,0.663318 q -0.68144,0.818768 -1.8269,1.438236 -1.12186,0.592963 -2.48663,0.898383 -0.0681,2.29136 -0.79598,4.04287 -0.72786,1.7515 -1.97677,2.75401 -1.24892,1.00252 -2.7771,1.09119 z m 0.87123,-2.31282 q 0.60124,-0.0349 1.16324,-0.74618 0.56054,-0.73635 0.94315,-1.93996 0.38117,-1.22866 0.49726,-2.6933 -0.68514,-0.1111 -0.73747,-1.01293 -0.0596,-1.027134 0.69812,-1.397862 -0.0981,-0.823813 -0.31594,-1.112806 -0.21932,-0.314043 -0.72036,-0.284969 -0.82672,0.04798 -1.53354,1.295533 -0.70683,1.247565 -1.08542,2.953664 -0.37858,1.7061 -0.30445,2.98375 0.0697,1.20248 0.37007,1.61237 0.29884,0.38484 1.02534,0.34269 z m 10.35863,2.13887 q -1.8526,-0.12713 -2.86387,-1.1523 -1.01123,-1.02517 -0.8704,-3.07806 0.11671,-1.7024 0.96033,-3.73223 0.84355,-2.029839 2.49878,-3.425469 1.65694,-1.420665 4.01026,-1.25922 3.20451,0.21984 2.9297,4.225475 l -10e-4,0.02501 q 0.0734,0.03014 0.27367,0.04393 0.82617,0.05675 1.93186,-0.295057 1.10744,-0.376788 2.02661,-0.942548 l 0.17894,0.691404 q -0.77926,0.726275 -1.9937,1.196335 -1.1877,0.44674 -2.58009,0.57759 -0.35656,2.26447 -1.29953,3.91017 -0.94295,1.64573 -2.30833,2.48272 -1.36536,0.83699 -2.89252,0.73224 z m 1.15598,-2.18448 q 0.60084,0.0412 1.24806,-0.59351 0.64895,-0.65976 1.18031,-1.8055 0.53307,-1.17078 0.83296,-2.60908 -0.66564,-0.19658 -0.60382,-1.09785 0.0704,-1.026445 0.86885,-1.298656 0.006,-0.829603 -0.17307,-1.143767 -0.17797,-0.339196 -0.67865,-0.373548 -0.82617,-0.05667 -1.68471,1.091773 -0.85853,1.14845 -1.44927,2.793178 -0.59073,1.64472 -0.67833,2.92153 -0.0824,1.20168 0.16375,1.64617 0.2479,0.41946 0.97392,0.46926 z m 9.3678,3.33856 q -1.40177,-0.28456 -2.14158,-1.43337 -0.7398,-1.14882 -0.32543,-3.18999 0.36943,-1.81985 1.48698,-3.66705 1.14715,-1.866817 2.85309,-2.954435 1.73552,-1.107218 3.72752,-0.702838 1.00828,0.204689 1.43024,0.648829 0.42196,0.444146 0.30713,1.009762 l -0.0199,0.09844 2.35327,-5.411639 3.73953,0.247022 -5.52401,12.705809 q -0.17326,0.3489 -0.24314,0.6932 -0.1997,0.9837 0.80858,1.18838 0.44268,0.0899 0.81692,0.0128 -0.34799,1.20966 -1.26973,1.71389 -0.89218,0.48463 -1.94966,0.26996 -0.98369,-0.19969 -1.57244,-0.83131 -0.55915,-0.65125 -0.57081,-1.72906 -1.8899,1.74162 -3.90648,1.33226 z m 2.08278,-2.06095 q 0.54104,0.10982 1.17692,-0.24761 0.66048,-0.35242 1.10074,-1.13365 l 0.17824,-0.37352 2.34829,-5.38704 q -0.0467,-0.905655 -0.83356,-1.065416 -0.98369,-0.199697 -2.00529,0.796399 -1.01662,0.971487 -1.78878,2.504727 -0.76716,1.50864 -1.01679,2.73828 -0.24961,1.22962 0.0249,1.6438 0.299,0.41917 0.81544,0.52403 z"
       id="text11"
       style="font-size:19.7556px;line-height:1.25;font-family:Lobster;-inkscape-font-specification:'Lobster, Normal';letter-spacing:0px;word-spacing:0px;stroke-width:0.264582"
       aria-label="Good" /><path
       d="m 104.76176,212.3175 -0.27353,-0.0504 q -1.64113,-0.30225 -2.77181,0.67213 -1.10124,0.9541 -1.63245,3.83853 -0.169449,0.92002 -0.0641,1.32507 0.11001,0.38017 0.1008,0.42991 -1.342758,-0.2473 -1.91338,-0.91797 -0.541206,-0.69098 -0.303055,-1.984 0.325137,-1.76548 1.461049,-3.0474 1.140486,-1.30679 3.195136,-1.85392 2.07952,-0.54255 5.01367,-0.003 0.89518,0.16486 2.4205,0.67715 0.14458,0.0523 1.14121,0.36444 1.02147,0.31666 2.09068,0.51358 1.86495,0.34346 3.69256,0.19157 -0.60064,1.58619 -1.52783,2.57234 -0.92259,0.96128 -2.26535,0.71398 -0.89516,-0.16484 -1.55934,-0.46714 -0.6596,-0.32714 -1.56068,-0.87873 -0.92594,-0.55617 -1.84531,-1.00827 l -1.98514,4.77623 3.13308,0.577 -0.73671,1.76679 -3.13309,-0.57701 -3.73599,8.97857 -3.58068,-0.65943 z m 4.52237,18.16081 q -1.19356,-0.2198 -1.80214,-1.10317 -0.58373,-0.87876 -0.30895,-2.37071 0.11436,-0.62165 0.49659,-1.57965 l 3.16086,-7.67049 3.58066,0.65945 -3.34732,8.12461 q -0.16816,0.35468 -0.24602,0.77739 -0.0916,0.49731 0.0909,0.76233 0.21203,0.24472 0.75909,0.34547 0.7211,0.13278 1.45265,-0.34949 0.73613,-0.50716 1.18825,-1.42655 l 1.04437,0.19234 q -1.41463,2.51606 -3.03544,3.22021 -1.61623,0.67929 -3.03357,0.41826 z m 10.68796,0.82268 q -1.71913,-0.0234 -2.61792,-0.87006 -0.89844,-0.87196 -0.87746,-2.41413 0.01,-0.75844 0.19657,-1.43865 l 2.87747,-12.62925 3.74856,-0.45472 -1.29093,5.67184 q 0.71375,-0.42015 1.17052,-0.54037 0.45714,-0.14554 0.9122,-0.13924 2.98324,0.0405 2.92441,4.36373 -0.0238,1.74443 -0.7335,3.73239 -0.68416,1.96302 -2.27089,3.35745 -1.56142,1.39479 -4.03903,1.36108 z m 1.44915,-2.43303 q 0.78372,0.01 1.4794,-0.94077 0.69602,-0.97668 1.12013,-2.41223 0.42445,-1.46082 0.44268,-2.80075 0.0145,-1.01126 -0.33054,-1.72396 -0.34432,-0.71271 -0.97637,-0.7213 -0.37922,-0.005 -0.86129,0.11469 -0.45643,0.095 -0.63651,0.32006 l -1.47785,6.40261 q -0.08,0.30234 -0.0837,0.58044 -0.0161,1.16294 1.3241,1.18117 z m 12.21109,2.01204 q -1.86058,0.1973 -2.99276,-0.64879 -1.13486,-0.87127 -1.3535,-2.93298 -0.18397,-1.73487 0.27356,-3.89372 0.45755,-2.15884 1.83129,-3.83008 1.37106,-1.69638 3.73449,-1.94701 2.76572,-0.29332 3.0217,2.1204 0.14926,1.40802 -0.52993,2.67505 -0.67925,1.26704 -1.93451,2.13752 -1.2579,0.84531 -2.75581,1.10588 0.0297,0.75962 0.0564,1.01103 0.13068,1.23201 0.60608,1.63926 0.47276,0.38209 1.42819,0.28078 1.35772,-0.14393 2.24648,-0.87389 0.91392,-0.73258 1.93449,-2.13751 l 0.85488,-0.0906 q -2.29757,4.94741 -6.42102,5.38471 z m -0.63231,-6.44192 q 0.92494,-0.14894 1.69067,-0.84037 0.79085,-0.6941 1.19506,-1.67772 0.42935,-0.98626 0.32002,-2.01713 -0.10936,-1.03087 -0.73789,-0.9642 -0.90515,0.0959 -1.61716,1.77333 -0.68688,1.67464 -0.8507,3.72609 z m 11.34637,4.876 q -1.18784,0.24881 -2.0978,-0.0255 -0.91513,-0.29913 -1.46141,-0.93385 -0.55146,-0.65946 -0.71732,-1.45137 -0.17107,-0.81664 0.10047,-1.4935 0.24159,-0.69643 0.72901,-1.08267 0.60228,-1.93445 0.95189,-3.8418 0.34444,-1.9321 0.55762,-4.12086 l 3.55885,-1.26212 q 0.78724,3.14169 1.85657,6.76677 0.43475,1.45887 0.57472,2.12705 0.31619,1.50955 -0.24879,2.63538 -0.565,1.12582 -1.61524,1.78496 -1.02547,0.65395 -2.18857,0.89758 z m -1.2014,-1.78911 q 0.91563,-0.1918 1.42027,-0.86582 0.50461,-0.67401 0.25062,-1.88662 -0.15556,-0.74239 -0.5839,-2.04763 -0.8384,-2.7693 -1.1148,-3.71887 -0.18443,2.07939 -1.02479,5.09702 0.63139,0.17774 0.7506,0.74692 0.0985,0.47018 -0.14538,0.90878 -0.21922,0.4334 -0.6894,0.5319 -0.51967,0.10872 -0.73555,-0.18176 0.18662,0.89088 0.62118,1.23901 0.45934,0.34295 1.25124,0.17707 z"
       id="text13"
       style="font-size:19.7556px;line-height:1.25;font-family:Lobster;-inkscape-font-specification:'Lobster, Normal';letter-spacing:0px;word-spacing:0px;stroke-width:0.264583"
       aria-label="Fibes" /><path
       id="path31"
       style="fill:none;fill-rule:evenodd;stroke:#000000;stroke-width:0.999997;stroke-linecap:round;stroke-dasharray:none;paint-order:stroke fill markers"
       d="M 175.04978 137.10061 A 58.205326 58.205326 0 0 1 180.50691 161.70728 L 180.50691 161.70728 A 58.205326 58.205326 0 0 1 175.04926 186.31504 " /><path
       id="path33"
       style="fill:none;fill-rule:evenodd;stroke:#000000;stroke-width:0.999997;stroke-linecap:round;stroke-dasharray:none;paint-order:stroke fill markers"
       d="M 69.553904 186.31504 A 58.205326 58.205326 0 0 1 64.096256 161.70728 A 58.205326 58.205326 0 0 1 69.553734 137.09987 " /><path
       id="circle14"
       style="fill:none;fill-rule:evenodd;stroke:#000000;stroke-width:1;stroke-linecap:round;stroke-dasharray:none;paint-order:stroke fill markers"
       d="M 179.45692 132.06615 A 64.384232 64.384232 0 0 1 186.68581 161.70728 L 186.68581 161.70728 A 64.384232 64.384232 0 0 1 179.42331 191.41312 " /><path
       id="path26"
       style="fill:none;fill-rule:evenodd;stroke:#000000;stroke-width:1;stroke-linecap:round;stroke-dasharray:none;paint-order:stroke fill markers"
       d="M 65.17985 191.41312 A 64.384232 64.384232 0 0 1 57.917351 161.70728 A 64.384232 64.384232 0 0 1 65.17985 132.00144 " /><path
       id="circle15"
       style="fill:none;fill-rule:evenodd;stroke:#000000;stroke-width:1;stroke-linecap:round;stroke-dasharray:none;paint-order:stroke fill markers"
       d="M 185.85128 132.06948 A 70.121063 70.121063 0 0 1 192.42265 161.70728 L 192.42265 161.70728 A 70.121063 70.121063 0 0 1 185.84468 191.35924 " /><path
       id="path24"
       style="fill:none;fill-rule:evenodd;stroke:#000000;stroke-width:1;stroke-linecap:round;stroke-dasharray:none;paint-order:stroke fill markers;marker-start:"
       d="M 58.758488 191.35923 A 70.121063 70.121063 0 0 1 52.180519 161.70728 A 70.121063 70.121063 0 0 1 58.758775 132.0547 " /><path
       d="m 152.63299,104.35017 2.64054,1.61528 2.35431,-2.00671 -0.71004,3.01255 2.63612,1.61259 -3.08549,0.25094 -0.71176,3.00544 -1.1976,-2.86495 -3.09162,0.24114 2.34721,-2.00501 z m 8.09299,5.0752 2.37474,1.98548 2.62345,-1.63928 -1.14468,2.87564 2.37078,1.98218 -3.0889,-0.20483 -1.14534,2.86837 -0.76395,-3.00974 -3.09351,-0.21542 2.61616,-1.63864 z m 7.26009,6.20848 2.05748,2.31265 2.8357,-1.23632 -1.5545,2.67641 2.05404,2.30879 -3.02535,-0.65614 -1.55407,2.66911 -0.31376,-3.0893 -3.02836,-0.66731 2.82841,-1.23674 z"
       id="text15"
       style="font-size:10.5833px;line-height:1.25;letter-spacing:0px;word-spacing:0px;stroke-width:0.264583"
       aria-label="★★★"
       inkscape:transform-center-x="-40.121539"
       inkscape:transform-center-y="-47.87371" /><path
       d="m 173.37879,201.72051 -2.05752,2.31261 1.5579,2.67258 -2.83913,-1.2325 -2.05407,2.30875 0.29963,-3.08114 -2.83182,-1.23293 3.03181,-0.67112 0.31036,-3.08543 1.55747,2.66527 z m -6.42903,7.06626 -2.37479,1.98543 1.14858,2.87237 -2.62737,-1.63603 -2.37082,1.98212 0.74881,-3.00376 -2.62009,-1.63537 3.09749,-0.21866 0.76005,-3.00642 1.14923,2.86508 z m -7.39692,6.04567 -2.64059,1.61521 0.71437,3.00988 -2.35866,-2.00409 -2.63618,1.61251 1.18177,-2.86124 -2.35157,-2.00237 3.09602,0.23853 1.19327,-2.86224 0.71608,3.00278 z"
       id="text16"
       style="font-size:10.5833px;line-height:1.25;letter-spacing:0px;word-spacing:0px;stroke-width:0.264583"
       aria-label="★★★"
       inkscape:transform-center-x="-40.118804"
       inkscape:transform-center-y="47.87718" /><path
       d="m 71.227704,121.68981 2.057706,-2.31245 -1.557677,-2.67271 2.839019,1.23274 2.054269,-2.30858 -0.299892,3.08112 2.831722,1.23316 -3.031858,0.67086 -0.310625,3.08542 -1.55725,-2.66541 z m 6.42961,-7.06574 2.374952,-1.98523 -1.148343,-2.87247 2.627236,1.63625 2.370987,-1.98192 -0.749063,3.00369 2.619957,1.63559 -3.097503,0.21841 -0.760308,3.00635 -1.148993,-2.86518 z m 7.397434,-6.04505 2.640715,-1.61499 -0.714115,-3.00994 2.358499,2.00428 2.636305,-1.61229 -1.181995,2.86115 2.351395,2.00256 -3.095998,-0.23879 -1.193509,2.86213 -0.715828,-3.00283 z"
       id="text17"
       style="font-size:10.5833px;line-height:1.35;letter-spacing:0px;word-spacing:0px;stroke-width:0.264583"
       aria-label="★★★"
       inkscape:transform-center-x="40.114957"
       inkscape:transform-center-y="-47.880525" /><path
       d="m 91.976154,219.06848 -2.640714,-1.61499 -2.35409,2.00697 0.709706,-3.01263 -2.636306,-1.6123 3.08547,-0.25128 0.711418,-3.00553 1.197917,2.86483 3.09159,-0.24149 -2.346985,2.00527 z m -8.093999,-5.07463 -2.374953,-1.98523 -2.623271,1.63956 1.144377,-2.87577 -2.370988,-1.98193 3.088924,0.2045 1.145027,-2.86849 0.764273,3.00967 3.093538,0.21509 -2.615991,1.63891 z m -7.26113,-6.2081 -2.057706,-2.31245 -2.835583,1.23659 1.554241,-2.67656 -2.054271,-2.30859 3.025413,0.65586 1.553815,-2.66927 0.31406,3.08927 3.028424,0.667 -2.828287,1.23702 z"
       id="text18"
       style="font-size:10.5833px;line-height:1.25;letter-spacing:0px;word-spacing:0px;stroke-width:0.264583"
       aria-label="★★★"
       inkscape:transform-center-x="40.117159"
       inkscape:transform-center-y="47.878645" /></g></svg>
