<?xml version="1.0" encoding="UTF-8" standalone="no"?>
<!-- Created with Inkscape (http://www.inkscape.org/) -->

<svg
   width="121mm"
   height="152mm"
   viewBox="0 0 121 152"
   version="1.1"
   id="svg1"
   inkscape:version="1.3 (1:1.3+202307231459+0e150ed6c4)"
   sodipodi:docname="template A6 × spring #11.svg"
   xml:space="preserve"
   xmlns:inkscape="http://www.inkscape.org/namespaces/inkscape"
   xmlns:sodipodi="http://sodipodi.sourceforge.net/DTD/sodipodi-0.dtd"
   xmlns="http://www.w3.org/2000/svg"
   xmlns:svg="http://www.w3.org/2000/svg"><sodipodi:namedview
     id="namedview1"
     pagecolor="#ffffff"
     bordercolor="#666666"
     borderopacity="1.0"
     inkscape:showpageshadow="2"
     inkscape:pageopacity="0.0"
     inkscape:pagecheckerboard="0"
     inkscape:deskcolor="#d1d1d1"
     inkscape:document-units="mm"
     showguides="true"
     inkscape:zoom="1.045059"
     inkscape:cx="-23.443652"
     inkscape:cy="212.4282"
     inkscape:window-width="1920"
     inkscape:window-height="1136"
     inkscape:window-x="0"
     inkscape:window-y="27"
     inkscape:window-maximized="1"
     inkscape:current-layer="layer1"
     showgrid="false" /><defs
     id="defs1" /><g
     inkscape:label="layout"
     inkscape:groupmode="layer"
     id="layer1"
     transform="translate(-132.52135,-93.842567)"><rect
       style="fill:none;fill-rule:evenodd;stroke:#000000;stroke-width:1;stroke-linecap:round;stroke-dasharray:none;paint-order:stroke fill markers"
       id="cover"
       width="120"
       height="151"
       x="133.02135"
       y="94.342567"
       rx="2"
       ry="2"
       inkscape:label="cover" /><path
       id="holes"
       style="fill:none;fill-rule:evenodd;stroke:#000000;stroke-width:1;stroke-linecap:round;stroke-dasharray:none;paint-order:stroke fill markers"
       d="m 136.82135,102.84278 v 6.49986 h 6.49986 v -6.49986 z m 0,12.74961 v 6.50038 h 6.49986 v -6.50038 z m 0,12.75013 v 6.49986 h 6.49986 v -6.49986 z m 0,12.75012 v 6.49986 h 6.49986 v -6.49986 z m 0,12.75013 v 6.49986 h 6.49986 v -6.49986 z m 0,12.74961 v 6.50038 h 6.49986 v -6.50038 z m 0,12.75012 v 6.49986 h 6.49986 v -6.49986 z m 0,12.75013 v 6.49986 h 6.49986 v -6.49986 z m 0,12.75013 v 6.49986 h 6.49986 v -6.49986 z m 0,12.7496 v 6.50038 h 6.49986 v -6.50038 z m 0,12.75013 v 6.49986 h 6.49986 v -6.49986 z"
       inkscape:label="holes" /></g></svg>
