<?xml version="1.0" encoding="UTF-8" standalone="no"?>
<!-- Created with Inkscape (http://www.inkscape.org/) -->

<svg
   width="331mm"
   height="217.00003mm"
   viewBox="0 0 331 217.00004"
   version="1.1"
   id="svg1"
   inkscape:version="1.3 (1:1.3+202307231459+0e150ed6c4)"
   sodipodi:docname="template.svg"
   xml:space="preserve"
   xmlns:inkscape="http://www.inkscape.org/namespaces/inkscape"
   xmlns:sodipodi="http://sodipodi.sourceforge.net/DTD/sodipodi-0.dtd"
   xmlns="http://www.w3.org/2000/svg"
   xmlns:svg="http://www.w3.org/2000/svg"><sodipodi:namedview
     id="namedview1"
     pagecolor="#ffffff"
     bordercolor="#666666"
     borderopacity="1.0"
     inkscape:showpageshadow="2"
     inkscape:pageopacity="0.0"
     inkscape:pagecheckerboard="0"
     inkscape:deskcolor="#d1d1d1"
     inkscape:document-units="mm"
     showguides="false"
     inkscape:zoom="0.45254834"
     inkscape:cx="-197.76893"
     inkscape:cy="711.5262"
     inkscape:window-width="1920"
     inkscape:window-height="1136"
     inkscape:window-x="0"
     inkscape:window-y="27"
     inkscape:window-maximized="1"
     inkscape:current-layer="layer1"><sodipodi:guide
       position="86.547166,108.50007"
       orientation="1,0"
       id="guide11"
       inkscape:locked="false" /><sodipodi:guide
       position="86.547162,108.50008"
       orientation="0,-1"
       id="guide33"
       inkscape:locked="false" /></sodipodi:namedview><defs
     id="defs1" /><g
     inkscape:label="layout"
     inkscape:groupmode="layer"
     id="layer1"
     transform="translate(-35.754417,-53.207302)"><path
       id="page"
       style="display:none;fill:none;fill-rule:evenodd;stroke:#808080;stroke-linecap:round;paint-order:stroke fill markers"
       d="m 48.754417,201.70731 a 2.5,2.5 0 0 1 -2.5,2.5 2.5,2.5 0 0 1 -2.5,-2.5 2.5,2.5 0 0 1 2.5,-2.5 2.5,2.5 0 0 1 2.5,2.5 z m 0,-80.00001 a 2.5,2.5 0 0 1 -2.5,2.5 2.5,2.5 0 0 1 -2.5,-2.5 2.5,2.5 0 0 1 2.5,-2.5 2.5,2.5 0 0 1 2.5,2.5 z m -9.5,-64.999998 H 187.75442 V 266.7073 H 39.254417 Z"
       inkscape:label="page"
       sodipodi:insensitive="true" /><path
       id="back"
       style="fill:none;fill-rule:evenodd;stroke:#000000;stroke-linecap:round;paint-order:stroke fill markers"
       d="m 216.33084,218.70731 c 0,0.82843 -0.67158,1.5 -1.5,1.5 -0.82843,0 -1.5,-0.67157 -1.5,-1.5 0,-0.82843 0.67157,-1.5 1.5,-1.5 0.82842,0 1.5,0.67157 1.5,1.5 z m 0,-114 c 0,0.82843 -0.67158,1.5 -1.5,1.5 -0.82843,0 -1.5,-0.67157 -1.5,-1.5 0,-0.82843 0.67157,-1.5 1.5,-1.5 0.82842,0 1.5,0.67157 1.5,1.5 z M 204.75443,53.707302 h 159.5 c 1.108,0 2,0.892 2,2 V 267.70733 c 0,1.108 -0.892,2 -2,2 h -159.5 c -1.108,0 -2,-0.892 -2,-2 V 55.707302 c 0,-1.108 0.892,-2 2,-2 z"
       sodipodi:nodetypes="sssssssssssssssssss"
       inkscape:label="back" /><path
       id="front"
       style="fill:none;fill-rule:evenodd;stroke:#000000;stroke-linecap:round;paint-order:stroke fill markers"
       d="m 48.754417,201.70731 a 2.5,2.5 0 0 1 -2.5,2.5 2.5,2.5 0 0 1 -2.5,-2.5 2.5,2.5 0 0 1 2.5,-2.5 2.5,2.5 0 0 1 2.5,2.5 z m 0,-80.00001 a 2.5,2.5 0 0 1 -2.5,2.5 2.5,2.5 0 0 1 -2.5,-2.5 2.5,2.5 0 0 1 2.5,-2.5 2.5,2.5 0 0 1 2.5,2.5 z m -10.5,-67.999998 H 197.75442 c 1.108,0 2,0.892 2,2 V 267.70732 c 0,1.108 -0.892,2 -2,2 H 38.254417 c -1.108,0 -2,-0.892 -2,-2 V 55.707302 c 0,-1.108 0.892,-2 2,-2 z"
       inkscape:label="front"
       transform="translate(1.1666667e-6)" /></g></svg>
