<?xml version="1.0" encoding="UTF-8" standalone="no"?>
<!-- Created with Inkscape (http://www.inkscape.org/) -->

<svg
   width="324.00015mm"
   height="217.00002mm"
   viewBox="0 0 324.00015 217.00002"
   version="1.1"
   id="svg1"
   inkscape:version="1.3 (0e150ed6c4, 2023-07-21)"
   sodipodi:docname="template.svg"
   xml:space="preserve"
   xmlns:inkscape="http://www.inkscape.org/namespaces/inkscape"
   xmlns:sodipodi="http://sodipodi.sourceforge.net/DTD/sodipodi-0.dtd"
   xmlns="http://www.w3.org/2000/svg"
   xmlns:svg="http://www.w3.org/2000/svg"><sodipodi:namedview
     id="namedview1"
     pagecolor="#ffffff"
     bordercolor="#666666"
     borderopacity="1.0"
     inkscape:showpageshadow="2"
     inkscape:pageopacity="0.0"
     inkscape:pagecheckerboard="0"
     inkscape:deskcolor="#d1d1d1"
     inkscape:document-units="mm"
     showguides="true"
     inkscape:zoom="0.52252952"
     inkscape:cx="626.75885"
     inkscape:cy="379.88285"
     inkscape:window-width="1920"
     inkscape:window-height="1011"
     inkscape:window-x="0"
     inkscape:window-y="32"
     inkscape:window-maximized="1"
     inkscape:current-layer="layer1"
     showgrid="false" /><defs
     id="defs1" /><g
     inkscape:label="layout"
     inkscape:groupmode="layer"
     id="layer1"
     transform="translate(-35.754418,-53.207302)"><path
       id="page"
       style="display:none;fill:none;fill-rule:evenodd;stroke:#808080;stroke-linecap:round;paint-order:stroke fill markers"
       d="m 48.754417,201.70731 a 2.5,2.5 0 0 1 -2.5,2.5 2.5,2.5 0 0 1 -2.5,-2.5 2.5,2.5 0 0 1 2.5,-2.5 2.5,2.5 0 0 1 2.5,2.5 z m 0,-80.00001 a 2.5,2.5 0 0 1 -2.5,2.5 2.5,2.5 0 0 1 -2.5,-2.5 2.5,2.5 0 0 1 2.5,-2.5 2.5,2.5 0 0 1 2.5,2.5 z m -9.5,-64.999998 H 187.75442 V 266.7073 H 39.254417 Z"
       inkscape:label="page"
       sodipodi:insensitive="true" /><path
       id="front"
       style="fill:none;fill-rule:evenodd;stroke:#000000;stroke-linecap:round;paint-order:stroke fill markers"
       d="m 48.754417,201.70731 c 0,1.38071 -1.119288,2.5 -2.5,2.5 -1.380712,0 -2.5,-1.11929 -2.5,-2.5 0,-1.38071 1.119288,-2.5 2.5,-2.5 1.380712,0 2.5,1.11929 2.5,2.5 z m 0,-80.00001 c 0,1.38071 -1.119288,2.5 -2.5,2.5 -1.380712,0 -2.5,-1.11929 -2.5,-2.5 0,-1.38071 1.119288,-2.5 2.5,-2.5 1.380712,0 2.5,1.11929 2.5,2.5 z m -10.5,-67.999998 H 190.75442 c 1.108,0 2,0.892 2,2 V 267.70732 c 0,1.108 -0.892,2 -2,2 H 38.254417 c -1.108,0 -2,-0.892 -2,-2 V 55.707302 c 0,-1.108 0.892,-2 2,-2 z"
       inkscape:label="front"
       sodipodi:nodetypes="sssssssssssssssssss"
       transform="translate(1.1666667e-6)" /><path
       id="back"
       style="fill:none;stroke:#000000;paint-order:stroke fill markers"
       d="m 209.33085,218.70731 c 0,0.82843 -0.67158,1.5 -1.50001,1.5 -0.82843,0 -1.50001,-0.67157 -1.50001,-1.5 0,-0.82843 0.67158,-1.50001 1.50001,-1.50001 0.82843,0 1.50001,0.67158 1.50001,1.50001 z m 0,-114 c 0,0.82843 -0.67158,1.50001 -1.50001,1.50001 -0.82843,0 -1.50001,-0.67158 -1.50001,-1.50001 0,-0.82843 0.67158,-1.50001 1.50001,-1.50001 0.82843,0 1.50001,0.67158 1.50001,1.50001 z m -8.57617,126.29173 h -3.00033 c -1.108,0 -1.99988,-0.89188 -1.99988,-1.99988 V 94.415639 c 0,-1.107994 0.89188,-1.999878 1.99988,-1.999878 h 3.00033 c 1.10447,-6.6e-5 1.99981,-0.895406 1.99988,-1.999878 l -6e-5,-34.708414 c -6e-5,-1.104508 0.89537,-1.999939 1.99994,-1.999939 h 152.50025 c 1.108,0 1.99988,0.891886 1.99988,1.999878 V 267.70739 c 0,1.108 -0.89188,1.99988 -1.99988,1.99988 H 204.75444 c -1.108,0 -1.99988,-0.89188 -1.99988,-1.99988 v -34.70848 c -7e-5,-1.10447 -0.89541,-1.9998 -1.99988,-1.99987 z"
       sodipodi:nodetypes="sssssssssscsssscccssssssscc"
       inkscape:label="back" /></g></svg>
